<svg width="50" height="50" viewBox="0 0 50 50" fill="none" xmlns="http://www.w3.org/2000/svg">
<g clip-path="url(#clip0_2172_1302)">
<path d="M45.8333 4.16667V45.8333H4.16667V4.16667H45.8333ZM50 0H0V50H50V0ZM41.6667 14.5833H25V16.6667H41.6667V14.5833ZM41.6667 25H25V27.0833H41.6667V25ZM41.6667 35.4167H25V37.5H41.6667V35.4167ZM19.7583 11.8667L18.2792 10.4167L12.9604 15.8479L9.75417 12.8229L8.3 14.3021L12.9875 18.75L19.7583 11.8667ZM19.7583 22.2833L18.2792 20.8333L12.9625 26.2646L9.75625 23.2396L8.30208 24.7167L12.9875 29.1667L19.7583 22.2833ZM19.7583 32.7L18.2792 31.25L12.9625 36.6812L9.75625 33.6562L8.30208 35.1333L12.9875 39.5833L19.7583 32.7Z" fill="#0E619D"/>
</g>
<defs>
<clipPath id="clip0_2172_1302">
<rect width="50" height="50" fill="white"/>
</clipPath>
</defs>
</svg>
