<svg width="58" height="58" viewBox="0 0 58 58" fill="none" xmlns="http://www.w3.org/2000/svg">
<g clip-path="url(#clip0_3912_19)">
<path d="M7.15609 11.6266C7.65004 11.6266 8.05047 11.2262 8.05047 10.7323C8.05047 10.2383 7.65004 9.83789 7.15609 9.83789C6.66214 9.83789 6.26172 10.2383 6.26172 10.7323C6.26172 11.2262 6.66214 11.6266 7.15609 11.6266Z" stroke="#0E619D" stroke-width="4" stroke-linecap="round" stroke-linejoin="round"/>
<path d="M13.4139 11.6266C13.9079 11.6266 14.3083 11.2262 14.3083 10.7323C14.3083 10.2383 13.9079 9.83789 13.4139 9.83789C12.92 9.83789 12.5195 10.2383 12.5195 10.7323C12.5195 11.2262 12.92 11.6266 13.4139 11.6266Z" stroke="#0E619D" stroke-width="4" stroke-linecap="round" stroke-linejoin="round"/>
<path d="M19.6756 11.6266C20.1696 11.6266 20.57 11.2262 20.57 10.7323C20.57 10.2383 20.1696 9.83789 19.6756 9.83789C19.1817 9.83789 18.7812 10.2383 18.7812 10.7323C18.7812 11.2262 19.1817 11.6266 19.6756 11.6266Z" stroke="#0E619D" stroke-width="4" stroke-linecap="round" stroke-linejoin="round"/>
<path d="M48.2966 16.0987V5.36621H1.78906V16.0987M48.2966 16.0987H1.78906M48.2966 16.0987V29.5143M1.78906 16.0987V44.7187H29.5147" stroke="#0E619D" stroke-width="4" stroke-linecap="round" stroke-linejoin="round"/>
<path d="M42.0344 42.9301C44.5041 42.9301 46.5063 40.928 46.5063 38.4582C46.5063 35.9885 44.5041 33.9863 42.0344 33.9863C39.5646 33.9863 37.5625 35.9885 37.5625 38.4582C37.5625 40.928 39.5646 42.9301 42.0344 42.9301Z" stroke="#0E619D" stroke-width="4" stroke-linecap="round" stroke-linejoin="round"/>
<path d="M55.4511 42.0356L52.4102 40.2469C52.5258 39.6274 52.5857 38.9988 52.5891 38.3687C52.5963 37.6788 52.5364 36.9899 52.4102 36.3116L55.1828 34.8806L51.6053 28.7094L48.8327 30.3193C47.7595 29.4249 46.5074 28.62 45.613 28.62V25.0425H38.458V28.62C37.1689 28.8242 35.9616 29.3814 34.9699 30.2299L32.1974 28.62L28.6199 34.8806L31.303 36.401C31.1757 37.0792 31.1158 37.7682 31.1241 38.4581C31.128 39.0882 31.1879 39.7168 31.303 40.3363L28.3516 42.0356L31.9291 48.2068L34.8805 46.5969C35.8946 47.4807 37.1322 48.0686 38.458 48.2962V51.8737H45.613V48.2962C46.5074 48.2962 47.8489 47.4019 48.9222 46.5075L51.8736 48.2962L55.4511 42.0356Z" stroke="#0E619D" stroke-width="4" stroke-linecap="round" stroke-linejoin="round"/>
</g>
<defs>
<clipPath id="clip0_3912_19">
<rect width="57.24" height="57.24" fill="white"/>
</clipPath>
</defs>
</svg>
