<svg width="50" height="51" viewBox="0 0 50 51" fill="none" xmlns="http://www.w3.org/2000/svg">
<g clip-path="url(#clip0_2172_1293)">
<path fill-rule="evenodd" clip-rule="evenodd" d="M41.1604 42.0247C39.5125 43.1164 37.5375 43.7519 35.4167 43.7519C29.6667 43.7519 25 39.085 25 33.3348C25 27.5846 29.6667 22.9177 35.4167 22.9177C41.1667 22.9177 45.8333 27.5846 45.8333 33.3348C45.8333 35.4557 45.1979 37.4308 44.1062 39.0788L50 44.9728L47.0542 47.9187L41.1604 42.0247ZM25.2146 43.7519H0V2.0835H45.8333V23.1323C44.6375 21.9114 43.2292 20.8989 41.6667 20.1572V6.25034H27.0833V18.7509H18.75V6.25034H4.16667V39.585H22.2396C22.9812 41.1476 23.9937 42.556 25.2146 43.7519ZM35.4167 27.0845C38.8667 27.0845 41.6667 29.8846 41.6667 33.3348C41.6667 36.7849 38.8667 39.585 35.4167 39.585C31.9667 39.585 29.1667 36.7849 29.1667 33.3348C29.1667 29.8846 31.9667 27.0845 35.4167 27.0845ZM32.7958 35.4182H31.7542V31.2514H32.7958V35.4182ZM34.8792 35.4182H33.8375V31.2514H34.8792V35.4182ZM36.9625 35.4182H35.9208V31.2514H36.9625V35.4182ZM39.0292 35.4182H38.0042V31.2514H39.0292V35.4182ZM18.75 31.2514V35.4182H8.33333V31.2514H18.75Z" fill="#0E619D"/>
</g>
<defs>
<clipPath id="clip0_2172_1293">
<rect width="50" height="50.0021" fill="white"/>
</clipPath>
</defs>
</svg>
