<svg width="58" height="58" viewBox="0 0 58 58" fill="none" xmlns="http://www.w3.org/2000/svg">
<g clip-path="url(#clip0_804_667)">
<path d="M20.756 8.8245C18.0037 13.4442 19.2415 21.2909 24.1522 30.3491C26.3703 34.4322 25.8146 37.5518 24.9584 39.4479C22.6163 44.6424 16.1935 46.1235 9.39625 47.6905C4.71211 48.7733 5.01023 49.7654 5.01023 57.24H0.252159L0.240234 54.2802C0.240234 48.27 0.714849 44.7998 7.81976 43.159C15.8453 41.3058 23.7706 39.6459 19.9594 32.622C8.67121 11.8034 16.7397 0 28.8602 0C36.7808 0 43.0987 5.04904 43.0987 14.7083C43.0987 23.187 38.4503 31.005 37.4152 33.39H32.371C33.3059 29.7266 38.3311 22.9771 38.3311 14.6868C38.3311 2.39693 24.3383 2.79761 20.756 8.8245ZM57.4802 46.5075C57.4802 52.4342 52.6697 57.24 46.7477 57.24C40.8258 57.24 36.0152 52.4342 36.0152 46.5075C36.0152 40.5808 40.8258 35.775 46.7477 35.775C52.6697 35.775 57.4802 40.5808 57.4802 46.5075ZM52.7102 45.315H47.9402V40.545H45.5552V45.315H40.7852V47.7H45.5552V52.47H47.9402V47.7H52.7102V45.315Z" fill="#0E619D"/>
</g>
<defs>
<clipPath id="clip0_804_667">
<rect width="57.24" height="57.24" fill="white" transform="translate(0.240234)"/>
</clipPath>
</defs>
</svg>
