<svg width="59" height="58" viewBox="0 0 59 58" fill="none" xmlns="http://www.w3.org/2000/svg">
<g clip-path="url(#clip0_2172_1263)">
<path d="M34.3822 26.235C30.4326 26.235 27.2272 29.4405 27.2272 33.39C27.2272 37.3396 30.4326 40.545 34.3822 40.545C38.3317 40.545 41.5372 37.3396 41.5372 33.39C41.5372 29.4405 38.3317 26.235 34.3822 26.235ZM34.7399 36.9294V37.6807H34.0244V36.9675C33.2827 36.9556 32.5171 36.7791 31.8803 36.45L32.2023 35.2742C32.8868 35.5365 33.7979 35.8204 34.511 35.6606C35.3338 35.4745 35.5008 34.6279 34.5921 34.22C33.9267 33.9124 31.8899 33.6428 31.8899 31.8994C31.8899 30.9239 32.6364 30.051 34.0244 29.8602V29.0994H34.7423V29.8268C35.2599 29.8412 35.8418 29.9294 36.4881 30.1274L36.2306 31.3032C35.682 31.1124 35.0738 30.9359 34.4824 30.9716C33.4186 31.0337 33.3232 31.9567 34.0674 32.343C35.2933 32.9202 36.8864 33.3447 36.8864 34.8783C36.8888 36.1089 35.9253 36.7648 34.7399 36.9294ZM10.5322 19.08V47.7H58.2322V19.08H10.5322ZM53.4622 42.93H15.3022V23.85H53.4622V42.93ZM51.0772 14.31H5.76219V40.545H0.992188V9.54004H51.0772V14.31Z" fill="#0E619D"/>
</g>
<defs>
<clipPath id="clip0_2172_1263">
<rect width="57.24" height="57.24" fill="white" transform="translate(0.992188)"/>
</clipPath>
</defs>
</svg>
