<svg width="59" height="58" viewBox="0 0 59 58" fill="none" xmlns="http://www.w3.org/2000/svg">
<g clip-path="url(#clip0_2172_1272)">
<path d="M5.76219 16.695H0.992188V11.925H5.76219C14.0858 11.925 18.832 14.8371 22.0327 18.7318C21.0548 20.2916 20.2344 21.8609 19.5165 23.3563C16.924 19.4378 13.2368 16.695 5.76219 16.695ZM43.9222 40.545C36.5668 40.545 32.9416 37.8094 30.3778 33.9004C29.6575 35.3958 28.8347 36.9627 27.8497 38.5202C31.0146 42.4053 35.6987 45.315 43.9222 45.315V52.47L58.2322 42.93L43.9222 33.39V40.545ZM43.9222 16.695V23.85L58.2322 14.31L43.9222 4.77002V11.925C30.0081 11.925 26.1873 20.2296 22.8149 27.5611C19.6119 34.5277 16.8429 40.545 5.76219 40.545H0.992188V45.315H5.76219C19.9005 45.315 23.7522 36.9413 27.1509 29.5526C30.3253 22.6528 33.0633 16.695 43.9222 16.695Z" fill="#0E619D"/>
</g>
<defs>
<clipPath id="clip0_2172_1272">
<rect width="57.24" height="57.24" fill="white" transform="translate(0.992188)"/>
</clipPath>
</defs>
</svg>
