<svg width="58" height="58" viewBox="0 0 58 58" fill="none" xmlns="http://www.w3.org/2000/svg">
<path d="M50.3255 9.54003C50.3255 8.4 49.4216 7.15503 47.9405 7.15503H9.78051C8.30181 7.15503 7.39551 8.39284 7.39551 9.54003V47.7C7.39551 49.1811 8.63571 50.085 9.78051 50.085H47.9405C49.0805 50.085 50.3255 49.1811 50.3255 47.7V9.54003ZM43.1705 36.3713C43.1705 37.3587 42.3691 38.16 41.3818 38.16H30.6493C29.6619 38.16 28.8605 37.3587 28.8605 36.3713C28.8605 35.3839 29.6619 34.5825 30.6493 34.5825H41.3818C42.3691 34.5825 43.1705 35.3839 43.1705 36.3713ZM15.0943 35.0905C14.7342 34.7686 14.5505 34.325 14.5505 33.8766C14.5505 32.9822 15.2755 32.25 16.1795 32.25C16.5658 32.25 16.9522 32.3859 17.2646 32.6626L19.0438 34.2486L23.0029 29.9199C23.3273 29.5693 23.7638 29.3928 24.205 29.3928C25.1137 29.3928 25.8363 30.125 25.8363 31.0193C25.8363 31.4081 25.6956 31.8016 25.4094 32.1141L20.3628 37.6306C20.0432 37.9812 19.6019 38.16 19.1607 38.16C18.7743 38.16 18.3856 38.0241 18.0755 37.7474L15.0943 35.0905ZM43.1705 28.6248C43.1705 29.6122 42.3691 30.4135 41.3818 30.4135H30.6493C29.6619 30.4135 28.8605 29.6122 28.8605 28.6248C28.8605 27.6374 29.6619 26.836 30.6493 26.836H41.3818C42.3691 26.836 43.1705 27.6374 43.1705 28.6248ZM15.0943 24.7778V24.7802C14.7342 24.4582 14.5505 24.0122 14.5505 23.5662C14.5505 22.6695 15.2755 21.9396 16.1795 21.9396C16.5658 21.9396 16.9522 22.0756 17.2646 22.3522L19.0438 23.9359L23.0029 19.6071C23.3273 19.2565 23.7638 19.08 24.205 19.08C25.1137 19.08 25.8363 19.8146 25.8363 20.7066C25.8363 21.0977 25.6956 21.4913 25.4094 21.8037L20.3628 27.3202C20.0432 27.6708 19.6019 27.8473 19.1607 27.8473C18.7743 27.8473 18.3856 27.7113 18.0755 27.4347L15.0943 24.7778ZM43.1705 20.8688C43.1705 21.8562 42.3691 22.6575 41.3818 22.6575H30.6493C29.6619 22.6575 28.8605 21.8562 28.8605 20.8688C28.8605 19.8814 29.6619 19.08 30.6493 19.08H41.3818C42.3691 19.08 43.1705 19.8814 43.1705 20.8688Z" fill="#0E619D"/>
</svg>
