<svg width="58" height="58" viewBox="0 0 58 58" fill="none" xmlns="http://www.w3.org/2000/svg">
<g clip-path="url(#clip0_3912_26)">
<path d="M46.8634 42.9298L51.1564 47.2228L55.4494 42.9298M33.9844 42.9298L29.6914 38.5474L25.3984 42.9298" stroke="#0E619D" stroke-width="4" stroke-linecap="round" stroke-linejoin="round"/>
<path d="M45.5221 52.4102C43.5029 53.5152 41.1778 53.9297 38.9011 53.5906C36.6244 53.2516 34.521 52.1774 32.9115 50.532C31.4897 49.0895 30.5013 47.2771 30.0586 45.3007C29.6159 43.3243 29.7367 41.2634 30.4072 39.3523M35.4157 33.4494C37.4349 32.3444 39.76 31.9299 42.0367 32.269C44.3134 32.608 46.4168 33.6822 48.0264 35.3276C49.4329 36.7796 50.4046 38.5965 50.8314 40.5724C51.2582 42.5483 51.123 44.6043 50.4412 46.5073" stroke="#0E619D" stroke-width="4" stroke-linecap="round" stroke-linejoin="round"/>
<path d="M30.4091 46.5076H3.57781C3.10341 46.5076 2.64843 46.3192 2.31298 45.9837C1.97752 45.6483 1.78906 45.1933 1.78906 44.7189V5.36639C1.78906 4.89198 1.97752 4.43701 2.31298 4.10155C2.64843 3.76609 3.10341 3.57764 3.57781 3.57764H46.5078C46.9822 3.57764 47.4372 3.76609 47.7726 4.10155C48.1081 4.43701 48.2966 4.89198 48.2966 5.36639V35.6857M41.1416 25.0426H26.8316M41.1416 10.7326H26.8316" stroke="#0E619D" stroke-width="4" stroke-linecap="round" stroke-linejoin="round"/>
<path d="M9.83969 11.6266C10.3336 11.6266 10.7341 11.2262 10.7341 10.7323C10.7341 10.2383 10.3336 9.83789 9.83969 9.83789C9.34574 9.83789 8.94531 10.2383 8.94531 10.7323C8.94531 11.2262 9.34574 11.6266 9.83969 11.6266Z" stroke="#0E619D" stroke-width="4" stroke-linecap="round" stroke-linejoin="round"/>
<path d="M9.83969 25.9367C10.3336 25.9367 10.7341 25.5363 10.7341 25.0423C10.7341 24.5484 10.3336 24.1479 9.83969 24.1479C9.34574 24.1479 8.94531 24.5484 8.94531 25.0423C8.94531 25.5363 9.34574 25.9367 9.83969 25.9367Z" stroke="#0E619D" stroke-width="4" stroke-linecap="round" stroke-linejoin="round"/>
<path d="M9.83969 40.2468C10.3336 40.2468 10.7341 39.8463 10.7341 39.3524C10.7341 38.8584 10.3336 38.458 9.83969 38.458C9.34574 38.458 8.94531 38.8584 8.94531 39.3524C8.94531 39.8463 9.34574 40.2468 9.83969 40.2468Z" stroke="#0E619D" stroke-width="4" stroke-linecap="round" stroke-linejoin="round"/>
<path d="M48.2966 17.8877H1.78906M31.6612 32.1977H1.78906" stroke="#0E619D" stroke-width="4" stroke-linecap="round" stroke-linejoin="round"/>
</g>
<defs>
<clipPath id="clip0_3912_26">
<rect width="57.24" height="57.24" fill="white"/>
</clipPath>
</defs>
</svg>
