<svg width="58" height="58" viewBox="0 0 58 58" fill="none" xmlns="http://www.w3.org/2000/svg">
<g clip-path="url(#clip0_804_626)">
<path fill-rule="evenodd" clip-rule="evenodd" d="M40.0346 13.8306L43.6288 10.2388C43.1804 9.30389 42.93 8.25926 42.93 7.155C42.93 3.20544 46.1354 0 50.085 0C54.0346 0 57.24 3.20544 57.24 7.155C57.24 11.1046 54.0346 14.31 50.085 14.31C48.9807 14.31 47.9361 14.0596 47.0012 13.6112L43.4714 17.1434C46.1164 20.418 47.7 24.5846 47.7 29.1161C47.7 33.3972 46.2881 37.3491 43.9055 40.5331L47.0012 43.6288C47.9361 43.1804 48.9807 42.93 50.085 42.93C54.0346 42.93 57.24 46.1354 57.24 50.085C57.24 54.0346 54.0346 57.24 50.085 57.24C46.1354 57.24 42.93 54.0346 42.93 50.085C42.93 48.9807 43.1804 47.9361 43.6288 47.0012L40.5951 43.9675C37.3205 46.6124 33.1539 48.1961 28.62 48.1961C24.0861 48.1961 19.9195 46.6124 16.6449 43.9675L13.6112 47.0012C14.0596 47.9361 14.31 48.9807 14.31 50.085C14.31 54.0346 11.1046 57.24 7.155 57.24C3.20544 57.24 0 54.0346 0 50.085C0 46.1354 3.20544 42.93 7.155 42.93C8.25926 42.93 9.30389 43.1804 10.2388 43.6288L13.3345 40.5331C10.9519 37.3491 9.54 33.3972 9.54 29.1161C9.54 24.5846 11.1236 20.418 13.7686 17.1434L10.2388 13.6112C9.30389 14.0596 8.25926 14.31 7.155 14.31C3.20544 14.31 0 11.1046 0 7.155C0 3.20544 3.20544 0 7.155 0C11.1046 0 14.31 3.20544 14.31 7.155C14.31 8.25926 14.0596 9.30389 13.6112 10.2388L17.2054 13.8306C20.3894 11.448 24.3413 10.0361 28.62 10.0361C32.8987 10.0361 36.8506 11.448 40.0346 13.8306ZM50.085 47.7C51.4015 47.7 52.47 48.7685 52.47 50.085C52.47 51.4015 51.4015 52.47 50.085 52.47C48.7685 52.47 47.7 51.4015 47.7 50.085C47.7 48.7685 48.7685 47.7 50.085 47.7ZM7.155 47.7C8.47152 47.7 9.54 48.7685 9.54 50.085C9.54 51.4015 8.47152 52.47 7.155 52.47C5.83848 52.47 4.77 51.4015 4.77 50.085C4.77 48.7685 5.83848 47.7 7.155 47.7ZM28.62 14.8061C36.5167 14.8061 42.93 21.2193 42.93 29.1161C42.93 37.0152 36.5167 43.4261 28.62 43.4261C20.7233 43.4261 14.31 37.0152 14.31 29.1161C14.31 21.2193 20.7233 14.8061 28.62 14.8061ZM28.9372 21.6844C28.7726 21.1836 29.1471 20.6708 29.667 20.6708C29.989 20.6708 30.2895 20.8735 30.3968 21.1979L34.9212 32.5552C35.0571 32.9607 34.8377 33.3948 34.4346 33.5307C34.0316 33.6643 33.5951 33.4449 33.4615 33.0418C33.4615 33.0418 30.6043 32.0854 27.2176 33.2087L29.4452 36.6718C29.6766 37.0104 29.5144 37.4755 29.1304 37.6043L27.6159 38.1075L27.2963 38.16C27.0125 38.16 26.7359 38.0384 26.5403 37.8189L23.4803 34.4418C21.8132 34.9689 19.9291 34.3607 19.2994 32.7914C19.1539 32.4312 19.08 32.0472 19.08 31.6633C19.08 30.5447 19.7049 29.4023 21.0619 28.7369C27.852 25.4026 28.9372 21.6844 28.9372 21.6844ZM33.7597 22.4095C34.9665 22.9198 35.9777 23.8929 36.5096 25.2047C37.0414 26.5188 36.9937 27.9236 36.4833 29.1328L37.6544 29.6312C37.9859 28.8466 38.16 27.9975 38.16 27.1341C38.16 24.6156 36.6718 22.2568 34.2558 21.236L33.7597 22.4095ZM32.9154 24.4152C33.6094 24.7086 34.1937 25.2691 34.499 26.0251C34.8043 26.7812 34.7781 27.5897 34.4847 28.2861L35.6271 28.7703C36.0421 27.7805 36.085 26.6309 35.6486 25.5577C35.2145 24.482 34.3869 23.6878 33.3972 23.2704L32.9154 24.4152ZM7.155 4.77C8.47152 4.77 9.54 5.83848 9.54 7.155C9.54 8.47152 8.47152 9.54 7.155 9.54C5.83848 9.54 4.77 8.47152 4.77 7.155C4.77 5.83848 5.83848 4.77 7.155 4.77ZM50.085 4.77C51.4015 4.77 52.47 5.83848 52.47 7.155C52.47 8.47152 51.4015 9.54 50.085 9.54C48.7685 9.54 47.7 8.47152 47.7 7.155C47.7 5.83848 48.7685 4.77 50.085 4.77Z" fill="#0E619D"/>
</g>
<defs>
<clipPath id="clip0_804_626">
<rect width="57.24" height="57.24" fill="white"/>
</clipPath>
</defs>
</svg>
