<svg width="58" height="58" viewBox="0 0 58 58" fill="none" xmlns="http://www.w3.org/2000/svg">
<g clip-path="url(#clip0_804_634)">
<path d="M14.3577 17.6228C15.3093 16.943 16.3849 16.6282 17.4391 16.6282C19.6906 16.6282 21.8561 18.0592 22.5669 20.4418C21.6558 19.7406 20.5873 19.3996 19.5117 19.3996C18.4194 19.3996 17.3199 19.7502 16.3611 20.4347C14.4555 21.7941 13.6112 24.11 14.3458 26.3042C11.3836 24.1815 11.3717 19.7526 14.3577 17.6228ZM23.28 48.0792C25.6507 48.8758 32.9893 50.9078 41.4895 57.24L57.24 46.0067C53.1545 40.2779 54.2802 36.2711 50.2209 30.5805C47.4496 26.6977 45.8636 26.6357 42.9777 27.1652L44.4063 29.1685C45.2673 30.3777 43.4404 31.6728 42.5842 30.466L41.3106 28.6772C40.2731 27.2248 38.2602 28.1311 36.4142 28.5556L38.1481 30.9859C39.0067 32.1903 37.1869 33.4926 36.3259 32.2834L34.8258 30.1798C33.7621 28.6868 31.6823 29.6837 29.8292 30.1559L31.6633 32.727C32.529 33.9385 30.6973 35.2288 29.8411 34.0244L22.4047 23.6115C20.096 20.3727 15.0398 23.8095 17.4296 27.1628L28.4125 42.5651C27.2343 42.1286 25.1617 41.7327 23.8095 41.7327C19.6262 41.7327 18.0163 46.3119 23.28 48.0792ZM15.4429 42.93H4.77V9.54H28.62V25.4909L33.39 24.3675V4.77C33.39 2.13696 31.2554 0 28.62 0H4.77C2.13458 0 5.10367e-07 2.13696 5.10367e-07 4.77V49.317C-0.00238449 54.595 8.35466 57.24 16.7069 57.24C21.0285 57.24 25.3382 56.5269 28.4984 55.1078C23.4398 52.8516 13.2868 51.349 15.4429 42.93Z" fill="#0E619D"/>
</g>
<defs>
<clipPath id="clip0_804_634">
<rect width="57.24" height="57.24" fill="white"/>
</clipPath>
</defs>
</svg>
