<svg width="58" height="58" viewBox="0 0 58 58" fill="none" xmlns="http://www.w3.org/2000/svg">
<g clip-path="url(#clip0_804_609)">
<path fill-rule="evenodd" clip-rule="evenodd" d="M57.24 45.315H54.855V40.068C50.4356 50.1732 40.347 57.24 28.62 57.24C12.8241 57.24 0 44.4159 0 28.62H2.385C2.385 43.0993 14.1407 54.855 28.62 54.855C39.7341 54.855 49.2431 47.929 53.0639 38.16H47.7V35.775H57.24V45.315ZM30.9191 45.315H26.421C25.6101 43.0326 25.3788 41.5682 23.6139 40.836H23.6115C21.8394 40.1014 20.6279 40.9815 18.4551 42.0142L15.2759 38.835C16.2943 36.6908 17.1935 35.4602 16.4541 33.6762C15.7195 31.9113 14.2456 31.6752 11.9751 30.8691V26.3709C14.2504 25.5624 15.7195 25.3287 16.4541 23.5614C17.1887 21.7894 16.311 20.5849 15.2759 18.405L18.4551 15.2258C20.6446 16.2657 21.8442 17.1362 23.6115 16.404L23.6139 16.4016C25.3788 15.6694 25.6125 14.1979 26.421 11.925H30.9191C31.73 14.2098 31.9614 15.6694 33.7263 16.4016L33.7287 16.404C35.5007 17.1386 36.7147 16.2562 38.885 15.2258L42.0642 18.405C41.0268 20.5921 40.1539 21.7941 40.8861 23.559C41.6182 25.3215 43.0683 25.5529 45.3651 26.3709V30.8691C43.0922 31.6752 41.6182 31.9113 40.8861 33.6786C40.1515 35.4506 41.0292 36.6575 42.0642 38.835L38.885 42.0142C36.6908 40.9695 35.4983 40.1014 33.7406 40.8312C31.9614 41.5706 31.7277 43.0397 30.9191 45.315ZM28.6701 34.1842C25.5958 34.1842 23.1059 31.6943 23.1059 28.62C23.1059 25.5457 25.5958 23.0534 28.6701 23.0534C31.7444 23.0534 34.2343 25.5457 34.2343 28.62C34.2343 31.6943 31.7444 34.1842 28.6701 34.1842ZM9.54 21.465H0V11.925H2.385V17.172C6.80441 7.06675 16.893 0 28.62 0C44.4159 0 57.24 12.8241 57.24 28.62H54.855C54.855 14.1407 43.0993 2.385 28.62 2.385C17.5059 2.385 7.9969 9.31104 4.17614 19.08H9.54V21.465Z" fill="#0E619D"/>
</g>
<defs>
<clipPath id="clip0_804_609">
<rect width="57.24" height="57.24" fill="white"/>
</clipPath>
</defs>
</svg>
