<svg width="50" height="50" viewBox="0 0 50 50" fill="none" xmlns="http://www.w3.org/2000/svg">
<g clip-path="url(#clip0_2172_1320)">
<path d="M27.0833 41.6706H31.25V49.9998H27.0833V41.6706ZM12.7042 49.9998H18.1771L25.3021 41.6706H19.8167L12.7042 49.9998ZM33.0646 41.6706L40.1896 49.9998H45.6625L38.55 41.6706H33.0646ZM50 6.23312C50 8.05812 49.1687 9.67895 47.9167 10.8164V37.4998H8.36667V29.1664H0C1.77917 26.3894 2.11667 23.0581 2.11667 17.7998V7.00186C2.11667 2.70603 4.87083 0.143532 8.26875 0.0456153C8.23333 -0.018968 43.6771 0.00394862 43.75 0.00394862C47.2021 0.00394862 50 2.78103 50 6.23312ZM10.5437 6.27687C10.5437 5.12895 9.61042 4.19353 8.46042 4.19353C6.90417 4.19353 6.25 5.44145 6.25 7.00186V17.7998C6.25 21.0977 6.25 22.8873 5.77292 25.0039H8.36458V8.3602C9.51458 8.3602 10.5437 7.42478 10.5437 6.27687ZM43.7833 12.4998H12.5V33.3373H43.7833V12.4998ZM43.75 4.16645H14.325C14.8562 5.6227 14.8208 6.95603 14.3229 8.33728H43.75C46.4646 8.33728 46.5521 4.16645 43.75 4.16645ZM21.5292 29.1664C24.2521 24.2831 26.1417 21.7748 28.725 19.5206L28.3896 18.7498C25.2583 20.6977 23.5729 22.1664 21.025 25.0581C19.6687 24.0914 18.9042 23.6456 17.6979 23.0623L16.6667 24.0164C18.7312 25.9289 19.85 27.1894 21.5292 29.1664ZM39.5833 18.7498H31.25V20.8331H39.5833V18.7498ZM39.5833 22.9164H31.25V24.9998H39.5833V22.9164ZM39.5833 27.0831H31.25V29.1664H39.5833V27.0831Z" fill="#0E619D"/>
</g>
<defs>
<clipPath id="clip0_2172_1320">
<rect width="50" height="50" fill="white"/>
</clipPath>
</defs>
</svg>
