<svg width="58" height="58" viewBox="0 0 58 58" fill="none" xmlns="http://www.w3.org/2000/svg">
<g clip-path="url(#clip0_804_659)">
<path d="M9.78023 14.31V52.47H57.4802V14.31H9.78023ZM33.6302 45.315C27.0452 45.315 21.7052 39.975 21.7052 33.39C21.7052 26.805 27.0452 21.465 33.6302 21.465C40.2152 21.465 45.5552 26.805 45.5552 33.39C45.5552 39.975 40.2152 45.315 33.6302 45.315ZM34.3267 40.2731V41.7375H32.9338V40.3494C31.4957 40.3256 30.0026 39.9822 28.7601 39.3382L29.3945 37.0534C30.7253 37.5685 32.495 38.1147 33.8807 37.8047C35.481 37.4421 35.8101 35.7965 34.0428 35.0023C32.7478 34.4036 28.7839 33.8837 28.7839 30.4922C28.7839 28.5962 30.2268 26.8957 32.9338 26.526V25.0425H34.3267V26.4568C35.3331 26.4831 36.4636 26.6595 37.7277 27.0435L37.222 29.3331C36.1536 28.9611 34.973 28.6176 33.8234 28.6892C31.7532 28.8108 31.5672 30.6043 33.0149 31.3556C35.3951 32.4742 38.5028 33.3065 38.5028 36.2878C38.5052 38.6776 36.6329 39.9535 34.3267 40.2731ZM50.3252 9.54002H5.01023V45.315H0.240234V4.77002H50.3252V9.54002Z" fill="#0E619D"/>
</g>
<defs>
<clipPath id="clip0_804_659">
<rect width="57.24" height="57.24" fill="white" transform="translate(0.240234)"/>
</clipPath>
</defs>
</svg>
