<svg width="50" height="50" viewBox="0 0 50 50" fill="none" xmlns="http://www.w3.org/2000/svg">
<path d="M40.8594 38.1255C41.7969 38.7505 43.2031 39.6099 42.9688 41.4849C42.7344 43.3599 39.8438 48.438 33.5938 48.438C27.3438 48.438 19.7656 43.5162 13.125 36.8755C6.48437 30.2349 1.5625 22.5787 1.5625 16.4068C1.5625 10.2349 7.03125 7.26617 8.51562 7.0318C10 6.79742 11.3281 8.20367 11.875 9.14117L16.5625 16.3287C17.0246 17.051 17.193 17.9226 17.0332 18.7651C16.8735 19.6075 16.3976 20.357 15.7031 20.8599C13.6719 22.5005 10.3906 24.4537 17.9688 32.0318C25.5469 39.6099 27.5781 36.2506 29.1406 34.2974C29.6436 33.6029 30.393 33.1271 31.2355 32.9673C32.0779 32.8075 32.9496 32.9759 33.6719 33.438L40.8594 38.1255Z" stroke="#0E619D" stroke-width="3" stroke-miterlimit="10"/>
<path d="M42.1875 1.5625L37.5 12.5H48.4375M45.3125 7.8125V17.1875M34.375 17.1875H25L31.6406 9.375V9.21875C32.2518 8.30499 32.5224 7.20548 32.4051 6.11243C32.2878 5.01939 31.79 4.00234 30.9988 3.23909C30.2077 2.47584 29.1734 2.01494 28.0769 1.93696C26.9803 1.85898 25.8912 2.16889 25 2.8125" stroke="#0E619D" stroke-width="3" stroke-miterlimit="10"/>
</svg>
