<svg width="50" height="50" viewBox="0 0 50 50" fill="none" xmlns="http://www.w3.org/2000/svg">
<g clip-path="url(#clip0_3838_429)">
<path d="M31.1633 18.7508C30.917 17.2944 30.1629 15.9723 29.0346 15.019C27.9064 14.0657 26.477 13.5428 25 13.543C21.5484 13.543 18.75 15.8195 18.75 19.2719C18.75 22.7242 21.875 24.2875 25 25.0016C28.125 25.7047 31.25 27.2805 31.25 30.7312C31.25 34.182 28.4516 36.4602 25 36.4602C23.3424 36.4602 21.7527 35.8017 20.5806 34.6296C19.4085 33.4575 18.75 31.8678 18.75 30.2102" stroke="#0E619D" stroke-width="3" stroke-miterlimit="10"/>
<path d="M25 13.543V9.375M25 40.6273V36.4594M25 3.49375L29.6617 1.5625L33.2305 5.13047L38.2766 5.13125L40.207 9.79297L44.8703 11.725V16.7703L48.4375 20.3383L46.507 25L48.4375 29.6625L44.8703 33.2312V38.2766L40.207 40.2078L38.2766 44.8695L33.2305 44.8703L29.6617 48.4391L25 46.5078L20.3383 48.4391L16.7695 44.8703L11.7234 44.8695L9.79297 40.2078L5.12969 38.2766V33.2312L1.5625 29.6625L3.49297 25L1.5625 20.3383L5.12969 16.7703V11.725L9.79297 9.79297L11.7234 5.13125L16.7695 5.13047L20.3383 1.5625L25 3.49375Z" stroke="#0E619D" stroke-width="3" stroke-miterlimit="10"/>
</g>
<defs>
<clipPath id="clip0_3838_429">
<rect width="50" height="50" fill="white"/>
</clipPath>
</defs>
</svg>
