<svg width="50" height="50" viewBox="0 0 50 50" fill="none" xmlns="http://www.w3.org/2000/svg">
<path d="M9.375 20.3125V17.1875C9.375 8.59375 15.625 1.5625 24.2188 1.5625H25.7812C34.375 1.5625 40.625 8.59375 40.625 17.1875V20.3125M31.25 45.3125C31.25 44.4837 30.9208 43.6888 30.3347 43.1028C29.7487 42.5167 28.9538 42.1875 28.125 42.1875H25C24.1712 42.1875 23.3763 42.5167 22.7903 43.1028C22.2042 43.6888 21.875 44.4837 21.875 45.3125C21.875 46.1413 22.2042 46.9362 22.7903 47.5222C23.3763 48.1083 24.1712 48.4375 25 48.4375H28.125C28.9538 48.4375 29.7487 48.1083 30.3347 47.5222C30.9208 46.9362 31.25 46.1413 31.25 45.3125ZM31.25 45.3125C31.25 45.3125 40.625 45.3125 40.625 34.375" stroke="#0E619D" stroke-width="3" stroke-miterlimit="10"/>
<path d="M12.5 34.375H5.9375C5.19158 34.375 4.47621 34.0787 3.94876 33.5512C3.42132 33.0238 3.125 32.3084 3.125 31.5625V23.125C3.125 22.3791 3.42132 21.6637 3.94876 21.1363C4.47621 20.6088 5.19158 20.3125 5.9375 20.3125H12.5V34.375ZM37.5 34.375H44.0625C44.8084 34.375 45.5238 34.0787 46.0512 33.5512C46.5787 33.0238 46.875 32.3084 46.875 31.5625V23.125C46.875 22.3791 46.5787 21.6637 46.0512 21.1363C45.5238 20.6088 44.8084 20.3125 44.0625 20.3125H37.5V34.375Z" stroke="#0E619D" stroke-width="3" stroke-miterlimit="10"/>
</svg>
