<svg width="30" height="30" viewBox="0 0 30 30" fill="none" xmlns="http://www.w3.org/2000/svg">
<g clip-path="url(#clip0_3838_377)">
<path d="M24.5625 21.5625L26.8125 23.8125L29.0625 21.5625M17.8125 21.5625L15.5625 19.3125L13.3125 21.5625" stroke="#0E619D" stroke-width="2" stroke-linecap="round" stroke-linejoin="round"/>
<path d="M23.8589 26.5306C22.8006 27.1097 21.582 27.327 20.3888 27.1493C19.1956 26.9716 18.0932 26.4086 17.2496 25.5462C16.5044 24.7902 15.9864 23.8403 15.7543 22.8045C15.5223 21.7686 15.5856 20.6885 15.9371 19.6869M18.5621 16.5931C19.6204 16.014 20.839 15.7967 22.0322 15.9744C23.2254 16.1521 24.3278 16.7151 25.1714 17.5775C25.9086 18.3385 26.4179 19.2907 26.6416 20.3263C26.8653 21.3619 26.7944 22.4395 26.4371 23.4369" stroke="#0E619D" stroke-width="2" stroke-linecap="round" stroke-linejoin="round"/>
<path d="M3.75 6.09375C4.00888 6.09375 4.21875 5.88388 4.21875 5.625C4.21875 5.36612 4.00888 5.15625 3.75 5.15625C3.49112 5.15625 3.28125 5.36612 3.28125 5.625C3.28125 5.88388 3.49112 6.09375 3.75 6.09375Z" stroke="#0E619D" stroke-width="2" stroke-linecap="round" stroke-linejoin="round"/>
<path d="M7.03125 6.09375C7.29013 6.09375 7.5 5.88388 7.5 5.625C7.5 5.36612 7.29013 5.15625 7.03125 5.15625C6.77237 5.15625 6.5625 5.36612 6.5625 5.625C6.5625 5.88388 6.77237 6.09375 7.03125 6.09375Z" stroke="#0E619D" stroke-width="2" stroke-linecap="round" stroke-linejoin="round"/>
<path d="M10.3125 6.09375C10.5714 6.09375 10.7812 5.88388 10.7812 5.625C10.7812 5.36612 10.5714 5.15625 10.3125 5.15625C10.0536 5.15625 9.84375 5.36612 9.84375 5.625C9.84375 5.88388 10.0536 6.09375 10.3125 6.09375Z" stroke="#0E619D" stroke-width="2" stroke-linecap="round" stroke-linejoin="round"/>
<path d="M25.3125 17.8125V8.4375M25.3125 8.4375V2.8125H0.9375V8.4375M25.3125 8.4375H0.9375M0.9375 8.4375V23.4375H15.9375" stroke="#0E619D" stroke-width="2" stroke-linecap="round" stroke-linejoin="round"/>
</g>
<defs>
<clipPath id="clip0_3838_377">
<rect width="30" height="30" fill="white"/>
</clipPath>
</defs>
</svg>
