<svg width="30" height="30" viewBox="0 0 30 30" fill="none" xmlns="http://www.w3.org/2000/svg">
<g clip-path="url(#clip0_3838_397)">
<path d="M24.8438 10.3125L28.5938 6.5625L24.8438 2.8125M24.8438 27.1875L28.5938 23.4375L24.8438 19.6875" stroke="#0E619D" stroke-width="2" stroke-miterlimit="10" stroke-linecap="round"/>
<path d="M10.7812 15C11.6155 14.9947 12.4367 14.7923 13.178 14.4095C13.9193 14.0266 14.5596 13.4741 15.0469 12.7969L18.2344 8.4375C18.7189 7.85019 19.3274 7.37747 20.0163 7.05328C20.7052 6.72909 21.4574 6.56149 22.2188 6.5625H28.5938M10.7812 15H0.9375M10.7812 15C11.6228 15.0017 12.452 15.2022 13.2014 15.585C13.9508 15.9679 14.5992 16.5223 15.0938 17.2031M15.0469 17.2031L18.2344 21.5625C18.7189 22.1498 19.3274 22.6225 20.0163 22.9467C20.7052 23.2709 21.4574 23.4385 22.2188 23.4375H28.5938" stroke="#0E619D" stroke-width="2" stroke-miterlimit="10" stroke-linecap="round"/>
</g>
<defs>
<clipPath id="clip0_3838_397">
<rect width="30" height="30" fill="white"/>
</clipPath>
</defs>
</svg>
