<svg width="30" height="30" viewBox="0 0 30 30" fill="none" xmlns="http://www.w3.org/2000/svg">
<g clip-path="url(#clip0_3838_387)">
<path d="M27.4687 23.0156C27.5293 22.691 27.5607 22.3615 27.5625 22.0312C27.5663 21.6697 27.5349 21.3086 27.4687 20.9531L28.9219 20.1562L27.0469 16.9219L25.6406 17.7656C25.1053 17.3545 24.5231 17.0083 23.9062 16.7344V15H20.1562V16.7344C19.4813 16.8873 18.8636 17.2287 18.375 17.7187L16.9219 16.875L15 20.1562L16.4062 20.9531C16.3395 21.3085 16.3081 21.6697 16.3125 22.0312C16.3145 22.3615 16.3459 22.6909 16.4062 23.0156L14.8594 23.9062L16.7344 27.1406L18.3281 26.25C18.8258 26.7719 19.4587 27.1451 20.1562 27.3281V29.0625H23.9062V27.3281C24.5397 27.0389 25.1375 26.6771 25.6875 26.25L27.1875 27.1875L29.0625 23.9062L27.4687 23.0156ZM21.9375 24.375C21.4739 24.375 21.0208 24.2375 20.6354 23.98C20.25 23.7225 19.9496 23.3564 19.7722 22.9282C19.5948 22.4999 19.5483 22.0286 19.6388 21.574C19.7292 21.1194 19.9524 20.7017 20.2802 20.374C20.608 20.0462 21.0256 19.823 21.4803 19.7325C21.9349 19.6421 22.4061 19.6885 22.8344 19.8659C23.2627 20.0433 23.6287 20.3437 23.8863 20.7291C24.1438 21.1146 24.2812 21.5677 24.2812 22.0312C24.2812 22.6529 24.0343 23.249 23.5948 23.6885C23.1552 24.1281 22.5591 24.375 21.9375 24.375Z" stroke="#0E619D" stroke-width="2" stroke-linecap="round" stroke-linejoin="round"/>
<path d="M15.7031 23.4375H1.875C1.62636 23.4375 1.3879 23.3387 1.21209 23.1629C1.03627 22.9871 0.9375 22.7486 0.9375 22.5V1.875C0.9375 1.62636 1.03627 1.3879 1.21209 1.21209C1.3879 1.03627 1.62636 0.9375 1.875 0.9375H24.375C24.6236 0.9375 24.8621 1.03627 25.0379 1.21209C25.2137 1.3879 25.3125 1.62636 25.3125 1.875V17.5313M21.5625 12.1875H14.0625M21.5625 4.6875H14.0625" stroke="#0E619D" stroke-width="2" stroke-linecap="round" stroke-linejoin="round"/>
<path d="M5.15625 5.15625C5.41513 5.15625 5.625 4.94638 5.625 4.6875C5.625 4.42862 5.41513 4.21875 5.15625 4.21875C4.89737 4.21875 4.6875 4.42862 4.6875 4.6875C4.6875 4.94638 4.89737 5.15625 5.15625 5.15625Z" stroke="#0E619D" stroke-width="2" stroke-linecap="round" stroke-linejoin="round"/>
<path d="M5.15625 12.6562C5.41513 12.6562 5.625 12.4464 5.625 12.1875C5.625 11.9286 5.41513 11.7188 5.15625 11.7188C4.89737 11.7188 4.6875 11.9286 4.6875 12.1875C4.6875 12.4464 4.89737 12.6562 5.15625 12.6562Z" stroke="#0E619D" stroke-width="2" stroke-linecap="round" stroke-linejoin="round"/>
<path d="M5.15625 20.1562C5.41513 20.1562 5.625 19.9464 5.625 19.6875C5.625 19.4286 5.41513 19.2188 5.15625 19.2188C4.89737 19.2188 4.6875 19.4286 4.6875 19.6875C4.6875 19.9464 4.89737 20.1562 5.15625 20.1562Z" stroke="#0E619D" stroke-width="2" stroke-linecap="round" stroke-linejoin="round"/>
<path d="M25.3125 8.4375H0.9375M20.1562 15.9375H0.9375" stroke="#0E619D" stroke-width="2" stroke-linecap="round" stroke-linejoin="round"/>
</g>
<defs>
<clipPath id="clip0_3838_387">
<rect width="30" height="30" fill="white"/>
</clipPath>
</defs>
</svg>
