<svg width="50" height="50" viewBox="0 0 50 50" fill="none" xmlns="http://www.w3.org/2000/svg">
<g clip-path="url(#clip0_3838_425)">
<path d="M25 48.4375C37.9442 48.4375 48.4375 37.9442 48.4375 25C48.4375 12.0558 37.9442 1.5625 25 1.5625C12.0558 1.5625 1.5625 12.0558 1.5625 25C1.5625 37.9442 12.0558 48.4375 25 48.4375Z" stroke="#0E619D" stroke-width="3" stroke-miterlimit="10"/>
<path d="M18.75 19.1625C18.75 16.9117 20.4734 13.2812 25.3672 13.2812C30.2609 13.2812 31.25 17.6781 31.25 19.1625C31.25 20.6469 30.7891 22.3594 28.0805 25.0672C25.3727 27.775 25 29.182 25 30.4688V32.0312" stroke="#0E619D" stroke-width="3" stroke-miterlimit="10"/>
<path d="M25 38.2812C25.8629 38.2812 26.5625 37.5817 26.5625 36.7188C26.5625 35.8558 25.8629 35.1562 25 35.1562C24.1371 35.1562 23.4375 35.8558 23.4375 36.7188C23.4375 37.5817 24.1371 38.2812 25 38.2812Z" stroke="#0E619D" stroke-width="3" stroke-miterlimit="10"/>
</g>
<defs>
<clipPath id="clip0_3838_425">
<rect width="50" height="50" fill="white"/>
</clipPath>
</defs>
</svg>
