<svg width="50" height="50" viewBox="0 0 50 50" fill="none" xmlns="http://www.w3.org/2000/svg">
<path d="M25 32.8125V48.4375M18.75 48.4375H31.25" stroke="#0E619D" stroke-width="3" stroke-miterlimit="10"/>
<path d="M46.875 32.8125L37.5 14.0625H12.5L3.125 32.8125M1.5625 32.8125H48.4375" stroke="#0E619D" stroke-width="3" stroke-miterlimit="10"/>
<path d="M34.375 15.625V6.32813L31.25 4.6875" stroke="#0E619D" stroke-width="3" stroke-miterlimit="10"/>
<path d="M29.6875 18.75H15.625L11.875 26.5625H32.8125L29.6875 18.75Z" stroke="#0E619D" stroke-width="3" stroke-miterlimit="10"/>
<path d="M31.25 6.25V3.125C31.25 2.7106 31.0854 2.31317 30.7924 2.02015C30.4993 1.72712 30.1019 1.5625 29.6875 1.5625H23.4375C23.0231 1.5625 22.6257 1.72712 22.3326 2.02015C22.0396 2.31317 21.875 2.7106 21.875 3.125V6.25H31.25Z" stroke="#0E619D" stroke-width="3" stroke-miterlimit="10"/>
</svg>
