<svg width="50" height="50" viewBox="0 0 50 50" fill="none" xmlns="http://www.w3.org/2000/svg">
<path d="M25 11.3281C9.375 11.3281 1.95312 25 1.95312 25C1.95312 25 9.375 38.6719 25 38.6719C40.625 38.6719 48.0469 25 48.0469 25C48.0469 25 40.625 11.3281 25 11.3281Z" stroke="#0E619D" stroke-width="3" stroke-miterlimit="10"/>
<path d="M25 34.7656C30.6091 34.7656 35.1562 30.2185 35.1562 24.6094C35.1562 19.0002 30.6091 14.4531 25 14.4531C19.3909 14.4531 14.8438 19.0002 14.8438 24.6094C14.8438 30.2185 19.3909 34.7656 25 34.7656Z" stroke="#0E619D" stroke-width="3" stroke-miterlimit="10"/>
<path d="M21.638 22.4219C21.2816 23.0393 21.0939 23.7396 21.0938 24.4525C21.0936 25.1654 21.2811 25.8657 21.6374 26.4832C21.9936 27.1008 22.5061 27.6136 23.1233 27.9704C23.7405 28.3271 24.4408 28.5152 25.1536 28.5156" stroke="#0E619D" stroke-width="3" stroke-miterlimit="10"/>
</svg>
