<svg width="50" height="50" viewBox="0 0 50 50" fill="none" xmlns="http://www.w3.org/2000/svg">
<g clip-path="url(#clip0_3877_72)">
<path d="M26.7188 40.2338H1.5625C1.5625 40.2338 1.5625 34.765 8.90625 33.3588C16.25 31.9525 15.625 30.5463 15.625 29.2963V27.7338C14.0768 26.2511 12.9914 24.3516 12.5 22.265C10.5469 22.265 9.375 19.9213 9.375 17.5775C9.375 16.9525 9.375 14.4525 10.9375 14.4525C9.6875 9.45253 10.625 4.29628 14.0625 4.29628C22.1875 -1.17247 33.5938 3.12441 29.6875 14.4525C31.25 14.4525 31.25 16.9525 31.25 17.5775C31.25 19.9213 30.0781 22.265 28.125 22.265C27.6378 24.3532 26.5517 26.2539 25 27.7338V29.2963C25.0112 29.896 25.2038 30.4783 25.5525 30.9664C25.9011 31.4545 26.3894 31.8256 26.9531 32.0307L27.8125 32.4994" stroke="#0E619D" stroke-width="3" stroke-miterlimit="10"/>
<path d="M37.5 40.2344C39.2259 40.2344 40.625 38.8353 40.625 37.1094C40.625 35.3835 39.2259 33.9844 37.5 33.9844C35.7741 33.9844 34.375 35.3835 34.375 37.1094C34.375 38.8353 35.7741 40.2344 37.5 40.2344Z" stroke="#0E619D" stroke-width="3" stroke-miterlimit="10"/>
<path d="M48.4375 40.0781L46.0156 38.6719C46.1099 38.1824 46.1622 37.6858 46.1719 37.1875C46.1711 36.6369 46.1188 36.0877 46.0156 35.5469L48.2031 34.2187L45.3125 29.1406L43.0469 30.4688C42.3494 29.7947 41.5266 29.2638 40.625 28.9062V26.1719H34.375V28.9062C33.4483 29.2602 32.5992 29.7909 31.875 30.4688L29.6875 29.1406L26.7969 34.2187L28.9844 35.4688C28.7836 36.527 28.7836 37.6136 28.9844 38.6719L26.5625 40.0781L29.4531 45.1562L31.7969 43.75C32.5373 44.4646 33.4141 45.0226 34.375 45.3906V48.0469H40.625V45.3906C41.56 45.0171 42.4102 44.4591 43.125 43.75L45.5469 45.1562L48.4375 40.0781Z" stroke="#0E619D" stroke-width="3" stroke-miterlimit="10"/>
</g>
<defs>
<clipPath id="clip0_3877_72">
<rect width="50" height="50" fill="white"/>
</clipPath>
</defs>
</svg>
