<svg width="50" height="50" viewBox="0 0 50 50" fill="none" xmlns="http://www.w3.org/2000/svg">
<path d="M18.75 12.5C21.7703 12.5 24.2188 10.0516 24.2188 7.03125C24.2188 4.01094 21.7703 1.5625 18.75 1.5625C15.7297 1.5625 13.2812 4.01094 13.2812 7.03125C13.2812 10.0516 15.7297 12.5 18.75 12.5Z" stroke="#0E619D" stroke-width="3" stroke-miterlimit="10"/>
<path d="M27.3438 17.1875H10.1562C9.53465 17.1875 8.93851 17.4344 8.49897 17.874C8.05943 18.3135 7.8125 18.9096 7.8125 19.5312V32.0312C7.8125 32.6529 8.05943 33.249 8.49897 33.6885C8.93851 34.1281 9.53465 34.375 10.1562 34.375H12.5V46.0938C12.5 46.7154 12.7469 47.3115 13.1865 47.751C13.626 48.1906 14.2221 48.4375 14.8438 48.4375H22.6562C23.2779 48.4375 23.874 48.1906 24.3135 47.751C24.7531 47.3115 25 46.7154 25 46.0938V34.375H27.3438C27.9654 34.375 28.5615 34.1281 29.001 33.6885C29.4406 33.249 29.6875 32.6529 29.6875 32.0312V19.5312C29.6875 18.9096 29.4406 18.3135 29.001 17.874C28.5615 17.4344 27.9654 17.1875 27.3438 17.1875Z" stroke="#0E619D" stroke-width="3" stroke-miterlimit="10"/>
<path d="M39.0641 28.1266V32.8133M35.9391 32.8133H42.1891V48.4383H35.9391V32.8133ZM18.75 17.1875L21.875 28.1266L18.75 31.2516L15.625 28.1266L18.75 17.1875Z" stroke="#0E619D" stroke-width="3" stroke-miterlimit="10"/>
</svg>
