<svg width="50" height="50" viewBox="0 0 50 50" fill="none" xmlns="http://www.w3.org/2000/svg">
<g clip-path="url(#clip0_3517_86)">
<path d="M14.8438 15.625H22.6562M14.8438 28.125H21.0938M14.8438 21.875H21.0938M14.8438 34.375H17.9688" stroke="#0E619D" stroke-width="4" stroke-miterlimit="10"/>
<path d="M41.4062 6.25L36.6406 1.5625L32.0312 4.6875L27.3438 1.5625L22.6562 4.6875L17.9688 1.5625L13.2812 4.6875L8.59375 1.5625V43.75L13.3594 48.4375L17.9688 45.3125L22.6562 48.4375L27.3438 45.3125L32.0312 48.4375L36.7188 45.3125L41.4062 48.4375V6.25Z" stroke="#0E619D" stroke-width="4" stroke-miterlimit="10"/>
<path d="M35.0781 17.7344C34.9305 16.8234 34.4651 15.994 33.7643 15.3934C33.0636 14.7928 32.1729 14.4597 31.25 14.4531C29.0625 14.4531 27.3438 15.8594 27.3438 18.0469C27.3438 20.2344 29.2969 21.1719 31.25 21.6406" stroke="#0E619D" stroke-width="4" stroke-miterlimit="10"/>
<path d="M27.3438 25.3906C27.3438 26.4266 27.7553 27.4202 28.4879 28.1528C29.2204 28.8853 30.214 29.2969 31.25 29.2969M31.25 29.2969C32.3001 29.2565 33.2937 28.8107 34.0221 28.0531C34.7505 27.2956 35.157 26.2853 35.1562 25.2344C35.1562 23.0469 33.2031 22.1094 31.25 21.6406M31.25 29.2969V31.25M31.25 14.4531V12.5" stroke="#0E619D" stroke-width="4" stroke-miterlimit="10"/>
</g>
<defs>
<clipPath id="clip0_3517_86">
<rect width="50" height="50" fill="white"/>
</clipPath>
</defs>
</svg>
