<svg width="50" height="50" viewBox="0 0 50 50" fill="none" xmlns="http://www.w3.org/2000/svg">
<g clip-path="url(#clip0_3517_98)">
<path d="M27.6563 45.3125H3.125C2.7106 45.3125 2.31317 45.1479 2.02015 44.8549C1.72712 44.5618 1.5625 44.1644 1.5625 43.75V7.8125C1.5625 7.3981 1.72712 7.00067 2.02015 6.70765C2.31317 6.41462 2.7106 6.25 3.125 6.25H10.8594M26.5625 6.25H34.375C34.7894 6.25 35.1868 6.41462 35.4799 6.70765C35.7729 7.00067 35.9375 7.3981 35.9375 7.8125V23.4375" stroke="#0E619D" stroke-width="4" stroke-miterlimit="10"/>
<path d="M10.9375 10.9375V6.25001C10.9375 5.83561 11.1021 5.43818 11.3951 5.14516C11.6882 4.85213 12.0856 4.68751 12.5 4.68751H14.9219C15.1012 3.80447 15.5803 3.01058 16.2779 2.44034C16.9756 1.8701 17.8489 1.55859 18.75 1.55859C19.6511 1.55859 20.5244 1.8701 21.2221 2.44034C21.9197 3.01058 22.3988 3.80447 22.5781 4.68751H25C25.4144 4.68751 25.8118 4.85213 26.1049 5.14516C26.3979 5.43818 26.5625 5.83561 26.5625 6.25001V10.9375M10.9375 10.9375H26.5625M10.9375 10.9375H7.8125V39.0625H23.8281M26.5625 10.9375H29.6875V25.0781M14.0625 17.1875H23.4375M14.0625 25H23.4375M14.0625 32.8125H23.4375" stroke="#0E619D" stroke-width="4" stroke-miterlimit="10"/>
<path d="M35.9375 48.4375C42.8411 48.4375 48.4375 42.8411 48.4375 35.9375C48.4375 29.0339 42.8411 23.4375 35.9375 23.4375C29.0339 23.4375 23.4375 29.0339 23.4375 35.9375C23.4375 42.8411 29.0339 48.4375 35.9375 48.4375Z" stroke="#0E619D" stroke-width="4" stroke-miterlimit="10"/>
<path d="M41.4062 32.8125L35.1562 39.8438L31.25 35.9375" stroke="#0E619D" stroke-width="4" stroke-miterlimit="10"/>
</g>
<defs>
<clipPath id="clip0_3517_98">
<rect width="50" height="50" fill="white"/>
</clipPath>
</defs>
</svg>
