<svg width="44" height="44" viewBox="0 0 44 44" fill="none" xmlns="http://www.w3.org/2000/svg">
<g clip-path="url(#clip0_3455_213)">
<path d="M29.0026 24.3177L33.8078 16.9786L32.9802 16.2385L26.2846 21.8878C25.0542 21.6362 23.7289 22.0117 22.832 23.0143C21.4904 24.5146 21.6198 26.8206 23.1219 28.1622C24.624 29.5039 26.9281 29.3745 28.2698 27.8724C29.1667 26.8698 29.3909 25.5117 29.0026 24.3177ZM21.875 4.91094V0H29.1667V4.91094C26.5435 4.46797 24.4417 4.47708 21.875 4.91094ZM38.0096 8.67344L40.5745 6.10859L43.1521 8.6862L40.744 11.0943C39.9018 10.212 38.9867 9.40443 38.0096 8.67344ZM3.64583 16.4062H18.2292V20.0521H3.64583V16.4062ZM0 23.6979H14.5833V27.3438H0V23.6979ZM5.46875 30.9896H18.2292V34.6354H5.46875V30.9896ZM43.75 25.5208C43.75 35.5888 35.5888 43.75 25.5208 43.75C20.4349 43.75 15.8594 41.6445 12.5581 38.2812H18.5372C20.6117 39.4315 22.9833 40.1042 25.5208 40.1042C33.5617 40.1042 40.1042 33.5617 40.1042 25.5208C40.1042 17.4799 33.5617 10.9375 25.5208 10.9375C22.9833 10.9375 20.6117 11.6102 18.5372 12.7604H12.5581C15.8594 9.39713 20.4349 7.29167 25.5208 7.29167C35.5888 7.29167 43.75 15.4529 43.75 25.5208Z" fill="#0E619D"/>
</g>
<defs>
<clipPath id="clip0_3455_213">
<rect width="43.75" height="43.75" fill="white"/>
</clipPath>
</defs>
</svg>
