<svg width="44" height="44" viewBox="0 0 44 44" fill="none" xmlns="http://www.w3.org/2000/svg">
<g clip-path="url(#clip0_3455_209)">
<path fill-rule="evenodd" clip-rule="evenodd" d="M27.001 36.7704C25.5591 37.7238 23.8328 38.2816 21.9753 38.2816C16.944 38.2816 12.8607 34.1982 12.8607 29.167C12.8607 24.1357 16.944 20.0524 21.9753 20.0524C27.0065 20.0524 31.0898 24.1357 31.0898 29.167C31.0898 31.0245 30.532 32.7508 29.5786 34.1928L34.7357 39.3498L32.1581 41.9274L27.001 36.7704ZM10.4435 34.6357C4.01224 34.6357 0 29.805 0 24.6097C0 19.6842 3.55833 15.5954 8.24141 14.7514C8.62786 7.54902 14.5742 1.82324 21.875 1.82324C29.1776 1.82324 35.1221 7.54902 35.5086 14.7514C40.1935 15.5954 43.75 19.6842 43.75 24.6097C43.75 29.8615 39.6284 34.6357 33.5052 34.6357C34.2945 32.9787 34.7357 31.123 34.7357 29.167C34.7357 22.1251 29.0172 16.4066 21.9753 16.4066C14.9315 16.4066 9.21484 22.1251 9.21484 29.167C9.21484 31.123 9.65599 32.9787 10.4435 34.6357ZM21.9753 23.6982C24.9922 23.6982 27.444 26.1501 27.444 29.167C27.444 32.1839 24.9922 34.6357 21.9753 34.6357C18.9565 34.6357 16.5065 32.1839 16.5065 29.167C16.5065 26.1501 18.9565 23.6982 21.9753 23.6982Z" fill="#0E619D"/>
</g>
<defs>
<clipPath id="clip0_3455_209">
<rect width="43.75" height="43.75" fill="white"/>
</clipPath>
</defs>
</svg>
