<svg width="44" height="44" viewBox="0 0 44 44" fill="none" xmlns="http://www.w3.org/2000/svg">
<path fill-rule="evenodd" clip-rule="evenodd" d="M3.64453 32.3564C3.64453 31.6018 4.25703 30.9893 5.01172 30.9893H38.7357C39.4904 30.9893 40.1029 31.6018 40.1029 32.3564C40.1029 33.1111 39.4904 33.7236 38.7357 33.7236H5.01172C4.25703 33.7236 3.64453 33.1111 3.64453 32.3564ZM13.718 16.2637C13.718 16.2637 14.6313 17.1843 17.8268 20.3817C18.0948 20.6497 18.2279 20.9997 18.2279 21.3479C18.2279 21.6979 18.0948 22.0479 17.8268 22.3158C14.6331 25.5114 13.718 26.432 13.718 26.432C13.4536 26.6963 13.1073 26.8275 12.7591 26.8275C12.4091 26.8257 12.0591 26.6926 11.793 26.4247C11.2589 25.8906 11.2552 25.0283 11.7857 24.4979L13.5667 22.715H5.01172C4.25703 22.715 3.64453 22.1025 3.64453 21.3479C3.64453 20.595 4.25703 19.9807 5.01172 19.9807H13.5667L11.7839 18.1979C11.257 17.671 11.2607 16.8088 11.7948 16.2747C12.0628 16.0085 12.4128 15.8736 12.7609 15.8718C13.1091 15.87 13.4536 16.0012 13.718 16.2637ZM20.0508 25.0648C20.0508 24.3101 20.6633 23.6976 21.418 23.6976H38.7357C39.4904 23.6976 40.1029 24.3101 40.1029 25.0648C40.1029 25.8195 39.4904 26.432 38.7357 26.432H21.418C20.6633 26.432 20.0508 25.8195 20.0508 25.0648ZM20.0508 17.7731C20.0508 17.0184 20.6633 16.4059 21.418 16.4059H38.7357C39.4904 16.4059 40.1029 17.0184 40.1029 17.7731C40.1029 18.5278 39.4904 19.1403 38.7357 19.1403H21.418C20.6633 19.1403 20.0508 18.5278 20.0508 17.7731ZM3.64453 10.4814C3.64453 9.72676 4.25703 9.11426 5.01172 9.11426H38.7357C39.4904 9.11426 40.1029 9.72676 40.1029 10.4814C40.1029 11.2361 39.4904 11.8486 38.7357 11.8486H5.01172C4.25703 11.8486 3.64453 11.2361 3.64453 10.4814Z" fill="#0E619D"/>
</svg>
