<svg width="44" height="44" viewBox="0 0 44 44" fill="none" xmlns="http://www.w3.org/2000/svg">
<g clip-path="url(#clip0_3455_207)">
<path fill-rule="evenodd" clip-rule="evenodd" d="M0 1.82324H43.75V41.9274H0V1.82324ZM40.1042 38.2816V10.9378H3.64583V38.2816H40.1042ZM30.1602 19.1774L22.6078 25.7016C21.3773 25.4501 20.0539 25.8256 19.1552 26.8282C17.8154 28.3303 17.943 30.6344 19.4451 31.9761C20.9453 33.3178 23.2513 33.1883 24.593 31.6881C25.4898 30.6837 25.7159 29.3256 25.3258 28.1316L30.9896 19.9157L30.1602 19.1774ZM12.7604 30.9899H7.29167C7.29167 22.9417 13.8268 16.4066 21.875 16.4066C23.9951 16.4066 26.0112 16.8605 27.8305 17.6753L22.7445 21.9154L21.875 21.8753C16.8456 21.8753 12.7604 25.9587 12.7604 30.9899ZM36.4583 30.9899H30.9896C30.9896 29.4149 30.5904 27.9347 29.8867 26.6423L33.0385 21.6092C35.1714 24.1467 36.4583 27.4188 36.4583 30.9899Z" fill="#0E619D"/>
</g>
<defs>
<clipPath id="clip0_3455_207">
<rect width="43.75" height="43.75" fill="white"/>
</clipPath>
</defs>
</svg>
