<svg width="44" height="44" viewBox="0 0 44 44" fill="none" xmlns="http://www.w3.org/2000/svg">
<g clip-path="url(#clip0_3455_215)">
<path fill-rule="evenodd" clip-rule="evenodd" d="M23.0886 41.7594L18.0081 31.9539L15.0295 33.4122C11.7975 34.9799 5.21672 22.1266 8.37766 20.4331L11.3818 18.9529L6.34329 9.11458L3.30448 10.6148C-7.08979 16.0326 9.41308 48.1104 20.0443 43.2505C20.2193 43.1721 23.0777 41.7648 23.0886 41.7594ZM32.0245 37.0143L33.9222 40.1315C32.0646 41.3602 30.0084 42.3135 27.8136 42.9333L26.111 39.6083C28.2529 39.0979 30.249 38.2083 32.0245 37.0143ZM37.3511 31.5055L40.7818 32.8763C39.5459 34.9945 37.9636 36.8849 36.1152 38.4745L34.1883 35.3099C35.406 34.1943 36.4725 32.9128 37.3511 31.5055ZM38.6253 29.0701C39.5769 26.8625 40.1037 24.4289 40.1037 21.875C40.1037 11.8143 31.9352 3.64583 21.8745 3.64583C17.3227 3.64583 13.1592 5.31745 9.9636 8.07917L8.26282 4.75417C11.9998 1.77917 16.7303 0 21.8745 0C33.9477 0 43.7495 9.80182 43.7495 21.875C43.7495 24.9083 43.1297 27.7977 42.0123 30.4245L38.6253 29.0701ZM32.2251 27.3438H29.6037V24.5182H24.3537V22.7154L28.8381 15.4966H32.2251V22.4419H33.6469V24.5182H32.2251V27.3438ZM22.9829 27.3438H14.5829V25.6685L16.1141 24.2831C18.7027 21.968 19.9605 20.6372 19.9969 19.25C19.9969 18.2839 19.4136 17.5182 18.0464 17.5182C17.0256 17.5182 16.1323 18.0286 15.5126 18.5026L14.7287 16.5174C15.6219 15.843 17.0073 15.2961 18.6115 15.2961C21.2894 15.2961 22.7641 16.862 22.7641 19.013C22.7641 21.0018 21.3258 22.5878 19.6141 24.119L18.5204 25.0305V25.0669H22.9829V27.3438ZM29.6037 22.4419V19.8169C29.6037 19.1042 29.6402 18.375 29.6948 17.6094H29.6219C29.2391 18.375 28.9292 19.0677 28.5282 19.8169L26.9422 22.4055V22.4419H29.6037Z" fill="#0E619D"/>
</g>
<defs>
<clipPath id="clip0_3455_215">
<rect width="43.75" height="43.75" fill="white"/>
</clipPath>
</defs>
</svg>
