<svg width="44" height="44" viewBox="0 0 44 44" fill="none" xmlns="http://www.w3.org/2000/svg">
<g clip-path="url(#clip0_3455_217)">
<path d="M38.5893 36.0099C39.5409 34.5698 40.1042 32.8471 40.1042 30.9896C40.1042 25.9565 36.0245 21.875 30.9896 21.875C25.9547 21.875 21.875 25.9565 21.875 30.9896C21.875 36.0227 25.9547 40.1042 30.9896 40.1042C32.8471 40.1042 34.5698 39.5409 36.0117 38.5875L41.1724 43.75L43.75 41.1724L38.5893 36.0099ZM30.9896 36.4583C27.9745 36.4583 25.5208 34.0047 25.5208 30.9896C25.5208 27.9745 27.9745 25.5208 30.9896 25.5208C34.0047 25.5208 36.4583 27.9745 36.4583 30.9896C36.4583 34.0047 34.0047 36.4583 30.9896 36.4583ZM22.0755 40.1042H9.11458L13.8523 34.6354H18.7669C19.3958 36.7354 20.5461 38.6094 22.0755 40.1042ZM18.2292 30.9896H0V0H40.1042V22.0755C39.0578 21.0073 37.8237 20.1286 36.4583 19.4779V3.64583H3.64583V27.3438H18.7669C18.4206 28.4995 18.2292 29.7227 18.2292 30.9896ZM10.9375 23.6979H7.29167V12.7604H10.9375V23.6979ZM16.4062 23.6979H12.7604V7.29167H16.4062V23.6979ZM21.875 23.6979H18.2292V16.4062H21.875V23.6979Z" fill="#0E619D"/>
</g>
<defs>
<clipPath id="clip0_3455_217">
<rect width="43.75" height="43.75" fill="white"/>
</clipPath>
</defs>
</svg>
