<svg width="44" height="44" viewBox="0 0 44 44" fill="none" xmlns="http://www.w3.org/2000/svg">
<g clip-path="url(#clip0_3455_221)">
<path fill-rule="evenodd" clip-rule="evenodd" d="M7.01458 34.6354H5.46875C4.01771 34.6354 2.62682 34.0594 1.60234 33.0331C0.576042 32.0086 0 30.6177 0 29.1667V23.6979C0 10.6185 9.80182 0 21.875 0C33.9482 0 43.75 10.6185 43.75 23.6979V29.1667C43.75 30.6177 43.174 32.0086 42.1477 33.0331C41.1232 34.0594 39.7323 34.6354 38.2812 34.6354H36.7354C31.8318 43.081 24.15 43.75 21.875 43.75C19.6 43.75 11.9182 43.081 7.01458 34.6354ZM36.4583 23.924C35.3628 24.3542 34.1451 23.5958 34.1451 22.4711C34.1451 21.9169 34.1049 21.3591 34.0484 20.8031C30.8383 20.3401 27.4531 17.2922 27.3055 14.0164C24.9083 17.6714 19.0568 21.618 14.4648 21.618C16.4445 20.3438 17.8172 16.563 17.9339 15.2232C16.8747 17.2138 12.651 20.9398 9.63776 21.5797L9.60495 22.4711C9.60495 23.5995 8.38542 24.3523 7.29167 23.924V30.7982C7.81484 31.2648 8.44375 31.644 9.18932 31.881C9.59948 32.0122 9.94036 32.2893 10.1391 32.6539C14.1604 40.0294 20.0302 40.1042 21.875 40.1042C23.5685 40.1042 28.6544 40.0404 32.5883 34.3273C30.6359 35.1167 28.4594 35.4284 25.7359 35.5177C25.0615 36.6115 23.5849 37.3698 21.875 37.3698C19.5271 37.3698 17.6221 35.9406 17.6221 34.1797C17.6221 32.4188 19.5271 30.9896 21.875 30.9896C23.5758 30.9896 25.0432 31.7388 25.725 32.8216C29.1885 32.7742 33.6292 32.2128 36.4583 28V23.924ZM16.4062 22.7865C17.6568 22.7865 18.6721 24.0115 18.6721 25.5208C18.6721 27.0302 17.6568 28.2552 16.4062 28.2552C15.1557 28.2552 14.1404 27.0302 14.1404 25.5208C14.1404 24.0115 15.1557 22.7865 16.4062 22.7865ZM27.3438 22.7865C28.5943 22.7865 29.6096 24.0115 29.6096 25.5208C29.6096 27.0302 28.5943 28.2552 27.3438 28.2552C26.0932 28.2552 25.0779 27.0302 25.0779 25.5208C25.0779 24.0115 26.0932 22.7865 27.3438 22.7865ZM37.3297 20.0521H39.8034C38.243 10.7224 30.8036 3.64583 21.875 3.64583C12.9464 3.64583 5.50703 10.7224 3.94661 20.0521H6.42031C7.36823 12.7185 12.6383 5.97552 21.875 5.97552C31.1117 5.97552 36.3818 12.7185 37.3297 20.0521Z" fill="#0E619D"/>
</g>
<defs>
<clipPath id="clip0_3455_221">
<rect width="43.75" height="43.75" fill="white"/>
</clipPath>
</defs>
</svg>
