<svg width="44" height="44" viewBox="0 0 44 44" fill="none" xmlns="http://www.w3.org/2000/svg">
<g clip-path="url(#clip0_3455_211)">
<path d="M40.1042 3.64583V40.1042H3.64583V3.64583H40.1042ZM43.75 0H0V43.75H43.75V0ZM36.4583 12.7604H21.875V14.5833H36.4583V12.7604ZM36.4583 21.875H21.875V23.6979H36.4583V21.875ZM36.4583 30.9896H21.875V32.8125H36.4583V30.9896ZM17.2885 10.3833L15.9943 9.11458L11.3404 13.8669L8.5349 11.2201L7.2625 12.5143L11.3641 16.4062L17.2885 10.3833ZM17.2885 19.4979L15.9943 18.2292L11.3422 22.9815L8.53672 20.3346L7.26432 21.6271L11.3641 25.5208L17.2885 19.4979ZM17.2885 28.6125L15.9943 27.3438L11.3422 32.0961L8.53672 29.4492L7.26432 30.7417L11.3641 34.6354L17.2885 28.6125Z" fill="#0E619D"/>
</g>
<defs>
<clipPath id="clip0_3455_211">
<rect width="43.75" height="43.75" fill="white"/>
</clipPath>
</defs>
</svg>
