<svg width="44" height="44" viewBox="0 0 44 44" fill="none" xmlns="http://www.w3.org/2000/svg">
<g clip-path="url(#clip0_3455_205)">
<path d="M22.9888 24.9065C23.4664 24.5656 24.0078 24.407 24.5365 24.407C25.6594 24.407 26.7422 25.1216 27.0977 26.3102C26.6437 25.962 26.1115 25.7906 25.5737 25.7906C25.025 25.7906 24.4745 25.9674 23.9951 26.3102C23.0435 26.9919 22.6224 28.1495 22.9906 29.2469C21.5068 28.1878 21.4977 25.9747 22.9888 24.9065ZM26.7677 39.1818C27.9544 39.5792 31.6258 40.5891 35.8805 43.75L43.75 38.1208C41.7029 35.2607 42.2625 33.2555 40.2281 30.4117C39.3185 29.1448 38.5164 28.3701 37.0289 28.6307L36.6023 28.7091L37.3206 29.7081C37.7562 30.3188 36.8339 30.9531 36.4109 30.3589L35.7711 29.4656C35.5451 29.1484 35.1513 28.999 34.7721 29.0828L33.3211 29.4091L34.1924 30.6232C34.6299 31.2357 33.7057 31.8646 33.2828 31.2721L32.5318 30.2221C32.2966 29.894 31.8883 29.7482 31.5073 29.843L30.0326 30.213L30.9513 31.4982C31.3906 32.1107 30.4646 32.7414 30.0417 32.149L27.0193 27.8943C26.5289 27.2089 25.5737 27.0503 24.8865 27.5406C24.201 28.0328 24.0406 28.9862 24.5346 29.6734L29.3326 36.4182C27.8523 35.8732 25.5792 35.6417 25.1599 37.1674C24.9065 38.0807 25.6375 38.8044 26.7677 39.1818ZM25.5208 5.46875H5.46875V14.5833H25.5208V5.46875ZM12.7604 21.875H18.2292V18.2292H12.7604V21.875ZM10.9375 18.2292H5.46875V21.875H10.9375V18.2292ZM10.9375 23.6979H5.46875V27.3438H10.9375V23.6979ZM5.46875 32.8125H10.9375V29.1667H5.46875V32.8125ZM18.2292 23.6979H12.7604V27.3438H18.2292V23.6979ZM22.4328 34.6354H3.64583V3.64583H27.3438V21.4193C30.0544 22.7555 30.9896 26.0604 30.9896 26.0604V0H0V38.2812H21.5487C21.3154 36.8193 21.638 35.7674 22.4328 34.6354ZM20.0521 18.2292V21.875H20.9763C22.2687 20.9891 23.8365 20.5789 25.5208 20.8396V18.2292H20.0521ZM18.2292 29.1667H12.7604V32.8125H18.2292V29.1667Z" fill="#0E619D"/>
</g>
<defs>
<clipPath id="clip0_3455_205">
<rect width="43.75" height="43.75" fill="white"/>
</clipPath>
</defs>
</svg>
