<svg width="50" height="50" viewBox="0 0 50 50" fill="none" xmlns="http://www.w3.org/2000/svg">
<path d="M36.4596 22.9163C41.6346 22.9163 45.8346 27.1163 45.8346 32.2913C45.8346 37.4663 41.6346 41.6663 36.4596 41.6663C31.2846 41.6663 27.0846 37.4663 27.0846 32.2913C27.0846 27.1163 31.2846 22.9163 36.4596 22.9163ZM25.3221 37.4976C25.2138 37.4997 25.1055 37.4997 24.9971 37.4997C16.5013 37.4997 8.86797 31.0559 4.46797 23.9934C4.26797 23.6622 4.16797 23.2893 4.16797 22.9163C4.16797 22.5434 4.27005 22.1705 4.47005 21.8393C8.86797 14.7768 16.5013 8.33301 24.9971 8.33301C33.6284 8.33301 41.2388 14.7705 45.5471 21.8601C45.7388 22.1851 45.8346 22.5518 45.8346 22.9163C45.8346 23.2893 45.7055 23.6434 45.5221 23.9913C44.3138 22.6705 42.8201 21.6163 41.1409 20.9247C37.2596 15.7663 31.5034 11.458 24.9971 11.458C17.7784 11.458 11.3867 16.9413 7.4888 22.9163C11.2701 28.7101 17.393 34.0413 24.3409 34.3601C24.5284 35.4622 24.8617 36.5143 25.3221 37.4976ZM31.7201 33.283L34.7242 35.9601C34.9221 36.1372 35.1721 36.2247 35.418 36.2247C35.7013 36.2247 35.9826 36.1101 36.1888 35.8872L41.2742 30.3268C41.4576 30.1268 41.5471 29.8747 41.5471 29.6268C41.5471 29.0559 41.0867 28.5872 40.5055 28.5872C40.2221 28.5872 39.9409 28.7018 39.7346 28.9247L35.343 33.7247L33.1076 31.733C32.9076 31.5559 32.6617 31.4684 32.4138 31.4684C31.8367 31.4684 31.3721 31.9351 31.3721 32.508C31.3721 32.7934 31.4888 33.0768 31.7201 33.283ZM24.2138 31.2122C19.9826 30.8163 16.668 27.2497 16.668 22.9163C16.668 18.3163 20.4013 14.583 25.0013 14.583C28.7596 14.583 31.9409 17.0768 32.9784 20.4997C31.9513 20.8038 30.9805 21.2372 30.0846 21.7809C29.568 19.4518 27.4867 17.708 25.0013 17.708C22.1263 17.708 19.793 20.0413 19.793 22.9163C19.793 25.7559 22.068 28.0663 24.893 28.1226C24.5409 29.1018 24.3076 30.1372 24.2138 31.2122Z" fill="white"/>
</svg>
