<svg width="50" height="50" viewBox="0 0 50 50" fill="none" xmlns="http://www.w3.org/2000/svg">
<g clip-path="url(#clip0_3480_231)">
<path fill-rule="evenodd" clip-rule="evenodd" d="M27.9229 50H0V4.16667H6.25C8.81458 4.16667 10.7937 1.90833 12.5 0H29.1667C30.8771 1.90833 32.8583 4.16667 35.4167 4.16667H41.6667V23.2292C40.6562 23.025 39.6104 22.9167 38.5417 22.9167L37.5 22.95V8.33333H29.1667L25 12.5H16.8812L12.5 8.33333H4.16667V45.8333H24.7208C25.5479 47.3979 26.6354 48.8062 27.9229 50ZM38.5417 27.0833C44.8646 27.0833 50 32.2167 50 38.5417C50 44.8667 44.8646 50 38.5417 50C32.2167 50 27.0833 44.8667 27.0833 38.5417C27.0833 32.2167 32.2167 27.0833 38.5417 27.0833ZM38.5417 31.25C42.5646 31.25 45.8333 34.5167 45.8333 38.5417C45.8333 42.5667 42.5646 45.8333 38.5417 45.8333C34.5167 45.8333 31.25 42.5667 31.25 38.5417C31.25 34.5167 34.5167 31.25 38.5417 31.25ZM43.75 39.5833H37.5V33.3333H39.5833V37.5H43.75V39.5833ZM12.1854 31.1417L10 29.0917L8.33333 30.8062L12.2167 34.5062L18.75 27.8562L17.0521 26.1729L12.1854 31.1417ZM25 33.3333H20.8333V31.25H25V33.3333ZM29.1667 29.1667H20.8333V27.0833H29.1667V29.1667ZM12.1854 20.7813L10 18.7333L8.33333 20.4479L12.2167 24.1479L18.75 17.4979L17.0521 15.8146L12.1854 20.7813ZM29.1667 22.9167H20.8333V20.8333H29.1667V22.9167ZM29.1667 18.75H20.8333V16.6667H29.1667V18.75ZM18.75 6.25C18.75 7.4 19.6854 8.33333 20.8333 8.33333C21.9854 8.33333 22.9167 7.4 22.9167 6.25C22.9167 5.1 21.9854 4.16667 20.8333 4.16667C19.6854 4.16667 18.75 5.1 18.75 6.25Z" fill="white"/>
</g>
<defs>
<clipPath id="clip0_3480_231">
<rect width="50" height="50" fill="white"/>
</clipPath>
</defs>
</svg>
