<svg width="50" height="50" viewBox="0 0 50 50" fill="none" xmlns="http://www.w3.org/2000/svg">
<g clip-path="url(#clip0_3480_197)">
<path fill-rule="evenodd" clip-rule="evenodd" d="M5.12083 18.775C4.50208 20.7479 4.16667 22.8479 4.16667 25.025C4.16667 36.525 13.5021 45.8583 25 45.8583C36.5 45.8583 45.8333 36.525 45.8333 25.025C45.8333 13.5271 36.5 4.19167 25 4.19167C20.5812 4.19167 16.4937 5.58333 13.1187 7.93333L16.6667 12.525H2.95833L6.98958 0L10.5687 4.63125C14.6479 1.7375 19.6229 0.025 25 0.025C38.7979 0.025 50 11.2271 50 25.025C50 38.8229 38.7979 50 25 50C11.2021 50 0 38.8229 0 25.025C0 22.8667 0.275 20.7729 0.789583 18.775H5.12083ZM26.6833 12.5C27.2917 14.2104 27.4646 15.3042 28.7875 15.8521C30.1146 16.4021 31.0229 15.7437 32.65 14.9708L35.0292 17.35C34.2521 18.9896 33.5979 19.8875 34.1479 21.2125C34.6938 22.5333 35.7812 22.7042 37.5 23.3146V26.6833C35.8 27.2875 34.6937 27.4646 34.1458 28.7875C33.5958 30.1125 34.2542 31.0187 35.0292 32.6479L32.65 35.0271C31.0042 34.2458 30.1104 33.5958 28.7958 34.1437C27.4646 34.6958 27.2896 35.7958 26.6833 37.5H23.3167C22.7083 35.7896 22.5354 34.6937 21.2125 34.1458C19.8854 33.5958 18.9792 34.2542 17.35 35.0271L14.9708 32.6479C15.7333 31.0417 16.4062 30.1229 15.8521 28.7854C15.3042 27.4625 14.2 27.2875 12.5 26.6833V23.3146C14.2021 22.7104 15.3042 22.5375 15.8521 21.2125C16.4021 19.8854 15.7458 18.9833 14.9708 17.35L17.35 14.9708C18.9917 15.75 19.8875 16.4021 21.2125 15.8521C22.5354 15.3042 22.7104 14.2021 23.3167 12.5H26.6833ZM25 29.1667C22.6979 29.1667 20.8333 27.3 20.8333 25C20.8333 22.6979 22.6979 20.8312 25 20.8312C27.3 20.8312 29.1667 22.6979 29.1667 25C29.1667 27.3 27.3 29.1667 25 29.1667Z" fill="white"/>
</g>
<defs>
<clipPath id="clip0_3480_197">
<rect width="50" height="50" fill="white"/>
</clipPath>
</defs>
</svg>
