<svg width="50" height="50" viewBox="0 0 50 50" fill="none" xmlns="http://www.w3.org/2000/svg">
<path d="M8.33333 16.6668V41.6668H50V16.6668H8.33333ZM29.1667 37.5002C24.5646 37.5002 20.8333 33.7668 20.8333 29.1668C20.8333 24.5668 24.5646 20.8335 29.1667 20.8335C33.7687 20.8335 37.5 24.5668 37.5 29.1668C37.5 33.7668 33.7687 37.5002 29.1667 37.5002ZM29.5833 33.2897V34.1668H28.75V33.3356C27.8896 33.321 26.9937 33.1168 26.25 32.7293L26.6312 31.3606C27.4292 31.6689 28.4896 31.9981 29.3167 31.8106C30.275 31.5939 30.4729 30.6085 29.4146 30.1335C28.6375 29.7752 26.2646 29.4627 26.2646 27.4314C26.2646 26.2939 27.1292 25.2772 28.75 25.0543V24.1668H29.5833V25.0147C30.1854 25.0314 30.8625 25.1356 31.6208 25.3647L31.3167 26.7377C30.6771 26.5147 29.9708 26.3085 29.2812 26.3522C28.0396 26.4252 27.9292 27.5002 28.7979 27.9502C30.2229 28.6189 32.0833 29.1189 32.0833 30.9043C32.0833 32.3356 30.9646 33.0981 29.5833 33.2897ZM45.8333 14.5835H6.25V37.5002H4.16667V12.5002H45.8333V14.5835ZM41.6667 10.4168H2.08333V33.3335H0V8.3335H41.6667V10.4168Z" fill="#0E619D"/>
</svg>
