<svg width="50" height="51" viewBox="0 0 50 51" fill="none" xmlns="http://www.w3.org/2000/svg">
<g clip-path="url(#clip0_3480_460)">
<path fill-rule="evenodd" clip-rule="evenodd" d="M47.2854 38.0809C48.3 41.61 49.2729 44.9934 49.8979 47.1829C49.9667 47.4288 50 47.6746 50 47.9121C50 48.9996 49.3333 50.0059 48.2708 50.4142L48.2667 50.4184C47.0083 50.9017 45.5875 50.3913 44.9354 49.2142C43.4896 46.6038 41.0479 42.3309 39.7896 40.1371L40.6812 40.1704C43.1396 40.1704 45.4167 39.3975 47.2854 38.0809ZM38.5042 50.585H11.5187L11.0375 38.7392C11.0375 38.7392 7.07708 45.3954 5.06458 49.0246C4.4125 50.2017 2.99167 50.7121 1.73333 50.2309L1.72917 50.2246C0.666667 49.8163 0 48.8121 0 47.7225C0 47.485 0.0333333 47.2392 0.102083 46.9954C1.425 42.3496 4.34792 32.5121 5.875 27.1496C6.44375 25.1517 8.275 23.7767 10.3625 23.7767H30.325C29.6083 25.2704 29.2062 26.9454 29.2062 28.7121C29.2062 34.4434 33.4292 39.1975 38.9354 40.0392L38.5042 50.585ZM40.625 19.3496C45.8 19.3496 50 23.5496 50 28.7246C50 33.8996 45.8 38.0996 40.625 38.0996C35.45 38.0996 31.25 33.8996 31.25 28.7246C31.25 23.5496 35.45 19.3496 40.625 19.3496ZM41.6667 23.5163H39.5833V27.6829H35.4167V29.7663H39.5833V33.9329H41.6667V29.7663H45.8333V27.6829H41.6667V23.5163ZM25.0125 0.599609C30.7979 0.599609 35.4938 5.27253 35.4938 11.0288C35.4938 16.785 30.7979 21.4579 25.0125 21.4579C19.2271 21.4579 14.5312 16.785 14.5312 11.0288C14.5312 5.27253 19.2271 0.599609 25.0125 0.599609Z" fill="#0E619D"/>
</g>
<defs>
<clipPath id="clip0_3480_460">
<rect width="50" height="50" fill="white" transform="translate(0 0.599609)"/>
</clipPath>
</defs>
</svg>
