<svg width="50" height="50" viewBox="0 0 50 50" fill="none" xmlns="http://www.w3.org/2000/svg">
<g clip-path="url(#clip0_3480_221)">
<path fill-rule="evenodd" clip-rule="evenodd" d="M16.6667 12.525H2.95833L6.98958 0L10.5687 4.63125C14.6479 1.7375 19.6229 0.025 25 0.025C38.7979 0.025 50 11.2271 50 25.025C50 38.8229 38.7979 50 25 50C11.2021 50 0 38.8229 0 25.025C0 22.8667 0.275 20.7729 0.789583 18.775H5.12083C4.50208 20.7479 4.16667 22.8479 4.16667 25.025C4.16667 36.525 13.5021 45.8583 25 45.8583C36.5 45.8583 45.8333 36.525 45.8333 25.025C45.8333 13.5271 36.5 4.19167 25 4.19167C20.5812 4.19167 16.4937 5.58333 13.1187 7.93333L16.6667 12.525ZM25 16.6667C29.6 16.6667 33.3333 20.4 33.3333 25C33.3333 29.6 29.6 33.3333 25 33.3333C20.4 33.3333 16.6667 29.6 16.6667 25C16.6667 20.4 20.4 16.6667 25 16.6667Z" fill="white"/>
</g>
<defs>
<clipPath id="clip0_3480_221">
<rect width="50" height="50" fill="white"/>
</clipPath>
</defs>
</svg>
