<svg width="51" height="51" viewBox="0 0 51 51" fill="none" xmlns="http://www.w3.org/2000/svg">
<path d="M46.7526 16.7446C46.7526 15.7488 45.963 14.6613 44.6693 14.6613H17.5859C16.2943 14.6613 15.5026 15.7425 15.5026 16.7446V43.828C15.5026 45.1217 16.5859 45.9113 17.5859 45.9113H44.6693C45.6651 45.9113 46.7526 45.1217 46.7526 43.828V16.7446ZM13.4193 12.578H41.0234C41.8859 12.578 42.5859 11.878 42.5859 11.0155C42.5859 10.153 41.8859 9.45296 41.0234 9.45296H12.3776C11.2734 9.45296 10.2943 10.4321 10.2943 11.5363V40.1821C10.2943 41.0446 10.9943 41.7446 11.8568 41.7446C12.7193 41.7446 13.4193 41.0446 13.4193 40.1821V12.578ZM8.21094 7.36963H36.8568C37.7193 7.36963 38.4193 6.66963 38.4193 5.80713C38.4193 4.94463 37.7193 4.24463 36.8568 4.24463H7.16927C6.0651 4.24463 5.08594 5.2238 5.08594 6.32796V36.0155C5.08594 36.878 5.78594 37.578 6.64844 37.578C7.51094 37.578 8.21094 36.878 8.21094 36.0155V7.36963Z" fill="#0E619D"/>
</svg>
