<svg width="50" height="50" viewBox="0 0 50 50" fill="none" xmlns="http://www.w3.org/2000/svg">
<path d="M29.1667 22.9163C25.7167 22.9163 22.9167 25.7163 22.9167 29.1663C22.9167 32.6163 25.7167 35.4163 29.1667 35.4163C32.6167 35.4163 35.4167 32.6163 35.4167 29.1663C35.4167 25.7163 32.6167 22.9163 29.1667 22.9163ZM29.4792 32.258V32.9143H28.8542V32.2913C28.2062 32.2809 27.5375 32.1268 26.9812 31.8393L27.2625 30.8122C27.8604 31.0413 28.6562 31.2893 29.2792 31.1497C29.9979 30.9872 30.1437 30.2476 29.35 29.8913C28.7687 29.6226 26.9896 29.3872 26.9896 27.8643C26.9896 27.0122 27.6417 26.2497 28.8542 26.083V25.4184H29.4812V26.0538C29.9333 26.0663 30.4417 26.1434 31.0062 26.3163L30.7812 27.3434C30.3021 27.1768 29.7708 27.0226 29.2542 27.0538C28.325 27.108 28.2417 27.9143 28.8917 28.2518C29.9625 28.7559 31.3542 29.1268 31.3542 30.4663C31.3562 31.5413 30.5146 32.1143 29.4792 32.258ZM8.33333 16.6663V41.6663H50V16.6663H8.33333ZM45.8333 37.4997H12.5V20.833H45.8333V37.4997ZM43.75 12.4997H4.16667V35.4163H0V8.33301H43.75V12.4997Z" fill="white"/>
</svg>
