<svg width="50" height="50" viewBox="0 0 50 50" fill="none" xmlns="http://www.w3.org/2000/svg">
<path fill-rule="evenodd" clip-rule="evenodd" d="M43.75 8.33333C43.75 7.3375 42.9604 6.25 41.6667 6.25H8.33333C7.04167 6.25 6.25 7.33125 6.25 8.33333V41.6667C6.25 42.9604 7.33333 43.75 8.33333 43.75H41.6667C42.6625 43.75 43.75 42.9604 43.75 41.6667V8.33333ZM9.375 9.375H40.625V40.625H9.375V9.375ZM37.5 31.7708C37.5 30.9083 36.8 30.2083 35.9375 30.2083H26.5625C25.7 30.2083 25 30.9083 25 31.7708C25 32.6333 25.7 33.3333 26.5625 33.3333H35.9375C36.8 33.3333 37.5 32.6333 37.5 31.7708ZM12.975 30.6521L15.5792 32.9729C15.85 33.2146 16.1896 33.3333 16.5271 33.3333C16.9125 33.3333 17.2979 33.1771 17.5771 32.8708L21.9854 28.0521C22.2354 27.7792 22.3583 27.4354 22.3583 27.0958C22.3583 26.3146 21.7271 25.675 20.9333 25.675C20.5479 25.675 20.1667 25.8292 19.8833 26.1354L16.425 29.9167L14.8708 28.5312C14.5979 28.2896 14.2604 28.1708 13.9229 28.1708C13.1333 28.1708 12.5 28.8104 12.5 29.5917C12.5 29.9833 12.6604 30.3708 12.975 30.6521ZM37.5 25.0042C37.5 24.1417 36.8 23.4417 35.9375 23.4417H26.5625C25.7 23.4417 25 24.1417 25 25.0042C25 25.8667 25.7 26.5667 26.5625 26.5667H35.9375C36.8 26.5667 37.5 25.8667 37.5 25.0042ZM12.975 21.6437L15.5792 23.9646C15.85 24.2062 16.1896 24.325 16.5271 24.325C16.9125 24.325 17.2979 24.1708 17.5771 23.8646L21.9854 19.0458C22.2354 18.7729 22.3583 18.4292 22.3583 18.0875C22.3583 17.3083 21.7271 16.6667 20.9333 16.6667C20.5479 16.6667 20.1667 16.8208 19.8833 17.1271L16.425 20.9083L14.8708 19.525C14.5979 19.2833 14.2604 19.1646 13.9229 19.1646C13.1333 19.1646 12.5 19.8021 12.5 20.5854C12.5 20.975 12.6604 21.3646 12.975 21.6458V21.6437ZM37.5 18.2292C37.5 17.3667 36.8 16.6667 35.9375 16.6667H26.5625C25.7 16.6667 25 17.3667 25 18.2292C25 19.0917 25.7 19.7917 26.5625 19.7917H35.9375C36.8 19.7917 37.5 19.0917 37.5 18.2292Z" fill="white"/>
</svg>
