<svg width="50" height="50" viewBox="0 0 50 50" fill="none" xmlns="http://www.w3.org/2000/svg">
<g clip-path="url(#clip0_3480_211)">
<path d="M32.9583 22.3667L21.6021 36.3604C20.4333 37.8 19.0729 38.5313 17.5604 38.5313C15.1771 38.5313 12.7125 36.6583 11.825 34.175C11.3792 32.925 11.0208 30.5083 13.6271 28.375C20.7458 22.5542 27.6187 17.0292 27.6187 17.0292L20.6125 8.33333C20.6125 8.33333 11.1708 15.9521 6.50625 19.7646C1.12917 24.1563 0 29.0729 0 32.4208C0 41.6208 8.3625 50 17.5417 50C20.8833 50 25.7979 48.8687 30.2167 43.4833C34.0396 38.8229 41.6667 29.3729 41.6667 29.3729L32.9583 22.3667ZM27.5333 41.2812C24.7146 44.7125 21.2625 46.5292 17.5417 46.5292C10.3104 46.5292 3.47292 39.6729 3.47292 32.4229C3.47292 28.6958 5.27917 25.25 8.70208 22.4542C11.2146 20.4 14.7125 17.5625 17.4104 15.375L20.0083 18.7062C17.7708 20.5187 14.7854 22.9417 11.4292 25.6896C8.36458 28.1937 7.28958 31.8042 8.55417 35.3437C9.93125 39.2042 13.7188 42.0042 17.5583 42.0042C19.35 42.0042 21.9812 41.4042 24.2958 38.55L31.2854 29.9375L34.5604 32.6333C32.3854 35.3229 29.5771 38.7875 27.5333 41.2812ZM40.35 24.7521L49.3458 18.7521L46.0646 17.4229L50 12.3937L40.7896 18.2021L44.3646 19.65L40.35 24.7521ZM25.1583 9.78125L35.4 6.30833L32.575 4.17917L37.675 0L27.2771 3.56667L30.3562 5.8875L25.1583 9.78125Z" fill="white"/>
</g>
<defs>
<clipPath id="clip0_3480_211">
<rect width="50" height="50" fill="white"/>
</clipPath>
</defs>
</svg>
