<svg width="50" height="50" viewBox="0 0 50 50" fill="none" xmlns="http://www.w3.org/2000/svg">
<path fill-rule="evenodd" clip-rule="evenodd" d="M37.1367 50H4.16797V0H25.3951C31.9826 0 45.8346 15.0479 45.8346 20.0292V41.0104L41.668 36.8437V21.7854C41.668 13.2292 29.168 16.6667 29.168 16.6667C29.168 16.6667 32.3284 4.16667 23.6721 4.16667H8.33464V45.8333H32.9701L37.1367 50ZM32.9159 39.8792C31.2513 41.0083 29.2451 41.6667 27.0846 41.6667C21.3346 41.6667 16.668 37 16.668 31.25C16.668 25.5 21.3346 20.8333 27.0846 20.8333C32.8346 20.8333 37.5013 25.5 37.5013 31.25C37.5013 33.3333 36.8888 35.275 35.8326 36.9042L45.8346 47.0542L42.8888 50L32.9159 39.8792ZM27.0846 25C30.5346 25 33.3346 27.8 33.3346 31.25C33.3346 34.7 30.5346 37.5 27.0846 37.5C23.6346 37.5 20.8346 34.7 20.8346 31.25C20.8346 27.8 23.6346 25 27.0846 25Z" fill="white"/>
</svg>
