<svg width="50" height="50" viewBox="0 0 50 50" fill="none" xmlns="http://www.w3.org/2000/svg">
<g clip-path="url(#clip0_3480_166)">
<path fill-rule="evenodd" clip-rule="evenodd" d="M41.1604 42.0226C39.5125 43.1143 37.5375 43.7497 35.4167 43.7497C29.6667 43.7497 25 39.083 25 33.333C25 27.583 29.6667 22.9163 35.4167 22.9163C41.1667 22.9163 45.8333 27.583 45.8333 33.333C45.8333 35.4538 45.1979 37.4288 44.1062 39.0768L50 44.9705L47.0542 47.9163L41.1604 42.0226ZM25.2146 43.7497H0V2.08301H18.75V14.583H27.0833V2.08301H45.8333V23.1309C43.1854 20.4288 39.4958 18.7497 35.4167 18.7497C27.3687 18.7497 20.8333 25.2851 20.8333 33.333C20.8333 37.4122 22.5125 41.1018 25.2146 43.7497ZM35.4167 27.083C38.8667 27.083 41.6667 29.883 41.6667 33.333C41.6667 36.783 38.8667 39.583 35.4167 39.583C31.9667 39.583 29.1667 36.783 29.1667 33.333C29.1667 29.883 31.9667 27.083 35.4167 27.083ZM14.5833 33.333H6.25V37.4997H14.5833V33.333ZM32.7958 35.4163H31.7542V31.2497H32.7958V35.4163ZM34.8792 35.4163H33.8375V31.2497H34.8792V35.4163ZM36.9625 35.4163H35.9208V31.2497H36.9625V35.4163ZM39.0292 35.4163H38.0042V31.2497H39.0292V35.4163Z" fill="#0E619D"/>
</g>
<defs>
<clipPath id="clip0_3480_166">
<rect width="50" height="50" fill="white"/>
</clipPath>
</defs>
</svg>
