<svg width="50" height="50" viewBox="0 0 50 50" fill="none" xmlns="http://www.w3.org/2000/svg">
<g clip-path="url(#clip0_3480_217)">
<path d="M35.4167 2.08333C35.4167 0.933333 34.4854 0 33.3333 0C32.1812 0 31.25 0.933333 31.25 2.08333V6.25C31.25 7.4 32.1812 8.33333 33.3333 8.33333C34.4854 8.33333 35.4167 7.4 35.4167 6.25V2.08333ZM10.4167 6.25C10.4167 7.4 9.48542 8.33333 8.33333 8.33333C7.18125 8.33333 6.25 7.4 6.25 6.25V2.08333C6.25 0.933333 7.18125 0 8.33333 0C9.48542 0 10.4167 0.933333 10.4167 2.08333V6.25ZM37.5 16.6667V37.5H4.16667V16.6667H37.5ZM41.6667 4.16667H37.5V6.25C37.5 8.54792 35.6312 10.4167 33.3333 10.4167C31.0354 10.4167 29.1667 8.54792 29.1667 6.25V4.16667H12.5V6.25C12.5 8.54792 10.6312 10.4167 8.33333 10.4167C6.03542 10.4167 4.16667 8.54792 4.16667 6.25V4.16667H0V41.6667H41.6667V4.16667ZM50 10.4167V50H4.16667V45.8333H45.8333V10.4167H50ZM14.5833 25H10.4167V20.8333H14.5833V25ZM22.9167 25H18.75V20.8333H22.9167V25ZM31.25 25H27.0833V20.8333H31.25V25ZM14.5833 33.3333H10.4167V29.1667H14.5833V33.3333ZM22.9167 33.3333H18.75V29.1667H22.9167V33.3333ZM31.25 33.3333H27.0833V29.1667H31.25V33.3333Z" fill="white"/>
</g>
<defs>
<clipPath id="clip0_3480_217">
<rect width="50" height="50" fill="white"/>
</clipPath>
</defs>
</svg>
