<svg width="50" height="50" viewBox="0 0 50 50" fill="none" xmlns="http://www.w3.org/2000/svg">
<g clip-path="url(#clip0_3480_236)">
<path d="M22.7875 41.6667H0V0H43.75V23.8792C42.5125 22.8958 41.1062 22.1229 39.5833 21.6V12.5H4.16667V37.5H21.275C21.5583 38.9854 22.075 40.3875 22.7875 41.6667ZM50 47.0542L44.1021 41.1542C45.1896 39.5083 45.8333 37.5396 45.8333 35.4167C45.8333 29.6646 41.1708 25 35.4167 25C29.6625 25 25 29.6646 25 35.4167C25 41.1687 29.6625 45.8333 35.4167 45.8333C37.5396 45.8333 39.5083 45.1896 41.1562 44.1L47.0542 50L50 47.0542ZM29.1667 35.4167C29.1667 31.9708 31.9708 29.1667 35.4167 29.1667C38.8625 29.1667 41.6667 31.9708 41.6667 35.4167C41.6667 38.8625 38.8625 41.6667 35.4167 41.6667C31.9708 41.6667 29.1667 38.8625 29.1667 35.4167ZM10.4167 33.3333H6.25V22.9167H10.4167V33.3333ZM16.6667 33.3333H12.5V16.6667H16.6667V33.3333ZM22.9167 33.3333H18.75V27.0833H22.9167V33.3333Z" fill="white"/>
</g>
<defs>
<clipPath id="clip0_3480_236">
<rect width="50" height="50" fill="white"/>
</clipPath>
</defs>
</svg>
