<svg width="50" height="50" viewBox="0 0 50 50" fill="none" xmlns="http://www.w3.org/2000/svg">
<path fill-rule="evenodd" clip-rule="evenodd" d="M38.5417 25.0002C32.2167 25.0002 27.0833 30.1314 27.0833 36.4585C27.0833 42.7856 32.2167 47.9168 38.5417 47.9168C44.8646 47.9168 50 42.7856 50 36.4585C50 30.1314 44.8646 25.0002 38.5417 25.0002ZM24.7208 43.7502H0V2.0835H18.75V14.5835H27.0833V2.0835H45.8333V22.6377C43.6562 21.4856 41.175 20.8335 38.5417 20.8335C29.9187 20.8335 22.9167 27.8356 22.9167 36.4585C22.9167 39.0918 23.5687 41.5731 24.7208 43.7502ZM37.2604 37.6252L34.6375 35.1627L32.6333 37.2231L37.3 41.6668L45.1437 33.6793L43.1042 31.6585L37.2604 37.6252ZM14.5833 33.3335H6.25V37.5002H14.5833V33.3335Z" fill="#0E619D"/>
</svg>
