<svg width="50" height="50" viewBox="0 0 50 50" fill="none" xmlns="http://www.w3.org/2000/svg">
<path d="M45.5333 21.4647C45.7125 22.6189 45.8333 23.7939 45.8333 25.0002C45.8333 37.6564 35.5729 47.9168 22.9167 47.9168C10.2604 47.9168 0 37.6564 0 25.0002C0 12.3439 10.2604 2.0835 22.9167 2.0835C27.8062 2.0835 32.3292 3.62725 36.05 6.23558L33.0875 9.271C30.1542 7.36891 26.6667 6.25016 22.9167 6.25016C12.5792 6.25016 4.16667 14.6627 4.16667 25.0002C4.16667 35.3377 12.5792 43.7502 22.9167 43.7502C33.1125 43.7502 41.4146 35.5668 41.6458 25.4272L45.5333 21.4647ZM43.55 4.51475L23.9583 24.596L15.9521 17.0668L9.50417 23.521L23.9583 37.5002L50 10.9647L43.55 4.51475Z" fill="#0E619D"/>
</svg>
