<svg width="30" height="30" viewBox="0 0 30 30" fill="none" xmlns="http://www.w3.org/2000/svg">
<g clip-path="url(#clip0_3848_528)">
<path d="M13.8281 26.7188C11.2786 26.7188 8.78634 25.9627 6.66648 24.5463C4.54663 23.1299 2.89441 21.1166 1.91875 18.7612C0.943085 16.4057 0.687808 13.8138 1.1852 11.3133C1.68258 8.81276 2.9103 6.51587 4.71308 4.71308C6.51587 2.9103 8.81276 1.68258 11.3133 1.1852C13.8138 0.687808 16.4057 0.943085 18.7612 1.91875C21.1166 2.89441 23.1299 4.54663 24.5463 6.66648C25.9627 8.78634 26.7188 11.2786 26.7188 13.8281M13.8281 21.3281C12.3448 21.3281 10.8947 20.8883 9.66135 20.0642C8.42799 19.24 7.46669 18.0687 6.89903 16.6983C6.33138 15.3278 6.18285 13.8198 6.47224 12.365C6.76163 10.9101 7.47594 9.57372 8.52483 8.52483C9.57372 7.47594 10.9101 6.76163 12.365 6.47224C13.8198 6.18285 15.3278 6.33138 16.6983 6.89903C18.0687 7.46669 19.24 8.42799 20.0642 9.66135C20.8883 10.8947 21.3281 12.3448 21.3281 13.8281" stroke="#0E619D" stroke-width="2" stroke-miterlimit="10"/>
<path d="M13.8281 15.7031C14.8637 15.7031 15.7031 14.8637 15.7031 13.8281C15.7031 12.7926 14.8637 11.9531 13.8281 11.9531C12.7926 11.9531 11.9531 12.7926 11.9531 13.8281C11.9531 14.8637 12.7926 15.7031 13.8281 15.7031Z" stroke="#0E619D" stroke-width="2" stroke-miterlimit="10"/>
<path d="M29.0625 29.0625L17.7656 17.7656M17.7656 17.7656L25.875 18.5156M17.7656 17.7656L18.4219 25.9219" stroke="#0E619D" stroke-width="2" stroke-miterlimit="10"/>
</g>
<defs>
<clipPath id="clip0_3848_528">
<rect width="30" height="30" fill="white"/>
</clipPath>
</defs>
</svg>
