<svg width="50" height="50" viewBox="0 0 50 50" fill="none" xmlns="http://www.w3.org/2000/svg">
<path d="M32.8125 22.6562L38.2812 28.9062L32.8125 35.1562M23.4375 22.6562L17.9688 28.9062L23.4375 35.1562" stroke="#0E619D" stroke-width="3" stroke-miterlimit="10"/>
<path d="M5.46875 42.9688C6.09035 42.9688 6.68649 42.7218 7.12603 42.2823C7.56557 41.8427 7.8125 41.2466 7.8125 40.625V14.8438H48.4375V40.625C48.4375 41.2466 48.1906 41.8427 47.751 42.2823C47.3115 42.7218 46.7154 42.9688 46.0938 42.9688H3.90625C3.28465 42.9688 2.68851 42.7218 2.24897 42.2823C1.80943 41.8427 1.5625 41.2466 1.5625 40.625V5.46875H15.625V8.59375H42.1875V14.8438" stroke="#0E619D" stroke-width="3" stroke-miterlimit="10"/>
</svg>
