<svg width="30" height="30" viewBox="0 0 30 30" fill="none" xmlns="http://www.w3.org/2000/svg">
<g clip-path="url(#clip0_3848_507)">
<path d="M24.375 25.875C23.4375 25.875 17.3906 28.5938 14.0625 28.5938C12.0938 28.5938 10.3594 27.5625 6.5625 25.7812C4.78125 24.9375 0.9375 22.6875 0.9375 21.0938C0.9375 19.5 6.04688 21.6094 10.3594 22.9688M24.375 17.3438H29.0625V27.6562H24.375V17.3438Z" stroke="#0E619D" stroke-width="2" stroke-miterlimit="10"/>
<path d="M15.9844 8.90625C18.0554 8.90625 19.7344 7.22732 19.7344 5.15625C19.7344 3.08518 18.0554 1.40625 15.9844 1.40625C13.9133 1.40625 12.2344 3.08518 12.2344 5.15625C12.2344 7.22732 13.9133 8.90625 15.9844 8.90625Z" stroke="#0E619D" stroke-width="2" stroke-miterlimit="10"/>
<path d="M9.375 17.3438C11.4461 17.3438 13.125 15.6648 13.125 13.5938C13.125 11.5227 11.4461 9.84375 9.375 9.84375C7.30393 9.84375 5.625 11.5227 5.625 13.5938C5.625 15.6648 7.30393 17.3438 9.375 17.3438Z" stroke="#0E619D" stroke-width="2" stroke-miterlimit="10"/>
<path d="M16.9219 24.8438H12.2344C11.7371 24.8438 11.2602 24.6462 10.9085 24.2946C10.5569 23.9429 10.3594 23.466 10.3594 22.9688C10.3594 22.4715 10.5569 21.9946 10.9085 21.6429C11.2602 21.2913 11.7371 21.0938 12.2344 21.0938H14.1094C19.7344 21.0938 17.8594 18.2812 24.4219 18.2812" stroke="#0E619D" stroke-width="2" stroke-miterlimit="10"/>
</g>
<defs>
<clipPath id="clip0_3848_507">
<rect width="30" height="30" fill="white"/>
</clipPath>
</defs>
</svg>
