<svg width="70" height="70" viewBox="0 0 70 70" fill="none" xmlns="http://www.w3.org/2000/svg">
<g clip-path="url(#clip0_804_53)">
<path d="M35.4433 54.2908C36.3592 54.9588 36.5604 56.2479 35.8808 57.1608L33.5271 60.3458C32.9 61.2033 31.5379 61.4367 30.6513 60.7863C29.7354 60.1125 29.5342 58.8263 30.2079 57.9104L32.5675 54.7254C33.2354 53.8213 34.5217 53.6113 35.4433 54.2908ZM21.0671 51.24L23.4208 48.0696C24.0917 47.1538 23.8992 45.8675 22.9775 45.1908C22.0558 44.5142 20.7725 44.7154 20.1017 45.6313L17.7508 48.8046C17.08 49.7175 17.2754 51.0096 18.1913 51.6833C19.0604 52.3192 20.4313 52.1092 21.0671 51.24ZM28.4054 51.7008L26.0575 54.8683C25.3838 55.7871 25.585 57.0762 26.4979 57.75C27.3758 58.3946 28.7437 58.1729 29.3767 57.3096L31.7246 54.1363C32.3983 53.2233 32.2 51.9342 31.2842 51.2575C30.3713 50.5867 29.0879 50.7821 28.4054 51.7008ZM38.7975 57.8754C38.4242 58.7563 37.4208 59.9929 36.7354 60.9204C37.1875 61.1537 37.6367 61.25 38.0508 61.25C39.6317 61.25 40.6817 59.7596 39.2613 58.3392L38.7975 57.8754ZM24.255 48.6675L21.8867 51.8642C21.2158 52.78 21.4288 54.04 22.3417 54.7167C23.24 55.3729 24.5817 55.1542 25.2029 54.2996L27.5713 51.1C28.2479 50.19 28.0467 48.8979 27.1279 48.2242C26.2092 47.5533 24.9258 47.7546 24.255 48.6675ZM61.4308 46.3021L70 44.0242L65.3829 26.25L56.6942 28.8633L61.4308 46.3021ZM54.1917 30.7796C49.9538 31.0888 45.9258 29.5283 41.5013 27.2446C40.5271 26.7429 39.4042 26.3346 38.3075 26.3346C37.2983 26.3346 36.3096 26.6817 35.4813 27.6208C32.4946 31.0071 30.7592 33.9996 27.2008 36.0733C25.4479 37.0971 27.5042 40.3025 31.2725 38.9871C33.1917 38.3133 35.7933 36.575 37.9137 34.8658C39.5821 33.5213 40.5796 33.7167 42.0263 35.1633C44.7329 37.8729 53.8475 46.8679 53.8475 46.8679C55.2563 45.9988 56.6183 45.2958 57.9688 44.6921L54.1917 30.7796ZM13.3058 28.8633L4.61708 26.25L0 44.0242L8.56917 46.3021L13.3058 28.8633ZM52.4067 49.6475C50.995 48.0871 41.5071 38.7596 39.8213 37.0767C36.96 39.2233 33.1917 42.2129 29.5517 42.2129C26.8013 42.2129 24.4417 40.5883 23.8117 38.2638C23.3071 36.4117 24.0829 34.5158 25.7367 33.5504C27.8075 32.3429 29.1813 30.6892 30.8554 28.6183C25.7396 25.3867 21.3763 30.6367 15.8375 30.6863L12.1246 44.3508C13.7463 44.7358 15.1579 45.1442 16.4675 45.6371L17.7508 43.9017C20.0608 40.7488 24.8792 41.4021 26.355 44.9254C28.2217 45.0888 29.8142 46.2933 30.5083 47.9588C32.3138 48.1163 33.9325 49.2625 34.6558 50.9892C37.3858 51.2254 39.6142 53.7017 39.1183 56.7408L41.0258 58.6483C41.8279 59.4533 43.1346 59.4504 43.9338 58.6483C44.7388 57.8433 44.7388 56.5396 43.9338 55.7346L40.2471 52.045C40.0458 51.8438 40.0458 51.5112 40.2558 51.31C40.4571 51.1175 40.7779 51.1204 40.9763 51.3158L45.4183 55.7608C46.2204 56.5658 47.5271 56.5658 48.3292 55.7608C49.1342 54.9558 49.1342 53.655 48.3292 52.85L42.8604 47.3783C42.6504 47.1712 42.6592 46.83 42.8779 46.6346C43.0792 46.4508 43.3971 46.4538 43.5867 46.6492L49.4929 52.5554C50.295 53.3604 51.6017 53.3604 52.4037 52.5554C53.2087 51.7533 53.2088 50.4525 52.4067 49.6475ZM30.8642 8.75L27.9942 9.2575L29.5138 17.8733L32.3837 17.3658L30.8642 8.75ZM42.0058 9.2575L39.1358 8.75L37.6163 17.3658L40.4921 17.8733L42.0058 9.2575ZM52.5 12.8392L49.9712 11.3808L45.5963 18.9583L48.125 20.4167L52.5 12.8392ZM20.0288 11.3808L17.5 12.8392L21.875 20.4167L24.4037 18.9583L20.0288 11.3808Z" fill="white"/>
</g>
<defs>
<clipPath id="clip0_804_53">
<rect width="70" height="70" fill="white"/>
</clipPath>
</defs>
</svg>
