<svg width="70" height="70" viewBox="0 0 70 70" fill="none" xmlns="http://www.w3.org/2000/svg">
<path fill-rule="evenodd" clip-rule="evenodd" d="M11.6605 41.93V32.5588C11.6605 30.31 10.2634 29.1667 8.77301 29.1667C7.30301 29.1667 5.83301 30.2867 5.83301 32.5588V44.4763C5.83301 46.7979 6.04301 47.915 7.50717 50.5779C9.82009 54.7808 14.0463 60.6725 14.0463 70H28.6384C28.6384 70 30.2688 64.8696 30.8638 61.4192C32.0626 54.4863 30.4963 51.2954 27.6263 48.3379C24.6455 45.2667 23.1697 43.8142 21.8047 42.4025C18.6518 39.1329 14.3613 42.9683 16.8638 45.9667C18.2288 47.6029 21.6005 51.2254 22.4084 52.2988C23.1901 53.34 21.7347 54.7983 20.5884 53.6025C18.9172 51.8554 15.0322 47.5271 13.6905 45.9667C12.4013 44.4646 11.6605 43.5517 11.6605 41.93ZM55.953 70H41.3609C41.3609 70 39.7334 64.8696 39.1384 61.4192C37.9368 54.4863 39.5059 51.2954 42.373 48.3379C45.3538 45.2667 46.8297 43.8142 48.1947 42.4025C51.3476 39.1329 55.638 42.9683 53.1355 45.9667C51.7734 47.6029 48.3988 51.2254 47.5909 52.2988C46.8093 53.34 48.2647 54.7983 49.4109 53.6025C51.0822 51.8554 54.9672 47.5271 56.3088 45.9667C57.6009 44.4646 58.333 43.5517 58.333 41.93V32.5588C58.333 30.31 59.7359 29.1667 61.2263 29.1667C62.7022 29.1667 64.1634 30.2867 64.1634 32.5588V44.4763C64.1634 46.7979 63.9505 47.915 62.4863 50.5779C60.1734 54.7808 55.953 61.6817 55.953 70ZM39.3747 44.7213L37.0647 46.2437C36.7643 46.5121 36.3268 46.6667 35.8688 46.6667H34.1305C33.6726 46.6667 33.2351 46.5121 32.9318 46.2437L30.6247 44.7213H39.3747ZM39.4563 40.8333C39.993 40.8333 40.4276 41.2679 40.4276 41.8046C40.4276 42.3442 39.993 42.7788 39.4563 42.7788H30.5926C30.0559 42.7788 29.6213 42.3442 29.6213 41.8046C29.6213 41.2679 30.0559 40.8333 30.5926 40.8333H39.4563ZM40.4159 38.8879C40.4159 31.1033 46.6663 27.8863 46.6663 20.9446C46.6663 13.7113 40.8301 9.72125 34.9938 9.72125C29.1634 9.72125 23.333 13.7054 23.333 20.9446C23.333 27.8863 29.5834 31.2113 29.5834 38.8879H40.4159ZM50.0468 24.8325L55.2968 27.2125L53.6868 30.7563L48.6409 28.4667C49.2243 27.3 49.7084 26.1042 50.0468 24.8325ZM19.9526 24.8325C20.2909 26.1246 20.7605 27.2854 21.3526 28.4696L16.3126 30.7563L14.7026 27.2125L19.9526 24.8325ZM56.3876 17.5V21.3879H50.5484C50.5893 20.0871 50.4726 18.7746 50.1897 17.5H56.3876ZM19.8068 17.5C19.5297 18.7717 19.413 20.0783 19.4509 21.3792V21.3879H13.6118V17.5H19.8068ZM46.7509 10.8354L51.5809 7.40542L53.8326 10.5788L48.9618 14.0321C48.3959 12.9004 47.6609 11.8329 46.7509 10.8354ZM23.2484 10.8325C22.353 11.8096 21.6209 12.8742 21.0347 14.0321L16.1668 10.5788L18.4184 7.40542L23.2484 10.8325ZM40.4918 6.76375L43.073 1.53417L46.5584 3.255L43.9801 8.48458C42.8951 7.77292 41.7226 7.19542 40.4918 6.76375ZM29.5047 6.76083C28.2768 7.18958 27.1013 7.76417 26.0163 8.47875L23.438 3.255L26.9263 1.53417L29.5047 6.76083ZM36.9451 5.95292C35.6443 5.80125 34.3988 5.7925 33.0543 5.94708V0H36.9451V5.95292Z" fill="white"/>
</svg>
