<svg width="70" height="70" viewBox="0 0 70 70" fill="none" xmlns="http://www.w3.org/2000/svg">
<g clip-path="url(#clip0_804_41)">
<path fill-rule="evenodd" clip-rule="evenodd" d="M20.4163 48.0901L24.8672 45.9813C30.0938 43.6188 33.1826 44.978 37.5518 46.658C42.5568 48.5859 44.4497 49.2334 46.5263 50.053C50.2538 51.5288 48.533 56.4026 44.7997 55.4139C42.5305 54.813 36.598 53.0951 34.9413 52.6984C33.0747 52.2493 32.2288 54.4543 33.9993 55.0843C37.2251 56.2305 41.7663 57.3884 44.1901 58.0213C46.6138 58.6572 47.9672 57.5984 49.6763 56.2393C52.3188 54.1393 58.333 47.7547 58.333 47.7547C60.7888 45.4243 64.1401 47.3609 64.1401 49.8547C64.1401 50.5255 63.898 51.2372 63.3351 51.9168C56.5451 60.063 54.4101 62.5393 50.0118 67.1593C48.1947 69.0697 46.0976 70.0001 43.5834 70.0001C42.2943 70.0001 40.8943 69.7551 39.3747 69.2709C34.0518 67.5763 27.2063 65.4413 20.4163 64.6043V48.0901ZM17.4997 67.1593H5.83301V43.8259H17.4997V67.1593ZM20.4163 44.208V39.2088C20.3988 34.6676 20.5972 32.0718 25.8238 30.8643C31.5493 29.543 38.4093 28.3588 35.6938 23.348C27.6409 8.49634 33.3984 0.0759277 42.0434 0.0759277C50.5222 0.0759277 56.4226 8.18426 48.393 23.348C45.7563 28.3297 52.4122 29.5138 58.263 30.8643C63.5101 32.0747 63.6851 34.688 63.6676 39.2613C63.6676 39.6405 63.6355 42.6768 63.6676 44.1176C62.2588 43.2163 59.4618 42.5076 57.2888 44.4268C55.7284 45.8034 55.6322 45.8968 52.0884 49.178C46.9843 46.7543 39.0918 43.6859 33.9643 41.9505C31.3509 41.0638 28.0143 41.0522 25.3251 42.1693L20.4163 44.208Z" fill="white"/>
</g>
<defs>
<clipPath id="clip0_804_41">
<rect width="70" height="70" fill="white"/>
</clipPath>
</defs>
</svg>
