<svg width="150" height="75" viewBox="0 0 150 75" fill="none" xmlns="http://www.w3.org/2000/svg">
<path d="M-8.70208e-06 75C-7.84104e-06 65.1509 1.93993 55.3982 5.70903 46.2987C9.47813 37.1993 15.0026 28.9314 21.967 21.967C28.9314 15.0026 37.1993 9.47814 46.2987 5.70904C55.3982 1.93994 65.1509 7.41052e-06 75 8.70208e-06C84.8492 9.99364e-06 94.6018 1.93994 103.701 5.70905C112.801 9.47815 121.069 15.0026 128.033 21.967C134.997 28.9314 140.522 37.1993 144.291 46.2988C148.06 55.3982 150 65.1509 150 75L135.022 75C135.022 67.1178 133.47 59.3127 130.453 52.0305C127.437 44.7483 123.016 38.1315 117.442 32.5579C111.869 26.9843 105.252 22.5631 97.9695 19.5467C90.6873 16.5303 82.8822 14.9778 75 14.9778C67.1178 14.9778 59.3127 16.5303 52.0305 19.5467C44.7483 22.5631 38.1315 26.9843 32.5579 32.5579C26.9843 38.1315 22.5631 44.7483 19.5467 52.0305C16.5303 59.3127 14.9778 67.1178 14.9778 75L-8.70208e-06 75Z" fill="url(#paint0_linear_4005_31)"/>
<defs>
<linearGradient id="paint0_linear_4005_31" x1="128.45" y1="133.127" x2="31.9171" y2="14.6327" gradientUnits="userSpaceOnUse">
<stop stop-color="#0E619D"/>
<stop offset="1" stop-color="#1279C3"/>
</linearGradient>
</defs>
</svg>
