<svg width="70" height="70" viewBox="0 0 70 70" fill="none" xmlns="http://www.w3.org/2000/svg">
<path fill-rule="evenodd" clip-rule="evenodd" d="M9.304 58.3013L2.9165 59.185L7.56567 63.6533L6.43109 70L12.1157 66.9579L17.8032 70L16.6686 63.6533L21.3178 59.185L14.9303 58.3013L12.1157 52.5L9.304 58.3013ZM32.6373 58.3013L26.2498 59.185L30.899 63.6533L29.7644 70L35.449 66.9579L41.1365 70L40.0019 63.6533L44.6511 59.185L38.2636 58.3013L35.449 52.5L32.6373 58.3013ZM55.0694 58.3013L48.6819 59.185L53.3311 63.6533L52.1965 70L57.8811 66.9579L63.5686 70L62.434 63.6533L67.0832 59.185L60.6957 58.3013L57.8811 52.5L55.0694 58.3013ZM54.6932 37.3858C47.5882 35.7467 39.509 34.3088 42.7115 28.2596C52.459 9.84667 45.2957 0 34.9998 0C24.5028 0 17.5115 10.2258 27.2882 28.2596C30.5869 34.3438 22.2569 35.7817 15.3036 37.3858C8.95692 38.85 8.71775 42.0029 8.73817 47.5183L8.74984 49.5833H61.2498L61.2586 47.5825C61.2819 42.0292 61.0661 38.8558 54.6932 37.3858Z" fill="white"/>
</svg>
