<svg width="70" height="70" viewBox="0 0 70 70" fill="none" xmlns="http://www.w3.org/2000/svg">
<g clip-path="url(#clip0_804_59)">
<path fill-rule="evenodd" clip-rule="evenodd" d="M44.4675 49.5833C41.7638 60.3779 37.0388 67.0833 35 70C32.9613 67.0833 28.2333 60.3808 25.5325 49.5833H44.4675ZM66.8208 49.5833C62.2767 59.4738 53.2583 66.8879 42.3617 69.2213C46.1971 63.1896 48.9008 56.4988 50.4613 49.5833H66.8208ZM3.17917 49.5833H19.5388C21.1108 56.5425 23.8263 63.2275 27.6383 69.2213C16.7417 66.8879 7.72333 59.4738 3.17917 49.5833ZM45.6167 43.75H24.3833C23.5375 37.9604 23.5375 32.0425 24.3833 26.25H45.6196C46.4596 32.0425 46.4596 37.9604 45.6167 43.75ZM18.4946 43.75H1.10542C0.382083 40.9558 0 38.0217 0 35C0 31.9783 0.382083 29.0471 1.10542 26.25H18.4946C17.7275 32.0483 17.7275 37.9517 18.4946 43.75ZM68.8946 43.75H51.5025C52.2754 37.9517 52.2754 32.0483 51.5054 26.25H68.8946C69.615 29.0471 70 31.9783 70 35C70 38.0217 69.615 40.9558 68.8946 43.75ZM44.4675 20.4167H25.5325C28.2304 9.61917 32.9583 2.91667 35 0C38.4825 4.98167 42.1283 11.0804 44.4675 20.4167ZM19.5358 20.4138H3.17625C7.72333 10.5263 16.7417 3.11208 27.6383 0.775833C24.0304 6.43417 21.1808 13.1338 19.5358 20.4138ZM66.8208 20.4138H50.4613C48.8367 13.2329 46.0483 6.55958 42.3588 0.775833C53.2554 3.11208 62.2767 10.5263 66.8208 20.4138Z" fill="white"/>
</g>
<defs>
<clipPath id="clip0_804_59">
<rect width="70" height="70" fill="white"/>
</clipPath>
</defs>
</svg>
