<svg width="50" height="50" viewBox="0 0 50 50" fill="none" xmlns="http://www.w3.org/2000/svg">
<g clip-path="url(#clip0_3396_262)">
<path d="M25 4.16667C36.4875 4.16667 45.8333 13.5125 45.8333 25C45.8333 36.4875 36.4875 45.8333 25 45.8333C13.5125 45.8333 4.16667 36.4875 4.16667 25C4.16667 13.5125 13.5125 4.16667 25 4.16667ZM25 0C11.1937 0 0 11.1937 0 25C0 38.8062 11.1937 50 25 50C38.8062 50 50 38.8062 50 25C50 11.1937 38.8062 0 25 0ZM25 12.5C18.0979 12.5 12.5 18.0979 12.5 25C12.5 31.9021 18.0979 37.5 25 37.5C31.9021 37.5 37.5 31.9021 37.5 25C37.5 18.0979 31.9021 12.5 25 12.5ZM33.3375 21.5167C32.0063 18.0583 28.6917 16.7208 27.5708 16.7917C31.2479 18.225 32.1271 23.1042 31.8 24.5417C31.4812 22.8542 30.4583 21.4 29.8479 21.0167C33.4083 29.3542 24.8125 31.9167 22.1896 29.0229C22.8646 29.1979 24.2 29.1104 25.2 28.4417C26.1354 27.8146 26.225 27.7792 26.825 27.7312C27.5396 27.675 26.7812 26.2667 25.2208 26.5042C24.5792 26.6021 23.5229 27.3562 22.2208 26.8604C20.65 26.2604 20.7021 24.1167 22.3229 24.7604C22.6729 24.3062 22.4146 23.4458 22.4146 23.4458C22.8854 23.0146 23.4792 22.7104 23.8417 22.4958C24.0792 22.3563 24.7062 21.9687 24.6687 21.2146C24.5396 21.1146 24.3375 20.9875 23.8708 21.0146C22.0625 21.1292 21.9417 20.475 21.8229 20.1729C21.9042 19.4771 22.3687 18.575 23.2417 18.1604C21.9292 17.9583 20.8646 18.575 20.3333 19.3625C19.4937 19.1833 18.9771 19.1729 18.1313 19.3312C17.8021 19.0812 17.4375 18.6333 17.2167 18.1021C19.125 15.95 21.9042 14.5833 25 14.5833C31.1583 14.5833 33.6083 19.0458 33.3375 21.5167Z" fill="white"/>
</g>
<defs>
<clipPath id="clip0_3396_262">
<rect width="50" height="50" fill="white"/>
</clipPath>
</defs>
</svg>
