<svg width="50" height="50" viewBox="0 0 50 50" fill="none" xmlns="http://www.w3.org/2000/svg">
<path d="M36.4557 22.9163C41.6307 22.9163 45.8307 27.1163 45.8307 32.2913C45.8307 37.4663 41.6307 41.6663 36.4557 41.6663C31.2807 41.6663 27.0807 37.4663 27.0807 32.2913C27.0807 27.1163 31.2807 22.9163 36.4557 22.9163ZM25.3182 37.4976C25.2099 37.4997 25.1016 37.4997 24.9932 37.4997C16.4974 37.4997 8.86406 31.0559 4.46406 23.9934C4.26406 23.6622 4.16406 23.2893 4.16406 22.9163C4.16406 22.5434 4.26615 22.1705 4.46615 21.8393C8.86406 14.7768 16.4974 8.33301 24.9932 8.33301C33.6245 8.33301 41.2349 14.7705 45.5432 21.8601C45.7349 22.1851 45.8307 22.5518 45.8307 22.9163C45.8307 23.2893 45.7016 23.6434 45.5182 23.9913C44.3099 22.6705 42.8161 21.6163 41.137 20.9247C37.2557 15.7663 31.4995 11.458 24.9932 11.458C17.7745 11.458 11.3828 16.9413 7.4849 22.9163C11.2661 28.7101 17.3891 34.0413 24.337 34.3601C24.5245 35.4622 24.8578 36.5143 25.3182 37.4976ZM31.7161 33.283L34.7203 35.9601C34.9182 36.1372 35.1682 36.2247 35.4141 36.2247C35.6974 36.2247 35.9786 36.1101 36.1849 35.8872L41.2703 30.3268C41.4537 30.1268 41.5432 29.8747 41.5432 29.6268C41.5432 29.0559 41.0828 28.5872 40.5016 28.5872C40.2182 28.5872 39.937 28.7018 39.7307 28.9247L35.3391 33.7247L33.1036 31.733C32.9036 31.5559 32.6578 31.4684 32.4099 31.4684C31.8328 31.4684 31.3682 31.9351 31.3682 32.508C31.3682 32.7934 31.4849 33.0768 31.7161 33.283ZM24.2099 31.2122C19.9786 30.8163 16.6641 27.2497 16.6641 22.9163C16.6641 18.3163 20.3974 14.583 24.9974 14.583C28.7557 14.583 31.937 17.0768 32.9745 20.4997C31.9474 20.8038 30.9766 21.2372 30.0807 21.7809C29.5641 19.4518 27.4828 17.708 24.9974 17.708C22.1224 17.708 19.7891 20.0413 19.7891 22.9163C19.7891 25.7559 22.0641 28.0663 24.8891 28.1226C24.537 29.1018 24.3036 30.1372 24.2099 31.2122Z" fill="white"/>
</svg>
