<svg width="50" height="50" viewBox="0 0 50 50" fill="none" xmlns="http://www.w3.org/2000/svg">
<g clip-path="url(#clip0_3396_260)">
<path fill-rule="evenodd" clip-rule="evenodd" d="M39.5896 2.08301C37.6167 2.08301 35.6417 2.64134 33.925 3.75592C40.5292 6.29342 45.7875 11.5455 48.3292 18.1497C49.4417 16.4351 49.9979 14.4622 49.9979 12.4893C49.9979 6.73717 45.3396 2.08301 39.5896 2.08301ZM24.9979 43.7497C15.8083 43.7497 8.32917 36.2705 8.32917 27.083C8.32917 17.8893 15.8083 10.4143 24.9979 10.4143C34.1896 10.4143 41.6688 17.8893 41.6688 27.083C41.6688 36.2705 34.1896 43.7497 24.9979 43.7497ZM45.8354 27.083C45.8354 15.5788 36.5125 6.24759 24.9979 6.24759C13.4917 6.24759 4.1625 15.5788 4.1625 27.083C4.1625 36.0747 10.5937 47.9163 24.9979 47.9163C39.4354 47.9163 45.8354 36.0559 45.8354 27.083ZM1.67083 18.1559C0.55625 16.4393 0 14.4643 0 12.4934C0 6.74967 4.65208 2.08717 10.3979 2.08717C12.3729 2.08717 14.3479 2.64551 16.0667 3.76009C9.45833 6.29551 4.20833 11.5497 1.67083 18.1559ZM27.0792 27.083V16.6663H22.9146V31.2455H35.4125V27.083H27.0792Z" fill="white"/>
</g>
<defs>
<clipPath id="clip0_3396_260">
<rect width="50" height="50" fill="white"/>
</clipPath>
</defs>
</svg>
