<svg width="50" height="50" viewBox="0 0 50 50" fill="none" xmlns="http://www.w3.org/2000/svg">
<g clip-path="url(#clip0_3396_266)">
<path d="M25 6.24967C29.4396 6.24967 33.3333 9.85384 33.3333 13.9622C33.3333 18.233 29.7625 24.2559 25 31.7976C20.2375 24.2559 16.6667 18.233 16.6667 13.9622C16.6667 9.85384 20.5604 6.24967 25 6.24967ZM25 2.08301C18.4417 2.08301 12.5 7.40176 12.5 13.9622C12.5 20.5205 17.9208 28.3518 25 39.583C32.0792 28.3518 37.5 20.5205 37.5 13.9622C37.5 7.40176 31.5604 2.08301 25 2.08301ZM25 18.7497C22.6979 18.7497 20.8333 16.8851 20.8333 14.583C20.8333 12.2809 22.6979 10.4163 25 10.4163C27.3021 10.4163 29.1667 12.2809 29.1667 14.583C29.1667 16.8851 27.3021 18.7497 25 18.7497ZM41.6667 31.2497H35.1354C34.3333 32.5851 33.4729 33.9768 32.5687 35.4163H39.0917L40.1333 37.4997H31.25L30.5333 38.633L29.9312 39.583H31.0938L32.8812 43.7497H17.2812L19.0687 39.583H20.0667L19.4646 38.633L18.75 37.4997H14.4958L12.3896 35.4163H17.4312C16.525 33.9768 15.6646 32.5851 14.8646 31.2497H8.33333L0 47.9163H50L41.6667 31.2497ZM15.0125 43.7497H6.74167L10.4167 36.3997L13.575 39.583H16.8021L15.0125 43.7497ZM33.3625 39.583H41.175L43.2583 43.7497H35.15L33.3625 39.583Z" fill="white"/>
</g>
<defs>
<clipPath id="clip0_3396_266">
<rect width="50" height="50" fill="white"/>
</clipPath>
</defs>
</svg>
