<svg width="50" height="50" viewBox="0 0 50 50" fill="none" xmlns="http://www.w3.org/2000/svg">
<path d="M34.8771 31.4663L28.5958 25.8893L28.5792 25.908L27.6042 33.333L34.8771 31.4663ZM36.2313 29.883L50 13.7372L43.75 8.33301L29.9583 24.3143L36.2313 29.883ZM8.33333 31.2497H23.7083L23.4292 33.333H8.33333V31.2497ZM43.75 27.5351V37.4997C43.75 39.7997 41.8833 41.6663 39.5833 41.6663H4.16667C1.86667 41.6663 0 39.7997 0 37.4997V16.6663C0 14.3663 1.86667 12.4997 4.16667 12.4997H34.5687L30.9917 16.6663H5.20833C4.63333 16.6663 4.16667 17.133 4.16667 17.708V20.833H27.4125L24.675 24.0226L24.2646 27.083H4.16667V36.458C4.16667 37.033 4.63333 37.4997 5.20833 37.4997H38.5417C39.1167 37.4997 39.5833 37.033 39.5833 36.458V32.5393L43.75 27.5351Z" fill="white"/>
</svg>
