<svg width="50" height="50" viewBox="0 0 50 50" fill="none" xmlns="http://www.w3.org/2000/svg">
<path d="M20.8333 19.6003L27.0063 25.0003L20.8333 30.4003V27.0837H4.16667V22.917H20.8333V19.6003ZM16.6667 10.417V18.7503H0V31.2503H16.6667V39.5837L33.3333 25.0003L16.6667 10.417ZM29.1667 4.16699C25.4437 4.16699 21.9583 5.15449 18.9354 6.86491L19.4104 7.28158L22.3188 9.82533C24.4104 8.87533 26.7229 8.33366 29.1667 8.33366C38.3562 8.33366 45.8333 15.8107 45.8333 25.0003C45.8333 34.1899 38.3562 41.667 29.1667 41.667C26.7229 41.667 24.4104 41.1253 22.3167 40.1774L19.4083 42.7212L18.9333 43.1378C21.9583 44.8462 25.4437 45.8337 29.1667 45.8337C40.6708 45.8337 50 36.5066 50 25.0003C50 13.4941 40.6708 4.16699 29.1667 4.16699Z" fill="white"/>
</svg>
