<svg width="50" height="50" viewBox="0 0 50 50" fill="none" xmlns="http://www.w3.org/2000/svg">
<path d="M25 20.8332H8.33333V18.7498H25V20.8332ZM25 22.9165H8.33333V24.9998H25V22.9165ZM50 10.4165V39.5832H0V10.4165H50ZM45.8333 35.4165V14.5832H4.16667V35.4165H45.8333ZM33.2833 31.2498L34.7042 29.854L36.125 31.2498L37.5479 29.854L38.9688 31.2498L41.6667 28.5519L40.3875 27.0894L38.9688 28.479L37.5479 27.0832L36.125 28.479L34.7042 27.0832L33.2812 28.479L31.8604 27.0832L29.1667 29.7498L30.4458 31.2436L31.8625 29.854L33.2833 31.2498ZM8.33333 31.2498H25V29.1665H8.33333V31.2498ZM39.5833 20.8332V22.9165H31.25V20.8332H39.5833ZM41.6667 18.7498H29.1667V24.9998H41.6667V18.7498Z" fill="#0E619D"/>
</svg>
