<svg width="50" height="50" viewBox="0 0 50 50" fill="none" xmlns="http://www.w3.org/2000/svg">
<path d="M8.33073 45.8333V4.16667H41.6641V28.2146C41.6641 36.7708 29.1641 33.3333 29.1641 33.3333C29.1641 33.3333 32.3266 45.8333 23.6682 45.8333H8.33073ZM45.8307 29.9708V0H4.16406V50H25.3911C31.9807 50 45.8307 34.9521 45.8307 29.9708ZM35.4141 27.0833H18.7474V25H35.4141V27.0833ZM35.4141 18.75H18.7474V20.8333H35.4141V18.75ZM35.4141 12.5H18.7474V14.5833H35.4141V12.5ZM16.6641 12.5H14.5807V14.5833H16.6641V12.5ZM16.6641 18.75H14.5807V20.8333H16.6641V18.75ZM16.6641 25H14.5807V27.0833H16.6641V25Z" fill="#0E619D"/>
</svg>
