<svg width="50" height="50" viewBox="0 0 50 50" fill="none" xmlns="http://www.w3.org/2000/svg">
<path d="M40.625 22.9163C35.4479 22.9163 31.25 27.1143 31.25 32.2913C31.25 37.4684 35.4479 41.6663 40.625 41.6663C45.8021 41.6663 50 37.4684 50 32.2913C50 27.1143 45.8021 22.9163 40.625 22.9163ZM39.6479 36.4247L36.1312 33.0143L37.5812 31.5622L39.6458 33.5205L44.0542 29.0018L45.5042 30.4518L39.6479 36.4247ZM8.33333 31.2497H18.75V33.333H8.33333V31.2497ZM25 29.1663H8.33333V27.083H25V29.1663ZM28.1292 37.4997H5.20833C4.63333 37.4997 4.16667 37.033 4.16667 36.458V22.9163H30.875C33.3417 20.3538 36.7958 18.7497 40.625 18.7497C42.4708 18.7497 44.2271 19.1226 45.8333 19.7934V12.4997C45.8333 10.1997 43.9667 8.33301 41.6667 8.33301H4.16667C1.86667 8.33301 0 10.1997 0 12.4997V37.4997C0 39.7997 1.86667 41.6663 4.16667 41.6663H30.875C29.7229 40.4663 28.7792 39.0601 28.1292 37.4997ZM4.16667 13.5413C4.16667 12.9663 4.63333 12.4997 5.20833 12.4997H40.625C41.2 12.4997 41.6667 12.9663 41.6667 13.5413V16.6663H4.16667V13.5413Z" fill="white"/>
</svg>
