<svg width="50" height="50" viewBox="0 0 50 50" fill="none" xmlns="http://www.w3.org/2000/svg">
<path d="M45.8333 16.667V41.667H12.5V16.667H45.8333ZM50 12.5003H8.33333V45.8337H50V12.5003ZM33.3333 36.8274V37.5003H16.6667V36.8066C16.6604 34.9524 16.7396 33.8941 18.8729 33.4024C21.2104 32.8628 23.5167 32.3795 22.4083 30.3337C19.1229 24.2691 21.4708 20.8337 25 20.8337C28.4625 20.8337 30.8667 24.142 27.5917 30.3337C26.5146 32.367 28.7396 32.8503 31.1271 33.4024C33.2687 33.8962 33.3417 34.9607 33.3333 36.8274ZM41.6667 20.8337H35.4167V25.0003H41.6667V20.8337ZM41.6667 27.0837H35.4167V31.2503H41.6667V27.0837ZM41.6667 33.3337H35.4167V37.5003H41.6667V33.3337ZM43.75 4.16699H0V39.5837H4.16667V8.33366H43.75V4.16699Z" fill="white"/>
</svg>
