<svg width="50" height="50" viewBox="0 0 50 50" fill="none" xmlns="http://www.w3.org/2000/svg">
<g clip-path="url(#clip0_2612_57)">
<path d="M25.7695 11.2063L14.0195 22.9562C12.6549 24.3208 10.8633 25.0021 9.0737 25.0021C5.20911 25.0021 2.08203 21.8813 2.08203 18.0104C2.08203 16.2188 2.76328 14.425 4.12578 13.0625L15.6674 1.52292C16.682 0.508333 18.0112 0 19.3445 0C23.9404 0 26.2987 5.59583 23.0216 8.87292L12.7737 19.1208C11.4529 20.4417 9.30495 20.4417 7.9862 19.1208C6.66536 17.8021 6.66536 15.6542 7.9862 14.3333L16.257 6.0625L17.982 7.7875L9.7112 16.0583C9.34036 16.4271 9.34036 17.0271 9.7112 17.3958C10.0799 17.7667 10.6799 17.7667 11.0487 17.3958L21.2966 7.15C23.8779 4.56042 19.9716 0.666667 17.3945 3.24583L5.85286 14.7875C4.07578 16.5646 4.07578 19.4542 5.85286 21.2333C7.63203 23.0083 10.5195 23.0083 12.2966 21.2333L24.0466 9.48333L25.7695 11.2063ZM27.0966 0C27.9487 1.26875 28.4195 2.4375 28.6154 4.16667H43.7487V28.2146C43.7487 36.7708 31.2487 33.3333 31.2487 33.3333C31.2487 33.3333 34.4112 45.8333 25.7529 45.8333H10.4154V29.0375C9.10286 29.1937 8.33203 29.3083 6.2487 28.7604V50H27.4758C34.0654 50 47.9154 34.9521 47.9154 29.9708V0H27.0966ZM37.4987 12.5H30.3674L28.7154 14.1521L28.2841 14.5833H37.4987V12.5ZM37.4987 18.75H24.1174L22.0341 20.8333H37.4987V18.75ZM37.4987 25H17.8674L16.9654 25.9021C16.5237 26.3458 16.0299 26.725 15.5299 27.0833H37.4987V25Z" fill="#0E619D"/>
</g>
<defs>
<clipPath id="clip0_2612_57">
<rect width="50" height="50" fill="white"/>
</clipPath>
</defs>
</svg>
