<svg width="50" height="50" viewBox="0 0 50 50" fill="none" xmlns="http://www.w3.org/2000/svg">
<g clip-path="url(#clip0_2612_73)">
<path d="M43.0562 29.167C46.7667 29.167 50 27.7691 50 26.042C50 24.3149 46.7667 22.917 43.0562 22.917C39.3458 22.917 36.1125 24.3149 36.1125 26.042C36.1125 27.7691 39.3438 29.167 43.0562 29.167ZM43.1854 26.3753C42.7708 26.2503 41.4979 26.1441 41.4979 25.4378C41.4979 25.0441 41.9625 24.692 42.8292 24.6128V24.3045H43.275V24.5982C43.6 24.6066 43.9625 24.642 44.3646 24.7232L44.2021 25.2003C43.8958 25.1295 43.5542 25.0628 43.2188 25.0628L43.1187 25.0649C42.45 25.092 42.3958 25.4628 42.8583 25.6212C43.6167 25.8545 44.6167 26.0274 44.6167 26.6482C44.6167 27.1441 44.0146 27.4107 43.2729 27.4753V27.7795H42.8271V27.4899C42.3687 27.4857 41.8875 27.4107 41.4896 27.2774L41.6937 26.8003C42.0333 26.8878 42.4583 26.9753 42.8438 26.9753L43.1333 26.9545C43.6479 26.8837 43.75 26.5399 43.1854 26.3753ZM43.0562 37.5003C45.6833 37.5003 48.4104 36.8274 50 35.5545V36.4587C50 38.1857 46.7667 39.5837 43.0562 39.5837C39.3458 39.5837 36.1125 38.1857 36.1125 36.4587V35.5545C37.7021 36.8274 40.4271 37.5003 43.0562 37.5003ZM43.0562 30.5566C45.6833 30.5566 48.4104 29.8837 50 28.6107V29.5149C50 31.242 46.7667 32.6399 43.0562 32.6399C39.3458 32.6399 36.1125 31.242 36.1125 29.5149V28.6107C37.7021 29.8837 40.4271 30.5566 43.0562 30.5566ZM43.0562 34.0274C45.6833 34.0274 48.4104 33.3545 50 32.0795V32.9857C50 34.7107 46.7667 36.1107 43.0562 36.1107C39.3458 36.1107 36.1125 34.7107 36.1125 32.9857V32.0795C37.7021 33.3545 40.4271 34.0274 43.0562 34.0274ZM17.7083 26.042C17.7083 28.917 20.0417 31.2503 22.9167 31.2503C25.7917 31.2503 28.125 28.917 28.125 26.042C28.125 23.167 25.7917 20.8337 22.9167 20.8337C20.0417 20.8337 17.7083 23.167 17.7083 26.042ZM24.45 23.667L24.2625 24.5232C23.8625 24.3837 23.4187 24.2566 22.9896 24.2816C22.2146 24.3274 22.1458 24.9982 22.6875 25.2795C23.5792 25.6982 24.7396 26.0087 24.7396 27.1253C24.7417 28.0191 24.0438 28.4982 23.1792 28.617V29.167H22.6562V28.6462C22.1167 28.6378 21.5604 28.5087 21.0958 28.2691L21.3312 27.4128C21.8292 27.6045 22.4937 27.8107 23.0125 27.6941C23.6104 27.5587 23.7333 26.9441 23.0708 26.6462C22.5854 26.4212 21.1042 26.2274 21.1042 24.9566C21.1042 24.2462 21.6479 23.6107 22.6583 23.4712V22.917H23.1812V23.4462C23.5542 23.4566 23.9771 23.5232 24.45 23.667ZM37.5 12.5003H2.08333V33.3337H0V10.417H37.5V12.5003ZM41.6667 14.5837V20.4878C40.1771 20.6107 38.7479 20.9337 37.5 21.442V18.7503H8.33333V33.3337H33.3333V37.5003H4.16667V14.5837H41.6667Z" fill="white"/>
</g>
<defs>
<clipPath id="clip0_2612_73">
<rect width="50" height="50" fill="white"/>
</clipPath>
</defs>
</svg>
