<svg width="50" height="50" viewBox="0 0 50 50" fill="none" xmlns="http://www.w3.org/2000/svg">
<path d="M31.2487 25H10.4154V27.0833H31.2487V25ZM22.9154 29.1667H10.4154V31.25H22.9154V29.1667ZM31.2487 16.6667H10.4154V18.75H31.2487V16.6667ZM31.2487 20.8333H10.4154V22.9167H31.2487V20.8333ZM31.2487 8.33333H10.4154V10.4167H31.2487V8.33333ZM31.2487 12.5H10.4154V14.5833H31.2487V12.5ZM46.7487 33.9104C47.1299 29.0896 45.8466 28.6187 39.8987 22.8229C40.2549 25.3708 40.9987 29.9 41.7966 33.2417C41.982 34.0375 40.9299 34.5354 40.5758 33.6896C40.1508 32.6583 39.4612 28.2687 38.8674 23.8562C38.5466 21.4937 35.407 21.7833 35.4154 24.225C35.4258 28.0208 35.4216 31.1854 35.4154 36.8104C35.4091 41.6083 37.5945 41.7021 39.2049 47.0833C39.4799 48.0083 39.7174 49.0146 39.9112 49.9979L47.9154 47.2083C45.1258 41.7479 46.4716 37.4396 46.7487 33.9104ZM33.357 37.5H6.2487V4.16667H35.4154V20.6125C36.7612 19.9 38.2237 20.0417 39.3258 20.8229L39.582 20.7854V3.125C39.582 1.4 38.182 0 36.457 0H5.20703C3.48203 0 2.08203 1.39792 2.08203 3.125V38.5417C2.08203 40.2687 3.48203 41.6667 5.20703 41.6667H34.3195C33.8091 40.5938 33.4341 39.325 33.357 37.5Z" fill="#0E619D"/>
</svg>
