<svg width="50" height="50" viewBox="0 0 50 50" fill="none" xmlns="http://www.w3.org/2000/svg">
<g clip-path="url(#clip0_2612_53)">
<path d="M43.0562 29.1665C46.7667 29.1665 50 27.7686 50 26.0415C50 24.3144 46.7667 22.9165 43.0562 22.9165C39.3458 22.9165 36.1125 24.3144 36.1125 26.0415C36.1125 27.7686 39.3438 29.1665 43.0562 29.1665ZM43.1854 26.3748C42.7708 26.2498 41.4979 26.1436 41.4979 25.4373C41.4979 25.0436 41.9625 24.6915 42.8292 24.6123V24.304H43.275V24.5978C43.6 24.6061 43.9625 24.6415 44.3646 24.7228L44.2021 25.1998C43.8958 25.129 43.5542 25.0623 43.2188 25.0623L43.1187 25.0644C42.45 25.0915 42.3958 25.4623 42.8583 25.6207C43.6167 25.854 44.6167 26.0269 44.6167 26.6478C44.6167 27.1436 44.0146 27.4103 43.2729 27.4748V27.779H42.8271V27.4894C42.3687 27.4853 41.8875 27.4103 41.4896 27.2769L41.6937 26.7998C42.0333 26.8873 42.4583 26.9748 42.8438 26.9748L43.1333 26.954C43.6479 26.8832 43.75 26.5394 43.1854 26.3748ZM43.0562 37.4998C45.6833 37.4998 48.4104 36.8269 50 35.554V36.4582C50 38.1853 46.7667 39.5832 43.0562 39.5832C39.3458 39.5832 36.1125 38.1853 36.1125 36.4582V35.554C37.7021 36.8269 40.4271 37.4998 43.0562 37.4998ZM43.0562 30.5561C45.6833 30.5561 48.4104 29.8832 50 28.6103V29.5144C50 31.2415 46.7667 32.6394 43.0562 32.6394C39.3458 32.6394 36.1125 31.2415 36.1125 29.5144V28.6103C37.7021 29.8832 40.4271 30.5561 43.0562 30.5561ZM43.0562 34.0269C45.6833 34.0269 48.4104 33.354 50 32.079V32.9853C50 34.7103 46.7667 36.1103 43.0562 36.1103C39.3458 36.1103 36.1125 34.7103 36.1125 32.9853V32.079C37.7021 33.354 40.4271 34.0269 43.0562 34.0269ZM17.7083 26.0415C17.7083 28.9165 20.0417 31.2498 22.9167 31.2498C25.7917 31.2498 28.125 28.9165 28.125 26.0415C28.125 23.1665 25.7917 20.8332 22.9167 20.8332C20.0417 20.8332 17.7083 23.1665 17.7083 26.0415ZM24.45 23.6665L24.2625 24.5228C23.8625 24.3832 23.4187 24.2561 22.9896 24.2811C22.2146 24.3269 22.1458 24.9978 22.6875 25.279C23.5792 25.6978 24.7396 26.0082 24.7396 27.1248C24.7417 28.0186 24.0438 28.4978 23.1792 28.6165V29.1665H22.6562V28.6457C22.1167 28.6373 21.5604 28.5082 21.0958 28.2686L21.3312 27.4123C21.8292 27.604 22.4937 27.8103 23.0125 27.6936C23.6104 27.5582 23.7333 26.9436 23.0708 26.6457C22.5854 26.4207 21.1042 26.2269 21.1042 24.9561C21.1042 24.2457 21.6479 23.6103 22.6583 23.4707V22.9165H23.1812V23.4457C23.5542 23.4561 23.9771 23.5228 24.45 23.6665ZM37.5 12.4998H2.08333V33.3332H0V10.4165H37.5V12.4998ZM41.6667 14.5832V20.4873C40.1771 20.6103 38.7479 20.9332 37.5 21.4415V18.7498H8.33333V33.3332H33.3333V37.4998H4.16667V14.5832H41.6667Z" fill="#0E619D"/>
</g>
<defs>
<clipPath id="clip0_2612_53">
<rect width="50" height="50" fill="white"/>
</clipPath>
</defs>
</svg>
