<svg width="50" height="50" viewBox="0 0 50 50" fill="none" xmlns="http://www.w3.org/2000/svg">
<path fill-rule="evenodd" clip-rule="evenodd" d="M0 2.08398H50V47.9173H0V2.08398ZM45.8333 43.7506V12.5007H4.16667V43.7506H45.8333ZM34.4688 21.9173L25.8375 29.3736C24.4312 29.0861 22.9188 29.5152 21.8917 30.6611C20.3604 32.3777 20.5062 35.0111 22.2229 36.5444C23.9375 38.0777 26.5729 37.9298 28.1062 36.2152C29.1312 35.0673 29.3896 33.5152 28.9437 32.1507L35.4167 22.7611L34.4688 21.9173ZM14.5833 35.4173H8.33333C8.33333 26.2194 15.8021 18.7507 25 18.7507C27.4229 18.7507 29.7271 19.2694 31.8062 20.2007L25.9937 25.0465L25 25.0007C19.2521 25.0007 14.5833 29.6673 14.5833 35.4173ZM41.6667 35.4173H35.4167C35.4167 33.6173 34.9604 31.9256 34.1562 30.4486L37.7583 24.6965C40.1958 27.5965 41.6667 31.3361 41.6667 35.4173Z" fill="#0E619D"/>
</svg>
