<svg width="50" height="50" viewBox="0 0 50 50" fill="none" xmlns="http://www.w3.org/2000/svg">
<path d="M25 10.4167C32.1937 10.4167 37.2729 16.2437 36.5979 24.5417C40.2333 24.4458 45.8333 26.1062 45.8333 32.2917C45.8333 36.3125 42.5625 39.5833 38.5417 39.5833H11.4583C7.4375 39.5833 4.16667 36.3125 4.16667 32.2917C4.16667 26.4646 9.33125 24.3062 13.4021 24.5417C13.0542 15.7542 18.0021 10.4167 25 10.4167ZM25 6.25C16.6542 6.25 9.86042 12.7937 9.41875 21.025C4.06458 21.9896 0 26.6625 0 32.2917C0 38.6187 5.13125 43.75 11.4583 43.75H38.5417C44.8687 43.75 50 38.6187 50 32.2917C50 26.6625 45.9354 21.9896 40.5812 21.025C40.1396 12.7937 33.3458 6.25 25 6.25ZM23.3896 35.2312C27.1521 28.4833 29.7667 25.0146 33.3333 21.9021L32.8667 20.8333C28.5417 23.525 26.2146 25.5542 22.6896 29.5521C20.8167 28.2167 19.7583 27.6021 18.0917 26.7958L16.6667 28.1125C19.5167 30.7563 21.0667 32.4979 23.3896 35.2312Z" fill="#0E619D"/>
</svg>
