<svg width="50" height="50" viewBox="0 0 50 50" fill="none" xmlns="http://www.w3.org/2000/svg">
<g clip-path="url(#clip0_2612_77)">
<path d="M44.1021 41.1542C45.1896 39.5083 45.8333 37.5396 45.8333 35.4167C45.8333 29.6646 41.1708 25 35.4167 25C29.6625 25 25 29.6646 25 35.4167C25 41.1687 29.6625 45.8333 35.4167 45.8333C37.5396 45.8333 39.5083 45.1896 41.1562 44.1L47.0542 50L50 47.0542L44.1021 41.1542ZM35.4167 41.6667C31.9708 41.6667 29.1667 38.8625 29.1667 35.4167C29.1667 31.9708 31.9708 29.1667 35.4167 29.1667C38.8625 29.1667 41.6667 31.9708 41.6667 35.4167C41.6667 38.8625 38.8625 41.6667 35.4167 41.6667ZM25.2292 45.8333H10.4167L15.8312 39.5833H21.4479C22.1667 41.9833 23.4812 44.125 25.2292 45.8333ZM20.8333 35.4167H0V0H45.8333V25.2292C44.6375 24.0083 43.2271 23.0042 41.6667 22.2604V4.16667H4.16667V31.25H21.4479C21.0521 32.5708 20.8333 33.9688 20.8333 35.4167ZM12.5 27.0833H8.33333V14.5833H12.5V27.0833ZM18.75 27.0833H14.5833V8.33333H18.75V27.0833ZM25 27.0833H20.8333V18.75H25V27.0833Z" fill="white"/>
</g>
<defs>
<clipPath id="clip0_2612_77">
<rect width="50" height="50" fill="white"/>
</clipPath>
</defs>
</svg>
