<svg width="50" height="50" viewBox="0 0 50 50" fill="none" xmlns="http://www.w3.org/2000/svg">
<g clip-path="url(#clip0_2612_55)">
<path d="M44.1021 41.1542C45.1896 39.5083 45.8333 37.5396 45.8333 35.4167C45.8333 29.6646 41.1708 25 35.4167 25C29.6625 25 25 29.6646 25 35.4167C25 41.1687 29.6625 45.8333 35.4167 45.8333C37.5396 45.8333 39.5083 45.1896 41.1562 44.1L47.0542 50L50 47.0542L44.1021 41.1542ZM35.4167 41.6667C31.9708 41.6667 29.1667 38.8625 29.1667 35.4167C29.1667 31.9708 31.9708 29.1667 35.4167 29.1667C38.8625 29.1667 41.6667 31.9708 41.6667 35.4167C41.6667 38.8625 38.8625 41.6667 35.4167 41.6667ZM25.2292 45.8333H10.4167L15.8312 39.5833H21.4479C22.1667 41.9833 23.4812 44.125 25.2292 45.8333ZM20.8333 35.4167H0V0H45.8333V25.2292C44.6375 24.0083 43.2271 23.0042 41.6667 22.2604V4.16667H4.16667V31.25H21.4479C21.0521 32.5708 20.8333 33.9688 20.8333 35.4167ZM16.3937 26.3083L18.3625 14.3104L20.3729 22.9458C20.5729 23.8312 21.8021 23.9312 22.1375 23.0771L24.0021 18.2271L25 20.2562C25.1667 20.6083 25.3417 20.8333 25.9125 20.8333H28.4292V19.0063H26.5104L24.7687 15.6229C24.4437 14.8646 23.3583 14.8812 23.0604 15.6521L21.5167 19.6L19.1333 9.05417C19.025 8.57083 18.6292 8.33333 18.2375 8.33333C17.8208 8.33333 17.4042 8.59792 17.3208 9.11042L15.3458 21.2917L13.3271 13.7917C13.1 12.8958 11.8375 12.8438 11.55 13.7312L10.0479 19.0333H8.33333V20.8333H10.775C11.1083 20.8333 11.4708 20.5625 11.5667 20.2417L12.4125 17.6229L14.5854 26.3854C14.8292 27.3604 16.2333 27.2958 16.3937 26.3083Z" fill="#0E619D"/>
</g>
<defs>
<clipPath id="clip0_2612_55">
<rect width="50" height="50" fill="white"/>
</clipPath>
</defs>
</svg>
