<svg width="50" height="50" viewBox="0 0 50 50" fill="none" xmlns="http://www.w3.org/2000/svg">
<g clip-path="url(#clip0_2612_83)">
<path d="M28.4841 39.2437L24.6362 41.6708C24.482 40.1688 23.8904 38.7729 22.9154 37.6125C21.9383 36.4521 10.1758 22.2458 7.24245 18.4917C6.26536 17.2396 6.04453 15.8958 6.62786 14.7063C7.1862 13.5625 8.38203 12.7938 9.60703 12.7938C11.5216 12.7938 12.5404 14.1583 12.8341 15.325C13.1674 16.6604 12.7612 17.8896 11.5362 18.8354L14.3049 22.2188L26.9883 14.9854L30.6529 19.2271C31.8279 18.3792 33.1383 17.7063 34.5529 17.2688C33.0341 15.5188 31.632 13.9042 30.6883 12.8292C33.5258 10.6146 34.3112 6.66875 32.4841 3.55417C31.1966 1.36042 28.8195 1.66858e-06 26.2799 1.66858e-06C23.8049 1.66858e-06 24.6279 -0.0333319 6.35286 9.32292C3.78203 10.5542 2.08203 13.0458 2.08203 15.9938C2.08203 17.8063 2.7237 19.6521 3.93411 21.175C6.90703 24.9125 19.6862 40.3104 19.8008 40.4604C20.5737 41.4875 20.6904 42.7917 20.1133 43.9458C19.5362 45.1021 18.4216 45.7917 17.1362 45.7917C15.2216 45.7917 14.2029 44.4271 13.9091 43.2583C13.5841 41.9479 13.9341 40.7417 15.1674 39.8125L12.507 36.5938C10.7945 37.9792 9.84661 39.7104 9.63828 41.6812C9.15495 46.275 12.8154 50 17.1654 50C18.407 50 19.8966 49.6312 21.0008 48.9375L31.9529 42.0292C30.6466 41.2979 29.4779 40.3521 28.4841 39.2437ZM25.0404 4.48333C25.432 4.30208 25.8695 4.20417 26.3091 4.20417C27.4174 4.20417 28.3862 4.78958 28.8987 5.77083C29.5487 7.0125 29.3695 8.83125 27.757 9.75417L17.1383 15.7708C17.032 13.5021 15.932 11.4354 14.107 10.0792L25.0404 4.48333ZM38.5404 20.8333C33.3612 20.8333 29.1654 25.0313 29.1654 30.2083C29.1654 35.3854 33.3612 39.5833 38.5404 39.5833C43.7154 39.5833 47.9154 35.3854 47.9154 30.2083C47.9154 25.0313 43.7154 20.8333 38.5404 20.8333ZM37.5633 34.3417L34.0466 30.9313L35.4945 29.4792L37.5612 31.4375L41.9674 26.9188L43.4195 28.3687L37.5633 34.3417Z" fill="white"/>
</g>
<defs>
<clipPath id="clip0_2612_83">
<rect width="50" height="50" fill="white"/>
</clipPath>
</defs>
</svg>
