<svg width="50" height="50" viewBox="0 0 50 50" fill="none" xmlns="http://www.w3.org/2000/svg">
<g clip-path="url(#clip0_2612_93)">
<path d="M33.1458 27.7917L38.6375 19.4042L37.6917 18.5583L30.0396 25.0146C28.6333 24.7271 27.1187 25.1562 26.0937 26.3021C24.5604 28.0167 24.7083 30.6521 26.425 32.1854C28.1417 33.7188 30.775 33.5708 32.3083 31.8542C33.3333 30.7083 33.5896 29.1562 33.1458 27.7917ZM25 5.6125V0H33.3333V5.6125C30.3354 5.10625 27.9333 5.11667 25 5.6125ZM43.4396 9.9125L46.3708 6.98125L49.3167 9.92708L46.5646 12.6792C45.6021 11.6708 44.5562 10.7479 43.4396 9.9125ZM4.16667 18.75H20.8333V22.9167H4.16667V18.75ZM0 27.0833H16.6667V31.25H0V27.0833ZM6.25 35.4167H20.8333V39.5833H6.25V35.4167ZM50 29.1667C50 40.6729 40.6729 50 29.1667 50C23.3542 50 18.125 47.5938 14.3521 43.75H21.1854C23.5562 45.0646 26.2667 45.8333 29.1667 45.8333C38.3562 45.8333 45.8333 38.3562 45.8333 29.1667C45.8333 19.9771 38.3562 12.5 29.1667 12.5C26.2667 12.5 23.5562 13.2687 21.1854 14.5833H14.3521C18.125 10.7396 23.3542 8.33333 29.1667 8.33333C40.6729 8.33333 50 17.6604 50 29.1667Z" fill="white"/>
</g>
<defs>
<clipPath id="clip0_2612_93">
<rect width="50" height="50" fill="white"/>
</clipPath>
</defs>
</svg>
