<svg width="50" height="50" viewBox="0 0 50 50" fill="none" xmlns="http://www.w3.org/2000/svg">
<path d="M25 10.4167C32.1937 10.4167 37.2729 16.2437 36.5979 24.5417C40.2333 24.4458 45.8333 26.1062 45.8333 32.2917C45.8333 36.3125 42.5625 39.5833 38.5417 39.5833H11.4583C7.4375 39.5833 4.16667 36.3125 4.16667 32.2917C4.16667 26.4646 9.33125 24.3062 13.4021 24.5417C13.0542 15.7542 18.0021 10.4167 25 10.4167ZM25 6.25C16.6542 6.25 9.86042 12.7937 9.41875 21.025C4.06458 21.9896 0 26.6625 0 32.2917C0 38.6187 5.13125 43.75 11.4583 43.75H38.5417C44.8687 43.75 50 38.6187 50 32.2917C50 26.6625 45.9354 21.9896 40.5812 21.025C40.1396 12.7937 33.3458 6.25 25 6.25ZM27.0833 31.25C27.0833 32.4 26.15 33.3333 25 33.3333C23.85 33.3333 22.9167 32.4 22.9167 31.25C22.9167 30.1 23.85 29.1667 25 29.1667C26.15 29.1667 27.0833 30.1 27.0833 31.25ZM35.4167 31.25C35.4167 32.4 34.4833 33.3333 33.3333 33.3333C32.1833 33.3333 31.25 32.4 31.25 31.25C31.25 30.1 32.1833 29.1667 33.3333 29.1667C34.4833 29.1667 35.4167 30.1 35.4167 31.25ZM18.75 31.25C18.75 32.4 17.8167 33.3333 16.6667 33.3333C15.5167 33.3333 14.5833 32.4 14.5833 31.25C14.5833 30.1 15.5167 29.1667 16.6667 29.1667C17.8167 29.1667 18.75 30.1 18.75 31.25Z" fill="#0E619D"/>
</svg>
