<svg width="50" height="50" viewBox="0 0 50 50" fill="none" xmlns="http://www.w3.org/2000/svg">
<g clip-path="url(#clip0_3471_5913)">
<path d="M6.74869 32.994L6.7487 32.9945L6.75366 34.9167H43.2487V33.0333V33.0313C43.2591 30.4592 43.0449 28.8957 42.286 27.8159C41.5393 26.7535 40.1858 26.0548 37.5903 25.4626C37.5901 25.4626 37.5898 25.4625 37.5896 25.4625L37.7008 24.975C32.4133 23.7771 29.8029 23.0146 31.1195 20.5271L6.74869 32.994ZM6.74869 32.994C6.73928 30.4362 6.94424 28.8866 7.70539 27.8122C8.45524 26.7537 9.82577 26.0511 12.4805 25.4459C13.868 25.1325 15.0614 24.8434 16.0485 24.5486C17.0308 24.2552 17.839 23.9477 18.4404 23.5876C19.0413 23.2278 19.4988 22.7775 19.6649 22.1746C19.831 21.5714 19.671 20.9401 19.3214 20.2967L19.3213 20.2966M6.74869 32.994L19.3213 20.2966M19.3213 20.2966C15.7706 13.7657 15.1928 8.18607 17.403 4.48336L17.4032 4.48311M19.3213 20.2966L17.4032 4.48311M17.4032 4.48311C18.9028 1.96741 21.6558 0.5 24.9987 0.5M17.4032 4.48311L24.9987 0.5M7.84322 33.8333L7.84037 33.3362L7.84019 33.3049C7.83407 32.2366 7.82893 31.3414 7.8974 30.6002C7.96684 29.8484 8.11556 29.2006 8.45377 28.6506C9.13709 27.5394 10.4777 27.0152 12.7188 26.5042L12.7197 26.504C14.4956 26.1027 16.2491 25.7046 17.6904 25.1273C19.141 24.5461 20.1638 23.8256 20.608 22.8516L7.84322 33.8333ZM7.84322 33.8333H8.34036M7.84322 33.8333H8.34036M8.34036 33.8333H41.657H42.1537M8.34036 33.8333H42.1537M42.1537 33.8333L42.157 33.3366M42.1537 33.8333L42.157 33.3366M42.157 33.3366C42.1577 33.2377 42.1584 33.1402 42.1591 33.044C42.1656 32.1564 42.1713 31.3839 42.1186 30.7246C42.0599 29.9898 41.9258 29.3401 41.6044 28.7779C40.9495 27.6325 39.6303 27.0401 37.3497 26.5188L37.3488 26.5186M42.157 33.3366L37.3488 26.5186M37.3488 26.5186C35.4804 26.0953 33.7182 25.6942 32.2898 25.1204C30.856 24.5445 29.8629 23.8342 29.4135 22.86C29.0191 22.0005 29.0806 20.9847 29.7155 19.7862C32.9178 13.7583 33.7092 8.45681 31.6122 4.98128L31.6121 4.98111M37.3488 26.5186L31.6121 4.98111M31.6121 4.98111C30.2764 2.7693 27.8988 1.58333 24.9987 1.58333M31.6121 4.98111L24.9987 1.58333M24.9987 0.5C28.3197 0.5 31.0487 1.94763 32.5458 4.42332L24.9987 0.5ZM24.9987 1.58333C22.0758 1.58333 19.6812 2.78968 18.3401 5.03758M24.9987 1.58333L18.3401 5.03758M18.3401 5.03758C16.2385 8.55286 17.0464 13.8324 20.2801 19.7823M18.3401 5.03758L20.2801 19.7823M20.2801 19.7823C20.9288 20.9773 20.9982 21.9921 20.608 22.8516L20.2801 19.7823ZM23.0335 42.0349L23.2986 41.9984L23.4153 41.7576L24.9987 38.4903L26.5821 41.7576L26.6988 41.9984L26.9639 42.0349L30.5609 42.5298L27.9437 45.048L27.7512 45.2332L27.7981 45.4961L28.4358 49.0704L25.2346 47.3571L24.9986 47.2307L24.7626 47.3572L21.5627 49.0715L22.2034 45.4965L22.2506 45.2332L22.0576 45.0478L19.4373 42.5297L23.0335 42.0349ZM6.76893 42.0349L7.03403 41.9984L7.15073 41.7576L8.73411 38.4903L10.3175 41.7576L10.4342 41.9984L10.6993 42.0349L14.2963 42.5298L11.6791 45.048L11.4866 45.2332L11.5336 45.4961L12.1712 49.0704L8.97006 47.3571L8.734 47.2307L8.498 47.3572L5.29807 49.0715L5.93877 45.4965L5.98597 45.2332L5.79307 45.0478L3.17269 42.5297L6.76893 42.0349ZM39.2981 42.0349L39.5632 41.9984L39.6799 41.7576L41.2633 38.4903L42.8467 41.7576L42.9634 41.9984L43.2285 42.0349L46.8255 42.5298L44.2083 45.048L44.0158 45.2332L44.0627 45.4961L44.7003 49.0704L41.4992 47.3571L41.2632 47.2307L41.0272 47.3572L37.8272 49.0715L38.4679 45.4965L38.5151 45.2332L38.3222 45.0478L35.7019 42.5297L39.2981 42.0349ZM22.8219 43.1589L21.7989 43.3002L22.5443 44.015L23.4176 44.8526L23.2044 46.0431L23.0226 47.0583L23.9323 46.5722L24.9987 46.0023L26.0693 46.5743L26.9786 47.0602L26.7971 46.0453L26.5838 44.8523L27.4555 44.0147L28.1995 43.2999L27.1775 43.1589L25.9777 42.9933L25.4486 41.9026L24.9987 40.9753L24.5488 41.9026L24.0197 42.9934L22.8219 43.1589ZM6.55734 43.1589L5.53432 43.3002L6.27971 44.015L7.15306 44.8526L6.93986 46.0431L6.75805 47.0583L7.66769 46.5722L8.73414 46.0023L9.80474 46.5743L10.714 47.0602L10.5326 46.0453L10.3192 44.8523L11.191 44.0147L11.9349 43.2999L10.9129 43.1589L9.71312 42.9933L9.18397 41.9026L8.73411 40.9753L8.28426 41.9026L7.75508 42.9934L6.55734 43.1589ZM39.0865 43.1589L38.0635 43.3002L38.8089 44.015L39.6822 44.8526L39.469 46.0431L39.2872 47.0583L40.1969 46.5722L41.2633 46.0023L42.3339 46.5743L43.2432 47.0602L43.0617 46.0453L42.8484 44.8523L43.7201 44.0147L44.4641 43.2999L43.442 43.1589L42.2423 42.9933L41.7131 41.9026L41.2633 40.9753L40.8134 41.9026L40.2843 42.9934L39.0865 43.1589Z" fill="#0E619D" stroke="#0E619D"/>
</g>
<defs>
<clipPath id="clip0_3471_5913">
<rect width="50" height="50" fill="white"/>
</clipPath>
</defs>
</svg>
