<svg width="44" height="44" viewBox="0 0 44 44" fill="none" xmlns="http://www.w3.org/2000/svg">
<g clip-path="url(#clip0_3471_5883)">
<path d="M41.9284 21.875C41.9284 23.7745 41.6477 25.6029 41.1536 27.3438H37.3237C37.9344 25.6302 38.2826 23.7945 38.2826 21.875C38.2826 12.8297 30.9234 5.46875 21.8763 5.46875C18.7664 5.46875 15.868 6.35104 13.3924 7.86406L16.7776 12.7604H4.02813L7.95104 0L11.3234 4.87266C14.3914 2.96042 17.9917 1.82292 21.8763 1.82292C32.9487 1.82292 41.9284 10.8008 41.9284 21.875ZM30.3456 35.8969C27.8719 37.4026 24.9789 38.2812 21.8763 38.2812C12.8292 38.2812 5.47005 30.9203 5.47005 21.875C5.47005 19.9555 5.81823 18.1198 6.42708 16.4062H2.59896C2.10495 18.1471 1.82422 19.9755 1.82422 21.875C1.82422 32.9492 10.8021 41.9271 21.8763 41.9271C25.7536 41.9271 29.3484 40.7951 32.4128 38.8883L35.7906 43.75L39.7135 31.0096H26.9641L30.3456 35.8969ZM30.9909 17.1518L28.4005 14.5833L19.0945 24.0315L15.3065 20.0521L12.7617 22.668L19.1419 29.1667L30.9909 17.1518Z" fill="#0E619D"/>
</g>
<defs>
<clipPath id="clip0_3471_5883">
<rect width="43.75" height="43.75" fill="white"/>
</clipPath>
</defs>
</svg>
