<svg width="50" height="50" viewBox="0 0 50 50" fill="none" xmlns="http://www.w3.org/2000/svg">
<g clip-path="url(#clip0_3471_5925)">
<path fill-rule="evenodd" clip-rule="evenodd" d="M45.1458 8.24023L39.2604 3.65273L40.6458 2.08398L49.975 9.3694L40.6542 16.6673L39.2687 15.0986L45.3979 10.3236H36.7271C29.3375 10.4132 25.8896 17.4173 22.325 24.9548C25.8896 32.4902 29.3375 39.4944 36.7271 39.584H45.2667L39.2604 34.9027L40.6458 33.334L49.975 40.6194L40.6542 47.9173L39.2687 46.3486L45.2771 41.6673H36.7146C28.5979 41.5673 24.6646 34.6486 21.1708 27.3798C17.6562 34.6923 13.6875 41.634 5.46458 41.6673H0V39.584H5.46042C12.9604 39.5548 16.4354 32.5277 20.0187 24.9548C16.4354 17.3798 12.9604 10.3527 5.46042 10.3236H0V8.24023H5.46458C13.6875 8.27357 17.6562 15.2152 21.1708 22.5277C24.6646 15.259 28.5979 8.34023 36.7146 8.24023H45.1458Z" fill="#0E619D" stroke="#0E619D" stroke-width="2"/>
</g>
<defs>
<clipPath id="clip0_3471_5925">
<rect width="50" height="50" fill="white"/>
</clipPath>
</defs>
</svg>
