<svg width="44" height="44" viewBox="0 0 44 44" fill="none" xmlns="http://www.w3.org/2000/svg">
<g clip-path="url(#clip0_3471_5879)">
<path d="M21.875 34.6354C30.0781 27.5388 36.4583 22.1083 36.4583 14.1641C36.4583 6.34193 29.9286 0 21.875 0C13.8214 0 7.29167 6.34193 7.29167 14.1641C7.29167 22.1083 13.6719 27.5388 21.875 34.6354ZM11.3732 16.4062H16.4062V12.7604H11.3276C12.044 8.30156 15.5641 4.77786 20.0521 4.01224V9.11458H23.6979V4.01224C28.1859 4.77786 31.706 8.30156 32.4224 12.7604H27.3438V16.4062H32.3768C31.5529 20.7229 28.0857 24.1044 23.6979 24.85V20.0521H20.0521V24.85C15.6661 24.1044 12.1971 20.7229 11.3732 16.4062ZM36.4583 29.1667H33.1753C32.0286 30.3935 30.7763 31.6003 29.4547 32.8125H34.2034L35.1148 34.6354H27.4258L25.3367 36.4583H27.2052L28.7693 40.1042H15.1211L16.6852 36.4583H18.4115C17.7023 35.8458 17.0042 35.2388 16.3206 34.6354H12.6839L10.8409 32.8125H14.2953C12.9737 31.6021 11.725 30.3935 10.5784 29.1667H7.29167L0 43.75H43.75L36.4583 29.1667ZM13.1359 40.1042H5.89896L9.11458 33.6729L11.8781 36.4583H14.7018L13.1359 40.1042ZM29.1922 36.4583H36.0281L37.851 40.1042H30.7562L29.1922 36.4583Z" fill="#0E619D"/>
</g>
<defs>
<clipPath id="clip0_3471_5879">
<rect width="43.75" height="43.75" fill="white"/>
</clipPath>
</defs>
</svg>
