<svg width="44" height="44" viewBox="0 0 44 44" fill="none" xmlns="http://www.w3.org/2000/svg">
<g clip-path="url(#clip0_3471_5889)">
<path fill-rule="evenodd" clip-rule="evenodd" d="M14.5833 10.9594H2.58854L6.11589 0L9.24766 4.05234C12.8169 1.52031 17.1701 0.021875 21.875 0.021875C33.9482 0.021875 43.75 9.8237 43.75 21.8969C43.75 33.9701 33.9482 43.75 21.875 43.75C9.80182 43.75 0 33.9701 0 21.8969C0 20.0083 0.240625 18.1763 0.690885 16.4281H4.48073C3.93932 18.1544 3.64583 19.9919 3.64583 21.8969C3.64583 31.9594 11.8143 40.126 21.875 40.126C31.9375 40.126 40.1042 31.9594 40.1042 21.8969C40.1042 11.8362 31.9375 3.66771 21.875 3.66771C18.0086 3.66771 14.432 4.88542 11.4789 6.94167L14.5833 10.9594ZM21.875 14.5833C25.9 14.5833 29.1667 17.85 29.1667 21.875C29.1667 25.9 25.9 29.1667 21.875 29.1667C17.85 29.1667 14.5833 25.9 14.5833 21.875C14.5833 17.85 17.85 14.5833 21.875 14.5833Z" fill="#0E619D"/>
</g>
<defs>
<clipPath id="clip0_3471_5889">
<rect width="43.75" height="43.75" fill="white"/>
</clipPath>
</defs>
</svg>
