<svg width="44" height="44" viewBox="0 0 44 44" fill="none" xmlns="http://www.w3.org/2000/svg">
<g clip-path="url(#clip0_3471_5885)">
<path fill-rule="evenodd" clip-rule="evenodd" d="M41.1742 26.6583L23.7034 9.11458H14.7201C14.9133 9.76536 15.0245 10.3924 15.0354 10.9831C16.831 11.2073 18.2292 12.7258 18.2292 14.5833C18.2292 16.5958 16.5958 18.2292 14.5833 18.2292C12.5708 18.2292 10.9375 16.5958 10.9375 14.5833C10.9375 13.0466 11.8927 11.7378 13.238 11.2018C13.2562 10.5875 13.1159 9.86927 12.8242 9.11458H9.11458V23.707L26.6565 41.1742L41.1742 26.6583ZM14.762 12.7969C14.6016 13.1888 14.3846 13.5406 14.1021 13.8323C13.681 14.268 13.2417 14.5505 12.7914 14.7346C12.8734 15.6661 13.6318 16.4062 14.5833 16.4062C15.5896 16.4062 16.4062 15.5896 16.4062 14.5833C16.4062 13.6409 15.6789 12.8898 14.762 12.7969ZM43.75 26.6602L26.6602 43.75L7.29167 24.4654V13.6846C5.24453 12.7513 2.9276 11.6958 0 11.6958V9.87292C2.93672 9.87292 5.32292 10.8044 7.29167 11.6849V7.29167H11.8344C9.91302 4.5026 6.03568 1.82292 0 1.82292V0C7.4612 0 12.0367 3.74609 13.9654 7.29167H24.4599L43.75 26.6602ZM30.9951 29.8156L31.9448 30.7654L30.6724 32.0359L29.688 31.0552C28.731 31.7771 27.7411 32.1435 26.7495 32.1435C25.5609 32.1435 24.4307 31.6057 23.5885 30.7708L24.9339 29.4237C25.4862 29.9159 26.0841 30.2659 26.8461 30.2659C27.6536 30.2659 28.4794 29.8503 29.3016 29.0281C29.9596 28.3737 30.3388 27.6865 30.4336 26.9828C30.6195 25.5974 29.5422 24.6896 28.4685 24.6896C27.7539 24.6896 26.8734 25.025 25.7797 25.7159C23.5466 27.125 21.401 27.9818 19.5581 26.1388C17.8846 24.4672 18.3823 22.2888 19.4195 20.7831L18.2292 19.5945L19.5016 18.3203L20.6427 19.4633C21.6234 18.643 22.6424 18.2292 23.6742 18.2292C24.8865 18.2292 26.0185 18.8052 26.8844 19.6729L25.5281 21.0292C24.1956 19.6766 22.5677 20.0357 21.3792 21.2224C20.7922 21.8112 20.4312 22.4529 20.3365 23.0818C20.1141 24.5583 21.4302 25.3021 22.0883 25.3021C22.7044 25.3021 23.4992 24.9849 24.7424 24.2375C26.4633 23.2112 27.6464 22.7719 28.7 22.7719C29.6352 22.7719 30.4555 23.1401 31.212 23.8966C33.1042 25.7888 32.3495 28.1823 30.9951 29.8156Z" fill="#0E619D" stroke="#0E619D"/>
</g>
<defs>
<clipPath id="clip0_3471_5885">
<rect width="43.75" height="43.75" fill="white"/>
</clipPath>
</defs>
</svg>
