<svg width="44" height="44" viewBox="0 0 44 44" fill="none" xmlns="http://www.w3.org/2000/svg">
<g clip-path="url(#clip0_3471_5887)">
<path d="M37.3698 23.6982C33.8479 23.6982 30.9896 26.5548 30.9896 30.0784C30.9896 33.6021 33.8479 36.4587 37.3698 36.4587C40.8917 36.4587 43.75 33.6021 43.75 30.0784C43.75 26.5548 40.8917 23.6982 37.3698 23.6982ZM40.1042 30.9899H38.2812V32.8128H36.4583V30.9899H34.6354V29.167H36.4583V27.3441H38.2812V29.167H40.1042V30.9899ZM16.4044 20.2347C16.4044 23.3191 15.0081 25.5212 14.206 27.3441H11.6594C12.0732 25.5212 15.2214 21.1188 13.5206 18.2623C12.518 16.5798 9.37891 16.5779 8.38177 18.235C7.45755 19.768 7.94427 22.641 9.67969 25.9186C10.624 27.7014 10.3615 29.0795 9.975 29.9235C9.2349 31.5441 7.59974 32.3243 5.75312 32.862C2.08906 33.9339 2.4263 32.9623 2.4263 36.4587H0.00364583L0 35.3321C0 33.0316 0.180469 31.7063 2.89844 31.0792C6.03203 30.3555 8.9487 29.7212 7.53776 27.0524C3.23385 18.9277 6.39479 14.5837 10.9393 14.5837C14.0146 14.5837 16.4044 16.5706 16.4044 20.2347ZM26.7786 22.7777C27.8852 24.8667 27.5935 26.4527 27.1542 27.4133C25.951 30.0475 22.6479 30.8094 19.1516 31.6152C16.8693 32.1438 17.0151 32.687 17.0151 36.4587H14.5888L14.5833 34.9548C14.5833 31.8904 14.824 30.1204 18.4461 29.2837C22.626 28.3175 26.5161 27.4717 24.6331 23.9133C18.8964 13.0834 23.1109 7.29199 29.1685 7.29199C34.9362 7.29199 38.8974 12.5402 34.712 21.8753H32.0086C34.1214 17.637 34.6117 13.9894 33.2992 11.7891C31.6549 9.02376 26.7057 9.03835 25.0742 11.749C23.6742 14.0696 24.2977 18.0891 26.7786 22.7777Z" fill="#0E619D"/>
</g>
<defs>
<clipPath id="clip0_3471_5887">
<rect width="43.75" height="43.75" fill="white"/>
</clipPath>
</defs>
</svg>
