<svg width="44" height="44" viewBox="0 0 44 44" fill="none" xmlns="http://www.w3.org/2000/svg">
<g clip-path="url(#clip0_3471_5881)">
<path fill-rule="evenodd" clip-rule="evenodd" d="M39.4133 36.8156C41.3365 35.1349 42.5797 32.6922 42.5797 29.9396C42.5797 27.5315 41.6299 25.3549 40.106 23.7198V11.0578L20.0521 0L0 10.9375V33.0513L20.0521 43.75L30.0198 38.4326C31.0734 38.8536 32.2164 39.1016 33.4195 39.1016C35.0656 39.1016 36.5896 38.6312 37.924 37.8693L42.288 43.75L43.7518 42.6635L39.4133 36.8156ZM19.1406 41.1979L1.82292 31.9576V12.9135L19.1406 21.9297V41.1979ZM20.9635 41.1961V21.9333L30.2003 17.1792L30.2531 17.2065L30.2914 17.1336L38.2831 13.0211V22.2068C36.8721 21.3172 35.2096 20.7812 33.4195 20.7812C28.3646 20.7812 24.2612 24.8865 24.2612 29.9396C24.2612 33.013 25.7888 35.7201 28.113 37.3826L20.9635 41.1961ZM33.4195 37.2786C29.3745 37.2786 26.0841 33.9828 26.0841 29.9396C26.0841 25.8964 29.3745 22.6023 33.4195 22.6023C37.4664 22.6023 40.7568 25.8964 40.7568 29.9396C40.7568 33.9828 37.4664 37.2786 33.4195 37.2786ZM32.756 31.2029L30.3753 29.112L29.1721 30.481L32.8708 33.7294L38.2776 28.0419L36.956 26.7859L32.756 31.2029ZM2.91302 11.4242L10.8409 7.10026L28.2206 16.1492L20.0557 20.351L2.91302 11.4242ZM20.0484 2.07812L37.1911 11.5318L30.2057 15.1266L12.7695 6.04844L20.0484 2.07812Z" fill="#0E619D" stroke="#0E619D"/>
</g>
<defs>
<clipPath id="clip0_3471_5881">
<rect width="43.75" height="43.75" fill="white"/>
</clipPath>
</defs>
</svg>
