<svg width="50" height="50" viewBox="0 0 50 50" fill="none" xmlns="http://www.w3.org/2000/svg">
<g clip-path="url(#clip0_3471_5929)">
<path fill-rule="evenodd" clip-rule="evenodd" d="M25 0C38.7979 0 50 11.2021 50 25C50 38.7979 38.7979 50 25 50C11.2021 50 0 38.7979 0 25C0 11.2021 11.2021 0 25 0ZM26.1125 8.34792H23.9792V2.06458C12.1188 2.58333 2.58333 12.1188 2.06458 23.9792H8.34792V26.1125H2.06875C2.63333 37.9292 12.15 47.4188 23.9792 47.9354V41.7438H26.1125V47.9312C37.9 47.3687 47.3687 37.9 47.9312 26.1125H41.7438V23.9792H47.9354C47.4188 12.15 37.9292 2.63333 26.1125 2.06875V8.34792ZM39.5812 35.4167H10.4229L10.4187 33.2854C10.4396 30.7542 10.675 30.2792 12.5521 29.8458C14.8583 29.3125 16.2062 28.8479 15.1646 26.8833C12 20.9062 14.9896 17.7083 18.3312 17.7083C21.7396 17.7083 24.675 21.0271 21.5021 26.8833C20.9104 27.9708 21.0771 28.6021 21.7229 29.0354C22.1312 28.6792 22.725 28.4062 23.5854 28.2083C26.5708 27.5187 28.3146 26.9146 26.9667 24.3729C22.8708 16.6375 25.8812 12.5 30.2062 12.5C34.6167 12.5 37.5542 16.7958 33.45 24.3729C32.0625 26.9292 33.9 27.5354 36.825 28.2083C39.7646 28.8875 39.5812 30.4312 39.5812 33.3333V35.4167ZM20.875 30.9583C20.2375 30.6 19.6688 30.0938 19.3312 29.3458C18.8687 28.3208 18.9833 27.1562 19.6708 25.8896C20.8062 23.7917 21.0833 21.9583 20.4292 20.8604C19.5708 19.4167 17.0854 19.4521 16.2521 20.8354C15.5979 21.9208 15.8729 23.7708 17.0063 25.9104C17.6812 27.1812 17.7875 28.3417 17.3229 29.3625C16.5021 31.1604 14.2792 31.5729 13.1104 31.8562C12.6521 31.9667 12.5229 31.9979 12.5083 32.5667L12.5042 33.3333H20.8312C20.8312 32.4125 20.8083 31.6271 20.875 30.9583ZM37.4979 33.3333C37.5104 30.5292 37.5958 30.525 36.3542 30.2396C35.8375 30.1187 28.55 29.0354 31.6187 23.3792C33.3438 20.1937 33.7979 17.4625 32.8583 15.8896C31.8125 14.1375 28.6104 14.1479 27.5792 15.8625C26.6458 17.4125 27.0938 20.1604 28.8083 23.3979C31.8833 29.1958 24.1812 30.2083 24.0542 30.2396C22.8042 30.5271 22.9042 30.5146 22.9146 33.3333H37.4979Z" fill="#0E619D" stroke="#0E619D" stroke-width="0.5"/>
</g>
<defs>
<clipPath id="clip0_3471_5929">
<rect width="50" height="50" fill="white"/>
</clipPath>
</defs>
</svg>
