<svg width="44" height="44" viewBox="0 0 44 44" fill="none" xmlns="http://www.w3.org/2000/svg">
<g clip-path="url(#clip0_3471_5891)">
<path d="M12.8245 25.6201L12.825 25.6211C12.9297 25.8739 12.9899 26.1248 12.9856 26.4011C12.9813 26.6714 12.9156 26.9344 12.814 27.2115C12.6774 27.5837 12.4467 28.0518 12.14 28.6738C12.057 28.8423 11.9684 29.022 11.8745 29.2142L14.5357 31.8738C14.7451 31.7715 14.9405 31.6745 15.1233 31.5838C15.6797 31.3077 16.119 31.0897 16.4775 30.9551C16.7587 30.8495 17.0298 30.7783 17.3088 30.769C17.5945 30.7595 17.8594 30.8158 18.1279 30.9265L12.8245 25.6201ZM12.8245 25.6201C12.7177 25.3639 12.5791 25.1429 12.3776 24.9506C12.1808 24.7627 11.9457 24.6231 11.6764 24.4992C11.3176 24.3342 10.8289 24.1689 10.1879 23.9521C10.0088 23.8916 9.8179 23.827 9.61458 23.7573V19.9907C9.81205 19.9228 9.99748 19.8599 10.1715 19.8008C10.8406 19.5735 11.3401 19.4038 11.7019 19.236C11.9686 19.1122 12.1994 18.9734 12.3919 18.7863C12.5887 18.595 12.7215 18.3767 12.8249 18.1271L12.8252 18.1265M12.8245 25.6201L12.8252 18.1265M12.8252 18.1265C12.9351 17.8603 12.992 17.5976 12.9831 17.3133C12.9743 17.0358 12.9035 16.7662 12.7983 16.486C12.664 16.1288 12.4458 15.6892 12.1677 15.1292C12.0762 14.9449 11.9782 14.7475 11.8745 14.5357L14.5356 11.8747C14.733 11.9713 14.9179 12.0629 15.0915 12.149C15.6723 12.4368 16.1264 12.6618 16.4945 12.7993C16.7755 12.9042 17.0456 12.9748 17.322 12.9833C17.6053 12.9921 17.8663 12.935 18.1289 12.8242C18.3916 12.7149 18.6158 12.5712 18.8094 12.3657C18.9988 12.1647 19.1391 11.9253 19.2628 11.6534C19.4234 11.3005 19.5828 10.826 19.7876 10.2167C19.8507 10.0289 19.918 9.82833 19.9911 9.61458H23.7576C23.8245 9.80907 23.8867 9.99186 23.9451 10.1635C24.1746 10.8383 24.3455 11.3408 24.5144 11.704C24.6383 11.9705 24.7771 12.2009 24.9641 12.3928C25.1551 12.5889 25.3728 12.7208 25.6214 12.8232C25.8898 12.9348 26.1552 12.9911 26.4413 12.9815C26.7209 12.9721 26.9931 12.9006 27.2752 12.7947C27.6399 12.6577 28.0865 12.4354 28.6515 12.1541C28.8274 12.0665 29.0147 11.9732 29.2146 11.875L31.874 14.5359C31.7809 14.7271 31.6929 14.9061 31.6104 15.074C31.3065 15.6919 31.0766 16.1594 30.9399 16.5321C30.8381 16.8096 30.7718 17.0733 30.7665 17.3438C30.761 17.6207 30.82 17.8726 30.9248 18.1265L30.9252 18.1274M12.8252 18.1265L30.9252 18.1274M30.9252 18.1274C31.0345 18.3907 31.1784 18.6154 31.3843 18.8094C31.5853 18.9988 31.8247 19.1391 32.0966 19.2628C32.4495 19.4234 32.924 19.5828 33.5333 19.7876C33.7211 19.8507 33.9217 19.918 34.1354 19.9911V23.7573C33.9442 23.8228 33.7642 23.8839 33.5948 23.9413C32.9268 24.1678 32.4246 24.3381 32.0592 24.5076C31.7911 24.6319 31.5583 24.7716 31.364 24.9591C31.1652 25.151 31.0298 25.3704 30.9251 25.6228L30.925 25.6232M30.9252 18.1274L30.925 25.6232M30.925 25.6232C30.8188 25.8797 30.76 26.134 30.766 26.4125C30.7718 26.6846 30.839 26.9495 30.9416 27.2276C31.0776 27.5965 31.3047 28.0572 31.6025 28.6614C31.6874 28.8336 31.778 29.0174 31.8739 29.2141L29.2142 31.8738C29.0011 31.7695 28.8012 31.6698 28.6135 31.5762C28.095 31.3177 27.6695 31.1055 27.3171 30.9701C26.7294 30.7443 26.2133 30.6752 25.6299 30.9223C25.3665 31.0319 25.1412 31.175 24.9464 31.3799C24.7556 31.5807 24.6143 31.8198 24.4899 32.0918C24.3284 32.4447 24.1683 32.9199 23.9622 33.5314C23.8988 33.7197 23.831 33.9209 23.7574 34.1354M30.925 25.6232L23.7574 34.1354M23.1776 10.4375L23.2928 10.7769C23.7837 12.2238 24.1014 13.0856 25.3076 13.5855C26.4511 14.0586 27.4019 13.6595 28.7257 13.0226L29.0455 12.8688L29.2962 13.1199L30.6306 14.4561L30.8832 14.709L30.7256 15.0298C30.061 16.3831 29.6596 17.2213 30.1646 18.4427L23.1776 10.4375ZM23.1776 10.4375H22.8193M23.1776 10.4375H22.8193M22.8193 10.4375H20.9307H20.5715M22.8193 10.4375H20.5715M20.5715 10.4375L20.4568 10.778M20.5715 10.4375L20.4568 10.778M20.4568 10.778C20.0061 12.1171 19.6623 13.0792 18.4428 13.5835L18.4415 13.584M20.4568 10.778L18.4415 13.584M18.4415 13.584C17.3159 14.0531 16.3478 13.6622 15.0272 13.0231L14.7072 12.8683M18.4415 13.584L14.7072 12.8683M14.7072 12.8683L14.4558 13.1196M14.7072 12.8683L14.4558 13.1196M14.4558 13.1196L13.1196 14.4558L12.8668 14.7086M14.4558 13.1196L12.8668 14.7086M12.8668 14.7086L13.0243 15.0296M12.8668 14.7086L13.0243 15.0296M13.0243 15.0296C13.6957 16.3983 14.0887 17.2261 13.5855 18.4423C13.0963 19.6219 12.2861 19.9129 11.0557 20.3547C10.9618 20.3885 10.8655 20.4231 10.7666 20.459L10.4375 20.5787M13.0243 15.0296L10.4375 20.5787M10.4375 20.5787V20.9289M10.4375 20.5787V20.9289M10.4375 20.9289V22.8357V23.1946M10.4375 20.9289V23.1946M10.4375 23.1946L10.7776 23.3094M10.4375 23.1946L10.7776 23.3094M10.7776 23.3094C12.1244 23.7639 13.0803 24.0898 13.5854 25.3056C14.0872 26.5176 13.6816 27.3588 13.047 28.6751L13.0228 28.7254L12.8684 29.0455M10.7776 23.3094L12.8684 29.0455M12.8684 29.0455L13.1201 29.2965M12.8684 29.0455L13.1201 29.2965M13.1201 29.2965L14.4563 30.629L14.7088 30.8809M13.1201 29.2965L14.7088 30.8809M14.7088 30.8809L15.0292 30.7241M14.7088 30.8809L15.0292 30.7241M15.0292 30.7241C16.3376 30.0837 17.3173 29.6982 18.4423 30.1644L15.0292 30.7241ZM20.5608 33.3125L20.4515 32.9611C20.0033 31.5206 19.5963 30.6432 18.4424 30.1645L20.5608 33.3125ZM20.5608 33.3125H20.9289M20.5608 33.3125H20.9289M20.9289 33.3125H22.8047H23.1637M20.9289 33.3125H23.1637M23.1637 33.3125L23.2784 32.9724M23.1637 33.3125L23.2784 32.9724M23.2784 32.9724C23.729 31.6372 24.0871 30.6716 25.3147 30.1609C26.4879 29.6753 27.4242 30.1151 28.7228 30.7251L28.728 30.7276L29.0461 30.877M23.2784 32.9724L29.0461 30.877M29.0461 30.877L29.2944 30.6283M29.0461 30.877L29.2944 30.6283M29.2944 30.6283L30.627 29.2939L30.8737 29.0469M29.2944 30.6283L30.8737 29.0469M30.8737 29.0469L30.7267 28.7301M30.8737 29.0469L30.7267 28.7301M30.7267 28.7301C30.6802 28.63 30.6347 28.533 30.5905 28.4388C30.0308 27.246 29.6761 26.4899 30.1645 25.3075C30.65 24.1394 31.4356 23.8534 32.6523 23.4104C32.7601 23.3711 32.8714 23.3306 32.9861 23.2882L33.3125 23.1674M30.7267 28.7301L33.3125 23.1674M33.3125 23.1674V22.8193M33.3125 23.1674V22.8193M33.3125 22.8193V20.9307V20.5711M33.3125 22.8193V20.5711M33.3125 20.5711L32.9716 20.4567M33.3125 20.5711L32.9716 20.4567M32.9716 20.4567C31.6306 20.0066 30.6708 19.6608 30.1647 18.4428L32.9716 20.4567ZM23.7574 34.1354H19.9908C19.9239 33.9407 19.8617 33.7577 19.8034 33.5858C19.5746 32.9121 19.404 32.41 19.2355 32.0469C19.1118 31.7804 18.973 31.5498 18.7861 31.3577C18.595 31.1613 18.3771 31.0291 18.1281 30.9266L23.7574 34.1354ZM21.875 43.25C10.2451 43.25 0.771812 33.9415 0.505745 22.375H1.32889C1.59477 33.4875 10.6991 42.4271 21.875 42.4271C30.5827 42.4271 38.031 37.0005 41.0237 29.3488L41.2905 28.6667H40.5581H36.9583V27.8438H43.25V34.1354H42.4271V30.625L41.469 30.4247C38.1678 37.9731 30.6323 43.25 21.875 43.25ZM3.19193 15.0833H6.79167V15.9062H0.5V9.61458H1.32292V13.125L2.28102 13.3253C5.58223 5.77693 13.1177 0.5 21.875 0.5C33.5049 0.5 42.9782 9.80852 43.2443 21.375H42.4211C42.1552 10.2625 33.0509 1.32292 21.875 1.32292C13.1673 1.32292 5.71895 6.74953 2.72628 14.4012L2.45949 15.0833H3.19193ZM21.8367 25.9323C19.6009 25.9323 17.7794 24.1108 17.7794 21.875C17.7794 19.6392 19.6009 17.8177 21.8367 17.8177C24.0726 17.8177 25.894 19.6392 25.894 21.875C25.894 24.1108 24.0726 25.9323 21.8367 25.9323ZM21.8367 18.6406C20.053 18.6406 18.6023 20.0913 18.6023 21.875C18.6023 23.6587 20.053 25.1094 21.8367 25.1094C23.6204 25.1094 25.0711 23.6587 25.0711 21.875C25.0711 20.0913 23.6204 18.6406 21.8367 18.6406Z" fill="#0E619D" stroke="#0E619D"/>
</g>
<defs>
<clipPath id="clip0_3471_5891">
<rect width="43.75" height="43.75" fill="white"/>
</clipPath>
</defs>
</svg>
