<svg width="50" height="50" viewBox="0 0 50 50" fill="none" xmlns="http://www.w3.org/2000/svg">
<g clip-path="url(#clip0_3471_5919)">
<path d="M34.2375 42.6389C35.3875 42.2139 36.4813 41.6764 37.5062 41.0327L39.9833 44.4035C38.5125 45.3556 36.9208 46.1306 35.2375 46.7098L34.2375 42.6389ZM13.1854 35.5056L10.6854 39.2035C11.5625 40.3639 12.5687 41.416 13.6562 42.3827L15.9104 38.8223C14.875 37.8327 13.9562 36.7202 13.1854 35.5056ZM10.7354 22.916C12.2167 14.641 19.4312 8.33268 28.125 8.33268C37.8896 8.33268 45.8333 16.2764 45.8333 26.041C45.8333 30.8598 43.8917 35.2306 40.7583 38.4264L43.2521 41.816C47.4042 37.8348 50 32.2452 50 26.041C50 13.9618 40.2021 4.16602 28.125 4.16602C17.1083 4.16602 8.02292 12.3202 6.50625 22.916H0L8.33333 35.2431L16.6667 22.916H10.7354ZM22.7042 42.8618C21.4917 42.4681 20.3312 41.9681 19.25 41.3348L17.0312 44.841C18.4646 45.6931 19.9979 46.3806 21.6167 46.8889L22.7042 42.8618ZM30.1875 43.6202C28.4396 43.8223 28.0312 43.7577 26.8062 43.6639L25.6958 47.7723C27.6667 47.991 29.1562 47.9639 31.1875 47.6785L30.1875 43.6202Z" fill="#0E619D"/>
</g>
<defs>
<clipPath id="clip0_3471_5919">
<rect width="50" height="50" fill="white"/>
</clipPath>
</defs>
</svg>
