<svg width="50" height="50" viewBox="0 0 50 50" fill="none" xmlns="http://www.w3.org/2000/svg">
<path d="M36.4596 22.9173C41.6346 22.9173 45.8346 27.1173 45.8346 32.2923C45.8346 37.4673 41.6346 41.6673 36.4596 41.6673C31.2846 41.6673 27.0846 37.4673 27.0846 32.2923C27.0846 27.1173 31.2846 22.9173 36.4596 22.9173ZM24.0034 33.334C24.093 34.4215 24.3221 35.4694 24.6721 36.459H5.73047C4.86797 36.459 4.16797 35.759 4.16797 34.8965C4.16797 34.034 4.86797 33.334 5.73047 33.334H24.0034ZM31.7201 33.284L34.7242 35.9611C34.9221 36.1381 35.1721 36.2257 35.418 36.2257C35.7013 36.2257 35.9826 36.1111 36.1888 35.8881L41.2742 30.3277C41.4576 30.1277 41.5471 29.8757 41.5471 29.6277C41.5471 29.0569 41.0867 28.5882 40.5055 28.5882C40.2221 28.5882 39.9409 28.7027 39.7346 28.9256L35.343 33.7256L33.1076 31.734C32.9076 31.5569 32.6617 31.4694 32.4138 31.4694C31.8367 31.4694 31.3721 31.9361 31.3721 32.509C31.3721 32.7944 31.4888 33.0777 31.7201 33.284ZM26.3076 25.0007C25.6242 25.9507 25.0701 27.0007 24.6721 28.1257H5.73047C4.86797 28.1257 4.16797 27.4256 4.16797 26.5632C4.16797 25.7007 4.86797 25.0007 5.73047 25.0007H26.3076ZM41.668 18.2298C41.668 17.3673 40.968 16.6673 40.1055 16.6673H5.73047C4.86797 16.6673 4.16797 17.3673 4.16797 18.2298C4.16797 19.0923 4.86797 19.7923 5.73047 19.7923H40.1055C40.968 19.7923 41.668 19.0923 41.668 18.2298ZM41.668 9.89648C41.668 9.03398 40.968 8.33398 40.1055 8.33398H5.73047C4.86797 8.33398 4.16797 9.03398 4.16797 9.89648C4.16797 10.759 4.86797 11.459 5.73047 11.459H40.1055C40.968 11.459 41.668 10.759 41.668 9.89648Z" fill="#0E619D"/>
</svg>
