<svg width="44" height="44" viewBox="0 0 44 44" fill="none" xmlns="http://www.w3.org/2000/svg">
<g clip-path="url(#clip0_3471_5863)">
<path fill-rule="evenodd" clip-rule="evenodd" d="M43.75 2.43056C43.75 1.26875 42.8288 0 41.3194 0H2.43056C0.923611 0 0 1.26146 0 2.43056V41.3194C0 42.8288 1.26389 43.75 2.43056 43.75H41.3194C42.4813 43.75 43.75 42.8288 43.75 41.3194V2.43056ZM3.64583 3.64583H40.1042V40.1042H3.64583V3.64583ZM36.4583 29.7743C36.4583 28.7681 35.6417 27.9514 34.6354 27.9514H23.6979C22.6917 27.9514 21.875 28.7681 21.875 29.7743C21.875 30.7806 22.6917 31.5972 23.6979 31.5972H34.6354C35.6417 31.5972 36.4583 30.7806 36.4583 29.7743ZM7.84583 28.4691L10.884 31.1767C11.2 31.4587 11.5962 31.5972 11.9899 31.5972C12.4396 31.5972 12.8892 31.4149 13.2149 31.0576L18.358 25.4358C18.6497 25.1174 18.7931 24.7163 18.7931 24.3201C18.7931 23.4087 18.0566 22.6625 17.1306 22.6625C16.6809 22.6625 16.2361 22.8424 15.9056 23.1997L11.8708 27.6111L10.0576 25.9948C9.73924 25.7128 9.34549 25.5743 8.95174 25.5743C8.03056 25.5743 7.29167 26.3205 7.29167 27.2319C7.29167 27.6889 7.47882 28.141 7.84583 28.4691ZM36.4583 21.8799C36.4583 20.8736 35.6417 20.0569 34.6354 20.0569H23.6979C22.6917 20.0569 21.875 20.8736 21.875 21.8799C21.875 22.8861 22.6917 23.7028 23.6979 23.7028H34.6354C35.6417 23.7028 36.4583 22.8861 36.4583 21.8799ZM7.84583 17.9594L10.884 20.667C11.2 20.949 11.5962 21.0875 11.9899 21.0875C12.4396 21.0875 12.8892 20.9076 13.2149 20.5503L18.358 14.9285C18.6497 14.6101 18.7931 14.209 18.7931 13.8104C18.7931 12.9014 18.0566 12.1528 17.1306 12.1528C16.6809 12.1528 16.2361 12.3326 15.9056 12.6899L11.8708 17.1014L10.0576 15.4875C9.73924 15.2056 9.34549 15.067 8.95174 15.067C8.03056 15.067 7.29167 15.8108 7.29167 16.7247C7.29167 17.1792 7.47882 17.6337 7.84583 17.9618V17.9594ZM36.4583 13.9757C36.4583 12.9694 35.6417 12.1528 34.6354 12.1528H23.6979C22.6917 12.1528 21.875 12.9694 21.875 13.9757C21.875 14.9819 22.6917 15.7986 23.6979 15.7986H34.6354C35.6417 15.7986 36.4583 14.9819 36.4583 13.9757Z" fill="#0E619D"/>
</g>
<defs>
<clipPath id="clip0_3471_5863">
<rect width="43.75" height="43.75" fill="white"/>
</clipPath>
</defs>
</svg>
