<svg width="50" height="50" viewBox="0 0 50 50" fill="none" xmlns="http://www.w3.org/2000/svg">
<g clip-path="url(#clip0_3517_180)">
<path d="M12.5 37.5V6.25C12.5 5.0068 12.9939 3.81451 13.8729 2.93544C14.752 2.05636 15.9443 1.5625 17.1875 1.5625H43.75" stroke="#0E619D" stroke-width="4" stroke-miterlimit="10"/>
<path d="M39.0625 9.375H48.4375V6.25C48.4375 5.0068 47.9436 3.81451 47.0646 2.93544C46.1855 2.05636 44.9932 1.5625 43.75 1.5625C42.5068 1.5625 41.3145 2.05636 40.4354 2.93544C39.5564 3.81451 39.0625 5.0068 39.0625 6.25V40.625C39.0625 42.697 38.2394 44.6841 36.7743 46.1493C35.3091 47.6144 33.322 48.4375 31.25 48.4375M31.25 48.4375C29.178 48.4375 27.1909 47.6144 25.7257 46.1493C24.2606 44.6841 23.4375 42.697 23.4375 40.625V37.5H1.5625V40.625C1.5625 42.697 2.3856 44.6841 3.85073 46.1493C4.57619 46.8747 5.43743 47.4502 6.38529 47.8428C7.33314 48.2354 8.34905 48.4375 9.375 48.4375H31.25Z" stroke="#0E619D" stroke-width="4" stroke-miterlimit="10"/>
<path d="M18.75 9.375H31.25M18.75 21.875H31.25M18.75 15.625H28.125M18.75 28.125H28.125" stroke="#0E619D" stroke-width="4" stroke-miterlimit="10"/>
</g>
<defs>
<clipPath id="clip0_3517_180">
<rect width="50" height="50" fill="white"/>
</clipPath>
</defs>
</svg>
