<svg width="50" height="50" viewBox="0 0 50 50" fill="none" xmlns="http://www.w3.org/2000/svg">
<g clip-path="url(#clip0_3471_5996)">
<path d="M35.9567 26.2188L40.1966 30.4617C40.7848 31.037 41.5761 31.3571 42.3988 31.3526C43.2215 31.348 44.0093 31.0192 44.5911 30.4375C45.1729 29.8558 45.5019 29.0681 45.5066 28.2454C45.5112 27.4226 45.1913 26.6313 44.6161 26.043L34.1247 15.5469C32.2177 13.6406 30.1114 13.4594 27.8622 15.7094L27.2075 16.3563C26.6173 16.9211 25.8293 17.2324 25.0124 17.2233C24.1955 17.2143 23.4146 16.8858 22.837 16.308C22.2593 15.7303 21.9309 14.9494 21.9221 14.1324C21.9132 13.3155 22.2246 12.5276 22.7895 11.9375L24.9997 9.73047C27.5513 7.17578 29.0028 6.25 31.1505 6.25H34.5411L48.4372 20.1375L43.57 25.0047" stroke="#0E619D" stroke-width="3" stroke-miterlimit="10"/>
<path d="M35.9477 26.2188L41.2945 31.5633C41.8809 32.1495 42.2104 32.9446 42.2106 33.7737C42.2107 34.6028 41.8815 35.398 41.2953 35.9844C40.7091 36.5708 39.914 36.9003 39.0849 36.9004C38.2558 36.9006 37.4606 36.5713 36.8742 35.9852L32 31.1086" stroke="#0E619D" stroke-width="3" stroke-miterlimit="10"/>
<path d="M32.0031 31.1074L35.7727 34.8785C36.3256 35.4706 36.627 36.2544 36.6133 37.0644C36.5996 37.8745 36.2718 38.6475 35.699 39.2206C35.1263 39.7936 34.3534 40.1218 33.5434 40.136C32.7333 40.1501 31.9494 39.8491 31.357 39.2965L29.1484 37.0871" stroke="#0E619D" stroke-width="3" stroke-miterlimit="10"/>
<path d="M29.3875 37.3283L30.4734 38.4166C31.035 39.0072 31.3435 39.7938 31.3334 40.6087C31.3233 41.4236 30.9952 42.2022 30.4191 42.7787C29.8431 43.3552 29.0646 43.6838 28.2498 43.6945C27.4349 43.7052 26.648 43.3972 26.057 42.8361L24.9711 41.747M6.60156 25.0056L1.5625 19.9658L14.0789 7.44624C14.0789 7.44624 15.7445 9.3853 17.1445 9.3853C18.843 9.3853 19.2586 8.83374 20.2695 7.8228C21.9289 6.16187 24.4258 6.21109 26.5195 8.30171" stroke="#0E619D" stroke-width="3" stroke-miterlimit="10"/>
<path d="M12.1864 28.2518C12.4918 27.9653 12.7365 27.6204 12.906 27.2375C13.0755 26.8546 13.1663 26.4415 13.173 26.0228C13.1797 25.6042 13.1022 25.1884 12.9451 24.8003C12.788 24.4121 12.5545 24.0595 12.2585 23.7633C11.9625 23.4672 11.6099 23.2336 11.2218 23.0763C10.8337 22.9191 10.418 22.8415 9.99933 22.848C9.58064 22.8546 9.16755 22.9453 8.78459 23.1146C8.40162 23.284 8.0566 23.5285 7.77001 23.8338L5.56298 26.0424C4.99802 26.6326 4.68663 27.4205 4.6955 28.2374C4.70436 29.0543 5.03278 29.8353 5.61041 30.413C6.18804 30.9907 6.96894 31.3193 7.78585 31.3283C8.60276 31.3373 9.39072 31.026 9.98095 30.4612L12.1864 28.2518Z" stroke="#0E619D" stroke-width="3" stroke-miterlimit="10"/>
<path d="M16.6067 32.6704C17.1927 32.0842 17.5218 31.2893 17.5217 30.4605C17.5215 29.6316 17.1921 28.8368 16.6059 28.2509C16.0198 27.6649 15.2248 27.3358 14.396 27.3359C13.5672 27.3361 12.7724 27.6655 12.1864 28.2516L8.87548 31.5626C8.31052 32.1527 7.99913 32.9406 8.008 33.7575C8.01686 34.5744 8.34528 35.3554 8.92291 35.9331C9.50054 36.5109 10.2814 36.8394 11.0983 36.8484C11.9153 36.8574 12.7032 36.5462 13.2934 35.9813L16.6067 32.6704ZM16.6067 32.6704C17.1982 32.1124 17.984 31.8069 18.7971 31.8188C19.6102 31.8308 20.3866 32.1592 20.9615 32.7344C21.5363 33.3095 21.8643 34.0861 21.8759 34.8992C21.8874 35.7124 21.5815 36.4979 21.0231 37.0891L18.8161 39.297C18.2253 39.8583 17.4386 40.1666 16.6237 40.1561C15.8088 40.1457 15.0302 39.8174 14.454 39.2411C13.8777 38.6648 13.5494 37.8863 13.5389 37.0714C13.5285 36.2565 13.8368 35.4698 14.3981 34.879L16.6067 32.6704Z" stroke="#0E619D" stroke-width="3" stroke-miterlimit="10"/>
<path d="M25.2018 41.7466C25.492 41.4563 25.7221 41.1118 25.8791 40.7326C26.0361 40.3534 26.1168 39.947 26.1168 39.5366C26.1167 39.1262 26.0358 38.7199 25.8787 38.3408C25.7215 37.9616 25.4913 37.6172 25.201 37.327C24.9108 37.0369 24.5663 36.8068 24.1871 36.6498C23.8079 36.4928 23.4015 36.412 22.9911 36.4121C22.5807 36.4122 22.1744 36.4931 21.7952 36.6502C21.4161 36.8073 21.0717 37.0376 20.7815 37.3278L19.694 38.4161C19.1247 39.0054 18.8095 39.7947 18.8165 40.6141C18.8235 41.4334 19.152 42.2173 19.7313 42.7968C20.3106 43.3763 21.0943 43.7051 21.9137 43.7123C22.7331 43.7196 23.5225 43.4048 24.112 42.8356L25.2018 41.7466Z" stroke="#0E619D" stroke-width="3" stroke-miterlimit="10"/>
</g>
<defs>
<clipPath id="clip0_3471_5996">
<rect width="50" height="50" fill="white"/>
</clipPath>
</defs>
</svg>
