<svg width="50" height="50" viewBox="0 0 50 50" fill="none" xmlns="http://www.w3.org/2000/svg">
<g clip-path="url(#clip0_3471_5999)">
<path d="M25 1.5625C20.3645 1.5625 15.8331 2.93709 11.9788 5.51243C8.12456 8.08778 5.12051 11.7482 3.34658 16.0309C1.57266 20.3135 1.10851 25.026 2.01286 29.5724C2.9172 34.1189 5.1494 38.295 8.4272 41.5728C11.705 44.8506 15.8812 47.0828 20.4276 47.9872C24.974 48.8915 29.6865 48.4274 33.9692 46.6534C38.2518 44.8795 41.9122 41.8755 44.4876 38.0212C47.0629 34.1669 48.4375 29.6355 48.4375 25" stroke="#0E619D" stroke-width="3" stroke-miterlimit="10"/>
<path d="M17.9688 21.875C20.1261 21.875 21.875 20.1261 21.875 17.9688C21.875 15.8114 20.1261 14.0625 17.9688 14.0625C15.8114 14.0625 14.0625 15.8114 14.0625 17.9688C14.0625 20.1261 15.8114 21.875 17.9688 21.875Z" stroke="#0E619D" stroke-width="3" stroke-miterlimit="10"/>
<path d="M32.0312 35.9375C34.1886 35.9375 35.9375 34.1886 35.9375 32.0312C35.9375 29.8739 34.1886 28.125 32.0312 28.125C29.8739 28.125 28.125 29.8739 28.125 32.0312C28.125 34.1886 29.8739 35.9375 32.0312 35.9375Z" stroke="#0E619D" stroke-width="3" stroke-miterlimit="10"/>
<path d="M29.1406 20.9375L14.0625 35.9375" stroke="#0E619D" stroke-width="3" stroke-miterlimit="10"/>
<path d="M48.4392 25L25.0017 1.5625C21.8767 18.75 31.2517 28.125 48.4392 25Z" stroke="#0E619D" stroke-width="3" stroke-miterlimit="10"/>
</g>
<defs>
<clipPath id="clip0_3471_5999">
<rect width="50" height="50" fill="white"/>
</clipPath>
</defs>
</svg>
