<svg width="50" height="50" viewBox="0 0 50 50" fill="none" xmlns="http://www.w3.org/2000/svg">
<path d="M31.2507 15.625L38.1257 22.4219C40.0007 24.2969 40.6257 26.7187 40.6257 31.25C40.6257 37.9688 40.5476 48.4375 40.5476 48.4375M17.1882 34.375C17.1107 37.5627 18.0104 40.6978 19.7663 43.3594C21.9538 46.875 21.8757 47.8906 21.8757 48.4375" stroke="#0E619D" stroke-width="3" stroke-miterlimit="10"/>
<path d="M23.2812 34.375H10.9375C10.5231 34.375 10.1257 34.2104 9.83265 33.9174C9.53962 33.6243 9.375 33.2269 9.375 32.8125V3.125C9.375 2.7106 9.53962 2.31317 9.83265 2.02015C10.1257 1.72712 10.5231 1.5625 10.9375 1.5625H29.6875C30.1019 1.5625 30.4993 1.72712 30.7924 2.02015C31.0854 2.31317 31.25 2.7106 31.25 3.125V27.3438M23.4375 1.5625V19.5312" stroke="#0E619D" stroke-width="3" stroke-miterlimit="10"/>
<path d="M34.4526 30.5463L22.1869 18.3588C21.4568 17.6431 20.475 17.2422 19.4526 17.2422C18.4301 17.2422 17.4484 17.6431 16.7182 18.3588C16.0025 19.089 15.6016 20.0707 15.6016 21.0932C15.6016 22.1157 16.0025 23.0974 16.7182 23.8276L23.4369 30.5463C23.4369 30.5463 21.4057 36.7963 28.1244 42.1869" stroke="#0E619D" stroke-width="3" stroke-miterlimit="10"/>
</svg>
