<svg width="50" height="50" viewBox="0 0 50 50" fill="none" xmlns="http://www.w3.org/2000/svg">
<g clip-path="url(#clip0_3471_5938)">
<path d="M40.625 43.125C39.0625 43.125 28.9844 47.6562 23.4375 47.6562C20.1563 47.6562 17.2656 45.9375 10.9375 42.9688C7.96875 41.5625 1.5625 37.8125 1.5625 35.1562C1.5625 32.5 10.0781 36.0156 17.2656 38.2812M40.625 28.9062H48.4375V46.0938H40.625V28.9062Z" stroke="#0E619D" stroke-width="3" stroke-miterlimit="10"/>
<path d="M26.6406 14.8438C30.0924 14.8438 32.8906 12.0455 32.8906 8.59375C32.8906 5.14197 30.0924 2.34375 26.6406 2.34375C23.1888 2.34375 20.3906 5.14197 20.3906 8.59375C20.3906 12.0455 23.1888 14.8438 26.6406 14.8438Z" stroke="#0E619D" stroke-width="3" stroke-miterlimit="10"/>
<path d="M15.625 28.9062C19.0768 28.9062 21.875 26.108 21.875 22.6562C21.875 19.2045 19.0768 16.4062 15.625 16.4062C12.1732 16.4062 9.375 19.2045 9.375 22.6562C9.375 26.108 12.1732 28.9062 15.625 28.9062Z" stroke="#0E619D" stroke-width="3" stroke-miterlimit="10"/>
<path d="M28.2031 41.4062H20.3906C19.5618 41.4062 18.767 41.077 18.1809 40.491C17.5949 39.9049 17.2656 39.1101 17.2656 38.2812C17.2656 37.4524 17.5949 36.6576 18.1809 36.0715C18.767 35.4855 19.5618 35.1562 20.3906 35.1562H23.5156C32.8906 35.1562 29.7656 30.4688 40.7031 30.4688" stroke="#0E619D" stroke-width="3" stroke-miterlimit="10"/>
</g>
<defs>
<clipPath id="clip0_3471_5938">
<rect width="50" height="50" fill="white"/>
</clipPath>
</defs>
</svg>
