<svg width="50" height="50" viewBox="0 0 50 50" fill="none" xmlns="http://www.w3.org/2000/svg">
<g clip-path="url(#clip0_3471_5995)">
<path d="M35.9375 25.7812H39.8438C40.4476 25.7284 41.0136 25.4646 41.4422 25.0359C41.8708 24.6073 42.1347 24.0414 42.1875 23.4375V17.9688C42.1347 17.3649 41.8708 16.7989 41.4422 16.3703C41.0136 15.9417 40.4476 15.6778 39.8438 15.625H35.9375M13.2812 15.625H9.375C8.77114 15.6778 8.20519 15.9417 7.77657 16.3703C7.34794 16.7989 7.08405 17.3649 7.03125 17.9688V23.4375C7.08405 24.0414 7.34794 24.6073 7.77657 25.0359C8.20519 25.4646 8.77114 25.7284 9.375 25.7812H14.2188" stroke="#0E619D" stroke-width="3" stroke-miterlimit="10"/>
<path d="M19.8437 33.0469C16.1719 30.7812 13.2812 25.9375 13.2812 20.3125V12.5C13.2812 4.375 19.375 1.5625 24.5312 1.5625C29.6875 1.5625 35.9375 4.375 35.9375 12.5V25C35.9375 28.125 32.8125 30.4688 30.4688 30.4688" stroke="#0E619D" stroke-width="3" stroke-miterlimit="10"/>
<path d="M18.75 32.2656V34.375C18.75 35.9375 19.0625 38.2812 10.4687 39.8438C8.29841 40.2293 6.29213 41.2526 4.70586 42.7832C3.1196 44.3138 2.02527 46.2823 1.5625 48.4375H47.6562C47.1449 46.279 46.0153 44.3164 44.4057 42.7901C42.7961 41.2637 40.7763 40.2398 38.5938 39.8438C30.2344 38.2812 30.4688 35.9375 30.4688 34.375V30.4688" stroke="#0E619D" stroke-width="3" stroke-miterlimit="10"/>
<path d="M30.4688 30.4688C30.4688 29.8471 30.2218 29.251 29.7823 28.8115C29.3427 28.3719 28.7466 28.125 28.125 28.125H26.5625C25.9409 28.125 25.3448 28.3719 24.9052 28.8115C24.4657 29.251 24.2188 29.8471 24.2188 30.4688C24.2188 31.0904 24.4657 31.6865 24.9052 32.126C25.3448 32.5656 25.9409 32.8125 26.5625 32.8125H28.125C28.7466 32.8125 29.3427 32.5656 29.7823 32.126C30.2218 31.6865 30.4688 31.0904 30.4688 30.4688Z" stroke="#0E619D" stroke-width="3" stroke-miterlimit="10"/>
<path d="M16.7187 37.8906L24.5312 47.6562L32.5 37.8906M13.2812 14.0625C22.6562 14.0625 22.6562 7.8125 28.9062 7.8125C35.1562 7.8125 35.9375 13.2812 35.9375 13.2812" stroke="#0E619D" stroke-width="3" stroke-miterlimit="10"/>
</g>
<defs>
<clipPath id="clip0_3471_5995">
<rect width="50" height="50" fill="white"/>
</clipPath>
</defs>
</svg>
