<svg width="50" height="50" viewBox="0 0 50 50" fill="none" xmlns="http://www.w3.org/2000/svg">
<g clip-path="url(#clip0_3471_6064)">
<path d="M32.8125 28.9062C37.9902 28.9062 42.1875 27.5071 42.1875 25.7812C42.1875 24.0554 37.9902 22.6562 32.8125 22.6562C27.6348 22.6562 23.4375 24.0554 23.4375 25.7812C23.4375 27.5071 27.6348 28.9062 32.8125 28.9062Z" stroke="#0E619D" stroke-width="3" stroke-miterlimit="10"/>
<path d="M42.1875 32.0312C42.1875 33.75 37.9687 35.1562 32.8125 35.1562C27.6563 35.1562 23.4375 33.75 23.4375 32.0312M42.1875 38.2812C42.1875 40 37.9687 41.4062 32.8125 41.4062C27.6563 41.4062 23.4375 40 23.4375 38.2812" stroke="#0E619D" stroke-width="3" stroke-miterlimit="10"/>
<path d="M23.4375 30.4688H1.5625V2.34375H48.4375V30.4688H42.1875" stroke="#0E619D" stroke-width="3" stroke-miterlimit="10"/>
<path d="M25 22.6562C28.4518 22.6562 31.25 19.858 31.25 16.4062C31.25 12.9545 28.4518 10.1562 25 10.1562C21.5482 10.1562 18.75 12.9545 18.75 16.4062C18.75 19.858 21.5482 22.6562 25 22.6562Z" stroke="#0E619D" stroke-width="3" stroke-miterlimit="10"/>
<path d="M9.375 16.4062H12.5M37.5 16.4062H40.625M9.375 2.34375C9.375 3.3697 9.17292 4.38561 8.78031 5.33346C8.38769 6.28132 7.81223 7.14256 7.08677 7.86802C6.36131 8.59348 5.50007 9.16894 4.55221 9.56156C3.60436 9.95417 2.58845 10.1562 1.5625 10.1562M48.4375 10.1562C46.3655 10.1562 44.3784 9.33315 42.9132 7.86802C41.4481 6.40289 40.625 4.41575 40.625 2.34375M1.5625 22.6562C2.58845 22.6562 3.60436 22.8583 4.55221 23.2509C5.50007 23.6436 6.36131 24.219 7.08677 24.9445C7.81223 25.6699 8.38769 26.5312 8.78031 27.479C9.17292 28.4269 9.375 29.4428 9.375 30.4688" stroke="#0E619D" stroke-width="3" stroke-miterlimit="10"/>
<path d="M23.4375 25.7812V44.5312C23.4375 46.25 27.6563 47.6562 32.8125 47.6562C37.9687 47.6562 42.1875 46.25 42.1875 44.5312V25.7812" stroke="#0E619D" stroke-width="3" stroke-miterlimit="10"/>
</g>
<defs>
<clipPath id="clip0_3471_6064">
<rect width="50" height="50" fill="white"/>
</clipPath>
</defs>
</svg>
