<svg width="50" height="50" viewBox="0 0 50 50" fill="none" xmlns="http://www.w3.org/2000/svg">
<path d="M6.25 10.1562C6.68147 10.1562 7.03125 9.80647 7.03125 9.375C7.03125 8.94353 6.68147 8.59375 6.25 8.59375C5.81853 8.59375 5.46875 8.94353 5.46875 9.375C5.46875 9.80647 5.81853 10.1562 6.25 10.1562Z" stroke="#0E619D" stroke-width="3" stroke-linecap="round" stroke-linejoin="round"/>
<path d="M11.7188 10.1562C12.1502 10.1562 12.5 9.80647 12.5 9.375C12.5 8.94353 12.1502 8.59375 11.7188 8.59375C11.2873 8.59375 10.9375 8.94353 10.9375 9.375C10.9375 9.80647 11.2873 10.1562 11.7188 10.1562Z" stroke="#0E619D" stroke-width="3" stroke-linecap="round" stroke-linejoin="round"/>
<path d="M17.1875 10.1562C17.619 10.1562 17.9688 9.80647 17.9688 9.375C17.9688 8.94353 17.619 8.59375 17.1875 8.59375C16.756 8.59375 16.4062 8.94353 16.4062 9.375C16.4062 9.80647 16.756 10.1562 17.1875 10.1562Z" stroke="#0E619D" stroke-width="3" stroke-linecap="round" stroke-linejoin="round"/>
<path d="M42.1875 14.0625V4.6875H1.5625V14.0625M42.1875 14.0625H1.5625M42.1875 14.0625V25.7812M1.5625 14.0625V39.0625H25.7812" stroke="#0E619D" stroke-width="3" stroke-linecap="round" stroke-linejoin="round"/>
<path d="M36.7188 37.5C38.8761 37.5 40.625 35.7511 40.625 33.5938C40.625 31.4364 38.8761 29.6875 36.7188 29.6875C34.5614 29.6875 32.8125 31.4364 32.8125 33.5938C32.8125 35.7511 34.5614 37.5 36.7188 37.5Z" stroke="#0E619D" stroke-width="3" stroke-linecap="round" stroke-linejoin="round"/>
<path d="M48.4375 36.7188L45.7812 35.1562C45.8822 34.6151 45.9345 34.0661 45.9375 33.5156C45.9438 32.913 45.8914 32.3112 45.7812 31.7187L48.2031 30.4688L45.0781 25.0781L42.6562 26.4844C41.7187 25.7031 40.625 25 39.8437 25V21.875H33.5937V25C32.4677 25.1783 31.4131 25.6651 30.5469 26.4062L28.125 25L25 30.4688L27.3437 31.7969C27.2326 32.3892 27.1802 32.9911 27.1875 33.5938C27.1909 34.1442 27.2432 34.6932 27.3437 35.2344L24.7656 36.7188L27.8906 42.1094L30.4687 40.7031C31.3546 41.4751 32.4357 41.9887 33.5937 42.1875V45.3125H39.8437V42.1875C40.625 42.1875 41.7969 41.4062 42.7344 40.625L45.3125 42.1875L48.4375 36.7188Z" stroke="#0E619D" stroke-width="3" stroke-linecap="round" stroke-linejoin="round"/>
</svg>
