<svg width="50" height="50" viewBox="0 0 50 50" fill="none" xmlns="http://www.w3.org/2000/svg">
<g clip-path="url(#clip0_3471_6062)">
<path d="M41.4062 32.8906L35.1562 39.9219L31.25 36.0156" stroke="#0E619D" stroke-width="3" stroke-linecap="round" stroke-linejoin="round"/>
<path d="M23.8281 39.0625H3.125C2.7106 39.0625 2.31317 38.8979 2.02015 38.6049C1.72712 38.3118 1.5625 37.9144 1.5625 37.5V3.125C1.5625 2.7106 1.72712 2.31317 2.02015 2.02015C2.31317 1.72712 2.7106 1.5625 3.125 1.5625H40.625C41.0394 1.5625 41.4368 1.72712 41.7299 2.02015C42.0229 2.31317 42.1875 2.7106 42.1875 3.125V25.0781M35.9375 20.3125H23.4375M35.9375 7.8125H23.4375" stroke="#0E619D" stroke-width="3" stroke-linecap="round" stroke-linejoin="round"/>
<path d="M8.59375 8.59375C9.02522 8.59375 9.375 8.24397 9.375 7.8125C9.375 7.38103 9.02522 7.03125 8.59375 7.03125C8.16228 7.03125 7.8125 7.38103 7.8125 7.8125C7.8125 8.24397 8.16228 8.59375 8.59375 8.59375Z" stroke="#0E619D" stroke-width="3" stroke-linecap="round" stroke-linejoin="round"/>
<path d="M8.59375 21.0938C9.02522 21.0938 9.375 20.744 9.375 20.3125C9.375 19.881 9.02522 19.5312 8.59375 19.5312C8.16228 19.5312 7.8125 19.881 7.8125 20.3125C7.8125 20.744 8.16228 21.0938 8.59375 21.0938Z" stroke="#0E619D" stroke-width="3" stroke-linecap="round" stroke-linejoin="round"/>
<path d="M8.59375 33.5938C9.02522 33.5938 9.375 33.244 9.375 32.8125C9.375 32.381 9.02522 32.0312 8.59375 32.0312C8.16228 32.0312 7.8125 32.381 7.8125 32.8125C7.8125 33.244 8.16228 33.5938 8.59375 33.5938Z" stroke="#0E619D" stroke-width="3" stroke-linecap="round" stroke-linejoin="round"/>
<path d="M42.1875 14.0625H1.5625M27.6563 26.5625H1.5625" stroke="#0E619D" stroke-width="3" stroke-linecap="round" stroke-linejoin="round"/>
<path d="M35.9375 48.4375C42.8411 48.4375 48.4375 42.8411 48.4375 35.9375C48.4375 29.0339 42.8411 23.4375 35.9375 23.4375C29.0339 23.4375 23.4375 29.0339 23.4375 35.9375C23.4375 42.8411 29.0339 48.4375 35.9375 48.4375Z" stroke="#0E619D" stroke-width="3" stroke-linecap="round" stroke-linejoin="round"/>
</g>
<defs>
<clipPath id="clip0_3471_6062">
<rect width="50" height="50" fill="white"/>
</clipPath>
</defs>
</svg>
