<svg width="50" height="50" viewBox="0 0 50 50" fill="none" xmlns="http://www.w3.org/2000/svg">
<path d="M6.25 10.1562C6.68147 10.1562 7.03125 9.80647 7.03125 9.375C7.03125 8.94353 6.68147 8.59375 6.25 8.59375C5.81853 8.59375 5.46875 8.94353 5.46875 9.375C5.46875 9.80647 5.81853 10.1562 6.25 10.1562Z" stroke="#0E619D" stroke-width="3" stroke-linecap="round" stroke-linejoin="round"/>
<path d="M11.7188 10.1562C12.1502 10.1562 12.5 9.80647 12.5 9.375C12.5 8.94353 12.1502 8.59375 11.7188 8.59375C11.2873 8.59375 10.9375 8.94353 10.9375 9.375C10.9375 9.80647 11.2873 10.1562 11.7188 10.1562Z" stroke="#0E619D" stroke-width="3" stroke-linecap="round" stroke-linejoin="round"/>
<path d="M17.1875 10.1562C17.619 10.1562 17.9688 9.80647 17.9688 9.375C17.9688 8.94353 17.619 8.59375 17.1875 8.59375C16.756 8.59375 16.4062 8.94353 16.4062 9.375C16.4062 9.80647 16.756 10.1562 17.1875 10.1562Z" stroke="#0E619D" stroke-width="3" stroke-linecap="round" stroke-linejoin="round"/>
<path d="M42.1875 14.0625V4.6875H1.5625V14.0625M42.1875 14.0625H1.5625M42.1875 14.0625V33.5938M1.5625 14.0625V39.0625H26.5625" stroke="#0E619D" stroke-width="3" stroke-linecap="round" stroke-linejoin="round"/>
<path d="M35.9375 31.25V35.9375M23.4375 45.3125L35.9375 21.875L48.4375 45.3125H23.4375Z" stroke="#0E619D" stroke-width="3" stroke-linecap="round" stroke-linejoin="round"/>
<path d="M35.9375 41.4062C36.369 41.4062 36.7188 41.0565 36.7188 40.625C36.7188 40.1935 36.369 39.8438 35.9375 39.8438C35.506 39.8438 35.1562 40.1935 35.1562 40.625C35.1562 41.0565 35.506 41.4062 35.9375 41.4062Z" stroke="#0E619D" stroke-width="3" stroke-linecap="round" stroke-linejoin="round"/>
</svg>
