<svg width="50" height="50" viewBox="0 0 50 50" fill="none" xmlns="http://www.w3.org/2000/svg">
<g clip-path="url(#clip0_3471_5943)">
<path d="M39.0625 9.375H10.9375C10.0746 9.375 9.375 10.0746 9.375 10.9375V39.0625C9.375 39.9254 10.0746 40.625 10.9375 40.625H39.0625C39.9254 40.625 40.625 39.9254 40.625 39.0625V10.9375C40.625 10.0746 39.9254 9.375 39.0625 9.375Z" stroke="#0E619D" stroke-width="2" stroke-linecap="round" stroke-linejoin="round"/>
<path d="M25 9.375V1.5625M17.1875 9.375V1.5625M32.8125 9.375V1.5625M17.1875 48.4375V40.625M32.8125 48.4375V40.625M25 48.4375V40.625M40.625 25H48.4375M40.625 17.1875H48.4375M40.625 32.8125H48.4375M1.5625 17.1875H9.375M1.5625 32.8125H9.375M1.5625 25H9.375" stroke="#0E619D" stroke-width="2" stroke-linecap="round" stroke-linejoin="round"/>
<path d="M32.8125 15.625H17.1875C16.3246 15.625 15.625 16.3246 15.625 17.1875V32.8125C15.625 33.6754 16.3246 34.375 17.1875 34.375H32.8125C33.6754 34.375 34.375 33.6754 34.375 32.8125V17.1875C34.375 16.3246 33.6754 15.625 32.8125 15.625Z" stroke="#0E619D" stroke-width="2" stroke-linecap="round" stroke-linejoin="round"/>
</g>
<defs>
<clipPath id="clip0_3471_5943">
<rect width="50" height="50" fill="white"/>
</clipPath>
</defs>
</svg>
