<svg width="50" height="50" viewBox="0 0 50 50" fill="none" xmlns="http://www.w3.org/2000/svg">
<g clip-path="url(#clip0_3471_6000)">
<path d="M22.951 27.8319L12.7307 14.6147C12.6118 14.4634 12.5524 14.2737 12.5639 14.0816C12.5754 13.8895 12.6568 13.7083 12.7929 13.5722C12.929 13.4361 13.1102 13.3547 13.3023 13.3432C13.4944 13.3317 13.6841 13.3911 13.8354 13.51L27.0526 23.7303C27.6616 24.2095 28.0554 24.9109 28.1473 25.6804C28.2391 26.4499 28.0216 27.2244 27.5424 27.8334C27.0633 28.4425 26.3618 28.8363 25.5923 28.9281C24.8228 29.02 24.0484 28.8024 23.4393 28.3233C23.2584 28.1785 23.0946 28.0136 22.951 27.8319Z" stroke="#0E619D" stroke-width="3" stroke-miterlimit="10" stroke-linecap="round"/>
<path d="M8.42706 8.42734C4.59289 12.2616 2.2068 17.3067 1.67537 22.703C1.14394 28.0992 2.50004 33.5129 5.51261 38.0214C8.52517 42.5299 13.0078 45.8544 18.1967 47.4284C23.3857 49.0023 28.9598 48.7284 33.9694 46.6533C38.979 44.5782 43.1142 40.8303 45.6702 36.0481C48.2262 31.266 49.0451 25.7455 47.9871 20.4273C46.9292 15.1091 44.06 10.3222 39.8684 6.88237C35.6768 3.4425 30.4221 1.56243 24.9997 1.5625V11.7188" stroke="#0E619D" stroke-width="3" stroke-miterlimit="10" stroke-linecap="round"/>
</g>
<defs>
<clipPath id="clip0_3471_6000">
<rect width="50" height="50" fill="white"/>
</clipPath>
</defs>
</svg>
