<svg width="20" height="20" viewBox="0 0 20 20" fill="none" xmlns="http://www.w3.org/2000/svg">
<g clip-path="url(#clip0_804_239)">
<path d="M10 0C4.4775 0 0 4.4775 0 10C0 15.5225 4.4775 20 10 20C15.5225 20 20 15.5225 20 10C20 4.4775 15.5225 0 10 0ZM8.33333 13.3333H6.66667V8.33333H8.33333V13.3333ZM7.5 7.59083C6.99417 7.59083 6.58333 7.1775 6.58333 6.66667C6.58333 6.15667 6.99333 5.7425 7.5 5.7425C8.00667 5.7425 8.41667 6.15667 8.41667 6.66667C8.41667 7.1775 8.00583 7.59083 7.5 7.59083ZM14.1667 13.3333H12.5017V10.9492C12.5017 9.38167 10.8333 9.51417 10.8333 10.9492V13.3333H9.16667V8.33333H10.8333V9.24417C11.56 7.8975 14.1667 7.7975 14.1667 10.5342V13.3333Z" fill="white"/>
</g>
<defs>
<clipPath id="clip0_804_239">
<rect width="20" height="20" fill="white"/>
</clipPath>
</defs>
</svg>
