<svg width="41" height="41" viewBox="0 0 41 41" fill="none" xmlns="http://www.w3.org/2000/svg">
<g clip-path="url(#clip0_804_106)">
<path d="M7.41695 10.0808V36.8267H40.8494V10.0808H7.41695ZM24.1332 31.8118C19.5178 31.8118 15.7751 28.0691 15.7751 23.4537C15.7751 18.8384 19.5178 15.0956 24.1332 15.0956C28.7485 15.0956 32.4913 18.8384 32.4913 23.4537C32.4913 28.0691 28.7485 31.8118 24.1332 31.8118ZM24.6213 28.278V29.3044H23.6451V28.3315C22.6371 28.3148 21.5906 28.0741 20.7197 27.6228L21.1644 26.0214C22.0971 26.3824 23.3375 26.7652 24.3087 26.5479C25.4303 26.2938 25.661 25.1404 24.4224 24.5838C23.5147 24.1642 20.7364 23.7998 20.7364 21.4227C20.7364 20.0938 21.7478 18.9019 23.6451 18.6428V17.6031H24.6213V18.5943C25.3267 18.6127 26.1191 18.7364 27.005 19.0056L26.6506 20.6103C25.9017 20.3495 25.0743 20.1088 24.2686 20.159C22.8176 20.2442 22.6872 21.5013 23.7019 22.0279C25.3702 22.8118 27.5483 23.3952 27.5483 25.4848C27.55 27.1597 26.2377 28.054 24.6213 28.278ZM35.8345 6.73753H4.07371V31.8118H0.730469V3.39429H35.8345V6.73753Z" fill="#0E619D"/>
</g>
<defs>
<clipPath id="clip0_804_106">
<rect width="40.1178" height="40.1178" fill="white" transform="translate(0.730469 0.0391846)"/>
</clipPath>
</defs>
</svg>
