<svg width="41" height="41" viewBox="0 0 41 41" fill="none" xmlns="http://www.w3.org/2000/svg">
<g clip-path="url(#clip0_804_86)">
<path fill-rule="evenodd" clip-rule="evenodd" d="M0.873047 37.2265H20.932V40.5696H0.873047V37.2265ZM19.2604 35.5549H2.54462C2.54462 33.7078 4.04068 32.2117 5.88777 32.2117H15.9172C17.7643 32.2117 19.2604 33.7078 19.2604 35.5549ZM29.9066 14.0935L26.1523 17.766C26.1523 17.766 36.6682 27.0282 39.8124 29.7077C40.6064 30.3847 40.9909 31.2606 40.9909 32.1248C40.9909 33.8215 39.5065 35.2774 37.7313 35.1654C36.8621 35.1119 36.0915 34.6589 35.5231 34.0003C32.8169 30.8661 23.7051 20.2115 23.7051 20.2115L19.9524 23.8823L10.162 14.0935L20.1196 4.30309L29.9066 14.0935ZM9.34794 15.6414C9.02198 15.3188 8.58235 15.1366 8.12267 15.1366C7.66466 15.1366 7.22504 15.3188 6.89908 15.6414C6.57646 15.9673 6.39259 16.407 6.39259 16.8667C6.39259 17.3247 6.57646 17.7643 6.89908 18.0903L16.1145 27.3023C16.4388 27.6283 16.8784 27.8105 17.3381 27.8105C17.7978 27.8105 18.2374 27.6283 18.5617 27.3023C18.8859 26.9797 19.0682 26.5384 19.0682 26.0787C19.0682 25.6207 18.8859 25.1811 18.5617 24.8568L9.34794 15.6414ZM24.0311 0.95827C23.7051 0.633984 23.2655 0.451782 22.8075 0.451782C21.8446 0.451782 21.0774 1.23241 21.0774 2.18186C21.0774 2.64155 21.2579 3.08284 21.5839 3.40546L30.7993 12.6209C31.1236 12.9435 31.5615 13.1273 32.0212 13.1273C32.9773 13.1273 33.7529 12.3517 33.7529 11.3973C33.7529 10.9376 33.5707 10.4963 33.2448 10.1737L24.0311 0.95827Z" fill="#0E619D"/>
</g>
<defs>
<clipPath id="clip0_804_86">
<rect width="40.1178" height="40.1178" fill="white" transform="translate(0.873047 0.451782)"/>
</clipPath>
</defs>
</svg>
