<svg width="41" height="41" viewBox="0 0 41 41" fill="none" xmlns="http://www.w3.org/2000/svg">
<g clip-path="url(#clip0_804_79)">
<path d="M36.7766 21.7317V0H3.34326V40.12H17.4003C25.5196 40.12 22.9753 26.7467 22.9753 26.7467C28.0054 27.9921 36.7766 27.4471 36.7766 21.7317ZM30.0899 10.03H10.0299V8.35833H30.0899V10.03ZM30.0899 15.045H10.0299V13.3733H30.0899V15.045ZM30.0899 20.06H10.0299V18.3883H30.0899V20.06ZM26.5945 30.4628C30.0164 31.2618 34.6268 29.9964 36.7766 28.4919C34.2791 31.8319 28.0338 38.0338 24.3528 39.9946C26.2852 38.0421 26.9656 32.9168 26.5945 30.4628Z" fill="#0E619D"/>
</g>
<defs>
<clipPath id="clip0_804_79">
<rect width="40.12" height="40.12" fill="white"/>
</clipPath>
</defs>
</svg>
