<svg width="41" height="41" viewBox="0 0 41 41" fill="none" xmlns="http://www.w3.org/2000/svg">
<g clip-path="url(#clip0_804_100)">
<path d="M28.6852 20.5042C23.1472 20.5042 18.6557 24.9957 18.6557 30.5337C18.6557 36.0716 23.1472 40.5631 28.6852 40.5631C34.2231 40.5631 38.7146 36.0716 38.7146 30.5337C38.7146 24.9957 34.2231 20.5042 28.6852 20.5042ZM29.5209 34.6692V35.5484H28.6852V34.7143C27.8193 34.6992 26.925 34.4936 26.1778 34.1075L26.5589 32.7335C27.3579 33.0444 28.421 33.3737 29.2535 33.1848C30.213 32.9675 30.4102 31.9796 29.3488 31.5049C28.5715 31.1421 26.1912 30.8329 26.1912 28.7936C26.1912 27.6552 27.0604 26.6339 28.6852 26.4116V25.519H29.5209V26.3698C30.1261 26.3865 30.8047 26.4918 31.5619 26.7208L31.2594 28.0982C30.6175 27.8725 29.9088 27.6686 29.2167 27.7104C27.9731 27.7823 27.8627 28.8604 28.732 29.3118C30.1628 29.9837 32.0283 30.4819 32.0283 32.2755C32.03 33.7097 30.905 34.4736 29.5209 34.6692ZM32.2356 17.6542C34.1278 17.2814 35.8495 16.6078 37.043 15.6533V16.7432C37.043 17.5773 36.3978 18.3395 35.3598 18.963C34.3886 18.3997 33.3405 17.9601 32.2356 17.6542ZM28.6852 7.9674C33.1533 7.9674 37.043 6.28413 37.043 4.20636C37.043 2.12859 33.1533 0.445312 28.6852 0.445312C24.2187 0.445312 20.3273 2.12859 20.3273 4.20636C20.3273 6.28413 24.2187 7.9674 28.6852 7.9674ZM28.8406 4.60921C28.3408 4.45877 26.8113 4.33173 26.8113 3.48089C26.8113 3.00617 27.3696 2.58326 28.4127 2.48965V2.11689H28.9493V2.46959C29.3404 2.47795 29.775 2.51974 30.2598 2.62003L30.0659 3.19171C29.6965 3.10646 29.2853 3.02623 28.8824 3.02623L28.762 3.0279C27.9563 3.06133 27.8912 3.50764 28.4478 3.69486C29.3621 3.97735 30.5657 4.18296 30.5657 4.93182C30.5657 5.52857 29.8402 5.84785 28.9493 5.92808V6.29583H28.4127V5.94814C27.8644 5.94313 27.2827 5.85453 26.8046 5.69406L27.0504 5.12071C27.4582 5.22602 27.9731 5.33133 28.4344 5.33133L28.7821 5.30793C29.3989 5.21933 29.5226 4.80645 28.8406 4.60921ZM10.2978 26.3547C12.7132 26.3547 14.9364 25.8516 16.491 25.071C17.0109 23.9176 17.6845 22.8494 18.4936 21.8966C17.7397 20.1532 14.2494 18.8326 10.2978 18.8326C5.83137 18.8326 1.93994 20.5159 1.93994 22.5937C1.93994 24.6715 5.83137 26.3547 10.2978 26.3547ZM10.4533 22.9965C9.95348 22.8461 8.42398 22.7191 8.42398 21.8682C8.42398 21.3935 8.98396 20.9706 10.0254 20.877V20.5042H10.5619V20.8569C10.9531 20.8653 11.3877 20.9071 11.8724 21.0074L11.6769 21.579C11.3091 21.4938 10.8979 21.4136 10.4951 21.4136L10.3747 21.4152C9.56901 21.4487 9.50549 21.895 10.0605 22.0822C10.9748 22.3647 12.1783 22.5703 12.1783 23.3192C12.1783 23.9159 11.4529 24.2352 10.5619 24.3154V24.6832H10.0254V24.3355C9.47541 24.3305 8.89537 24.2419 8.4173 24.0814L8.66302 23.508C9.07088 23.6134 9.58573 23.7187 10.0471 23.7187L10.3948 23.6953C11.0099 23.6067 11.1353 23.1938 10.4533 22.9965ZM17.1446 37.2568C15.6084 38.243 13.066 38.8916 10.2978 38.8916C5.83137 38.8916 1.93994 37.2083 1.93994 35.1305V34.0406C3.85557 35.5752 7.13687 36.3842 10.2978 36.3842C12.3639 36.3842 14.4751 36.0315 16.2302 35.3629C16.486 36.0215 16.7919 36.655 17.1446 37.2568ZM1.93994 30.9516V29.8634C3.85557 31.3962 7.13687 32.2053 10.2978 32.2053C12.0346 32.2053 13.7981 31.9528 15.3594 31.4781C15.4145 32.2621 15.5382 33.026 15.7238 33.7682C14.2394 34.3482 12.3405 34.7126 10.2978 34.7126C5.83137 34.7126 1.93994 33.0293 1.93994 30.9516ZM1.93994 26.7726V25.6828C3.85557 27.2173 7.13687 28.0263 10.2978 28.0263C12.1817 28.0263 14.1007 27.7321 15.7572 27.1755C15.5432 27.9996 15.4062 28.8504 15.3543 29.7263C13.9268 30.2244 12.1733 30.5337 10.2978 30.5337C5.83137 30.5337 1.93994 28.8504 1.93994 26.7726ZM20.3273 8.3853V7.29543C22.2429 8.82994 25.5242 9.63898 28.6852 9.63898C31.8478 9.63898 35.1274 8.82994 37.043 7.29543V8.3853C37.043 10.4631 33.1533 12.1463 28.6852 12.1463C24.2187 12.1463 20.3273 10.4631 20.3273 8.3853ZM20.3273 16.7432V15.6533C21.5191 16.6078 23.2425 17.2814 25.1347 17.6542C24.0298 17.9601 22.9834 18.3997 22.0122 18.963C20.9725 18.3395 20.3273 17.5773 20.3273 16.7432ZM20.3273 12.5642V11.476C22.2429 13.0089 25.5242 13.8179 28.6852 13.8179C31.8478 13.8179 35.1274 13.0089 37.043 11.476V12.5642C37.043 14.642 33.1533 16.3253 28.6852 16.3253C24.2187 16.3253 20.3273 14.642 20.3273 12.5642Z" fill="#0E619D"/>
</g>
<defs>
<clipPath id="clip0_804_100">
<rect width="40.1178" height="40.1178" fill="white" transform="translate(0.268555 0.445312)"/>
</clipPath>
</defs>
</svg>
