<svg width="41" height="42" viewBox="0 0 41 42" fill="none" xmlns="http://www.w3.org/2000/svg">
<g clip-path="url(#clip0_804_114)">
<path fill-rule="evenodd" clip-rule="evenodd" d="M21.3346 4.27562H24.6778V7.61886H26.3495V39.3797H28.0211V14.3053L38.0508 19.3202V39.3797H39.7224V41.0513H-0.396484V39.3797H1.27514V20.9918H12.9765V39.3797H14.6481V7.61886H16.3197V4.27562H19.663V0.932373H21.3346V4.27562ZM34.7076 39.3797V36.0364H31.3643V39.3797H34.7076ZM9.63324 39.3797V36.0364H4.61838V39.3797H9.63324ZM23.0062 39.3797V36.0364H17.9914V39.3797H23.0062ZM19.663 32.6932V10.9621H17.9914V32.6932H19.663ZM34.7076 32.6932V31.0216H31.3643V32.6932H34.7076ZM4.61838 32.6932V29.3499H2.94676V32.6932H4.61838ZM11.3049 32.6932V29.3499H9.63324V32.6932H11.3049ZM7.96162 32.6932V29.3499H6.29V32.6932H7.96162ZM23.0062 32.6932V10.9621H21.3346V32.6932H23.0062ZM34.7076 29.3499V27.6783H31.3643V29.3499H34.7076ZM4.61838 27.6783V24.3351H2.94676V27.6783H4.61838ZM7.96162 27.6783V24.3351H6.29V27.6783H7.96162ZM11.3049 27.6783V24.3351H9.63324V27.6783H11.3049ZM34.7076 26.0067V24.3351H31.3643V26.0067H34.7076ZM34.7076 22.4311V20.7595H31.3643V22.4311H34.7076Z" fill="#0E619D"/>
</g>
<defs>
<clipPath id="clip0_804_114">
<rect width="40.1189" height="40.1189" fill="white" transform="translate(0.271973 0.932373)"/>
</clipPath>
</defs>
</svg>
