<svg width="82" height="82" viewBox="0 0 82 82" fill="none" xmlns="http://www.w3.org/2000/svg">
<path d="M0 41C0 18.3563 18.3563 0 41 0V0C63.6437 0 82 18.3563 82 41V41C82 63.6437 63.6437 82 41 82V82C18.3563 82 0 63.6437 0 41V41Z" fill="url(#paint0_linear_2776_44)"/>
<g clip-path="url(#clip0_2776_44)">
<path d="M42.6667 54.3365H46V60.9998H42.6667V54.3365ZM31.1633 60.9998H35.5417L41.2417 54.3365H36.8533L31.1633 60.9998ZM47.4517 54.3365L53.1517 60.9998H57.53L51.84 54.3365H47.4517ZM61 25.9865C61 27.4465 60.335 28.7432 59.3333 29.6532V50.9998H27.6933V44.3332H21C22.4233 42.1115 22.6933 39.4465 22.6933 35.2398V26.6015C22.6933 23.1648 24.8967 21.1148 27.615 21.0365C27.5867 20.9848 55.9417 21.0032 56 21.0032C58.7617 21.0032 61 23.2248 61 25.9865ZM29.435 26.0215C29.435 25.1032 28.6883 24.3548 27.7683 24.3548C26.5233 24.3548 26 25.3532 26 26.6015V35.2398C26 37.8782 26 39.3098 25.6183 41.0032H27.6917V27.6882C28.6117 27.6882 29.435 26.9398 29.435 26.0215ZM56.0267 30.9998H31V47.6698H56.0267V30.9998ZM56 24.3332H32.46C32.885 25.4982 32.8567 26.5648 32.4583 27.6698H56C58.1717 27.6698 58.2417 24.3332 56 24.3332ZM38.2233 44.3332C40.4017 40.4265 41.9133 38.4198 43.98 36.6165L43.7117 35.9998C41.2067 37.5582 39.8583 38.7332 37.82 41.0465C36.735 40.2732 36.1233 39.9165 35.1583 39.4498L34.3333 40.2132C35.985 41.7432 36.88 42.7515 38.2233 44.3332ZM52.6667 35.9998H46V37.6665H52.6667V35.9998ZM52.6667 39.3332H46V40.9998H52.6667V39.3332ZM52.6667 42.6665H46V44.3332H52.6667V42.6665Z" fill="white"/>
</g>
<defs>
<linearGradient id="paint0_linear_2776_44" x1="41" y1="0" x2="41" y2="82" gradientUnits="userSpaceOnUse">
<stop stop-color="#0E619D"/>
<stop offset="1" stop-color="#1279C3"/>
</linearGradient>
<clipPath id="clip0_2776_44">
<rect width="40" height="40" fill="white" transform="translate(21 21)"/>
</clipPath>
</defs>
</svg>
