<svg width="82" height="82" viewBox="0 0 82 82" fill="none" xmlns="http://www.w3.org/2000/svg">
<path d="M0 41C0 18.3563 18.3563 0 41 0V0C63.6437 0 82 18.3563 82 41V41C82 63.6437 63.6437 82 41 82V82C18.3563 82 0 63.6437 0 41V41Z" fill="url(#paint0_linear_2776_52)"/>
<path d="M24.3333 32.6673H21V29.334H24.3333C30.15 29.334 33.4667 31.369 35.7033 34.0907C35.02 35.1807 34.4467 36.2773 33.945 37.3223C32.1333 34.584 29.5567 32.6673 24.3333 32.6673ZM51 49.334C45.86 49.334 43.3267 47.4223 41.535 44.6907C41.0317 45.7357 40.4567 46.8306 39.7683 47.919C41.98 50.634 45.2533 52.6673 51 52.6673V57.6673L61 51.0007L51 44.334V49.334ZM51 32.6673V37.6673L61 31.0007L51 24.334V29.334C41.2767 29.334 38.6067 35.1373 36.25 40.2607C34.0117 45.129 32.0767 49.334 24.3333 49.334H21V52.6673H24.3333C34.2133 52.6673 36.905 46.8157 39.28 41.6523C41.4983 36.8307 43.4117 32.6673 51 32.6673Z" fill="white"/>
<defs>
<linearGradient id="paint0_linear_2776_52" x1="41" y1="0" x2="41" y2="82" gradientUnits="userSpaceOnUse">
<stop stop-color="#0E619D"/>
<stop offset="1" stop-color="#1279C3"/>
</linearGradient>
</defs>
</svg>
