<svg width="82" height="82" viewBox="0 0 82 82" fill="none" xmlns="http://www.w3.org/2000/svg">
<path d="M0 41C0 18.3563 18.3563 0 41 0V0C63.6437 0 82 18.3563 82 41V41C82 63.6437 63.6437 82 41 82V82C18.3563 82 0 63.6437 0 41V41Z" fill="url(#paint0_linear_2776_48)"/>
<path d="M44.3333 39.3327C41.5733 39.3327 39.3333 41.5727 39.3333 44.3327C39.3333 47.0927 41.5733 49.3327 44.3333 49.3327C47.0933 49.3327 49.3333 47.0927 49.3333 44.3327C49.3333 41.5727 47.0933 39.3327 44.3333 39.3327ZM44.5833 46.806V47.331H44.0833V46.8327C43.565 46.8243 43.03 46.701 42.585 46.471L42.81 45.6493C43.2883 45.8327 43.925 46.031 44.4233 45.9193C44.9983 45.7893 45.115 45.1977 44.48 44.9127C44.015 44.6977 42.5917 44.5093 42.5917 43.291C42.5917 42.6093 43.1133 41.9993 44.0833 41.866V41.3343H44.585V41.8427C44.9467 41.8527 45.3533 41.9143 45.805 42.0527L45.625 42.8743C45.2417 42.741 44.8167 42.6177 44.4033 42.6427C43.66 42.686 43.5933 43.331 44.1133 43.601C44.97 44.0043 46.0833 44.301 46.0833 45.3727C46.085 46.2327 45.4117 46.691 44.5833 46.806ZM27.6667 34.3327V54.3327H61V34.3327H27.6667ZM57.6667 50.9993H31V37.666H57.6667V50.9993ZM56 30.9993H24.3333V49.3327H21V27.666H56V30.9993Z" fill="white"/>
<defs>
<linearGradient id="paint0_linear_2776_48" x1="41" y1="0" x2="41" y2="82" gradientUnits="userSpaceOnUse">
<stop stop-color="#0E619D"/>
<stop offset="1" stop-color="#1279C3"/>
</linearGradient>
</defs>
</svg>
