<svg width="83" height="82" viewBox="0 0 83 82" fill="none" xmlns="http://www.w3.org/2000/svg">
<rect x="0.5" width="82" height="82" rx="41" fill="url(#paint0_linear_2723_96)"/>
<path d="M44.5167 41.7333L48.91 35.0233L48.1533 34.3467L42.0317 39.5117C40.9067 39.2817 39.695 39.625 38.875 40.5417C37.6483 41.9133 37.7667 44.0217 39.14 45.2483C40.5133 46.475 42.62 46.3567 43.8467 44.9833C44.6667 44.0667 44.8717 42.825 44.5167 41.7333ZM38 23.99V19.5H44.6667V23.99C42.2683 23.585 40.3467 23.5933 38 23.99ZM52.7517 27.43L55.0967 25.085L57.4533 27.4417L55.2517 29.6433C54.4817 28.8367 53.645 28.0983 52.7517 27.43ZM21.3333 34.5H34.6667V37.8333H21.3333V34.5ZM18 41.1667H31.3333V44.5H18V41.1667ZM23 47.8333H34.6667V51.1667H23V47.8333ZM58 42.8333C58 52.0383 50.5383 59.5 41.3333 59.5C36.6833 59.5 32.5 57.575 29.4817 54.5H34.9483C36.845 55.5517 39.0133 56.1667 41.3333 56.1667C48.685 56.1667 54.6667 50.185 54.6667 42.8333C54.6667 35.4817 48.685 29.5 41.3333 29.5C39.0133 29.5 36.845 30.115 34.9483 31.1667H29.4817C32.5 28.0917 36.6833 26.1667 41.3333 26.1667C50.5383 26.1667 58 33.6283 58 42.8333Z" fill="white"/>
<defs>
<linearGradient id="paint0_linear_2723_96" x1="41.5" y1="0" x2="41.5" y2="82" gradientUnits="userSpaceOnUse">
<stop stop-color="#0E619D"/>
<stop offset="1" stop-color="#1279C3"/>
</linearGradient>
</defs>
</svg>
