<svg width="83" height="82" viewBox="0 0 83 82" fill="none" xmlns="http://www.w3.org/2000/svg">
<rect x="0.5" width="82" height="82" rx="41" fill="url(#paint0_linear_2723_81)"/>
<g clip-path="url(#clip0_2723_81)">
<path fill-rule="evenodd" clip-rule="evenodd" d="M54.4283 54.619C53.11 55.4924 51.53 56.0007 49.8333 56.0007C45.2333 56.0007 41.5 52.2672 41.5 47.6671C41.5 43.0669 45.2333 39.3334 49.8333 39.3334C54.4333 39.3334 58.1667 43.0669 58.1667 47.6671C58.1667 49.3638 57.6583 50.9439 56.785 52.2622L61.5 56.9774L59.1433 59.3342L54.4283 54.619ZM41.6717 56.0007H21.5V22.666H58.1667V39.505C57.21 38.5283 56.0833 37.7183 54.8333 37.1249V25.9995H43.1667V35.9999H36.5V25.9995H24.8333V52.6673H39.2917C39.885 53.9173 40.695 55.044 41.6717 56.0007ZM49.8333 42.6668C52.5933 42.6668 54.8333 44.9069 54.8333 47.6671C54.8333 50.4272 52.5933 52.6673 49.8333 52.6673C47.0733 52.6673 44.8333 50.4272 44.8333 47.6671C44.8333 44.9069 47.0733 42.6668 49.8333 42.6668ZM47.7367 49.3338H46.9033V46.0003H47.7367V49.3338ZM49.4033 49.3338H48.57V46.0003H49.4033V49.3338ZM51.07 49.3338H50.2367V46.0003H51.07V49.3338ZM52.7233 49.3338H51.9033V46.0003H52.7233V49.3338ZM36.5 46.0003V49.3338H28.1667V46.0003H36.5Z" fill="white"/>
</g>
<defs>
<linearGradient id="paint0_linear_2723_81" x1="41.5" y1="0" x2="41.5" y2="82" gradientUnits="userSpaceOnUse">
<stop stop-color="#0E619D"/>
<stop offset="1" stop-color="#1279C3"/>
</linearGradient>
<clipPath id="clip0_2723_81">
<rect width="40" height="40.0017" fill="white" transform="translate(21.5 21)"/>
</clipPath>
</defs>
</svg>
