<svg width="50" height="50" viewBox="0 0 50 50" fill="none" xmlns="http://www.w3.org/2000/svg">
<path d="M26.5187 32.1146C27.5771 32.1146 29.2333 32.8896 30.05 33.4458L25.6104 22.1687C24.6437 19.7167 28.3208 18.3604 29.2562 20.7354L32.2625 28.3625C32.6104 29.2458 33.9458 28.7229 33.5979 27.8375L32.8583 25.9562C33.5146 25.9542 34.4229 25.8417 35.0562 26C35.4667 26.1021 35.7937 26.3146 35.9604 26.7458L36.5687 28.2875C36.9146 29.1667 38.2458 28.6437 37.9042 27.7625L37.2021 25.9812C38.0896 25.9458 38.7229 25.9187 39.3063 26.0646C39.7208 26.1687 40.0563 26.3833 40.225 26.8167L40.7417 28.125C41.0792 29.0104 42.4188 28.4875 42.0771 27.6021L41.4958 26.1333C41.9875 26.1667 42.4167 26.2083 42.8021 26.3042C43.8917 26.5771 44.6437 27.2792 45.4688 29.3812C47.1104 33.55 45.9021 35.4146 47.5542 39.6104L36.7188 43.75C32.4188 38.4958 27.3562 36.9396 26.0021 36.0792C23.3292 34.3708 24.4083 32.1146 26.5187 32.1146ZM23.8292 21.1562C23.7146 19.6792 24.5979 18.3688 25.9937 17.8188C27.3667 17.2729 28.9167 17.6146 29.85 18.7854C29.7458 16.4563 27.3813 14.9 25.1833 15.7583C22.9937 16.6229 22.3146 19.3771 23.8292 21.1562ZM23.6542 28.4771L23.1062 27.0833H4.16667V10.4167H45.8333V23.0208C47.7125 24.1958 48.6896 26.0979 49.3437 27.7521C49.625 28.4625 49.8312 29.1229 50 29.7479V6.25H0V31.25H20.85C21.4417 30.0354 22.4187 29.0625 23.6542 28.4771ZM14.5833 18.75C14.5833 19.9 15.5146 20.8333 16.6667 20.8333C17.8187 20.8333 18.75 19.9 18.75 18.75C18.75 17.6 17.8187 16.6667 16.6667 16.6667C15.5146 16.6667 14.5833 17.6 14.5833 18.75ZM8.33333 18.75C8.33333 19.9 9.26458 20.8333 10.4167 20.8333C11.5687 20.8333 12.5 19.9 12.5 18.75C12.5 17.6 11.5687 16.6667 10.4167 16.6667C9.26458 16.6667 8.33333 17.6 8.33333 18.75Z" fill="white"/>
</svg>
