<svg width="50" height="50" viewBox="0 0 50 50" fill="none" xmlns="http://www.w3.org/2000/svg">
<path d="M47.9154 25C47.9154 27.1708 47.5945 29.2604 47.0299 31.25H42.6529C43.3508 29.2917 43.7487 27.1937 43.7487 25C43.7487 14.6625 35.3383 6.25 24.9987 6.25C21.4445 6.25 18.132 7.25833 15.3029 8.9875L19.1716 14.5833H4.60078L9.08411 0L12.9383 5.56875C16.4445 3.38333 20.5591 2.08333 24.9987 2.08333C37.6529 2.08333 47.9154 12.3438 47.9154 25ZM34.6779 41.025C31.8508 42.7458 28.5445 43.75 24.9987 43.75C14.6591 43.75 6.2487 35.3375 6.2487 25C6.2487 22.8062 6.64661 20.7083 7.34245 18.75H2.96745C2.40286 20.7396 2.08203 22.8292 2.08203 25C2.08203 37.6562 12.3424 47.9167 24.9987 47.9167C29.4299 47.9167 33.5383 46.6229 37.0404 44.4437L40.9008 50L45.3841 35.4396H30.8133L34.6779 41.025ZM35.4154 19.6021L32.4549 16.6667L21.8195 27.4646L17.4904 22.9167L14.582 25.9062L21.8737 33.3333L35.4154 19.6021Z" fill="white"/>
</svg>
