<svg width="50" height="50" viewBox="0 0 50 50" fill="none" xmlns="http://www.w3.org/2000/svg">
<g clip-path="url(#clip0_2283_384)">
<path fill-rule="evenodd" clip-rule="evenodd" d="M20.9417 39.5854L21.0479 39.5896L21.1542 39.5958L21.2583 39.6042L21.3646 39.6167L21.4688 39.6312L21.5708 39.6479L21.6729 39.6688L21.775 39.6896L21.875 39.7146L21.975 39.7417L22.0729 39.7708L22.1687 39.8021L22.2667 39.8354L22.3604 39.8729L22.4542 39.9104L22.5479 39.9521L22.6396 39.9937L22.7292 40.0396L22.8187 40.0854L22.9083 40.1354L22.9937 40.1875L23.0792 40.2396L23.1625 40.2958L23.2458 40.3521L23.3271 40.4104L23.4062 40.4729L23.4833 40.5354L23.5604 40.6L23.6354 40.6667L23.7083 40.7333L23.7792 40.8042L23.85 40.875L23.9167 40.9479L23.9833 41.0229L24.0479 41.1L24.1104 41.1771L24.1729 41.2562L24.2312 41.3375L24.2875 41.4208L24.3438 41.5042L24.3958 41.5896L24.4479 41.675L24.4979 41.7646L24.5437 41.8521L24.5896 41.9437L24.6312 42.0354L24.6729 42.1292L24.7104 42.2229L24.7479 42.3167L24.7812 42.4146L24.8125 42.5104L24.8417 42.6083L24.8687 42.7083L24.8937 42.8083L24.9146 42.9104L24.9354 43.0125L24.9521 43.1146L24.9667 43.2188L24.9792 43.325L24.9875 43.4292L24.9937 43.5354L24.9979 43.6417L25 43.75V45.8333H27.0833V50H0V45.8333H2.08333V43.75L2.08542 43.6417L2.08958 43.5354L2.09583 43.4292L2.10417 43.325L2.11667 43.2188L2.13125 43.1146L2.14792 43.0125L2.16875 42.9104L2.18958 42.8083L2.21458 42.7083L2.24167 42.6083L2.27083 42.5104L2.30208 42.4146L2.33542 42.3167L2.37292 42.2229L2.41042 42.1292L2.45208 42.0354L2.49375 41.9437L2.53958 41.8521L2.58542 41.7646L2.63542 41.675L2.6875 41.5896L2.73958 41.5042L2.79583 41.4208L2.85208 41.3375L2.91042 41.2562L2.97292 41.1771L3.03542 41.1L3.1 41.0229L3.16667 40.9479L3.23333 40.875L3.30417 40.8042L3.375 40.7333L3.44792 40.6667L3.52292 40.6L3.6 40.5354L3.67708 40.4729L3.75625 40.4104L3.8375 40.3521L3.92083 40.2958L4.00417 40.2396L4.08958 40.1875L4.175 40.1354L4.26458 40.0854L4.35417 40.0396L4.44375 39.9937L4.53542 39.9521L4.62917 39.9104L4.72292 39.8729L4.81667 39.8354L4.91458 39.8021L5.01042 39.7708L5.10833 39.7417L5.20833 39.7146L5.30833 39.6896L5.41042 39.6688L5.5125 39.6479L5.61458 39.6312L5.71875 39.6167L5.825 39.6042L5.92917 39.5958L6.03542 39.5896L6.14167 39.5854L6.25 39.5833H20.8333L20.9417 39.5854ZM6.27708 43.75H6.25V45.8333H20.8333V43.75H6.27708ZM25.7687 0.00208333L25.8729 0.00416667L25.9771 0.0104167L26.0792 0.0208333L26.1812 0.03125L26.2833 0.0458333L26.3854 0.0604167L26.4854 0.0791667L26.5854 0.102083L26.6854 0.125L26.7833 0.15L26.8812 0.179167L26.9771 0.208333L27.0729 0.241667L27.1687 0.277083L27.2625 0.314583L27.3562 0.354167L27.4479 0.397917L27.5396 0.441667L27.6292 0.4875L27.7188 0.5375L27.8062 0.589583L27.8917 0.641667L27.9771 0.697917L28.0625 0.75625L28.1437 0.816667L28.225 0.877083L28.3062 0.941667L28.3854 1.00833L28.4625 1.07708L28.5375 1.14792L28.6125 1.22083L38.9229 11.5312L38.9958 11.6062L39.0667 11.6812L39.1354 11.7604L39.2021 11.8375L39.2667 11.9187L39.3292 12L39.3896 12.0833L39.4458 12.1667L39.5021 12.2542L39.5562 12.3396L39.6062 12.4271L39.6562 12.5167L39.7021 12.6062L39.7479 12.6979L39.7896 12.7896L39.8292 12.8833L39.8667 12.9771L39.9021 13.0729L39.9354 13.1687L39.9667 13.2646L39.9937 13.3625L40.0187 13.4604L40.0438 13.5604L40.0646 13.6604L40.0833 13.7604L40.0979 13.8625L40.1125 13.9625L40.1229 14.0646L40.1333 14.1687L40.1396 14.2708L40.1417 14.375L40.1437 14.4792L40.1417 14.6062L40.1354 14.7333L40.1271 14.8583L40.1146 14.9833L40.0979 15.1062L40.0771 15.2271L40.0542 15.3479L40.0271 15.4667L39.9958 15.5833L39.9625 15.7L39.925 15.8146L39.8854 15.9271L39.8438 16.0375L39.7958 16.1479L39.7479 16.2542L39.6958 16.3604L39.6396 16.4646L39.5833 16.5688L39.5229 16.6688L39.4583 16.7667L39.3937 16.8625L39.325 16.9583L39.2542 17.05L39.1792 17.1417L39.1042 17.2292L39.025 17.3146L38.9458 17.4L38.8625 17.4812L38.7771 17.5604L38.6917 17.6375L38.6021 17.7104L38.5104 17.7833L38.4187 17.8521L38.3229 17.9187L38.2271 17.9833L38.1292 18.0438L38.0271 18.1042L37.9271 18.1604L37.8229 18.2125L37.7187 18.2625L37.6125 18.3104L37.5042 18.3542L37.3958 18.3958L37.2854 18.4354L37.1729 18.4708L37.0604 18.5042L36.9479 18.5333L36.8312 18.5583L36.7167 18.5812L36.6 18.6L36.4812 18.6167L36.3625 18.6292L36.2437 18.6396L36.125 18.6458L36.0042 18.6479L35.8833 18.6458L35.7604 18.6417L35.6396 18.6333L35.5167 18.6208L35.3937 18.6042L35.2708 18.5854L35.1479 18.5604L35.0229 18.5333L34.9 18.5021L32.3604 21.0437L36.7333 25.1L40.2667 28.3708L43.0375 30.9312L45.1271 32.8562L46.6146 34.2229L47.5792 35.1062L48.0979 35.5792L48.2542 35.7208L48.3583 35.8271L48.4604 35.9354L48.5583 36.0458L48.6521 36.1583L48.7458 36.2729L48.8333 36.3896L48.9188 36.5062L49.0021 36.625L49.0812 36.7458L49.1583 36.8688L49.2313 36.9917L49.3021 37.1167L49.3687 37.2438L49.4333 37.3708L49.4917 37.5L49.55 37.6312L49.6042 37.7625L49.6542 37.8958L49.7021 38.0292L49.7438 38.1646L49.7854 38.3L49.8229 38.4375L49.8562 38.575L49.8854 38.7146L49.9125 38.8542L49.9354 38.9937L49.9542 39.1354L49.9708 39.275L49.9833 39.4187L49.9937 39.5604L49.9979 39.7042L50 39.8479L49.9979 40L49.9917 40.15L49.9812 40.3L49.9688 40.4479L49.95 40.5958L49.9271 40.7417L49.9021 40.8875L49.8729 41.0312L49.8396 41.175L49.8042 41.3167L49.7625 41.4583L49.7187 41.5958L49.6729 41.7354L49.6208 41.8708L49.5667 42.0062L49.5104 42.1396L49.45 42.2708L49.3854 42.4L49.3187 42.5271L49.2479 42.6542L49.175 42.7792L49.1 42.9021L49.0208 43.0208L48.9375 43.1396L48.8521 43.2562L48.7646 43.3708L48.675 43.4833L48.5812 43.5917L48.4854 43.7L48.3875 43.8042L48.2854 43.9083L48.1813 44.0083L48.0771 44.1062L47.9687 44.2L47.8563 44.2937L47.7437 44.3833L47.6292 44.4708L47.5104 44.5542L47.3917 44.6354L47.2708 44.7146L47.1458 44.7896L47.0208 44.8625L46.8937 44.9333L46.7625 44.9979L46.6312 45.0625L46.5 45.1208L46.3646 45.1792L46.2271 45.2313L46.0896 45.2812L45.95 45.3292L45.8083 45.3708L45.6667 45.4104L45.5229 45.4458L45.3771 45.4792L45.2292 45.5062L45.0812 45.5312L44.9333 45.5521L44.7812 45.5687L44.6312 45.5812L44.4771 45.5917L44.325 45.5958H44.1708L44.0146 45.5938L43.8583 45.5854L43.7271 45.575L43.5979 45.5625L43.4687 45.5479L43.3396 45.5292L43.2104 45.5062L43.0833 45.4812L42.9562 45.4542L42.8292 45.4229L42.7042 45.3875L42.5792 45.35L42.4542 45.3104L42.3312 45.2667L42.2083 45.2208L42.0854 45.1708L41.9646 45.1187L41.8437 45.0646L41.725 45.0062L41.6063 44.9437L41.4896 44.8792L41.3729 44.8125L41.2562 44.7437L41.1417 44.6708L41.0292 44.5938L40.9167 44.5167L40.8042 44.4354L40.6938 44.35L40.5854 44.2625L40.4771 44.1729L40.3708 44.0812L40.2646 43.9854L40.1604 43.8875L40.0583 43.7854L39.9708 43.6937L39.8146 43.5229L39.3125 42.9625L38.5854 42.1458L37.675 41.1146L35.4437 38.5812L32.9167 35.7062L30.3896 32.8292L28.1646 30.2917L25.8042 27.6L23.0687 30.3333L23.1 30.4604L23.1271 30.5875L23.15 30.7146L23.1687 30.8396L23.1833 30.9667L23.1958 31.0917L23.2021 31.2146L23.2062 31.3396L23.2083 31.4625L23.2042 31.5854L23.1979 31.7062L23.1875 31.8271L23.175 31.9479L23.1562 32.0667L23.1375 32.1833L23.1125 32.3L23.0875 32.4167L23.0562 32.5312L23.0229 32.6437L22.9875 32.7562L22.9479 32.8667L22.9062 32.975L22.8604 33.0833L22.8125 33.1896L22.7604 33.2937L22.7062 33.3958L22.65 33.4979L22.5917 33.5979L22.5292 33.6937L22.4646 33.7917L22.3979 33.8854L22.3271 33.9771L22.2542 34.0667L22.1812 34.1542L22.1042 34.2417L22.0229 34.325L21.9417 34.4062L21.8583 34.4854L21.7729 34.5625L21.6833 34.6375L21.5937 34.7104L21.5 34.7792L21.4062 34.8479L21.3104 34.9125L21.2125 34.9729L21.1125 35.0333L21.0104 35.0896L20.9062 35.1437L20.8 35.1937L20.6937 35.2417L20.5833 35.2875L20.4729 35.3292L20.3625 35.3687L20.2479 35.4042L20.1333 35.4375L20.0167 35.4667L19.9 35.4938L19.7812 35.5167L19.6604 35.5354L19.5396 35.5521L19.4167 35.5646L19.2937 35.5729L19.1687 35.5792L19.0437 35.5812L18.9396 35.5792L18.8354 35.575L18.7312 35.5687L18.6271 35.5604L18.525 35.55L18.4229 35.5354L18.3229 35.5187L18.2208 35.5L18.1208 35.4792L18.0229 35.4562L17.925 35.4292L17.8271 35.4L17.7292 35.3708L17.6333 35.3375L17.5396 35.3021L17.4458 35.2646L17.3521 35.225L17.2604 35.1812L17.1687 35.1375L17.0792 35.0917L16.9896 35.0417L16.9021 34.9896L16.8167 34.9375L16.7312 34.8812L16.6458 34.8229L16.5646 34.7625L16.4812 34.7021L16.4021 34.6375L16.3229 34.5708L16.2458 34.5021L16.1708 34.4312L16.0958 34.3583L5.78542 24.05L5.77708 24.0417L5.70417 23.9667L5.63542 23.8917L5.56667 23.8125L5.5 23.7333L5.43542 23.6542L5.375 23.5729L5.31458 23.4896L5.25625 23.4042L5.20208 23.3187L5.14792 23.2333L5.09792 23.1458L5.05 23.0562L5.00208 22.9667L4.95833 22.8771L4.91667 22.7833L4.87708 22.6917L4.83958 22.5979L4.80417 22.5021L4.77292 22.4083L4.74167 22.3104L4.71458 22.2146L4.6875 22.1167L4.66458 22.0167L4.64375 21.9187L4.625 21.8187L4.60833 21.7167L4.59583 21.6167L4.58542 21.5146L4.575 21.4125L4.56875 21.3083L4.56667 21.2062L4.56458 21.1021L4.56667 20.9979L4.56875 20.8958L4.575 20.7917L4.58333 20.6896L4.59583 20.5875L4.60833 20.4854L4.625 20.3854L4.64375 20.2854L4.66458 20.1854L4.6875 20.0875L4.7125 19.9896L4.74167 19.8917L4.77083 19.7938L4.80417 19.6979L4.83958 19.6042L4.87708 19.5104L4.91667 19.4167L4.95833 19.325L5.00208 19.2333L5.05 19.1437L5.09792 19.0542L5.15 18.9667L5.20208 18.8792L5.25833 18.7937L5.31667 18.7104L5.37708 18.6271L5.4375 18.5437L5.50208 18.4646L5.56875 18.3854L5.6375 18.3062L5.70833 18.2313L5.78125 18.1562L5.8875 18.0542L5.99583 17.9563L6.10833 17.8625L6.22083 17.775L6.33542 17.6896L6.45208 17.6104L6.57292 17.5354L6.69375 17.4646L6.81458 17.3979L6.93958 17.3375L7.06458 17.2792L7.19167 17.2271L7.31875 17.1792L7.44792 17.1354L7.57708 17.0958L7.70833 17.0604L7.83958 17.0292L7.97083 17.0021L8.10208 16.9812L8.23542 16.9625L8.36875 16.95L8.5 16.9396L8.63333 16.9354L8.76667 16.9333L8.89792 16.9375L9.03125 16.9458L9.1625 16.9562L9.29375 16.9729L9.425 16.9917L9.55417 17.0167L9.68333 17.0437L9.81042 17.0771L21.6417 5.24583L21.6083 5.11667L21.5812 4.98542L21.5562 4.85417L21.5354 4.72292L21.5208 4.58958L21.5083 4.45625L21.5021 4.32292L21.4979 4.18958L21.5 4.05625L21.5062 3.92292L21.5146 3.78958L21.5292 3.65833L21.5479 3.525L21.5708 3.39375L21.5979 3.2625L21.6292 3.13125L21.6646 3L21.7042 2.87083L21.7479 2.74375L21.7958 2.61667L21.8479 2.49167L21.9062 2.36667L21.9667 2.24375L22.0333 2.12292L22.1021 2.00417L22.1771 1.88542L22.2562 1.77083L22.3396 1.65625L22.4271 1.54583L22.5187 1.43542L22.6146 1.32917L22.7146 1.225L22.7896 1.15208L22.8646 1.08125L22.9417 1.0125L23.0208 0.945833L23.1021 0.88125L23.1833 0.81875L23.2667 0.758333L23.35 0.7L23.4354 0.64375L23.5229 0.591667L23.6104 0.539583L23.7 0.489583L23.7896 0.44375L23.8813 0.397917L23.9729 0.35625L24.0667 0.316667L24.1604 0.279167L24.2562 0.24375L24.3521 0.210417L24.4479 0.179167L24.5458 0.152083L24.6437 0.125L24.7437 0.102083L24.8438 0.08125L24.9437 0.0625L25.0458 0.0458333L25.1479 0.03125L25.25 0.0208333L25.3521 0.0104167L25.4562 0.00416667L25.5604 0.00208333L25.6646 0L25.7687 0.00208333ZM14.625 18.1521L21.9917 25.5208L25.6854 21.825L27.9917 24.3479L33.2667 30.1292L36.25 33.4L39.0521 36.4792L40.2896 37.8417L41.3687 39.0312L42.2458 40.0021L42.8875 40.7167L42.9458 40.7833L43.0062 40.85L43.0708 40.9146L43.1396 40.975L43.2104 41.0354L43.2833 41.0917L43.3604 41.1458L43.4396 41.1958L43.5187 41.2438L43.6021 41.2854L43.6854 41.3229L43.7708 41.3562L43.8563 41.3833L43.9437 41.4042L43.9875 41.4125L44.0312 41.4188L44.075 41.4229L44.1187 41.4271L44.175 41.4292L44.2292 41.4312L44.2812 41.4292L44.3333 41.4271L44.3833 41.4208L44.4333 41.4167L44.4833 41.4083L44.5312 41.4L44.6229 41.3771L44.7083 41.3521L44.7917 41.3208L44.8688 41.2875L44.9417 41.2521L45.0104 41.2146L45.0729 41.175L45.1333 41.1354L45.1854 41.0958L45.2354 41.0563L45.2792 41.0187L45.3167 40.9833L45.3771 40.925L45.4333 40.8646L45.4875 40.8L45.5354 40.7354L45.5833 40.6687L45.625 40.6L45.6625 40.5292L45.6979 40.4562L45.7292 40.3833L45.7562 40.3104L45.7792 40.2333L45.7979 40.1583L45.8146 40.0812L45.825 40.0042L45.8312 39.925L45.8333 39.8479L45.8312 39.7687L45.825 39.6875L45.8146 39.6083L45.8 39.5312L45.7812 39.4542L45.7583 39.3771L45.7292 39.3L45.6979 39.225L45.6646 39.1521L45.625 39.0792L45.5812 39.0083L45.5354 38.9375L45.4833 38.8667L45.4292 38.8L45.3708 38.7312L45.3083 38.6667L45.1458 38.5208L45.0604 38.45L45.0104 38.4083L44.9771 38.3771L44.5833 38.0146L44.1312 37.5938L43.6271 37.1229L43.075 36.6021L41.8437 35.4375L40.4771 34.1354L39.0083 32.7313L37.4771 31.2625L35.9187 29.7646L34.3687 28.2708L31.4417 25.4458L28.9896 23.075L26.6771 20.8333L30.0812 17.4271L22.7125 10.0604L14.625 18.1521ZM11.6771 21.1L8.7375 21.1062L8.73542 21.1083L19.0417 31.4125L19.0437 28.4687L11.6771 21.1ZM25.6646 7.10833L25.6604 7.11458L33.0271 14.4812L33.0312 14.4771L35.9729 14.4729L25.6646 4.16458V7.10833Z" fill="#0E619D"/>
</g>
<defs>
<clipPath id="clip0_2283_384">
<rect width="50" height="50" fill="white"/>
</clipPath>
</defs>
</svg>
