<svg width="50" height="50" viewBox="0 0 50 50" fill="none" xmlns="http://www.w3.org/2000/svg">
<g clip-path="url(#clip0_2283_386)">
<path fill-rule="evenodd" clip-rule="evenodd" d="M47.0562 30.4667L27.0896 10.4167H16.8229C17.0437 11.1604 17.1708 11.8771 17.1833 12.5521C19.2354 12.8083 20.8333 14.5437 20.8333 16.6667C20.8333 18.9667 18.9667 20.8333 16.6667 20.8333C14.3667 20.8333 12.5 18.9667 12.5 16.6667C12.5 14.9104 13.5917 13.4146 15.1292 12.8021C15.15 12.1 14.9896 11.2792 14.6562 10.4167H10.4167V27.0938L30.4646 47.0562L47.0562 30.4667ZM16.8708 14.625C16.6875 15.0729 16.4396 15.475 16.1167 15.8083C15.6354 16.3062 15.1333 16.6292 14.6187 16.8396C14.7125 17.9042 15.5792 18.75 16.6667 18.75C17.8167 18.75 18.75 17.8167 18.75 16.6667C18.75 15.5896 17.9187 14.7312 16.8708 14.625ZM50 30.4687L30.4687 50L8.33333 27.9604V15.6396C5.99375 14.5729 3.34583 13.3667 0 13.3667V11.2833C3.35625 11.2833 6.08333 12.3479 8.33333 13.3542V8.33333H13.525C11.3292 5.14583 6.89792 2.08333 0 2.08333V0C8.52708 0 13.7562 4.28125 15.9604 8.33333H27.9542L50 30.4687ZM35.4229 34.075L36.5083 35.1604L35.0542 36.6125L33.9292 35.4917C32.8354 36.3167 31.7042 36.7354 30.5708 36.7354C29.2125 36.7354 27.9208 36.1208 26.9583 35.1667L28.4958 33.6271C29.1271 34.1896 29.8104 34.5896 30.6812 34.5896C31.6042 34.5896 32.5479 34.1146 33.4875 33.175C34.2396 32.4271 34.6729 31.6417 34.7812 30.8375C34.9937 29.2542 33.7625 28.2167 32.5354 28.2167C31.7187 28.2167 30.7125 28.6 29.4625 29.3896C26.9104 31 24.4583 31.9792 22.3521 29.8729C20.4396 27.9625 21.0083 25.4729 22.1937 23.7521L20.8333 22.3937L22.2875 20.9375L23.5917 22.2437C24.7125 21.3062 25.8771 20.8333 27.0562 20.8333C28.4417 20.8333 29.7354 21.4917 30.725 22.4833L29.175 24.0333C27.6521 22.4875 25.7917 22.8979 24.4333 24.2542C23.7625 24.9271 23.35 25.6604 23.2417 26.3792C22.9875 28.0667 24.4917 28.9167 25.2437 28.9167C25.9479 28.9167 26.8562 28.5542 28.2771 27.7C30.2437 26.5271 31.5958 26.025 32.8 26.025C33.8688 26.025 34.8062 26.4458 35.6708 27.3104C37.8333 29.4729 36.9708 32.2083 35.4229 34.075Z" fill="#0E619D" stroke="#0E619D"/>
</g>
<defs>
<clipPath id="clip0_2283_386">
<rect width="50" height="50" fill="white"/>
</clipPath>
</defs>
</svg>
