<svg width="50" height="50" viewBox="0 0 50 50" fill="none" xmlns="http://www.w3.org/2000/svg">
<g clip-path="url(#clip0_2283_392)">
<path d="M42.7417 28.0269L50 26.1707L45.975 10.4165L38.6292 12.2728L39.0375 13.8415C35.2958 14.3415 33.7375 13.3707 29.7479 11.2873C28.7104 10.7519 27.7229 10.4165 26.8146 10.4165C25.5812 10.4165 24.5062 10.9748 23.6833 11.904L22.6604 13.054C18.5854 9.87692 16.0396 12.2103 13.275 13.229C12.5167 13.5103 11.6229 13.6144 11.0104 13.6498L11.3708 12.2707L4.025 10.4165L0 26.1707L7.25833 28.0269L7.6375 26.579C8.29583 26.704 10.7812 27.1853 11.2479 27.3019C9.89583 29.4998 11.2687 32.2123 13.7458 32.4998C14.2167 33.6353 15.2896 34.4415 16.5375 34.5894C17.0063 35.7228 18.0708 36.5228 19.3125 36.6665C20 38.3644 22.0312 39.3061 23.9625 38.4644C24.6958 39.2019 25.7146 39.5832 26.7875 39.5832C28.2521 39.5832 29.5979 38.8665 30.275 37.4748C31.4708 37.2248 32.4667 36.4373 32.975 35.3707C34.125 35.1311 35.1229 34.3915 35.6521 33.2832C37.2333 32.9623 38.5229 31.6728 38.6875 29.9457C38.7521 29.2957 38.625 28.6457 38.3646 28.0498C38.9667 27.7165 41.3688 26.7019 42.2938 26.3144L42.7417 28.0269ZM44.1708 13.4519L46.9583 24.3686L44.5312 24.9894L41.6854 14.079L44.1708 13.4519ZM5.46875 24.9894L3.04167 24.3686L5.82917 13.4519L8.31458 14.079L5.46875 24.9894ZM13.3146 30.1644C12.7021 29.704 12.625 28.8207 13.1479 28.2019L14.4187 26.6415C14.9375 26.0207 15.8562 25.8853 16.4729 26.3498C17.0875 26.8144 17.1604 27.6915 16.6396 28.3165L15.3708 29.8728C14.85 30.4957 13.9271 30.6248 13.3146 30.1644ZM16.0979 32.2478C15.4812 31.7811 15.3958 30.9228 15.9187 30.2978L17.2021 28.7269C17.7229 28.1019 18.6396 27.9707 19.2521 28.4311C19.8667 28.8936 19.9396 29.7769 19.4229 30.3957L18.1375 31.9686C17.6167 32.5957 16.7167 32.7103 16.0979 32.2478ZM18.8812 34.3311C18.2667 33.8686 18.1875 32.9873 18.7104 32.3623L19.9792 30.8103C20.5021 30.1873 21.4167 30.0519 22.0333 30.5144C22.6479 30.979 22.7229 31.8582 22.2 32.4811L20.9333 34.0373C20.4125 34.6623 19.4937 34.7894 18.8812 34.3311ZM24.9854 34.5561L23.7146 36.1186C23.1917 36.7478 22.275 36.8748 21.6604 36.4144C21.0458 35.9519 20.9708 35.0707 21.4896 34.4498L22.7646 32.8853C23.2896 32.2644 24.2083 32.1311 24.8208 32.5957C25.4375 33.0561 25.5125 33.9373 24.9854 34.5561ZM27.6521 36.8686C27.4021 37.0603 27.0979 37.1561 26.7875 37.1561C26.4542 37.1561 26.1312 37.0123 25.8542 36.7894L26.6 35.8707C26.9312 35.4811 27.1604 35.0123 27.2917 34.5165L27.7917 34.9582C28.3146 35.5519 28.2458 36.404 27.6521 36.8686ZM35.7208 30.5832C35.1187 31.0457 34.2229 30.9332 33.7062 30.3457L29.6562 26.8686C29.3229 26.5811 28.8854 27.0915 29.2229 27.3728L33.1729 30.7644C33.6896 31.3582 33.625 32.2144 33.0312 32.6728C32.4562 33.1269 31.5479 33.0498 31.0125 32.4353L27.9062 29.7103C27.5708 29.4207 27.1354 29.9228 27.4625 30.2123L30.4979 32.8769C31.0167 33.4707 30.9375 34.3061 30.3417 34.7707C29.7583 35.2248 28.8667 35.154 28.3417 34.5498L27.4042 33.7123L27.4 33.2436C27.2146 31.6186 25.9187 30.4269 24.3812 30.2561C23.9146 29.1165 22.8458 28.3186 21.6 28.1769C21.1458 27.0623 20.0875 26.2394 18.8208 26.0936C17.9937 24.0623 15.4125 23.3144 13.5104 24.679C12.625 24.4019 9.65208 23.7415 8.43958 23.504L10.1812 16.829C11.8125 16.7519 13.7104 16.554 16.2271 15.3603C18.0271 14.504 18.8896 14.1123 20.5333 15.3332C19.4771 16.3894 18.3937 17.3228 17.2792 17.9748C16.2792 18.5582 15.8458 19.7186 16.1729 20.9311C16.55 22.3228 17.9562 23.729 20.2562 23.729C22.5562 23.729 26.3479 21.6165 27.0875 20.5998C30.1542 23.4978 33.1333 26.1915 35.7188 28.5082C36.4479 29.3207 36.3125 30.1248 35.7208 30.5832ZM36.8167 25.2978C35.0729 23.729 31.1333 20.1665 29.7188 18.7498C29.1167 18.1498 28.2792 17.4603 27.1271 17.4603C26.1062 17.4603 25.2979 18.0165 24.7771 18.4353C23.5833 19.3978 20.5708 21.3061 19.3771 20.3519C21.7958 18.7811 23.9771 16.304 26.0271 13.9707C26.5271 13.4019 27.25 13.5144 28.3188 14.0623C32.8042 16.4061 34.5833 17.5332 39.8563 16.9665L41.4792 23.1894C40.4375 23.604 37.6813 24.8144 36.8167 25.2978Z" fill="#0E619D"/>
</g>
<defs>
<clipPath id="clip0_2283_392">
<rect width="50" height="50" fill="white"/>
</clipPath>
</defs>
</svg>
