<svg width="50" height="50" viewBox="0 0 50 50" fill="none" xmlns="http://www.w3.org/2000/svg">
<g clip-path="url(#clip0_3396_167)">
<path fill-rule="evenodd" clip-rule="evenodd" d="M14.5846 50H4.16797V31.25H14.5846V34.8646C15.9138 34.4521 17.3388 33.8333 18.2617 33.4292C19.5992 32.8458 20.8846 32.5604 22.193 32.5604C24.7221 32.5604 26.7867 33.6 31.1576 35.0708C32.4909 35.5167 33.3992 36.5625 33.6055 37.7917C35.9471 35.9937 39.6888 33.0896 39.7242 33.0625C40.468 32.4708 41.3346 32.1583 42.2242 32.1583C44.2076 32.1583 45.8721 33.7479 45.8721 35.7167C45.8721 36.7375 45.4159 37.7521 44.5659 38.5417C41.6951 41.2083 39.4721 43.1937 37.5096 44.9458C36.343 45.9896 35.2888 46.9292 34.2846 47.8479C32.7242 49.2792 31.1221 49.9437 29.2409 49.9437C28.3971 49.9437 27.5076 49.8083 26.5159 49.5271C20.7388 47.8958 17.1742 47.3687 14.5846 47.225V50ZM12.5013 33.3333H6.2513V47.9167H12.5013V33.3333ZM14.5846 45.1333C18.943 45.3792 23.7617 46.5833 27.0826 47.5229C28.7846 48.0042 30.7513 48.2604 32.8784 46.3125C35.543 43.8708 38.5492 41.2854 43.1471 37.0146C44.8638 35.4208 42.7763 33.3 41.018 34.6958C41.018 34.6958 34.8492 39.4854 33.3326 40.6187C32.543 41.2125 31.8846 41.7 30.9409 41.7C30.718 41.7 30.4763 41.6729 30.2138 41.6125C28.8492 41.2979 26.2909 40.7271 24.4742 40.1521C23.2763 39.7708 23.7013 38.0833 25.0326 38.3646C25.9638 38.5583 28.3534 39.0937 29.618 39.4479C31.7367 40.0333 32.2763 37.6417 30.4971 37.0479C29.3263 36.6521 29.3784 36.6354 26.5617 35.6625C23.8513 34.7229 21.9492 34.0938 19.093 35.3375C17.7617 35.9167 16.1096 36.6208 14.5846 37.0333V45.1333ZM22.4805 3.64792L29.168 0L43.7513 8.04167V24.0354L29.168 31.8167L14.5846 24.0354V7.95417L22.468 3.65417L22.4721 3.64375L22.4805 3.64792ZM28.1263 16.1792L16.668 10.2125V22.7854L28.1263 28.9V16.1792ZM30.2096 16.1812V28.9L41.668 22.7854V10.2854L30.2096 16.1812ZM33.8971 11.9417L22.5013 6.00833L17.9138 8.5125L29.1721 14.3729L33.8971 11.9417ZM24.7055 4.80625L36.1659 10.7729L40.42 8.58333L29.1617 2.37708L24.7055 4.80625Z" fill="white" stroke="white"/>
</g>
<defs>
<clipPath id="clip0_3396_167">
<rect width="50" height="50" fill="white"/>
</clipPath>
</defs>
</svg>
