<svg width="50" height="50" viewBox="0 0 50 50" fill="none" xmlns="http://www.w3.org/2000/svg">
<g clip-path="url(#clip0_3396_157)">
<path fill-rule="evenodd" clip-rule="evenodd" d="M14.5721 31.3037V27.485C14.5638 24.787 14.2221 21.9433 19.7846 20.6766C21.8888 20.1995 24.7742 19.5433 25.2471 18.4975C25.2971 18.3912 25.4451 18.062 25.0263 17.285C22.0451 11.7891 21.4888 6.94121 23.4555 3.63496C24.8096 1.35996 27.2763 0.0537109 30.2221 0.0537109C33.1451 0.0537109 35.5951 1.34121 36.9471 3.58288C38.9117 6.84954 38.3721 11.712 35.4242 17.2766C35.0117 18.06 35.1638 18.3912 35.2138 18.4995C35.6951 19.5454 38.4867 20.1829 40.7284 20.6933C46.4992 22.0079 45.7617 25.3516 45.8346 27.5245V35.7704C45.8346 36.7912 45.4159 37.8058 44.5659 38.5954C41.6951 41.262 35.2888 46.9829 34.2846 47.9016C32.7242 49.3329 31.1221 49.9975 29.2409 49.9975C28.3971 49.9975 27.5076 49.862 26.5159 49.5808C20.7388 47.9495 17.1742 47.4225 14.5846 47.2787V50.0537H4.16797V31.3037H14.5721ZM12.5013 33.387H6.2513V47.9704H12.5013V33.387ZM14.5846 45.187C18.943 45.4329 23.7617 46.637 27.0826 47.5766C28.7846 48.0579 30.7513 48.3141 32.8784 46.3662C35.543 43.9245 38.5492 41.3391 43.1471 37.0683C44.8638 35.4745 42.7763 33.3537 41.018 34.7495C41.018 34.7495 34.8492 39.5391 33.3326 40.6725C32.543 41.2662 31.8846 41.7537 30.9409 41.7537C30.1909 41.7537 26.2909 40.7808 24.4742 40.2058C23.2763 39.8245 23.7013 38.137 25.0326 38.4183C25.9638 38.612 28.3534 39.1475 29.618 39.5016C31.7367 40.087 32.2763 37.6954 30.4971 37.1016C29.3263 36.7058 29.3784 36.6891 26.5617 35.7162C23.8513 34.7766 21.9492 34.1475 19.093 35.3912C17.7617 35.9704 16.1096 36.6745 14.5846 37.087V45.187ZM43.7638 32.5495V27.5037C43.7805 23.6329 43.2034 23.3954 40.2659 22.7245C37.1617 22.0162 34.2284 21.3495 33.3201 19.3683C32.9013 18.4558 32.9909 17.4245 33.5826 16.3016C36.1742 11.4079 36.7346 7.27246 35.1596 4.65579C34.1826 3.03288 32.4305 2.13704 30.2221 2.13704C27.9971 2.13704 26.2305 3.04746 25.2451 4.69954C23.668 7.34954 24.2409 11.4662 26.8576 16.2933C27.4638 17.412 27.5617 18.4433 27.1451 19.3579C26.2451 21.3475 23.193 22.0391 20.2451 22.7079C17.3242 23.3766 16.6534 23.5725 16.668 27.4933V34.16L18.2617 33.4829C19.5992 32.8995 20.8846 32.6141 22.193 32.6141C24.7221 32.6141 26.7867 33.6537 31.1576 35.1245C32.4909 35.5704 33.3992 36.6162 33.6055 37.8454C35.9471 36.0475 39.6888 33.1433 39.7242 33.1162C40.468 32.5245 41.3346 32.212 42.2242 32.212C42.7701 32.212 43.293 32.3329 43.7638 32.5495Z" fill="white" stroke="white"/>
</g>
<defs>
<clipPath id="clip0_3396_157">
<rect width="50" height="50" fill="white"/>
</clipPath>
</defs>
</svg>
