<svg width="50" height="50" viewBox="0 0 50 50" fill="none" xmlns="http://www.w3.org/2000/svg">
<path d="M45.8346 10.4163C45.8346 9.42051 45.0451 8.33301 43.7513 8.33301H6.2513C4.95964 8.33301 4.16797 9.41426 4.16797 10.4163V39.583C4.16797 40.8768 5.2513 41.6663 6.2513 41.6663H43.7513C44.7471 41.6663 45.8346 40.8768 45.8346 39.583V10.4163ZM35.418 38.5413V16.6663C35.418 15.6705 34.6284 14.583 33.3346 14.583H7.29297V11.458H42.7096V38.5413H35.418ZM21.8388 28.2434L15.168 34.9143C14.5576 35.5226 13.568 35.5226 12.9596 34.9143C12.3492 34.3038 12.3492 33.3143 12.9596 32.7038L19.6221 26.0413H17.0826C16.2201 26.0413 15.5201 25.3413 15.5201 24.4788C15.5201 23.6163 16.2201 22.9163 17.0826 22.9163H23.4013C24.2659 22.9163 24.9638 23.6163 24.9638 24.4788V30.833C24.9638 31.6955 24.2659 32.3955 23.4013 32.3955C22.5388 32.3955 21.8388 31.6955 21.8388 30.833V28.2434Z" fill="white"/>
</svg>
