<svg width="50" height="50" viewBox="0 0 50 50" fill="none" xmlns="http://www.w3.org/2000/svg">
<path d="M33.3034 35.4816C30.2221 38.0607 26.2534 39.617 21.9263 39.617C12.1409 39.617 4.19922 31.6753 4.19922 21.892C4.19922 12.1087 12.1409 4.16699 21.9263 4.16699C31.7076 4.16699 39.6513 12.1087 39.6513 21.892C39.6513 26.2212 38.0951 30.192 35.5159 33.2691L45.4096 43.1649C45.7138 43.4691 45.8659 43.8691 45.8659 44.2712C45.8659 45.4941 44.7471 45.8337 44.3034 45.8337C43.9034 45.8337 43.5034 45.6816 43.1971 45.3753L33.3034 35.4816ZM21.9263 7.29408C13.868 7.29408 7.32839 13.8357 7.32839 21.892C7.32839 29.9482 13.868 36.4899 21.9263 36.4899C29.9805 36.4899 36.5242 29.9482 36.5242 21.892C36.5242 13.8357 29.9805 7.29408 21.9263 7.29408ZM23.4701 25.0003H14.0951C13.2326 25.0003 12.5326 25.7003 12.5326 26.5628C12.5326 27.4253 13.2326 28.1253 14.0951 28.1253H23.4701C24.3326 28.1253 25.0326 27.4253 25.0326 26.5628C25.0326 25.7003 24.3326 25.0003 23.4701 25.0003ZM29.7201 19.792H14.0951C13.2326 19.792 12.5326 20.492 12.5326 21.3545C12.5326 22.217 13.2326 22.917 14.0951 22.917H29.7201C30.5826 22.917 31.2826 22.217 31.2826 21.3545C31.2826 20.492 30.5826 19.792 29.7201 19.792ZM29.7201 14.5837H14.0951C13.2326 14.5837 12.5326 15.2837 12.5326 16.1462C12.5326 17.0087 13.2326 17.7087 14.0951 17.7087H29.7201C30.5826 17.7087 31.2826 17.0087 31.2826 16.1462C31.2826 15.2837 30.5826 14.5837 29.7201 14.5837Z" fill="white"/>
</svg>
