<svg width="50" height="50" viewBox="0 0 50 50" fill="none" xmlns="http://www.w3.org/2000/svg">
<path d="M8.33464 45.8333V4.16667H41.668V28.2146C41.668 36.7708 29.168 33.3333 29.168 33.3333C29.168 33.3333 32.3305 45.8333 23.6721 45.8333H8.33464ZM45.8346 29.9708V0H4.16797V50H25.3951C31.9846 50 45.8346 34.9521 45.8346 29.9708ZM22.9867 31.25C27.6909 22.8125 30.9576 18.4792 35.418 14.5854L34.8388 13.25C29.4305 16.6167 26.5201 19.1521 22.118 24.1479C19.7742 22.4771 18.4513 21.7125 16.368 20.7021L14.5846 22.3521C18.1492 25.6542 20.0846 27.8333 22.9867 31.25Z" fill="white"/>
</svg>
