<svg width="50" height="50" viewBox="0 0 50 50" fill="none" xmlns="http://www.w3.org/2000/svg">
<g clip-path="url(#clip0_2283_390)">
<path d="M33.3333 33.3338H16.6667V16.6672H33.3333V33.3338ZM12.5 18.3922V12.5005H18.3917L11.2792 5.38799L16.6667 0.000488281H0V16.6672L5.3875 11.2797L12.5 18.3922ZM18.3917 37.5005H12.5V31.6088L5.3875 38.7213L0 33.3338V50.0005H16.6667L11.2792 44.613L18.3917 37.5005ZM37.5 31.6088V37.5005H31.6083L38.7208 44.613L33.3333 50.0005H50V33.3338L44.6125 38.7213L37.5 31.6088ZM33.3333 0.000488281L38.7208 5.38799L31.6083 12.5005H37.5V18.3922L44.6125 11.2797L50 16.6672V0.000488281H33.3333Z" fill="#0E619D"/>
</g>
<defs>
<clipPath id="clip0_2283_390">
<rect width="50" height="50" fill="white" transform="translate(0 0.000488281)"/>
</clipPath>
</defs>
</svg>
