<svg width="50" height="50" viewBox="0 0 50 50" fill="none" xmlns="http://www.w3.org/2000/svg">
<g clip-path="url(#clip0_3396_169)">
<path d="M42.7083 0H30.2083C28.4833 0 27.0833 1.39792 27.0833 3.125V8.33333H31.25V4.6875C31.25 4.4 31.4812 4.16667 31.7708 4.16667H41.1458C41.4354 4.16667 41.6667 4.4 41.6667 4.6875V8.33333H45.8333V3.125C45.8333 1.39792 44.4333 0 42.7083 0ZM19.7917 0H7.29167C5.56667 0 4.16667 1.39792 4.16667 3.125V8.33333H8.33333V4.6875C8.33333 4.4 8.56458 4.16667 8.85417 4.16667H18.2292C18.5187 4.16667 18.75 4.4 18.75 4.6875V8.33333H22.9167V3.125C22.9167 1.39792 21.5167 0 19.7917 0ZM50 10.4167H0V50H50V10.4167ZM4.16667 27.0833V14.5833H45.8333V27.0833H4.16667ZM4.16667 45.8333V31.25H45.8333V45.8333H4.16667Z" fill="white"/>
</g>
<defs>
<clipPath id="clip0_3396_169">
<rect width="50" height="50" fill="white"/>
</clipPath>
</defs>
</svg>
