<svg width="50" height="50" viewBox="0 0 50 50" fill="none" xmlns="http://www.w3.org/2000/svg">
<g clip-path="url(#clip0_2283_388)">
<path d="M31.5479 27.5917L33.2917 22.9167L38.9125 34.6688L27.0833 39.8812L28.7604 35.2354C28.7604 35.2354 11.9792 27.8646 12.7021 12.5C18.3583 24.8708 31.5479 27.5917 31.5479 27.5917ZM50 12.5V50H12.5V37.5H0V0H37.5V12.5H50ZM45.8333 16.6667H20.6C19.4292 15.4625 18.35 14.0771 17.4312 12.5H33.3333V4.16667H4.16667V33.3333H12.5V26.825C13.75 28.8271 15.1812 30.6229 16.6667 32.1917V45.8333H45.8333V16.6667Z" fill="#0E619D"/>
</g>
<defs>
<clipPath id="clip0_2283_388">
<rect width="50" height="50" fill="white"/>
</clipPath>
</defs>
</svg>
