<svg width="50" height="50" viewBox="0 0 50 50" fill="none" xmlns="http://www.w3.org/2000/svg">
<g clip-path="url(#clip0_3833_282)">
<path d="M7.8125 48.4375H42.1875C43.8451 48.4375 45.4348 47.779 46.6069 46.6069C47.779 45.4348 48.4375 43.8451 48.4375 42.1875V1.5625H14.0625V7.8125" stroke="white" stroke-width="4" stroke-miterlimit="10"/>
<path d="M14.0625 42.1875C14.0625 43.8451 13.404 45.4348 12.2319 46.6069C11.0598 47.779 9.4701 48.4375 7.8125 48.4375C6.1549 48.4375 4.56519 47.779 3.39308 46.6069C2.22098 45.4348 1.5625 43.8451 1.5625 42.1875V7.8125H14.0625V42.1875Z" stroke="white" stroke-width="4" stroke-miterlimit="10"/>
<path d="M42.1875 7.8125H20.3125M42.1875 32.8125H20.3125M42.1875 39.0625H20.3125M26.5625 14.0625H21.875M26.5625 20.3125H20.3125M26.5625 26.5625H20.3125M32.8125 14.0625H42.1875V26.5625H32.8125V14.0625Z" stroke="white" stroke-width="4" stroke-miterlimit="10"/>
</g>
<defs>
<clipPath id="clip0_3833_282">
<rect width="50" height="50" fill="white"/>
</clipPath>
</defs>
</svg>
