<svg width="30" height="30" viewBox="0 0 30 30" fill="none" xmlns="http://www.w3.org/2000/svg">
<g clip-path="url(#clip0_3832_142)">
<path d="M3.75 6.09375C4.00888 6.09375 4.21875 5.88388 4.21875 5.625C4.21875 5.36612 4.00888 5.15625 3.75 5.15625C3.49112 5.15625 3.28125 5.36612 3.28125 5.625C3.28125 5.88388 3.49112 6.09375 3.75 6.09375Z" stroke="#0E619D" stroke-width="2" stroke-linecap="round" stroke-linejoin="round"/>
<path d="M7.03125 6.09375C7.29013 6.09375 7.5 5.88388 7.5 5.625C7.5 5.36612 7.29013 5.15625 7.03125 5.15625C6.77237 5.15625 6.5625 5.36612 6.5625 5.625C6.5625 5.88388 6.77237 6.09375 7.03125 6.09375Z" stroke="#0E619D" stroke-width="2" stroke-linecap="round" stroke-linejoin="round"/>
<path d="M10.3125 6.09375C10.5714 6.09375 10.7812 5.88388 10.7812 5.625C10.7812 5.36612 10.5714 5.15625 10.3125 5.15625C10.0536 5.15625 9.84375 5.36612 9.84375 5.625C9.84375 5.88388 10.0536 6.09375 10.3125 6.09375Z" stroke="#0E619D" stroke-width="2" stroke-linecap="round" stroke-linejoin="round"/>
<path d="M25.3125 8.4375V2.8125H0.9375V8.4375M25.3125 8.4375H0.9375M25.3125 8.4375V15.4688M0.9375 8.4375V23.4375H15.4688" stroke="#0E619D" stroke-width="2" stroke-linecap="round" stroke-linejoin="round"/>
<path d="M22.0312 22.5C23.3257 22.5 24.375 21.4507 24.375 20.1562C24.375 18.8618 23.3257 17.8125 22.0312 17.8125C20.7368 17.8125 19.6875 18.8618 19.6875 20.1562C19.6875 21.4507 20.7368 22.5 22.0312 22.5Z" stroke="#0E619D" stroke-width="2" stroke-linecap="round" stroke-linejoin="round"/>
<path d="M29.0625 22.0312L27.4687 21.0938C27.5293 20.7691 27.5607 20.4396 27.5625 20.1094C27.5663 19.7478 27.5349 19.3867 27.4687 19.0312L28.9219 18.2812L27.0469 15.0469L25.5937 15.8906C25.0312 15.4219 24.375 15 23.9062 15V13.125H20.1562V15C19.4806 15.107 18.8479 15.3991 18.3281 15.8437L16.875 15L15 18.2812L16.4062 19.0781C16.3395 19.4335 16.3081 19.7947 16.3125 20.1562C16.3145 20.4865 16.3459 20.8159 16.4062 21.1406L14.8594 22.0312L16.7344 25.2656L18.2812 24.4219C18.8127 24.8851 19.4614 25.1932 20.1562 25.3125V27.1875H23.9062V25.3125C24.375 25.3125 25.0781 24.8438 25.6406 24.375L27.1875 25.3125L29.0625 22.0312Z" stroke="#0E619D" stroke-width="2" stroke-linecap="round" stroke-linejoin="round"/>
</g>
<defs>
<clipPath id="clip0_3832_142">
<rect width="30" height="30" fill="white"/>
</clipPath>
</defs>
</svg>
