<svg width="50" height="50" viewBox="0 0 50 50" fill="none" xmlns="http://www.w3.org/2000/svg">
<g clip-path="url(#clip0_3833_275)">
<path d="M45.7812 38.3594C45.8822 37.8183 45.9345 37.2692 45.9375 36.7188C45.9438 36.1161 45.8914 35.5144 45.7812 34.9219L48.2031 33.5938L45.0781 28.2031L42.7344 29.6094C41.8422 28.9241 40.8719 28.3472 39.8437 27.8906V25H33.5937V27.8906C32.4688 28.1455 31.4394 28.7144 30.625 29.5312L28.2031 28.125L25 33.5938L27.3437 34.9219C27.2326 35.5142 27.1802 36.1161 27.1875 36.7188C27.1909 37.2692 27.2432 37.8182 27.3437 38.3594L24.7656 39.8438L27.8906 45.2344L30.5469 43.75C31.3763 44.6198 32.4312 45.2419 33.5937 45.5469V48.4375H39.8437V45.5469C40.8995 45.0648 41.8958 44.4618 42.8125 43.75L45.3125 45.3125L48.4375 39.8438L45.7812 38.3594ZM36.5625 40.625C35.7899 40.625 35.0347 40.3959 34.3923 39.9667C33.7499 39.5375 33.2493 38.9274 32.9536 38.2136C32.6579 37.4998 32.5806 36.7144 32.7313 35.9567C32.882 35.1989 33.2541 34.5029 33.8004 33.9566C34.3467 33.4103 35.0427 33.0383 35.8004 32.8876C36.5582 32.7368 37.3436 32.8142 38.0574 33.1098C38.7711 33.4055 39.3812 33.9062 39.8104 34.5486C40.2397 35.1909 40.4687 35.9462 40.4687 36.7188C40.4687 37.7548 40.0572 38.7483 39.3246 39.4809C38.5921 40.2134 37.5985 40.625 36.5625 40.625Z" stroke="white" stroke-width="4" stroke-linecap="round" stroke-linejoin="round"/>
<path d="M26.1719 39.0625H3.125C2.7106 39.0625 2.31317 38.8979 2.02015 38.6049C1.72712 38.3118 1.5625 37.9144 1.5625 37.5V3.125C1.5625 2.7106 1.72712 2.31317 2.02015 2.02015C2.31317 1.72712 2.7106 1.5625 3.125 1.5625H40.625C41.0394 1.5625 41.4368 1.72712 41.7299 2.02015C42.0229 2.31317 42.1875 2.7106 42.1875 3.125V29.2188M35.9375 20.3125H23.4375M35.9375 7.8125H23.4375" stroke="white" stroke-width="4" stroke-linecap="round" stroke-linejoin="round"/>
<path d="M8.59375 8.59375C9.02522 8.59375 9.375 8.24397 9.375 7.8125C9.375 7.38103 9.02522 7.03125 8.59375 7.03125C8.16228 7.03125 7.8125 7.38103 7.8125 7.8125C7.8125 8.24397 8.16228 8.59375 8.59375 8.59375Z" stroke="white" stroke-width="4" stroke-linecap="round" stroke-linejoin="round"/>
<path d="M8.59375 21.0938C9.02522 21.0938 9.375 20.744 9.375 20.3125C9.375 19.881 9.02522 19.5312 8.59375 19.5312C8.16228 19.5312 7.8125 19.881 7.8125 20.3125C7.8125 20.744 8.16228 21.0938 8.59375 21.0938Z" stroke="white" stroke-width="4" stroke-linecap="round" stroke-linejoin="round"/>
<path d="M8.59375 33.5938C9.02522 33.5938 9.375 33.244 9.375 32.8125C9.375 32.381 9.02522 32.0312 8.59375 32.0312C8.16228 32.0312 7.8125 32.381 7.8125 32.8125C7.8125 33.244 8.16228 33.5938 8.59375 33.5938Z" stroke="white" stroke-width="4" stroke-linecap="round" stroke-linejoin="round"/>
<path d="M42.1875 14.0625H1.5625M33.5938 26.5625H1.5625" stroke="white" stroke-width="4" stroke-linecap="round" stroke-linejoin="round"/>
</g>
<defs>
<clipPath id="clip0_3833_275">
<rect width="50" height="50" fill="white"/>
</clipPath>
</defs>
</svg>
