<svg width="30" height="30" viewBox="0 0 30 30" fill="none" xmlns="http://www.w3.org/2000/svg">
<g clip-path="url(#clip0_3833_158)">
<path d="M16.8281 19.2192C15.2813 18.7504 15 17.8598 15 17.3442V16.4067C15.931 15.5187 16.5827 14.3784 16.875 13.1254C18.0469 13.1254 18.75 11.7192 18.75 10.3129C18.75 9.93792 18.75 8.43792 17.8125 8.43792C20.1562 1.64105 13.3125 -0.937075 8.4375 2.34417C6.375 2.34417 5.8125 5.43792 6.5625 8.43792C5.625 8.43792 5.625 9.93792 5.625 10.3129C5.625 11.7192 6.32812 13.1254 7.5 13.1254C7.79486 14.3774 8.44611 15.517 9.375 16.4067V17.3442C9.375 18.0942 9.14062 19.0317 5.34375 19.7817C1.54687 20.5317 0.9375 23.9067 0.9375 23.9067H16.0781" stroke="#0E619D" stroke-width="2" stroke-miterlimit="10"/>
<path d="M22.5 29.0625C26.1244 29.0625 29.0625 26.1244 29.0625 22.5C29.0625 18.8756 26.1244 15.9375 22.5 15.9375C18.8756 15.9375 15.9375 18.8756 15.9375 22.5C15.9375 26.1244 18.8756 29.0625 22.5 29.0625Z" stroke="#0E619D" stroke-width="2" stroke-miterlimit="10"/>
<path d="M19.6875 22.5H25.3125M22.5 25.3125V19.6875" stroke="#0E619D" stroke-width="2" stroke-miterlimit="10"/>
</g>
<defs>
<clipPath id="clip0_3833_158">
<rect width="30" height="30" fill="white"/>
</clipPath>
</defs>
</svg>
