<svg width="50" height="50" viewBox="0 0 50 50" fill="none" xmlns="http://www.w3.org/2000/svg">
<g clip-path="url(#clip0_3833_266)">
<path d="M26.4063 21.5633C27.2234 21.7708 28.0632 21.8758 28.9063 21.8758H32.8125V27.3445L38.75 21.8758C41.4436 21.8136 44.0022 20.6839 45.8629 18.7353C47.7236 16.7867 48.734 14.1787 48.6719 11.4851C48.6097 8.79152 47.4801 6.23293 45.5315 4.37222C43.5828 2.51151 40.9749 1.50109 38.2813 1.56325H28.9063C27.2342 1.56325 25.5881 1.97605 24.1139 2.765C22.6398 3.55394 21.3832 4.69464 20.4557 6.08583C19.5283 7.47702 18.9586 9.07567 18.7974 10.7399C18.6361 12.4041 18.8882 14.0824 19.5313 15.6258" stroke="white" stroke-width="4" stroke-linecap="round" stroke-linejoin="round"/>
<path d="M33.5938 12.5C34.0252 12.5 34.375 12.1502 34.375 11.7188C34.375 11.2873 34.0252 10.9375 33.5938 10.9375C33.1623 10.9375 32.8125 11.2873 32.8125 11.7188C32.8125 12.1502 33.1623 12.5 33.5938 12.5Z" stroke="white" stroke-width="4" stroke-linecap="round" stroke-linejoin="round"/>
<path d="M27.3438 12.5C27.7752 12.5 28.125 12.1502 28.125 11.7188C28.125 11.2873 27.7752 10.9375 27.3438 10.9375C26.9123 10.9375 26.5625 11.2873 26.5625 11.7188C26.5625 12.1502 26.9123 12.5 27.3438 12.5Z" stroke="white" stroke-width="4" stroke-linecap="round" stroke-linejoin="round"/>
<path d="M39.8438 12.5C40.2752 12.5 40.625 12.1502 40.625 11.7188C40.625 11.2873 40.2752 10.9375 39.8438 10.9375C39.4123 10.9375 39.0625 11.2873 39.0625 11.7188C39.0625 12.1502 39.4123 12.5 39.8438 12.5Z" stroke="white" stroke-width="4" stroke-linecap="round" stroke-linejoin="round"/>
<path d="M29.2188 42.4219C22.8125 41.3281 23.4375 39.6875 23.4375 38.5938V36.6406C24.4615 35.6026 25.2659 34.3689 25.8028 33.0132C26.3397 31.6576 26.598 30.2077 26.5625 28.75V23.5156C26.5625 17.8125 22.4219 15.625 18.75 15.625C15.0781 15.625 10.9375 17.8125 10.9375 23.5156V28.75C10.9076 30.2138 11.1763 31.6684 11.727 33.025C12.2777 34.3816 13.0989 35.6118 14.1406 36.6406V38.5938C14.1406 39.6875 14.6875 41.3281 8.35937 42.4219C2.03125 43.5156 1.5625 46.875 1.5625 48.4375H35.9375C35.9375 46.875 34.9219 43.4375 29.2188 42.4219Z" stroke="white" stroke-width="4" stroke-linecap="round" stroke-linejoin="round"/>
</g>
<defs>
<clipPath id="clip0_3833_266">
<rect width="50" height="50" fill="white"/>
</clipPath>
</defs>
</svg>
