<svg width="50" height="50" viewBox="0 0 50 50" fill="none" xmlns="http://www.w3.org/2000/svg">
<g clip-path="url(#clip0_3833_242)">
<path d="M23.0469 44.5313C18.7977 44.5313 14.6439 43.2712 11.1108 40.9105C7.57772 38.5498 4.82401 35.1944 3.19791 31.2686C1.57181 27.3428 1.14635 23.0231 1.97533 18.8555C2.80431 14.6879 4.85049 10.8598 7.85514 7.85514C10.8598 4.85049 14.6879 2.80431 18.8555 1.97533C23.0231 1.14635 27.3428 1.57181 31.2686 3.19791C35.1944 4.82401 38.5498 7.57772 40.9105 11.1108C43.2712 14.6439 44.5313 18.7977 44.5313 23.0469M23.0469 35.5469C20.5746 35.5469 18.1579 34.8138 16.1023 33.4403C14.0466 32.0667 12.4445 30.1145 11.4984 27.8304C10.5523 25.5464 10.3048 23.033 10.7871 20.6083C11.2694 18.1835 12.4599 15.9562 14.2081 14.2081C15.9562 12.4599 18.1835 11.2694 20.6083 10.7871C23.033 10.3048 25.5464 10.5523 27.8304 11.4984C30.1145 12.4445 32.0667 14.0466 33.4403 16.1023C34.8138 18.1579 35.5469 20.5746 35.5469 23.0469" stroke="white" stroke-width="4" stroke-miterlimit="10"/>
<path d="M23.0469 26.1719C24.7728 26.1719 26.1719 24.7728 26.1719 23.0469C26.1719 21.321 24.7728 19.9219 23.0469 19.9219C21.321 19.9219 19.9219 21.321 19.9219 23.0469C19.9219 24.7728 21.321 26.1719 23.0469 26.1719Z" stroke="white" stroke-width="4" stroke-miterlimit="10"/>
<path d="M48.4375 48.4375L29.6094 29.6094M29.6094 29.6094L43.125 30.8594M29.6094 29.6094L30.7031 43.2031" stroke="white" stroke-width="4" stroke-miterlimit="10"/>
</g>
<defs>
<clipPath id="clip0_3833_242">
<rect width="50" height="50" fill="white"/>
</clipPath>
</defs>
</svg>
