<svg width="30" height="30" viewBox="0 0 30 30" fill="none" xmlns="http://www.w3.org/2000/svg">
<g clip-path="url(#clip0_3833_169)">
<path d="M21.5625 15.4688H23.9062C24.2686 15.4371 24.6081 15.2787 24.8653 15.0216C25.1225 14.7644 25.2808 14.4248 25.3125 14.0625V10.7812C25.2808 10.4189 25.1225 10.0794 24.8653 9.82219C24.6081 9.56501 24.2686 9.40668 23.9062 9.375H21.5625M7.96875 9.375H5.625C5.26268 9.40668 4.92311 9.56501 4.66594 9.82219C4.40876 10.0794 4.25043 10.4189 4.21875 10.7812V14.0625C4.25043 14.4248 4.40876 14.7644 4.66594 15.0216C4.92311 15.2787 5.26268 15.4371 5.625 15.4688H8.53125" stroke="#0E619D" stroke-width="2" stroke-miterlimit="10"/>
<path d="M11.9062 19.8281C9.70312 18.4687 7.96875 15.5625 7.96875 12.1875V7.5C7.96875 2.625 11.625 0.9375 14.7187 0.9375C17.8125 0.9375 21.5625 2.625 21.5625 7.5V15C21.5625 16.875 19.6875 18.2812 18.2812 18.2812" stroke="#0E619D" stroke-width="2" stroke-miterlimit="10"/>
<path d="M11.25 19.3594V20.625C11.25 21.5625 11.4375 22.9688 6.28125 23.9062C4.97905 24.1376 3.77528 24.7516 2.82352 25.6699C1.87176 26.5883 1.21516 27.7694 0.9375 29.0625H28.5938C28.287 27.7674 27.6092 26.5899 26.6434 25.674C25.6777 24.7582 24.4658 24.1439 23.1563 23.9062C18.1406 22.9688 18.2812 21.5625 18.2812 20.625V18.2812" stroke="#0E619D" stroke-width="2" stroke-miterlimit="10"/>
<path d="M18.2812 18.2812C18.2812 17.9083 18.1331 17.5506 17.8694 17.2869C17.6056 17.0232 17.248 16.875 16.875 16.875H15.9375C15.5645 16.875 15.2069 17.0232 14.9431 17.2869C14.6794 17.5506 14.5313 17.9083 14.5312 18.2812C14.5313 18.6542 14.6794 19.0119 14.9431 19.2756C15.2069 19.5393 15.5645 19.6875 15.9375 19.6875H16.875C17.248 19.6875 17.6056 19.5393 17.8694 19.2756C18.1331 19.0119 18.2812 18.6542 18.2812 18.2812Z" stroke="#0E619D" stroke-width="2" stroke-miterlimit="10"/>
<path d="M10.0312 22.7344L14.7187 28.5938L19.5 22.7344M7.96875 8.4375C13.5938 8.4375 13.5938 4.6875 17.3438 4.6875C21.0938 4.6875 21.5625 7.96875 21.5625 7.96875" stroke="#0E619D" stroke-width="2" stroke-miterlimit="10"/>
</g>
<defs>
<clipPath id="clip0_3833_169">
<rect width="30" height="30" fill="white"/>
</clipPath>
</defs>
</svg>
