<svg width="50" height="50" viewBox="0 0 50 50" fill="none" xmlns="http://www.w3.org/2000/svg">
<g clip-path="url(#clip0_3833_258)">
<path d="M25 35.9375C28.0203 35.9375 30.4688 33.4891 30.4688 30.4688C30.4688 27.4484 28.0203 25 25 25C21.9797 25 19.5312 27.4484 19.5312 30.4688C19.5312 33.4891 21.9797 35.9375 25 35.9375Z" stroke="white" stroke-width="4" stroke-miterlimit="10"/>
<path d="M25 35.9375C22.5199 35.9579 20.1472 36.9522 18.3934 38.7059C16.6397 40.4597 15.6454 42.8324 15.625 45.3125V46.875H34.375V45.3125C34.3546 42.8324 33.3603 40.4597 31.6066 38.7059C29.8528 36.9522 27.4801 35.9579 25 35.9375Z" stroke="white" stroke-width="4" stroke-miterlimit="10"/>
<path d="M40.625 12.5C43.2138 12.5 45.3125 10.4013 45.3125 7.8125C45.3125 5.22367 43.2138 3.125 40.625 3.125C38.0362 3.125 35.9375 5.22367 35.9375 7.8125C35.9375 10.4013 38.0362 12.5 40.625 12.5Z" stroke="white" stroke-width="4" stroke-miterlimit="10"/>
<path d="M48.4375 21.875C48.4375 16.0156 44.9219 12.5 40.625 12.5C36.3281 12.5 32.8125 16.0156 32.8125 21.875H48.4375Z" stroke="white" stroke-width="4" stroke-miterlimit="10"/>
<path d="M9.375 12.5C11.9638 12.5 14.0625 10.4013 14.0625 7.8125C14.0625 5.22367 11.9638 3.125 9.375 3.125C6.78617 3.125 4.6875 5.22367 4.6875 7.8125C4.6875 10.4013 6.78617 12.5 9.375 12.5Z" stroke="white" stroke-width="4" stroke-miterlimit="10"/>
<path d="M17.1875 21.875C17.1875 16.0156 13.6719 12.5 9.375 12.5C5.07812 12.5 1.5625 16.0156 1.5625 21.875H17.1875Z" stroke="white" stroke-width="4" stroke-miterlimit="10"/>
<path d="M9.375 26.5625L15.625 32.8125M40.625 26.5625L34.375 32.8125M18.75 10.9375H31.25" stroke="white" stroke-width="4" stroke-miterlimit="10"/>
</g>
<defs>
<clipPath id="clip0_3833_258">
<rect width="50" height="50" fill="white"/>
</clipPath>
</defs>
</svg>
