<svg width="30" height="30" viewBox="0 0 30 30" fill="none" xmlns="http://www.w3.org/2000/svg">
<g clip-path="url(#clip0_3833_154)">
<path d="M7.5 22.5V3.75C7.5 3.00408 7.79632 2.28871 8.32376 1.76126C8.85121 1.23382 9.56658 0.9375 10.3125 0.9375H26.25" stroke="#0E619D" stroke-width="2" stroke-miterlimit="10"/>
<path d="M23.4375 5.625H29.0625V3.75C29.0625 3.00408 28.7662 2.28871 28.2387 1.76126C27.7113 1.23382 26.9959 0.9375 26.25 0.9375C25.5041 0.9375 24.7887 1.23382 24.2613 1.76126C23.7338 2.28871 23.4375 3.00408 23.4375 3.75V24.375C23.4375 25.6182 22.9436 26.8105 22.0646 27.6896C21.1855 28.5686 19.9932 29.0625 18.75 29.0625M18.75 29.0625C17.5068 29.0625 16.3145 28.5686 15.4354 27.6896C14.5564 26.8105 14.0625 25.6182 14.0625 24.375V22.5H0.9375V24.375C0.9375 25.6182 1.43136 26.8105 2.31044 27.6896C2.74571 28.1248 3.26246 28.4701 3.83117 28.7057C4.39988 28.9413 5.00943 29.0625 5.625 29.0625H18.75Z" stroke="#0E619D" stroke-width="2" stroke-miterlimit="10"/>
<path d="M11.25 5.625H18.75M11.25 13.125H18.75M11.25 9.375H16.875M11.25 16.875H16.875" stroke="#0E619D" stroke-width="2" stroke-miterlimit="10"/>
</g>
<defs>
<clipPath id="clip0_3833_154">
<rect width="30" height="30" fill="white"/>
</clipPath>
</defs>
</svg>
