<svg width="50" height="50" viewBox="0 0 50 50" fill="none" xmlns="http://www.w3.org/2000/svg">
<g clip-path="url(#clip0_3396_376)">
<path fill-rule="evenodd" clip-rule="evenodd" d="M34.4438 29.8375L34.3167 31.25H43.2833C43.5875 29.9104 43.75 28.5146 43.75 27.0833L43.7417 26.5771L45.7979 23.3271L47.15 21.1938C47.65 23.0729 47.9167 25.0479 47.9167 27.0833C47.9167 39.7312 37.6479 50 25 50C19.4958 50 14.4437 48.0562 10.4917 44.8187C11.7771 44.1646 12.8917 43.225 13.75 42.0812C15.6062 43.475 17.7292 44.5354 20.0271 45.1667L19.8521 44.8333C18.7188 42.6562 17.7812 40.3792 17.0687 38.0312L16.9417 37.5979L20.7896 35.8917C20.9583 36.5146 21.1458 37.1333 21.3521 37.7479C22.0875 39.9521 23.05 42.0792 24.1958 44.1C24.4542 44.5562 24.7229 45.0042 25 45.4479C25.5125 44.6167 26 43.7729 26.45 42.9083C27.4646 40.9604 28.3042 38.925 28.9417 36.8229C29.0833 36.3583 29.2146 35.8896 29.3354 35.4167H21.8625L34.4438 29.8375ZM41.7979 35.4167H33.6187C33.3417 36.65 33 37.8687 32.6 39.0687C31.8958 41.1708 31.0125 43.2104 29.9708 45.1667C35.1562 43.7417 39.4458 40.1437 41.7979 35.4167ZM40.1021 19.3521C36.9333 14.3292 34.7208 10.5354 34.7208 7.25833C34.7208 3.25 38.3521 0 42.3604 0C46.3708 0 50 3.25 50 7.25833C50 11.2667 46.6875 16.0521 42.3604 22.9167L42.3562 22.9104L12.4979 36.15L12.5 36.3042C12.5 39.7542 9.69792 42.5542 6.25 42.5542C2.8 42.5542 0 39.7542 0 36.3042C0 32.8542 2.8 30.0542 6.25 30.0542C8.15417 30.0542 9.86042 30.9083 11.0062 32.2521L40.1021 19.3521ZM6.71458 22.9167C6.41875 24.2146 6.26042 25.5646 6.25 26.95V27.0833C4.76042 27.0833 3.35208 27.4312 2.10208 28.05L2.08333 27.0833C2.08333 14.4354 12.3521 4.16667 25 4.16667C27.3729 4.16667 29.6625 4.52917 31.8167 5.2C31.7292 5.60625 31.6667 6.02083 31.6312 6.43542C31.5396 7.5125 31.6333 8.57917 31.85 9.62708C31.2167 9.37708 30.5667 9.1625 29.9021 8.98125L30.2833 9.72917C31.4875 12.1396 32.4667 14.6667 33.1792 17.2667L33.5667 18.8292L24.4083 22.9167H19.9187C19.8271 23.6083 19.7562 24.3042 19.7083 25L15.4646 26.8812C15.4792 25.5562 15.5646 24.2333 15.7188 22.9167H6.71458ZM20.0958 8.98125C14.8812 10.3937 10.5625 14.0021 8.2 18.75H16.4458C16.6417 17.9 16.8667 17.0583 17.1208 16.2229C17.8792 13.7208 18.8854 11.2979 20.0958 8.98125ZM24.9979 8.76458C24.4458 9.6875 23.9229 10.6271 23.4438 11.5896C22.3604 13.7583 21.4792 16.0271 20.8396 18.3667L20.7354 18.75H29.2625C29.1187 18.2042 28.9625 17.6604 28.7937 17.1229C28.0625 14.7875 27.0917 12.5292 25.925 10.3792C25.6292 9.83333 25.3187 9.29583 24.9979 8.76458ZM42.3604 10.5042C40.7792 10.5042 39.4958 9.22083 39.4958 7.63958C39.4958 6.05625 40.7792 4.775 42.3604 4.775C43.9417 4.775 45.225 6.05625 45.225 7.63958C45.225 9.22083 43.9417 10.5042 42.3604 10.5042Z" fill="white"/>
</g>
<defs>
<clipPath id="clip0_3396_376">
<rect width="50" height="50" fill="white"/>
</clipPath>
</defs>
</svg>
