<svg width="50" height="50" viewBox="0 0 50 50" fill="none" xmlns="http://www.w3.org/2000/svg">
<g clip-path="url(#clip0_3396_390)">
<path d="M50 29.5562V20.4437C45.525 18.8479 44.3208 18.7729 43.6937 17.2583C43.0625 15.7396 43.8667 14.8229 45.9 10.5437L39.4562 4.1C35.2354 6.10625 34.2729 6.94167 32.7396 6.30625C31.225 5.67708 31.1396 4.45417 29.5583 0H20.4437C18.8521 4.46667 18.7771 5.67708 17.2583 6.30625C15.6917 6.95833 14.7521 6.09792 10.5437 4.1L4.1 10.5437C6.13542 14.825 6.9375 15.7375 6.30625 17.2604C5.67708 18.775 4.47083 18.8521 0 20.4437V29.5583C4.45625 31.1417 5.67708 31.225 6.30625 32.7417C6.93958 34.2708 6.1375 35.1729 4.1 39.4562L10.5437 45.9C14.7083 43.9208 15.6896 43.0396 17.2583 43.6937C18.775 44.3229 18.85 45.5271 20.4437 50H29.5562C31.1354 45.5604 31.2208 44.3271 32.7583 43.6854C34.3104 43.0437 35.2292 43.8917 39.4562 45.8979L45.9 39.4542C43.8687 35.1833 43.0625 34.2625 43.6937 32.7396C44.3187 31.2271 45.5271 31.15 50 29.5562ZM39.8438 31.1479C38.6417 34.0521 39.7021 36.2687 40.8604 38.6021L38.6021 40.8604C36.325 39.7292 34.1 38.6187 31.1583 39.8396C28.25 41.05 27.4292 43.3667 26.6 45.8333H23.4042C22.575 43.3646 21.7562 41.0479 18.8562 39.8438C15.9 38.6187 13.6333 39.75 11.4 40.8604L9.14375 38.6021C10.3042 36.2729 11.3646 34.0604 10.1583 31.1437C8.95208 28.2458 6.63542 27.4271 4.16667 26.5979V23.4042C6.63542 22.575 8.95208 21.7563 10.1562 18.8542C11.3604 15.95 10.2979 13.7312 9.13958 11.3979L11.3979 9.13958C13.6521 10.2604 15.9021 11.3833 18.8562 10.1562C21.7562 8.95417 22.575 6.63542 23.4042 4.16667H26.6C27.4292 6.63542 28.25 8.95208 31.15 10.1562C34.1062 11.3812 36.3708 10.25 38.6062 9.13958L40.8646 11.3979C39.7062 13.7333 38.6458 15.9542 39.8479 18.8562C41.05 21.7542 43.3667 22.5729 45.8375 23.4042V26.6C43.3625 27.4292 41.0417 28.2479 39.8438 31.1479ZM25 18.75C28.4458 18.75 31.25 21.5542 31.25 25C31.25 28.4458 28.4458 31.25 25 31.25C21.5542 31.25 18.75 28.4458 18.75 25C18.75 21.5542 21.5542 18.75 25 18.75ZM25 14.5833C19.2458 14.5833 14.5833 19.2458 14.5833 25C14.5833 30.7542 19.2458 35.4167 25 35.4167C30.7542 35.4167 35.4167 30.7542 35.4167 25C35.4167 19.2458 30.7542 14.5833 25 14.5833Z" fill="white"/>
</g>
<defs>
<clipPath id="clip0_3396_390">
<rect width="50" height="50" fill="white"/>
</clipPath>
</defs>
</svg>
