<svg width="50" height="50" viewBox="0 0 50 50" fill="none" xmlns="http://www.w3.org/2000/svg">
<path d="M35.4141 12.5H22.9141V10.4167H35.4141V12.5ZM35.4141 16.6667H22.9141V18.75H35.4141V16.6667ZM35.4141 22.9167H22.9141V25H35.4141V22.9167ZM45.8307 0V29.9708C45.8307 34.9521 31.9807 50 25.3911 50H4.16406V0H45.8307ZM12.4974 37.5C12.4974 36.35 11.5661 35.4167 10.4141 35.4167C9.26198 35.4167 8.33073 36.35 8.33073 37.5C8.33073 38.65 9.26198 39.5833 10.4141 39.5833C11.5661 39.5833 12.4974 38.65 12.4974 37.5ZM12.4974 12.5C12.4974 11.35 11.5661 10.4167 10.4141 10.4167C9.26198 10.4167 8.33073 11.35 8.33073 12.5C8.33073 13.65 9.26198 14.5833 10.4141 14.5833C11.5661 14.5833 12.4974 13.65 12.4974 12.5ZM41.6641 4.16667H16.6641V45.8333H23.6682C32.3266 45.8333 29.1641 33.3333 29.1641 33.3333C29.1641 33.3333 41.6641 36.7708 41.6641 28.2146V4.16667Z" fill="#0E619D"/>
</svg>
