<svg width="50" height="50" viewBox="0 0 50 50" fill="none" xmlns="http://www.w3.org/2000/svg">
<path d="M4.50614 21.2516C4.62073 20.6308 5.32489 19.7224 6.45198 20.0224C7.23739 20.2349 7.72698 21.0141 7.58323 21.8141C7.42281 22.9162 7.28948 23.5912 7.28948 24.9995C7.28948 34.312 14.7916 42.6974 25.002 42.6974C29.5291 42.6974 33.8374 40.9474 37.0686 37.9391L34.4624 37.2287C33.6311 37.0058 33.1374 36.1474 33.3582 35.3141C33.5832 34.4808 34.4416 33.987 35.2728 34.2099L41.9916 36.0099C42.8228 36.2349 43.3186 37.0912 43.0957 37.9245L41.2728 44.6766C41.0499 45.5079 40.1916 46.0016 39.3582 45.7808C38.527 45.5579 38.0291 44.7016 38.2541 43.8683L39.2478 40.1808C35.4374 43.7454 30.352 45.8224 25.002 45.8224C12.8166 45.8224 4.23531 35.8224 4.16448 25.1349C4.15823 24.1495 4.22073 22.8037 4.50614 21.2516ZM15.7478 27.2037L21.8395 32.4183C22.1353 32.6849 22.5082 32.8141 22.8791 32.8141C23.2999 32.8141 23.7228 32.6454 24.0291 32.3099L34.3478 20.8329C34.6207 20.5349 34.7561 20.1599 34.7561 19.787C34.7561 18.9329 34.0666 18.2308 33.1978 18.2308C32.7728 18.2308 32.3541 18.4016 32.0436 18.737L22.7666 29.0745L17.827 24.8849C17.527 24.6204 17.1582 24.4891 16.7874 24.4891C15.9228 24.4891 15.2291 25.187 15.2291 26.0433C15.2291 26.4704 15.4041 26.8954 15.7478 27.2037ZM45.4895 28.7516C45.377 29.3724 44.6728 30.2808 43.5457 29.9808C42.7582 29.7683 42.2666 28.9891 42.4145 28.1891C42.5561 27.1891 42.7041 26.4224 42.7041 25.0016C42.7041 15.6704 35.1853 7.3037 24.9957 7.3037C20.4686 7.3037 16.1603 9.05578 12.9249 12.0641L15.5311 12.7745C16.3645 12.9974 16.8603 13.8537 16.6374 14.687C16.4124 15.5204 15.5561 16.0141 14.7228 15.7912L8.00406 13.9912C7.17073 13.7683 6.67698 12.912 6.89989 12.0787L8.72281 5.32661C8.94573 4.49328 9.80197 3.99745 10.6353 4.22036C11.4686 4.44536 11.9645 5.29953 11.7416 6.13495L10.7457 9.82036C14.5582 6.25578 19.6457 4.1787 24.9936 4.1787C37.2124 4.1787 45.8311 14.2412 45.8311 25.0016C45.8311 26.5099 45.6624 27.8266 45.4895 28.7516Z" fill="white"/>
</svg>
