<svg width="50" height="50" viewBox="0 0 50 50" fill="none" xmlns="http://www.w3.org/2000/svg">
<path d="M8.33333 12.4998V45.8332H50V12.4998H8.33333ZM29.1667 39.5832C23.4146 39.5832 18.75 34.9186 18.75 29.1665C18.75 23.4144 23.4146 18.7498 29.1667 18.7498C34.9187 18.7498 39.5833 23.4144 39.5833 29.1665C39.5833 34.9186 34.9187 39.5832 29.1667 39.5832ZM29.775 35.179V36.4582H28.5583V35.2457C27.3021 35.2248 25.9979 34.9248 24.9125 34.3623L25.4667 32.3665C26.6292 32.8165 28.175 33.2936 29.3854 33.0228C30.7833 32.7061 31.0708 31.2686 29.5271 30.5748C28.3958 30.0519 24.9333 29.5978 24.9333 26.6353C24.9333 24.979 26.1937 23.4936 28.5583 23.1707V21.8748H29.775V23.1103C30.6542 23.1332 31.6417 23.2873 32.7458 23.6228L32.3042 25.6228C31.3708 25.2978 30.3396 24.9978 29.3354 25.0603C27.5271 25.1665 27.3646 26.7332 28.6292 27.3894C30.7083 28.3665 33.4229 29.0936 33.4229 31.6978C33.425 33.7853 31.7896 34.8998 29.775 35.179ZM43.75 8.33317H4.16667V39.5832H0V4.1665H43.75V8.33317Z" fill="#0E619D"/>
</svg>
