<svg width="50" height="50" viewBox="0 0 50 50" fill="none" xmlns="http://www.w3.org/2000/svg">
<path d="M45.8307 10.4163C45.8307 9.42051 45.0411 8.33301 43.7474 8.33301H6.2474C4.95573 8.33301 4.16406 9.41426 4.16406 10.4163V39.583C4.16406 40.8768 5.2474 41.6663 6.2474 41.6663H43.7474C44.7432 41.6663 45.8307 40.8768 45.8307 39.583V10.4163ZM32.2891 38.5413H7.28906V17.708H32.2891V38.5413ZM35.4141 38.5413V16.6663C35.4141 15.6705 34.6245 14.583 33.3307 14.583H7.28906V11.458H42.7057V38.5413H35.4141ZM21.8349 28.2434V30.833C21.8349 31.6955 22.5349 32.3955 23.3974 32.3955C24.262 32.3955 24.9599 31.6955 24.9599 30.833C24.9599 29.3434 24.9599 25.9684 24.9599 24.4788C24.9599 23.6163 24.262 22.9163 23.3974 22.9163C21.9099 22.9163 18.5682 22.9163 17.0786 22.9163C16.2161 22.9163 15.5161 23.6163 15.5161 24.4788C15.5161 25.3413 16.2161 26.0413 17.0786 26.0413H19.6182L12.9557 32.7038C12.3453 33.3143 12.3453 34.3038 12.9557 34.9143C13.5641 35.5226 14.5536 35.5226 15.1641 34.9143L21.8349 28.2434Z" fill="white"/>
</svg>
