<svg width="50" height="50" viewBox="0 0 50 50" fill="none" xmlns="http://www.w3.org/2000/svg">
<g clip-path="url(#clip0_3396_388)">
<path d="M12.4974 29.1667H24.9974V16.6667C31.8911 16.6667 37.4974 22.2729 37.4974 29.1667C37.4974 36.0604 31.8911 41.6667 24.9974 41.6667C18.1036 41.6667 12.4974 36.0604 12.4974 29.1667ZM45.8307 29.1667C45.8307 40.6729 36.5016 50 24.9974 50C13.4932 50 4.16406 40.6729 4.16406 29.1667C4.16406 17.6604 13.4932 8.33333 24.9974 8.33333C36.5016 8.33333 45.8307 17.6604 45.8307 29.1667ZM41.6641 29.1667C41.6641 19.9771 34.187 12.5 24.9974 12.5C15.8078 12.5 8.33073 19.9771 8.33073 29.1667C8.33073 38.3562 15.8078 45.8333 24.9974 45.8333C34.187 45.8333 41.6641 38.3562 41.6641 29.1667ZM29.1641 4.54375V0H20.8307V4.54375C23.7641 4.04792 26.1682 4.0375 29.1641 4.54375ZM43.0787 11.9479L45.8307 9.19583L42.8849 6.25L39.9537 9.18125C41.0703 10.0188 42.1161 10.9396 43.0787 11.9479Z" fill="white"/>
</g>
<defs>
<clipPath id="clip0_3396_388">
<rect width="50" height="50" fill="white"/>
</clipPath>
</defs>
</svg>
