<svg width="50" height="50" viewBox="0 0 50 50" fill="none" xmlns="http://www.w3.org/2000/svg">
<g clip-path="url(#clip0_3396_382)">
<path d="M22.9167 12.5V29.1667H37.5V25H27.0833V12.5H22.9167ZM45.5292 28.5062L49.6917 28.8375C49.4167 30.6167 48.9604 32.3292 48.3333 33.9625L44.5833 32.0771C45 30.9292 45.3187 29.7375 45.5292 28.5062ZM40.2208 44.8104L37.2771 41.8042C36.2646 42.5458 35.1812 43.1958 34.0375 43.7479L35.4312 47.7042C37.1417 46.9188 38.7458 45.9458 40.2208 44.8104ZM42.775 35.8333C42.0771 36.9708 41.2771 38.0354 40.3812 39.0167L43.3063 42.0021C44.5208 40.6958 45.5958 39.2604 46.5125 37.7146L42.775 35.8333ZM0 25C0 38.8062 11.1979 50 25.0083 50C27.2604 50 29.4333 49.675 31.5083 49.1167L30.1229 45.1708C28.4833 45.5875 26.775 45.8333 25.0083 45.8333C13.5167 45.8333 4.16875 36.4875 4.16875 25C4.16875 13.5125 13.5167 4.16667 25.0083 4.16667C29.6646 4.16667 33.9521 5.71667 37.4229 8.31042L33.1521 12.5792L47.7667 15.4L44.9437 0.789583L40.3937 5.3375C36.1521 2.00833 30.8208 0 25.0083 0C11.1979 0 0 11.1937 0 25ZM49.5271 20.0854H45.2021C45.5417 21.4625 45.7458 22.8854 45.8021 24.35L50 24.6854C49.9792 23.1125 49.8229 21.5729 49.5271 20.0854Z" fill="white"/>
</g>
<defs>
<clipPath id="clip0_3396_382">
<rect width="50" height="50" fill="white"/>
</clipPath>
</defs>
</svg>
