<svg width="50" height="50" viewBox="0 0 50 50" fill="none" xmlns="http://www.w3.org/2000/svg">
<g clip-path="url(#clip0_3396_342)">
<path fill-rule="evenodd" clip-rule="evenodd" d="M50 39.5833H47.9167V35C44.0562 43.8271 35.2437 50 25 50C11.2021 50 0 38.7979 0 25H2.08333C2.08333 37.6479 12.3521 47.9167 25 47.9167C34.7083 47.9167 43.0146 41.8667 46.3521 33.3333H41.6667V31.25H50V39.5833ZM27.0083 39.5833H23.0792C22.3708 37.5896 22.1687 36.3104 20.6271 35.6708H20.625C19.0771 35.0292 18.0187 35.7979 16.1208 36.7L13.3438 33.9229C14.2333 32.05 15.0188 30.975 14.3729 29.4167C13.7312 27.875 12.4437 27.6687 10.4604 26.9646V23.0354C12.4479 22.3292 13.7312 22.125 14.3729 20.5812C15.0146 19.0333 14.2479 17.9812 13.3438 16.0771L16.1208 13.3C18.0333 14.2083 19.0812 14.9687 20.625 14.3292L20.6271 14.3271C22.1687 13.6875 22.3729 12.4021 23.0792 10.4167H27.0083C27.7167 12.4125 27.9187 13.6875 29.4604 14.3271L29.4625 14.3292C31.0104 14.9708 32.0708 14.2 33.9667 13.3L36.7437 16.0771C35.8375 17.9875 35.075 19.0375 35.7146 20.5792C36.3542 22.1187 37.6208 22.3208 39.6271 23.0354V26.9646C37.6417 27.6687 36.3542 27.875 35.7146 29.4187C35.0729 30.9667 35.8396 32.0208 36.7437 33.9229L33.9667 36.7C32.05 35.7875 31.0083 35.0292 29.4729 35.6667C27.9187 36.3125 27.7146 37.5958 27.0083 39.5833ZM25.0437 29.8604C22.3583 29.8604 20.1833 27.6854 20.1833 25C20.1833 22.3146 22.3583 20.1375 25.0437 20.1375C27.7292 20.1375 29.9042 22.3146 29.9042 25C29.9042 27.6854 27.7292 29.8604 25.0437 29.8604ZM8.33333 18.75H0V10.4167H2.08333V15C5.94375 6.17292 14.7562 0 25 0C38.7979 0 50 11.2021 50 25H47.9167C47.9167 12.3521 37.6479 2.08333 25 2.08333C15.2917 2.08333 6.98542 8.13333 3.64792 16.6667H8.33333V18.75Z" fill="#0E619D"/>
</g>
<defs>
<clipPath id="clip0_3396_342">
<rect width="50" height="50" fill="white"/>
</clipPath>
</defs>
</svg>
