<svg width="50" height="50" viewBox="0 0 50 50" fill="none" xmlns="http://www.w3.org/2000/svg">
<path fill-rule="evenodd" clip-rule="evenodd" d="M45.8354 27.083C45.8354 15.5788 36.5125 6.24759 24.9979 6.24759C13.4917 6.24759 4.1625 15.5788 4.1625 27.083C4.1625 36.0747 10.5937 47.9163 24.9979 47.9163C39.4354 47.9163 45.8354 36.0559 45.8354 27.083ZM24.9979 43.7497C15.8083 43.7497 8.32917 36.2705 8.32917 27.083C8.32917 17.8893 15.8083 10.4143 24.9979 10.4143C34.1896 10.4143 41.6687 17.8893 41.6687 27.083C41.6687 36.2705 34.1896 43.7497 24.9979 43.7497ZM22.3333 29.5476L17.4896 24.9997L14.5833 27.9893L22.3875 35.4163L36.0521 21.683L33.0896 18.7497L22.3333 29.5476ZM1.67083 18.1559C0.55625 16.4393 0 14.4643 0 12.4934C0 6.74967 4.65208 2.08717 10.3979 2.08717C12.3729 2.08717 14.3479 2.64551 16.0667 3.76009C9.45833 6.29551 4.20833 11.5497 1.67083 18.1559ZM39.5896 2.08301C37.6167 2.08301 35.6417 2.64134 33.925 3.75592C40.5292 6.29342 45.7875 11.5455 48.3292 18.1497C49.4417 16.4351 49.9979 14.4622 49.9979 12.4893C49.9979 6.73717 45.3396 2.08301 39.5896 2.08301Z" fill="white"/>
</svg>
