<svg width="50" height="50" viewBox="0 0 50 50" fill="none" xmlns="http://www.w3.org/2000/svg">
<path fill-rule="evenodd" clip-rule="evenodd" d="M8.45319 11.0086C11.1615 11.6607 37.8115 18.8502 48.4532 21.6919C49.3844 21.9648 49.9178 22.7002 49.9907 23.519C50.0094 23.7273 49.9907 23.9315 49.9511 24.1398C48.1532 31.5961 45.9803 38.9627 43.9928 46.3752C43.7157 47.3127 42.9719 47.8377 42.1636 47.9086C41.9532 47.9294 41.7511 47.9127 41.5428 47.8731C28.1282 44.6419 14.8761 40.7523 1.54486 37.1898C0.594856 36.9106 0.0781891 36.1648 0.00735572 35.3627C-0.0113943 35.1544 0.00735572 34.9481 0.0448557 34.744C1.84486 27.2836 4.01777 19.9169 6.00319 12.5065C6.33027 11.4127 7.31777 10.7982 8.45319 11.0086ZM4.63652 33.7023L40.5032 43.2877L45.3594 25.1794C35.3907 22.5148 9.49486 15.5982 9.49486 15.5982C7.87402 21.6315 6.25527 27.669 4.63652 33.7023ZM38.2782 40.9502L38.8157 38.944L33.1553 37.4502L32.6157 39.4607L38.2782 40.9502ZM27.8219 38.1898L29.8344 38.7356L30.7594 35.2815L28.749 34.7356L27.8219 38.1898ZM39.7136 35.4231L40.2532 33.4127L34.5907 31.919L34.049 33.9294L39.7136 35.4231ZM12.7365 28.0502L17.2699 26.2398L13.1032 22.0731L14.5386 21.4981L21.5824 24.5148L25.1761 23.0794C26.1261 22.694 27.6199 22.9377 27.9074 23.6544L27.9553 24.0294C27.8969 24.7336 27.1157 25.6336 26.3261 25.9544L22.7324 27.3877L19.7136 34.4273L18.274 35.0002L18.4199 29.1106L13.8844 30.9211L12.8136 33.0169L11.8053 33.4169L11.7282 30.1148L9.50944 27.6731L10.5136 27.2711L12.7365 28.0502ZM29.2886 32.7211L31.3011 33.2669L32.349 29.3606L30.3344 28.8169L29.2886 32.7211ZM40.6407 31.8169L41.1803 29.8044L35.5157 28.3127L34.9782 30.3231L40.6407 31.8169ZM41.6094 28.1336L42.149 26.1231L36.4865 24.6294L35.9469 26.6419L41.6094 28.1336ZM30.874 26.8044L32.8886 27.3481L33.8136 23.894L31.8011 23.3502L30.874 26.8044ZM14.9553 9.10648C23.8282 6.76273 32.7324 4.52315 41.5969 2.1544C41.8949 2.08148 42.0303 2.08148 42.2199 2.08357C43.1094 2.1419 43.8136 2.64607 44.1199 3.52315C45.5324 8.30857 46.7865 13.1356 48.0365 17.9627L43.3365 16.7044L40.6636 6.7169L23.3344 11.3482L14.9553 9.10648Z" fill="#0E619D"/>
</svg>
