<svg width="41" height="41" viewBox="0 0 41 41" fill="none" xmlns="http://www.w3.org/2000/svg">
<g clip-path="url(#clip0_1482_35)">
<path d="M7.42086 10.0805V36.8265H40.8533V10.0805H7.42086ZM24.1371 31.8116C19.5217 31.8116 15.779 28.0688 15.779 23.4535C15.779 18.8382 19.5217 15.0954 24.1371 15.0954C28.7524 15.0954 32.4952 18.8382 32.4952 23.4535C32.4952 28.0688 28.7524 31.8116 24.1371 31.8116ZM24.6252 28.2778V29.3042H23.649V28.3313C22.641 28.3146 21.5945 28.0739 20.7236 27.6225L21.1683 26.0211C22.101 26.3822 23.3414 26.765 24.3126 26.5477C25.4343 26.2936 25.6649 25.1402 24.4263 24.5835C23.5186 24.1639 20.7403 23.7995 20.7403 21.4225C20.7403 20.0935 21.7517 18.9017 23.649 18.6426V17.6028H24.6252V18.5941C25.3306 18.6125 26.123 18.7362 27.0089 19.0053L26.6545 20.6101C25.9056 20.3493 25.0782 20.1086 24.2725 20.1587C22.8215 20.244 22.6911 21.501 23.7058 22.0276C25.3741 22.8116 27.5522 23.395 27.5522 25.4845C27.5539 27.1595 26.2416 28.0538 24.6252 28.2778ZM35.8384 6.73729H4.07762V31.8116H0.734375V3.39404H35.8384V6.73729Z" fill="#0E619D"/>
</g>
<defs>
<clipPath id="clip0_1482_35">
<rect width="40.1178" height="40.1178" fill="white" transform="translate(0.734375 0.0390625)"/>
</clipPath>
</defs>
</svg>
