<svg width="41" height="41" viewBox="0 0 41 41" fill="none" xmlns="http://www.w3.org/2000/svg">
<g clip-path="url(#clip0_1482_18)">
<path fill-rule="evenodd" clip-rule="evenodd" d="M0.875 37.2258H20.9339V40.569H0.875V37.2258ZM19.2623 35.5543H2.54658C2.54658 33.7072 4.04264 32.2111 5.88973 32.2111H15.9192C17.7663 32.2111 19.2623 33.7072 19.2623 35.5543ZM29.9086 14.0929L26.1542 17.7654C26.1542 17.7654 36.6701 27.0276 39.8144 29.7071C40.6084 30.3841 40.9928 31.26 40.9928 32.1242C40.9928 33.8208 39.5085 35.2768 37.7332 35.1648C36.864 35.1113 36.0934 34.6583 35.5251 33.9997C32.8188 30.8655 23.7071 20.2109 23.7071 20.2109L19.9544 23.8817L10.1639 14.0929L20.1215 4.30248L29.9086 14.0929ZM9.34989 15.6408C9.02393 15.3182 8.58431 15.136 8.12462 15.136C7.66661 15.136 7.22699 15.3182 6.90103 15.6408C6.57842 15.9667 6.39454 16.4064 6.39454 16.866C6.39454 17.3241 6.57842 17.7637 6.90103 18.0896L16.1164 27.3017C16.4407 27.6277 16.8803 27.8099 17.34 27.8099C17.7997 27.8099 18.2393 27.6277 18.5636 27.3017C18.8879 26.9791 19.0701 26.5378 19.0701 26.0781C19.0701 25.6201 18.8879 25.1805 18.5636 24.8562L9.34989 15.6408ZM24.033 0.957659C23.7071 0.633374 23.2674 0.451172 22.8094 0.451172C21.8466 0.451172 21.0793 1.2318 21.0793 2.18125C21.0793 2.64094 21.2599 3.08223 21.5858 3.40485L30.8012 12.6202C31.1255 12.9429 31.5635 13.1267 32.0231 13.1267C32.9793 13.1267 33.7549 12.3511 33.7549 11.3967C33.7549 10.937 33.5727 10.4957 33.2467 10.1731L24.033 0.957659Z" fill="#0E619D"/>
</g>
<defs>
<clipPath id="clip0_1482_18">
<rect width="40.1178" height="40.1178" fill="white" transform="translate(0.875 0.451172)"/>
</clipPath>
</defs>
</svg>
