<svg width="41" height="41" viewBox="0 0 41 41" fill="none" xmlns="http://www.w3.org/2000/svg">
<g clip-path="url(#clip0_1482_12)">
<path d="M36.7771 21.7317V0H3.34375V40.12H17.4008C25.5201 40.12 22.9758 26.7467 22.9758 26.7467C28.0059 27.9921 36.7771 27.4471 36.7771 21.7317ZM30.0904 10.03H10.0304V8.35833H30.0904V10.03ZM30.0904 15.045H10.0304V13.3733H30.0904V15.045ZM30.0904 20.06H10.0304V18.3883H30.0904V20.06ZM26.595 30.4628C30.0169 31.2618 34.6273 29.9964 36.7771 28.4919C34.2796 31.8319 28.0343 38.0338 24.3533 39.9946C26.2857 38.0421 26.9661 32.9168 26.595 30.4628Z" fill="#0E619D"/>
</g>
<defs>
<clipPath id="clip0_1482_12">
<rect width="40.12" height="40.12" fill="white"/>
</clipPath>
</defs>
</svg>
