<svg width="41" height="41" viewBox="0 0 41 41" fill="none" xmlns="http://www.w3.org/2000/svg">
<g clip-path="url(#clip0_1482_30)">
<path d="M28.6827 20.5042C23.1448 20.5042 18.6533 24.9957 18.6533 30.5337C18.6533 36.0716 23.1448 40.5631 28.6827 40.5631C34.2206 40.5631 38.7122 36.0716 38.7122 30.5337C38.7122 24.9957 34.2206 20.5042 28.6827 20.5042ZM29.5185 34.6692V35.5484H28.6827V34.7143C27.8168 34.6992 26.9225 34.4936 26.1754 34.1075L26.5565 32.7335C27.3555 33.0444 28.4186 33.3737 29.2511 33.1848C30.2105 32.9675 30.4078 31.9796 29.3463 31.5049C28.569 31.1421 26.1887 30.8329 26.1887 28.7936C26.1887 27.6552 27.0579 26.6339 28.6827 26.4116V25.519H29.5185V26.3698C30.1236 26.3865 30.8023 26.4918 31.5595 26.7208L31.2569 28.0982C30.6151 27.8725 29.9063 27.6686 29.2143 27.7104C27.9706 27.7823 27.8603 28.8604 28.7295 29.3118C30.1604 29.9837 32.0259 30.4819 32.0259 32.2755C32.0275 33.7097 30.9026 34.4736 29.5185 34.6692ZM32.2331 17.6542C34.1254 17.2814 35.8471 16.6078 37.0406 15.6533V16.7432C37.0406 17.5773 36.3954 18.3395 35.3573 18.963C34.3861 18.3997 33.3381 17.9601 32.2331 17.6542ZM28.6827 7.9674C33.1508 7.9674 37.0406 6.28413 37.0406 4.20636C37.0406 2.12859 33.1508 0.445312 28.6827 0.445312C24.2163 0.445312 20.3248 2.12859 20.3248 4.20636C20.3248 6.28413 24.2163 7.9674 28.6827 7.9674ZM28.8382 4.60921C28.3384 4.45877 26.8089 4.33173 26.8089 3.48089C26.8089 3.00617 27.3672 2.58326 28.4102 2.48965V2.11689H28.9468V2.46959C29.338 2.47795 29.7726 2.51974 30.2573 2.62003L30.0634 3.19171C29.694 3.10646 29.2828 3.02623 28.88 3.02623L28.7596 3.0279C27.9539 3.06133 27.8887 3.50764 28.4454 3.69486C29.3597 3.97735 30.5632 4.18296 30.5632 4.93182C30.5632 5.52857 29.8378 5.84785 28.9468 5.92808V6.29583H28.4102V5.94814C27.862 5.94313 27.2803 5.85453 26.8022 5.69406L27.0479 5.12071C27.4558 5.22602 27.9706 5.33133 28.432 5.33133L28.7797 5.30793C29.3965 5.21933 29.5202 4.80645 28.8382 4.60921ZM10.2954 26.3547C12.7108 26.3547 14.934 25.8516 16.4886 25.071C17.0084 23.9176 17.6821 22.8494 18.4911 21.8966C17.7372 20.1532 14.247 18.8326 10.2954 18.8326C5.82893 18.8326 1.9375 20.5159 1.9375 22.5937C1.9375 24.6715 5.82893 26.3547 10.2954 26.3547ZM10.4508 22.9965C9.95103 22.8461 8.42154 22.7191 8.42154 21.8682C8.42154 21.3935 8.98152 20.9706 10.0229 20.877V20.5042H10.5595V20.8569C10.9506 20.8653 11.3852 20.9071 11.87 21.0074L11.6744 21.579C11.3067 21.4938 10.8955 21.4136 10.4926 21.4136L10.3723 21.4152C9.56657 21.4487 9.50305 21.895 10.058 22.0822C10.9724 22.3647 12.1759 22.5703 12.1759 23.3192C12.1759 23.9159 11.4504 24.2352 10.5595 24.3154V24.6832H10.0229V24.3355C9.47296 24.3305 8.89293 24.2419 8.41486 24.0814L8.66058 23.508C9.06844 23.6134 9.58329 23.7187 10.0446 23.7187L10.3923 23.6953C11.0075 23.6067 11.1328 23.1938 10.4508 22.9965ZM17.1422 37.2568C15.606 38.243 13.0635 38.8916 10.2954 38.8916C5.82893 38.8916 1.9375 37.2083 1.9375 35.1305V34.0406C3.85313 35.5752 7.13443 36.3842 10.2954 36.3842C12.3614 36.3842 14.4726 36.0315 16.2278 35.3629C16.4836 36.0215 16.7895 36.655 17.1422 37.2568ZM1.9375 30.9516V29.8634C3.85313 31.3962 7.13443 32.2053 10.2954 32.2053C12.0321 32.2053 13.7957 31.9528 15.3569 31.4781C15.4121 32.2621 15.5358 33.026 15.7213 33.7682C14.237 34.3482 12.338 34.7126 10.2954 34.7126C5.82893 34.7126 1.9375 33.0293 1.9375 30.9516ZM1.9375 26.7726V25.6828C3.85313 27.2173 7.13443 28.0263 10.2954 28.0263C12.1792 28.0263 14.0982 27.7321 15.7547 27.1755C15.5408 27.9996 15.4037 28.8504 15.3519 29.7263C13.9244 30.2244 12.1709 30.5337 10.2954 30.5337C5.82893 30.5337 1.9375 28.8504 1.9375 26.7726ZM20.3248 8.3853V7.29543C22.2405 8.82994 25.5218 9.63898 28.6827 9.63898C31.8453 9.63898 35.125 8.82994 37.0406 7.29543V8.3853C37.0406 10.4631 33.1508 12.1463 28.6827 12.1463C24.2163 12.1463 20.3248 10.4631 20.3248 8.3853ZM20.3248 16.7432V15.6533C21.5167 16.6078 23.2401 17.2814 25.1323 17.6542C24.0274 17.9601 22.981 18.3997 22.0098 18.963C20.9701 18.3395 20.3248 17.5773 20.3248 16.7432ZM20.3248 12.5642V11.476C22.2405 13.0089 25.5218 13.8179 28.6827 13.8179C31.8453 13.8179 35.125 13.0089 37.0406 11.476V12.5642C37.0406 14.642 33.1508 16.3253 28.6827 16.3253C24.2163 16.3253 20.3248 14.642 20.3248 12.5642Z" fill="#0E619D"/>
</g>
<defs>
<clipPath id="clip0_1482_30">
<rect width="40.1178" height="40.1178" fill="white" transform="translate(0.265625 0.445312)"/>
</clipPath>
</defs>
</svg>
