<svg width="41" height="42" viewBox="0 0 41 42" fill="none" xmlns="http://www.w3.org/2000/svg">
<g clip-path="url(#clip0_1482_42)">
<path fill-rule="evenodd" clip-rule="evenodd" d="M21.3365 4.27586H24.6798V7.6191H26.3514V39.3799H28.023V14.3056L38.0528 19.3205V39.3799H39.7244V41.0515H-0.394531V39.3799H1.27709V20.9921H12.9784V39.3799H14.6501V7.6191H16.3217V4.27586H19.6649V0.932617H21.3365V4.27586ZM34.7095 39.3799V36.0367H31.3663V39.3799H34.7095ZM9.6352 39.3799V36.0367H4.62033V39.3799H9.6352ZM23.0082 39.3799V36.0367H17.9933V39.3799H23.0082ZM19.6649 32.6934V10.9623H17.9933V32.6934H19.6649ZM34.7095 32.6934V31.0218H31.3663V32.6934H34.7095ZM4.62033 32.6934V29.3502H2.94871V32.6934H4.62033ZM11.3068 32.6934V29.3502H9.6352V32.6934H11.3068ZM7.96358 32.6934V29.3502H6.29195V32.6934H7.96358ZM23.0082 32.6934V10.9623H21.3365V32.6934H23.0082ZM34.7095 29.3502V27.6786H31.3663V29.3502H34.7095ZM4.62033 27.6786V24.3353H2.94871V27.6786H4.62033ZM7.96358 27.6786V24.3353H6.29195V27.6786H7.96358ZM11.3068 27.6786V24.3353H9.6352V27.6786H11.3068ZM34.7095 26.0069V24.3353H31.3663V26.0069H34.7095ZM34.7095 22.4313V20.7597H31.3663V22.4313H34.7095Z" fill="#0E619D"/>
</g>
<defs>
<clipPath id="clip0_1482_42">
<rect width="40.1189" height="40.1189" fill="white" transform="translate(0.273438 0.932617)"/>
</clipPath>
</defs>
</svg>
