<svg width="30" height="30" viewBox="0 0 30 30" fill="none" xmlns="http://www.w3.org/2000/svg">
<g clip-path="url(#clip0_3838_320)">
<path d="M25.4062 0.9375H4.59375C2.57446 0.9375 0.9375 2.57446 0.9375 4.59375V25.4062C0.9375 27.4255 2.57446 29.0625 4.59375 29.0625H25.4062C27.4255 29.0625 29.0625 27.4255 29.0625 25.4062V4.59375C29.0625 2.57446 27.4255 0.9375 25.4062 0.9375Z" stroke="#0E619D" stroke-width="2" stroke-miterlimit="10"/>
<path d="M9.375 11.25H20.625M9.375 11.25L12.1875 14.0625M9.375 11.25L12.1875 8.4375M5.625 8.4375V14.0625M20.625 18.75H9.375M20.625 18.75L17.8125 21.5625M20.625 18.75L17.8125 15.9375M24.375 15.9375V21.5625" stroke="#0E619D" stroke-width="2" stroke-miterlimit="10"/>
</g>
<defs>
<clipPath id="clip0_3838_320">
<rect width="30" height="30" fill="white"/>
</clipPath>
</defs>
</svg>
