<svg width="30" height="30" viewBox="0 0 30 30" fill="none" xmlns="http://www.w3.org/2000/svg">
<path d="M19.6875 16.875L15 12.0938M15 12.0938L10.3125 16.875M15 12.0938V28.125" stroke="#0E619D" stroke-width="2" stroke-linecap="round" stroke-linejoin="round"/>
<path d="M27.1875 7.5V1.875H2.8125V7.5M27.1875 7.5H2.8125M27.1875 7.5V20.625H18.75M2.8125 7.5V20.625H11.25" stroke="#0E619D" stroke-width="2" stroke-linecap="round" stroke-linejoin="round"/>
<path d="M5.625 5.15625C5.88388 5.15625 6.09375 4.94638 6.09375 4.6875C6.09375 4.42862 5.88388 4.21875 5.625 4.21875C5.36612 4.21875 5.15625 4.42862 5.15625 4.6875C5.15625 4.94638 5.36612 5.15625 5.625 5.15625Z" stroke="#0E619D" stroke-width="2" stroke-linecap="round" stroke-linejoin="round"/>
<path d="M8.90625 5.15625C9.16513 5.15625 9.375 4.94638 9.375 4.6875C9.375 4.42862 9.16513 4.21875 8.90625 4.21875C8.64737 4.21875 8.4375 4.42862 8.4375 4.6875C8.4375 4.94638 8.64737 5.15625 8.90625 5.15625Z" stroke="#0E619D" stroke-width="2" stroke-linecap="round" stroke-linejoin="round"/>
<path d="M12.1875 5.15625C12.4464 5.15625 12.6562 4.94638 12.6562 4.6875C12.6562 4.42862 12.4464 4.21875 12.1875 4.21875C11.9286 4.21875 11.7188 4.42862 11.7188 4.6875C11.7188 4.94638 11.9286 5.15625 12.1875 5.15625Z" stroke="#0E619D" stroke-width="2" stroke-linecap="round" stroke-linejoin="round"/>
</svg>
