<svg width="30" height="30" viewBox="0 0 30 30" fill="none" xmlns="http://www.w3.org/2000/svg">
<g clip-path="url(#clip0_3838_337)">
<path d="M11.25 7.5C13.0622 7.5 14.5312 6.03093 14.5312 4.21875C14.5312 2.40657 13.0622 0.9375 11.25 0.9375C9.43782 0.9375 7.96875 2.40657 7.96875 4.21875C7.96875 6.03093 9.43782 7.5 11.25 7.5Z" stroke="#0E619D" stroke-width="2" stroke-miterlimit="10"/>
<path d="M16.4063 10.3125H6.09375C5.72079 10.3125 5.3631 10.4607 5.09938 10.7244C4.83566 10.9881 4.6875 11.3458 4.6875 11.7188V19.2188C4.6875 19.5917 4.83566 19.9494 5.09938 20.2131C5.3631 20.4768 5.72079 20.625 6.09375 20.625H7.5V27.6562C7.5 28.0292 7.64816 28.3869 7.91188 28.6506C8.1756 28.9143 8.53329 29.0625 8.90625 29.0625H13.5938C13.9667 29.0625 14.3244 28.9143 14.5881 28.6506C14.8518 28.3869 15 28.0292 15 27.6562V20.625H16.4063C16.7792 20.625 17.1369 20.4768 17.4006 20.2131C17.6643 19.9494 17.8125 19.5917 17.8125 19.2188V11.7188C17.8125 11.3458 17.6643 10.9881 17.4006 10.7244C17.1369 10.4607 16.7792 10.3125 16.4063 10.3125Z" stroke="#0E619D" stroke-width="2" stroke-miterlimit="10"/>
<path d="M23.4384 16.8759V19.688M21.5634 19.688H25.3134V29.063H21.5634V19.688ZM11.25 10.3125L13.125 16.8759L11.25 18.7509L9.375 16.8759L11.25 10.3125Z" stroke="#0E619D" stroke-width="2" stroke-miterlimit="10"/>
</g>
<defs>
<clipPath id="clip0_3838_337">
<rect width="30" height="30" fill="white"/>
</clipPath>
</defs>
</svg>
