<svg width="30" height="30" viewBox="0 0 30 30" fill="none" xmlns="http://www.w3.org/2000/svg">
<g clip-path="url(#clip0_3838_347)">
<path d="M4.76531 16.3814C4.71351 15.9203 4.68753 15.4566 4.6875 14.9925C4.68898 12.5824 5.40503 10.2268 6.74511 8.22354C8.08519 6.2203 9.98914 4.65937 12.2162 3.73807C14.4433 2.81678 16.8936 2.5765 19.2573 3.0476C21.6209 3.5187 23.7918 4.68004 25.4955 6.38479C27.1992 8.08954 28.3592 10.2612 28.8289 12.6251C29.2985 14.989 29.0567 17.4392 28.1341 19.6657C27.2114 21.8922 25.6493 23.7952 23.6452 25.1341C21.6412 26.4729 19.2851 27.1875 16.875 27.1875" stroke="#0E619D" stroke-width="2" stroke-miterlimit="10"/>
<path d="M0.9375 10.7656L4.76531 16.3817L9.84375 11.7031" stroke="#0E619D" stroke-width="2" stroke-miterlimit="10"/>
<path d="M16.4023 7.96875V16.4062H22.0273" stroke="#0E619D" stroke-width="2" stroke-miterlimit="10"/>
</g>
<defs>
<clipPath id="clip0_3838_347">
<rect width="30" height="30" fill="white"/>
</clipPath>
</defs>
</svg>
