<svg width="30" height="30" viewBox="0 0 30 30" fill="none" xmlns="http://www.w3.org/2000/svg">
<g clip-path="url(#clip0_3838_332)">
<path d="M15 29.0625C22.7665 29.0625 29.0625 22.7665 29.0625 15C29.0625 7.2335 22.7665 0.9375 15 0.9375C7.2335 0.9375 0.9375 7.2335 0.9375 15C0.9375 22.7665 7.2335 29.0625 15 29.0625Z" stroke="#0E619D" stroke-width="2" stroke-miterlimit="10"/>
<path d="M15 24.375C20.1777 24.375 24.375 20.1777 24.375 15C24.375 9.82233 20.1777 5.625 15 5.625C9.82233 5.625 5.625 9.82233 5.625 15C5.625 20.1777 9.82233 24.375 15 24.375Z" stroke="#0E619D" stroke-width="2" stroke-miterlimit="10"/>
<path d="M15 19.6875C17.5888 19.6875 19.6875 17.5888 19.6875 15C19.6875 12.4112 17.5888 10.3125 15 10.3125C12.4112 10.3125 10.3125 12.4112 10.3125 15C10.3125 17.5888 12.4112 19.6875 15 19.6875Z" stroke="#0E619D" stroke-width="2" stroke-miterlimit="10"/>
<path d="M15 15.9375C15.5178 15.9375 15.9375 15.5178 15.9375 15C15.9375 14.4822 15.5178 14.0625 15 14.0625C14.4822 14.0625 14.0625 14.4822 14.0625 15C14.0625 15.5178 14.4822 15.9375 15 15.9375Z" stroke="#0E619D" stroke-width="2" stroke-miterlimit="10"/>
</g>
<defs>
<clipPath id="clip0_3838_332">
<rect width="30" height="30" fill="white"/>
</clipPath>
</defs>
</svg>
