<svg width="50" height="50" viewBox="0 0 50 50" fill="none" xmlns="http://www.w3.org/2000/svg">
<g clip-path="url(#clip0_3455_171)">
<path fill-rule="evenodd" clip-rule="evenodd" d="M35.0729 0C31.6229 0 28.8229 2.8 28.8229 6.24792C28.8229 9.69583 31.6229 12.4958 35.0729 12.4958C38.5208 12.4958 41.3229 9.69583 41.3229 6.24792C41.3229 2.8 38.5208 0 35.0729 0ZM35.0729 2.08333C37.3708 2.08333 39.2396 3.95 39.2396 6.24792C39.2396 8.54583 37.3708 10.4146 35.0729 10.4146C32.775 10.4146 30.9062 8.54583 30.9062 6.24792C30.9062 3.95 32.775 2.08333 35.0729 2.08333ZM14.9292 0C11.4792 0 8.67917 2.8 8.67917 6.24792C8.67917 9.69583 11.4792 12.4958 14.9292 12.4958C18.3771 12.4958 21.1792 9.69583 21.1792 6.24792C21.1792 2.8 18.3771 0 14.9292 0ZM14.9292 2.08333C17.2271 2.08333 19.0958 3.95 19.0958 6.24792C19.0958 8.54583 17.2271 10.4146 14.9292 10.4146C12.6312 10.4146 10.7625 8.54583 10.7625 6.24792C10.7625 3.95 12.6312 2.08333 14.9292 2.08333ZM35.0292 32.975C36.475 32.975 37.5937 34.0667 37.6896 35.5687C37.7937 37.1125 38.0479 40.1542 38.2729 42.8375L38.5979 46.7875C38.6396 47.3104 38.9396 47.9167 39.6562 47.9167C40.4979 47.9167 40.6042 47.0312 40.6146 46.7583L41.5979 22.9104C41.6437 21.8437 43.0583 21.5458 43.55 22.4479L46.9771 28.65C47.2229 29.0979 47.9167 28.9104 47.9167 28.4062L44.5833 16.5833C44.3896 15.8854 43.7458 15.4021 43.0229 15.4021H6.975C6.25417 15.4021 5.61042 15.8854 5.41458 16.5812L2.10208 28.2687C2.05625 29.1062 2.86042 28.9479 3.02292 28.65L6.45 22.4479C6.95833 21.5333 8.35833 21.8583 8.40208 22.9104L9.38333 46.7604C9.40625 47.2937 9.6875 47.9167 10.4042 47.9167C11.0896 47.9167 11.4396 47.3521 11.4833 46.7896L11.8167 42.7479C12.0396 40.0875 12.2896 37.0979 12.3937 35.5646C12.4917 34.0667 13.6104 32.975 15.0542 32.975C16.2708 32.975 17.5917 33.9437 17.7 35.5667C17.8021 37.0958 18.0521 40.0854 18.275 42.7458L18.6083 46.7875C18.6479 47.3104 18.9437 47.9167 19.6479 47.9167C20.4437 47.9167 20.5625 47.1062 20.5771 46.7583C20.8312 40.6 21.8875 21.1542 21.9 20.9583C21.9292 20.4042 22.3854 19.9729 22.9396 19.9729H27.0292C27.5833 19.9729 28.0396 20.4062 28.0687 20.9604C28.0812 21.1562 29.0979 40.6 29.3542 46.7604C29.3792 47.3354 29.7167 47.9167 30.4146 47.9167C31.1312 47.9167 31.4354 47.3104 31.4729 46.7896L31.8167 42.6604C32.0354 40.0229 32.2812 37.0792 32.3833 35.5646C32.4917 33.9437 33.8146 32.975 35.0292 32.975ZM39.6583 50C37.9771 50 36.6583 48.7167 36.5208 46.9479C36.4479 46 36.3292 44.5667 36.1979 43.0125C35.9729 40.3167 35.7167 37.2604 35.6104 35.7062C35.5792 35.225 35.2896 35.0583 35.0292 35.0583C34.8646 35.0583 34.4958 35.2208 34.4625 35.7042C34.3604 37.2271 34.1125 40.1833 33.8917 42.8333C33.7542 44.4562 33.6292 45.9625 33.5521 46.95C33.4167 48.7167 32.0979 50 30.4187 50C28.6979 50 27.3479 48.6458 27.2708 46.8479C27.05 41.5 26.2521 26.1104 26.0396 22.0562H23.925C23.7062 26.1062 22.8792 41.5 22.6583 46.8458C22.5792 48.7042 21.3438 50 19.65 50C17.9771 50 16.6667 48.7167 16.5312 46.9479L16.1979 42.9187C15.975 40.2458 15.7229 37.2437 15.6208 35.7062C15.5875 35.2208 15.2167 35.0583 15.0542 35.0583C14.7937 35.0583 14.5021 35.2271 14.4729 35.7021C14.3687 37.2437 14.1167 40.2479 13.8938 42.9208L13.5604 46.95C13.425 48.7167 12.0979 50 10.4083 50C8.68542 50 7.38125 48.6729 7.30208 46.8479L6.47292 26.7125L4.84792 29.6562C4.175 30.8729 2.58125 31.2833 1.57083 30.7771C0.6125 30.3708 0 29.45 0 28.4062C0 28.1667 0.0333333 27.9292 0.0979167 27.7L3.41042 16.0146C3.85833 14.4271 5.325 13.3187 6.975 13.3187H43.0229C44.675 13.3187 46.1417 14.4292 46.5896 16.0146L49.9021 27.7021C49.9667 27.9292 50 28.1667 50 28.4062C50 29.4542 49.3812 30.3792 48.4187 30.7812L48.3417 30.8167C47.1625 31.2708 45.7625 30.7583 45.1542 29.6542L43.5271 26.7125L42.6979 46.8458C42.6188 48.7042 41.3687 50 39.6583 50Z" fill="#0E619D" stroke="#0E619D" stroke-width="0.5"/>
</g>
<defs>
<clipPath id="clip0_3455_171">
<rect width="50" height="50" fill="white"/>
</clipPath>
</defs>
</svg>
