<svg width="50" height="50" viewBox="0 0 50 50" fill="none" xmlns="http://www.w3.org/2000/svg">
<g clip-path="url(#clip0_3455_173)">
<path fill-rule="evenodd" clip-rule="evenodd" d="M45.8333 43.75C46.9375 43.75 47.9979 44.1896 48.7792 44.9708C49.5625 45.7521 50 46.8125 50 47.9167V50H37.5V47.9167C37.5 45.6167 39.3667 43.75 41.6667 43.75H45.8333ZM31.25 43.75C32.3542 43.75 33.4146 44.1896 34.1958 44.9708C34.9792 45.7521 35.4167 46.8125 35.4167 47.9167V50H22.9167V47.9167C22.9167 45.6167 24.7833 43.75 27.0833 43.75H31.25ZM45.8333 45.8333H41.6667C40.5187 45.8333 39.5833 46.7667 39.5833 47.9167H47.9167C47.9167 46.7417 46.9562 45.8333 45.8333 45.8333ZM31.25 45.8333H27.0833C25.9354 45.8333 25 46.7667 25 47.9167H33.3333C33.3333 46.7417 32.3729 45.8333 31.25 45.8333ZM17.1708 43.3C17.1187 44.7146 15.9708 45.8208 14.5542 45.8208C13.2208 45.8208 12.0979 44.7854 11.9417 43.4125L11.0958 35.0083L10.4354 43.3812C10.3292 44.7479 9.17708 45.8208 7.81667 45.8208C6.39792 45.8208 5.24375 44.7146 5.1875 43.3L4.64167 29.85L4 31.0063C3.49792 31.9167 2.33333 32.3354 1.36458 31.9625C0.522917 31.6375 0 30.8417 0 29.9812C0 29.7875 0.025 29.5896 0.08125 29.3917L2.44375 20.8542C2.79792 19.6021 3.95417 18.7271 5.25833 18.7271H13.7917C14.8562 18.7271 15.9 18.3563 16.4688 18.0396C17.975 17.2 21.55 15.1875 23.0021 14.3042C23.8229 13.7979 24.9792 13.9979 25.5854 14.7562C26.2521 15.5813 26.1812 16.7354 25.4312 17.4583L19.0812 23.5125C18.3 24.2604 17.8417 25.2812 17.7958 26.3896C17.6687 29.3 17.1708 43.3 17.1708 43.3ZM5.25833 20.8104C4.88333 20.8104 4.55 21.0625 4.44792 21.4229C3.83333 23.5896 2.34167 29.0604 2.08542 29.9604L5.23333 24.5583C5.59167 23.9437 6.53125 24.1833 6.55833 24.8875L7.26875 43.2146C7.28958 43.7937 8.31042 43.8125 8.35833 43.2188C8.35833 43.2188 8.91875 36.2396 9 35.0021C9.08542 33.7542 9.93542 32.8833 11.0667 32.8833C12.2062 32.8875 13.0833 33.7479 13.2104 34.975C13.2854 35.7021 13.8917 42.0979 14.0125 43.1792C14.1021 43.9667 15.0646 43.8583 15.0896 43.225C15.0896 43.225 15.5875 29.2146 15.7146 26.3C15.7833 24.6521 16.4688 23.1271 17.6417 22.0062L23.9854 15.9562C22.6083 16.9812 19 19.0146 17.4833 19.8583C16.6583 20.3187 15.2542 20.8104 13.7917 20.8104H5.25833ZM43.75 33.3333C41.0312 33.3333 38.825 35.5417 38.825 38.2583C38.825 40.9771 41.0312 43.1854 43.75 43.1854C46.4688 43.1854 48.675 40.9771 48.675 38.2583C48.675 35.5417 46.4688 33.3333 43.75 33.3333ZM29.1667 33.3333C26.4479 33.3333 24.2417 35.5417 24.2417 38.2583C24.2417 40.9771 26.4479 43.1854 29.1667 43.1854C31.8854 43.1854 34.0917 40.9771 34.0917 38.2583C34.0917 35.5417 31.8854 33.3333 29.1667 33.3333ZM43.75 35.4167C45.3167 35.4167 46.5917 36.6917 46.5917 38.2583C46.5917 39.8271 45.3167 41.1021 43.75 41.1021C42.1833 41.1021 40.9083 39.8271 40.9083 38.2583C40.9083 36.6917 42.1833 35.4167 43.75 35.4167ZM29.1667 35.4167C30.7333 35.4167 32.0083 36.6917 32.0083 38.2583C32.0083 39.8271 30.7333 41.1021 29.1667 41.1021C27.6 41.1021 26.325 39.8271 26.325 38.2583C26.325 36.6917 27.6 35.4167 29.1667 35.4167ZM50 31.25H19.4625V29.1667H35.4167V27.0833H41.6667V29.1667H47.9167V2.08333H2.08333V16.6667L0 22.9167V0H50V31.25ZM37.5 18.75H29.1667V16.6667H37.5V18.75ZM10.9854 8.33333C8.32292 8.33333 6.1625 10.4958 6.1625 13.1583C6.1625 15.8208 8.32292 17.9833 10.9854 17.9833C13.6479 17.9833 15.8104 15.8208 15.8104 13.1583C15.8104 10.4958 13.6479 8.33333 10.9854 8.33333ZM10.9854 10.4167C12.4979 10.4167 13.7271 11.6458 13.7271 13.1583C13.7271 14.6708 12.4979 15.9 10.9854 15.9C9.475 15.9 8.24583 14.6708 8.24583 13.1583C8.24583 11.6458 9.475 10.4167 10.9854 10.4167ZM43.75 14.5833H29.1667V12.5H43.75V14.5833ZM43.75 10.4167H29.1667V8.33333H43.75V10.4167Z" fill="#0E619D" stroke="#0E619D" stroke-width="0.5"/>
</g>
<defs>
<clipPath id="clip0_3455_173">
<rect width="50" height="50" fill="white"/>
</clipPath>
</defs>
</svg>
