<svg width="50" height="50" viewBox="0 0 50 50" fill="none" xmlns="http://www.w3.org/2000/svg">
<path d="M41.6641 41.667H9.89323C9.03073 41.667 8.33073 42.367 8.33073 43.2295C8.33073 44.092 9.03073 44.792 9.89323 44.792H42.7057C43.8099 44.792 44.7891 43.8128 44.7891 42.7087V9.89616C44.7891 9.03366 44.0891 8.33366 43.2266 8.33366C42.3641 8.33366 41.6641 9.03366 41.6641 9.89616V41.667ZM39.5807 6.25033C39.5807 5.25449 38.7911 4.16699 37.4974 4.16699H6.2474C4.95573 4.16699 4.16406 5.24824 4.16406 6.25033V37.5003C4.16406 38.7941 5.2474 39.5837 6.2474 39.5837H37.4974C38.4932 39.5837 39.5807 38.7941 39.5807 37.5003V6.25033ZM7.28906 7.29199H36.4557V36.4587H7.28906V7.29199ZM13.0161 23.5545L19.1078 28.7712C19.4036 29.0357 19.7766 29.167 20.1453 29.167C20.5682 29.167 20.9891 28.9962 21.2974 28.6607L31.6161 17.1857C31.8891 16.8857 32.0245 16.5107 32.0245 16.1378C32.0245 15.2837 31.3349 14.5837 30.4661 14.5837C30.0411 14.5837 29.6224 14.7545 29.312 15.0899L20.0349 25.4274L15.0953 21.2378C14.7953 20.9712 14.4266 20.842 14.0557 20.842C13.1911 20.842 12.4974 21.5399 12.4974 22.3962C12.4974 22.8232 12.6724 23.2482 13.0161 23.5545Z" fill="#0E619D"/>
</svg>
