<svg width="50" height="50" viewBox="0 0 50 50" fill="none" xmlns="http://www.w3.org/2000/svg">
<g clip-path="url(#clip0_3455_62)">
<path fill-rule="evenodd" clip-rule="evenodd" d="M14.5682 31.3037V27.485C14.5599 24.787 14.2182 21.9433 19.7807 20.6766C21.8849 20.1995 24.7703 19.5433 25.2432 18.4975C25.2932 18.3912 25.4411 18.062 25.0224 17.285C22.0411 11.7891 21.4849 6.94121 23.4516 3.63496C24.8057 1.35996 27.2724 0.0537109 30.2182 0.0537109C33.1411 0.0537109 35.5911 1.34121 36.9432 3.58288C38.9078 6.84954 38.3682 11.712 35.4203 17.2766C35.0078 18.06 35.1599 18.3912 35.2099 18.4995C35.6911 19.5454 38.4828 20.1829 40.7245 20.6933C46.4953 22.0079 45.7578 25.3516 45.8307 27.5245V35.7704C45.8307 36.7912 45.412 37.8058 44.562 38.5954C41.6912 41.262 35.2849 46.9829 34.2807 47.9016C32.7203 49.3329 31.1182 49.9975 29.237 49.9975C28.3932 49.9975 27.5036 49.862 26.512 49.5808C20.7349 47.9495 17.1703 47.4225 14.5807 47.2787V50.0537H4.16406V31.3037H14.5682ZM12.4974 33.387H6.2474V47.9704H12.4974V33.387ZM14.5807 45.187C18.9391 45.4329 23.7578 46.637 27.0786 47.5766C28.7807 48.0579 30.7474 48.3141 32.8745 46.3662C35.5391 43.9245 38.5453 41.3391 43.1432 37.0683C44.8599 35.4745 42.7724 33.3537 41.0141 34.7495C41.0141 34.7495 34.8453 39.5391 33.3286 40.6725C32.5391 41.2662 31.8807 41.7537 30.937 41.7537C30.187 41.7537 26.287 40.7808 24.4703 40.2058C23.2724 39.8245 23.6974 38.137 25.0286 38.4183C25.9599 38.612 28.3495 39.1475 29.6141 39.5016C31.7328 40.087 32.2724 37.6954 30.4932 37.1016C29.3224 36.7058 29.3745 36.6891 26.5578 35.7162C23.8474 34.7766 21.9453 34.1475 19.0891 35.3912C17.7578 35.9704 16.1057 36.6745 14.5807 37.087V45.187ZM43.7599 32.5495V27.5037C43.7766 23.6329 43.1995 23.3954 40.262 22.7245C37.1578 22.0162 34.2245 21.3495 33.3161 19.3683C32.8974 18.4558 32.987 17.4245 33.5786 16.3016C36.1703 11.4079 36.7307 7.27246 35.1557 4.65579C34.1786 3.03288 32.4266 2.13704 30.2182 2.13704C27.9932 2.13704 26.2266 3.04746 25.2411 4.69954C23.6641 7.34954 24.237 11.4662 26.8536 16.2933C27.4599 17.412 27.5578 18.4433 27.1411 19.3579C26.2411 21.3475 23.1891 22.0391 20.2411 22.7079C17.3203 23.3766 16.6495 23.5725 16.6641 27.4933V34.16L18.2578 33.4829C19.5953 32.8995 20.8807 32.6141 22.1891 32.6141C24.7182 32.6141 26.7828 33.6537 31.1536 35.1245C32.487 35.5704 33.3953 36.6162 33.6016 37.8454C35.9432 36.0475 39.6849 33.1433 39.7203 33.1162C40.4641 32.5245 41.3307 32.212 42.2203 32.212C42.7661 32.212 43.2891 32.3329 43.7599 32.5495Z" fill="#0E619D"/>
</g>
<defs>
<clipPath id="clip0_3455_62">
<rect width="50" height="50" fill="white"/>
</clipPath>
</defs>
</svg>
