<svg width="50" height="50" viewBox="0 0 50 50" fill="none" xmlns="http://www.w3.org/2000/svg">
<path fill-rule="evenodd" clip-rule="evenodd" d="M25 0C17.9771 5.97083 13.575 6.25 6.25 6.25V30.2812C6.25 39.8708 12.9229 42.3729 25 50C37.0771 42.3729 43.75 39.8708 43.75 30.2812V6.25C36.425 6.25 32.0229 5.97083 25 0ZM25 2.69167C31.1292 7.50417 35.6667 8.22292 41.6667 8.31875V30.2812C41.6667 38.3875 36.1708 40.5792 25 47.5396C13.8021 40.5604 8.33333 38.3437 8.33333 30.2812V8.31875C14.3333 8.22292 18.8708 7.50417 25 2.69167ZM35.4167 18.8146L22.9333 32.6125L15.2833 24.4229L16.7437 23L23.0104 29.6333L33.9 17.3875L35.4167 18.8146Z" fill="#0E619D"/>
</svg>
