<svg width="50" height="50" viewBox="0 0 50 50" fill="none" xmlns="http://www.w3.org/2000/svg">
<g clip-path="url(#clip0_3455_50)">
<path fill-rule="evenodd" clip-rule="evenodd" d="M25 4.16667H29.1667V8.33333H33.3333V16.0458L47.9167 21.5V47.9167H50V50H0V47.9167H2.08333V25H14.5833V8.33333H18.75V4.16667H22.9167V0H25V4.16667ZM31.25 10.4167H16.6667V47.9167H18.75V43.75H29.1667V47.9167H31.25V10.4167ZM27.0833 45.8333H20.8333V47.9167H27.0833V45.8333ZM43.75 47.9167H45.8333V22.9437L33.3333 18.2708V47.9167H35.4167V43.75H43.75V47.9167ZM14.5833 27.0833H4.16667V47.9167H6.25V43.75H12.5V47.9167H14.5833V27.0833ZM10.4167 45.8333H8.33333V47.9167H10.4167V45.8333ZM41.6667 45.8333H37.5V47.9167H41.6667V45.8333ZM8.33333 35.4167V39.5833H6.25V35.4167H8.33333ZM12.5 35.4167V39.5833H10.4167V35.4167H12.5ZM22.9167 14.5833V39.5833H20.8333V14.5833H22.9167ZM43.75 37.5V39.5833H35.4167V37.5H43.75ZM27.0833 14.5833V39.5833H25V14.5833H27.0833ZM43.75 33.3333V35.4167H35.4167V33.3333H43.75ZM8.33333 29.1667V33.3333H6.25V29.1667H8.33333ZM12.5 29.1667V33.3333H10.4167V29.1667H12.5ZM43.75 29.1667V31.25H35.4167V29.1667H43.75ZM43.75 25V27.0833H35.4167V25H43.75ZM27.0833 6.25H20.8333V8.33333H27.0833V6.25Z" fill="#0E619D"/>
</g>
<defs>
<clipPath id="clip0_3455_50">
<rect width="50" height="50" fill="white"/>
</clipPath>
</defs>
</svg>
